<?xml version="1.0" encoding="UTF-8"?>
<svg version="1.1" xmlns="http://www.w3.org/2000/svg" width="500" height="500">
<path d="M0 0 C7.79792646 7.43523221 9.4117688 18.44645899 11.6875 28.5625 C12.19976068 30.81446722 12.71965644 33.06472264 13.25 35.3125 C13.45753906 36.23546875 13.66507812 37.1584375 13.87890625 38.109375 C14.76494244 40.79744615 15.75584444 42.49860396 17.6875 44.5625 C20.6875 45.3125 20.6875 45.3125 23.6875 44.5625 C26.94200971 40.52241898 27.70970812 36.27643569 28.1171875 31.2265625 C28.19066406 30.40929687 28.26414062 29.59203125 28.33984375 28.75 C28.48755025 27.05007962 28.62824804 25.34953481 28.76171875 23.6484375 C29.32097297 17.61986661 30.35596121 13.02331222 34.66015625 8.48046875 C35.34980469 7.90941406 36.03945313 7.33835938 36.75 6.75 C37.78833984 5.87408203 37.78833984 5.87408203 38.84765625 4.98046875 C42.29660565 2.32236125 44.98018561 2.16098741 49.2421875 2.22265625 C54.89971133 3.00892554 59.09121843 6.43849622 62.5 10.875 C67.19219046 17.59990835 68.25012454 25.0486031 68.875 33 C68.95685547 33.89009766 69.03871094 34.78019531 69.12304688 35.69726562 C69.61339049 41.33827746 69.76236902 46.90125008 69.6875 52.5625 C67.47454384 53.66897808 66.14077301 53.75838368 63.6875 53.8125 C62.98625 53.83828125 62.285 53.8640625 61.5625 53.890625 C60.94375 53.78234375 60.325 53.6740625 59.6875 53.5625 C57.29666538 49.97624807 57.32764258 47.21428413 57.1875 43.0625 C56.82401247 31.30276752 56.82401247 31.30276752 52.875 20.4375 C50.37003627 18.29038824 48.99123498 17.5625 45.6875 17.5625 C42.63719261 19.37008956 42.05087025 22.11878163 41.14477539 25.40917969 C40.05979089 30.51839661 39.90760873 35.79848351 39.56445312 41 C39.17565501 45.88974922 38.87782513 49.60807231 35.6875 53.5625 C29.44079116 58.16533809 22.1812879 58.14308041 14.6875 57.5625 C10.64603367 56.68746692 8.20450859 55.22583178 5.6171875 51.90625 C3.53379042 48.29615304 2.64402886 45.24976936 1.75 41.1875 C0.3846091 35.28562213 -1.14594491 29.47519438 -2.9375 23.6875 C-3.14366943 23.00381348 -3.34983887 22.32012695 -3.56225586 21.61572266 C-4.48496737 18.67128098 -5.09818668 16.77681332 -7.3125 14.5625 C-10.70847063 14.34573592 -13.07028445 14.48176148 -16.3125 15.5625 C-17.39992694 17.77683941 -17.39992694 17.77683941 -18.3125 20.5625 C-18.8075 21.614375 -19.3025 22.66625 -19.8125 23.75 C-22.48033716 29.98842731 -23.28292363 36.45902865 -23.5625 43.1875 C-24.00716387 48.88728238 -26.14777647 52.6708731 -30.3125 56.5625 C-35.71344869 60.32343459 -44.03875909 59.06946896 -50.3125 58.5625 C-55.65044267 57.05208535 -59.29147336 53.09127851 -62.3125 48.5625 C-63.56233164 45.69330928 -64.43888297 42.75206008 -65.3125 39.75 C-68.58590369 28.19553296 -68.58590369 28.19553296 -76.3125 19.5625 C-79.95189932 19.87980524 -79.95189932 19.87980524 -83.3125 20.5625 C-83.580625 21.243125 -83.84875 21.92375 -84.125 22.625 C-84.95520331 24.67866082 -85.86062948 26.70277972 -86.8203125 28.69921875 C-88.59681118 32.84112569 -89.00716054 36.85375348 -89.375 41.3125 C-89.52695244 42.89872731 -89.68189833 44.48467072 -89.83984375 46.0703125 C-89.95368408 47.21741699 -89.95368408 47.21741699 -90.06982422 48.38769531 C-90.5647433 52.82304664 -91.4081935 57.19489201 -92.3125 61.5625 C-96.24920488 62.87473496 -98.43738144 61.80546256 -102.3125 60.5625 C-101.01277545 21.32244204 -101.01277545 21.32244204 -93.484375 12.39453125 C-89.20979427 8.4380968 -85.19471663 5.60531857 -79.1875 5.5390625 C-73.88181749 5.87962996 -69.37972468 7.02533969 -65.3125 10.5625 C-63.31456576 13.07243967 -61.8050963 15.72918563 -60.3125 18.5625 C-59.97605469 19.14644531 -59.63960937 19.73039062 -59.29296875 20.33203125 C-56.54257403 25.36163754 -54.83301503 30.73593371 -53.15039062 36.19555664 C-51.9533315 39.99562676 -50.59141944 43.28426829 -48.3125 46.5625 C-45.66009366 47.93443432 -44.28509381 47.55698995 -41.33984375 46.96484375 C-38.10263736 45.82651575 -38.10263736 45.82651575 -36.7734375 42.7890625 C-36.41507812 41.60054688 -36.05671875 40.41203125 -35.6875 39.1875 C-35.48568115 38.53773193 -35.2838623 37.88796387 -35.07592773 37.21850586 C-33.92060136 33.3177412 -33.05877912 29.40260916 -32.32421875 25.40234375 C-32.16324707 24.52690918 -32.00227539 23.65147461 -31.83642578 22.74951172 C-31.53637858 21.04289406 -31.25873351 19.33213358 -31.00732422 17.61767578 C-29.820074 10.58615455 -26.8602067 5.4381084 -21.28149414 0.91625977 C-14.62761542 -3.65853968 -7.16147377 -3.10780937 0 0 Z " fill="#5271FF" transform="translate(253.3125,221.4375)"/>
<path d="M0 0 C0.25 2.3125 0.25 2.3125 0 5 C-1.75 6.875 -1.75 6.875 -4 8 C-6.25 7.6875 -6.25 7.6875 -8 7 C-8 5.02 -8 3.04 -8 1 C-4.93251126 -0.86240388 -3.40254489 -1.2151946 0 0 Z " fill="#5271FF" transform="translate(338,265)"/>
</svg>
