<svg width="500" height="500" viewBox="0 0 500 500" fill="none" xmlns="http://www.w3.org/2000/svg">
<rect width="500" height="500" fill="#E1E2CF"/>
<rect x="25" y="25" width="450" height="450" rx="20" stroke="#9C9F60" stroke-width="10"/>
<path fill-rule="evenodd" clip-rule="evenodd" d="M246.434 81.5577C236.768 81.4131 220.746 83.2966 203.83 89.3773C186.898 95.4636 168.962 105.796 155.636 122.629C150.864 128.656 148.742 133.476 148.365 139.705C148.131 143.562 148.573 147.952 149.368 153.471C131.079 161.611 97.0473 190.883 98.0763 247.134C98.403 264.993 102.935 276.791 110.394 283.622C117.887 290.484 127.962 292.001 138.584 290.126C159.644 286.408 183.854 269.229 198.165 250.95C235.75 225.144 268.64 211.475 295.727 201.197C299.323 199.832 302.824 198.525 306.224 197.256C315.632 193.742 324.269 190.517 332.013 187.166C342.571 182.597 351.623 177.731 358.912 171.436C370.437 161.483 373.089 153.119 370.481 146.51C369.223 143.321 366.82 140.818 364.145 138.941C361.818 137.309 359.214 136.099 356.785 135.287C346.968 123.643 332.526 117.913 318.639 115.425C305.033 112.987 291.748 113.621 283.356 115.006L280.777 103.106L280.773 103.09C278.67 94.2326 275.207 88.6557 269.419 85.4301C263.784 82.29 256.226 81.5583 246.434 81.5577Z" fill="#EBF0FD"/>
<path d="M172.217 160.076L152.438 158.356L156.307 179.21L175.657 180.5L172.217 160.076Z" fill="#3F4C6F"/>
<path fill-rule="evenodd" clip-rule="evenodd" d="M250.651 98.372C242.373 95.8353 220.602 95.8221 202.159 117.618C182.914 140.362 165.292 139.897 158.311 136.075C157.478 135.619 157.173 134.573 157.629 133.74C158.085 132.907 159.13 132.602 159.964 133.058C165.023 135.828 180.939 137.371 199.533 115.396C218.929 92.4732 242.163 92.1734 251.658 95.0831C252.567 95.3615 253.077 96.3233 252.799 97.2315C252.521 98.1397 251.559 98.6504 250.651 98.372ZM268.696 115.963C268.996 116.864 268.509 117.838 267.608 118.139C261.528 120.165 257.383 126.316 253.326 133.751C252.644 135 251.962 136.291 251.275 137.59C249.983 140.033 248.674 142.508 247.321 144.801C245.235 148.337 242.924 151.66 240.127 154.141C238.207 155.844 236.035 157.173 233.529 157.894C231.217 158.56 228.689 158.689 225.911 158.188C224.526 157.939 223.261 157.578 222.111 157.111C218.488 155.641 216.122 153.166 214.761 150.13C213.422 147.143 213.093 143.702 213.332 140.27C213.808 133.423 216.584 126.131 219.1 121.302C219.539 120.46 220.578 120.133 221.42 120.571C222.263 121.01 222.59 122.049 222.151 122.892C219.759 127.482 217.195 134.301 216.763 140.509C216.548 143.605 216.871 146.427 217.9 148.723C218.907 150.969 220.623 152.795 223.405 153.924C224.313 154.293 225.346 154.592 226.52 154.803C228.824 155.218 230.814 155.096 232.577 154.588C234.495 154.036 236.226 153.003 237.844 151.568C240.239 149.444 242.333 146.487 244.359 143.053C245.675 140.822 246.912 138.482 248.176 136.09C248.872 134.773 249.576 133.441 250.306 132.103C254.29 124.802 258.993 117.384 266.52 114.875C267.421 114.575 268.395 115.062 268.696 115.963Z" fill="black"/>
<path d="M196.726 182.22L176.947 180.5L178.774 201.892L200.166 202.644L196.726 182.22Z" fill="#3F4C6F"/>
<path d="M242.949 197.484L224.048 199.172L225.875 220.564L247.267 221.316L242.949 197.484Z" fill="#A5B7DF"/>
<path d="M238.22 176.2L218.906 178.503L222.775 199.357L241.23 197.269L238.22 176.2Z" fill="#3F4C6F"/>
<path d="M255.419 149.756L234.256 152.564L238.65 174.91L259.074 170.18L255.419 149.756Z" fill="#7C8EBE"/>
<path d="M235.64 154.701L216.15 156.303L220.543 178.648L238.435 175.125L235.64 154.701Z" fill="#EBF0FD"/>
<path d="M276.058 163.086L259.412 169.786L263.805 192.132L284.23 187.402L276.058 163.086Z" fill="#7C8EBE"/>
<path d="M221.88 200.279L200.599 201.509L204.251 222.424L225.416 219.125L221.88 200.279Z" fill="#7C8EBE"/>
<path d="M178.881 202.107L158.707 201.144L161.682 217.479L181.676 221.134L178.881 202.107Z" fill="#7C8EBE"/>
<path d="M272.607 143.613L255.837 148.681L257.999 168.675L276.261 164.037L272.607 143.613Z" fill="#3F4C6F"/>
<path d="M356.071 135.632C302.739 120.077 229.225 211.525 197.836 248.718C273.514 196.69 330.272 193.68 358.651 169.171C381.354 149.564 366.391 138.642 356.071 135.632Z" fill="#A5B7DF"/>
<path fill-rule="evenodd" clip-rule="evenodd" d="M246.438 81.678C236.772 81.5335 220.749 83.4169 203.833 89.4977C186.902 95.584 168.965 105.916 155.639 122.749C150.867 128.776 148.746 133.596 148.368 139.825C148.036 145.309 149.069 151.871 150.541 161.223C150.686 162.145 150.836 163.093 150.988 164.071C154.431 186.103 158.447 209.107 160.025 217.859L160.207 218.868L161.181 219.188C170.577 222.271 195.761 227.049 222.248 221.821L222.813 221.71L223.197 221.281C230.558 213.062 242.809 199.953 255.618 187.359C268.459 174.732 281.748 162.737 291.213 156.652L292.217 156.007L280.781 103.226L280.777 103.21C278.673 94.353 275.211 88.7761 269.422 85.5505C263.788 82.4104 256.23 81.6787 246.438 81.678ZM204.997 92.7348C188.475 98.6738 171.153 108.695 158.336 124.884C153.874 130.52 152.126 134.687 151.802 140.033C151.494 145.122 152.463 151.291 153.965 160.851C154.102 161.719 154.242 162.614 154.387 163.54C157.698 184.728 161.541 206.824 163.226 216.226C172.814 219.143 196.309 223.301 221.02 218.556C228.459 210.27 240.558 197.341 253.206 184.906C265.609 172.71 278.647 160.881 288.352 154.414L277.426 103.988C275.445 95.6563 272.373 91.1327 267.748 88.5553C262.969 85.8919 256.234 85.1179 246.425 85.1179H246.412L246.399 85.1177C237.144 84.9775 221.526 86.793 204.997 92.7348Z" fill="black"/>
<path fill-rule="evenodd" clip-rule="evenodd" d="M198.169 251.07C235.754 225.265 268.643 211.596 295.731 201.317C299.326 199.953 302.827 198.646 306.227 197.376C315.636 193.863 324.272 190.638 332.016 187.286C342.574 182.717 351.627 177.851 358.915 171.557C370.44 161.604 373.092 153.24 370.484 146.631C369.226 143.442 366.824 140.939 364.148 139.061C361.468 137.181 358.419 135.86 355.693 135.065C341.803 131.014 326.756 133.975 311.672 141.036C296.581 148.101 281.271 159.353 266.727 172.189C240.372 195.449 216.29 224.133 200.347 243.122C198.696 245.088 197.132 246.951 195.662 248.693L195.64 248.719L195.619 248.746C181.688 266.643 158.06 283.315 137.99 286.859C128.006 288.621 119.159 287.103 112.72 281.206C106.247 275.277 101.837 264.591 101.519 247.191C100.502 191.585 134.695 163.443 151.631 156.363L150.304 153.189C132.268 160.729 97.0329 190.032 98.0797 247.254C98.4064 265.113 102.938 276.911 110.397 283.742C117.89 290.605 127.966 292.122 138.588 290.246C159.647 286.528 183.857 269.349 198.169 251.07ZM206.042 241.691C239.879 219.826 269.684 207.521 294.51 198.101C298.155 196.718 301.685 195.4 305.101 194.125C314.478 190.623 322.993 187.443 330.65 184.129C341.081 179.615 349.765 174.914 356.667 168.954C367.845 159.3 369.063 152.399 367.285 147.893C366.35 145.524 364.496 143.507 362.173 141.877C359.855 140.251 357.163 139.077 354.729 138.368C341.953 134.641 327.812 137.278 313.131 144.151C298.458 151.02 283.428 162.037 269.003 174.768C244.478 196.414 221.916 222.815 206.042 241.691Z" fill="black"/>
<path fill-rule="evenodd" clip-rule="evenodd" d="M318.036 118.931C304.499 116.505 291.267 117.228 283.271 118.631L282.676 115.243C291.019 113.779 304.661 113.04 318.643 115.545C332.612 118.048 347.143 123.832 356.962 135.615L354.32 137.817C345.22 126.898 331.586 121.359 318.036 118.931Z" fill="black"/>
<path fill-rule="evenodd" clip-rule="evenodd" d="M286.603 134.55C287.087 135.367 286.817 136.422 286 136.906C263.358 150.317 236.438 156.92 212.063 159.752C187.68 162.585 165.714 161.659 152.887 159.92C151.945 159.792 151.286 158.926 151.413 157.984C151.541 157.043 152.407 156.384 153.349 156.511C165.89 158.212 187.568 159.135 211.666 156.335C235.772 153.534 262.17 147.023 284.247 133.946C285.064 133.462 286.119 133.732 286.603 134.55Z" fill="black"/>
<path fill-rule="evenodd" clip-rule="evenodd" d="M290.043 155.896C290.527 156.714 290.257 157.769 289.44 158.253C266.798 171.664 239.878 178.267 215.503 181.099C191.12 183.932 169.154 183.006 156.326 181.267C155.385 181.139 154.726 180.272 154.853 179.331C154.981 178.39 155.847 177.73 156.789 177.858C169.33 179.558 191.008 180.482 215.106 177.682C239.212 174.881 265.61 168.369 287.687 155.293C288.504 154.809 289.559 155.079 290.043 155.896Z" fill="black"/>
<path fill-rule="evenodd" clip-rule="evenodd" d="M244.867 196.279C245.1 197.2 244.541 198.135 243.62 198.367C217.783 204.881 184.444 205.523 159.322 201.904C158.382 201.768 157.73 200.896 157.865 199.956C158.001 199.016 158.873 198.364 159.813 198.499C184.569 202.065 217.448 201.418 242.779 195.032C243.7 194.799 244.635 195.358 244.867 196.279Z" fill="black"/>
<path fill-rule="evenodd" clip-rule="evenodd" d="M273.038 141.036C273.977 140.892 274.855 141.537 274.999 142.476L278.224 163.545C278.367 164.484 277.723 165.362 276.784 165.506C275.845 165.649 274.967 165.005 274.823 164.066L271.599 142.997C271.455 142.058 272.099 141.18 273.038 141.036ZM192.426 144.045C193.366 143.906 194.24 144.556 194.378 145.496L205.558 221.604C205.696 222.544 205.046 223.417 204.106 223.555C203.166 223.693 202.292 223.043 202.154 222.104L190.975 145.996C190.837 145.056 191.487 144.183 192.426 144.045ZM255.424 147.914C256.365 147.778 257.236 148.431 257.372 149.371L261.672 179.255C261.807 180.195 261.154 181.067 260.214 181.203C259.274 181.338 258.402 180.685 258.267 179.745L253.967 149.861C253.832 148.921 254.484 148.049 255.424 147.914ZM171.328 147.913C172.269 147.779 173.14 148.432 173.274 149.373L183.379 220.03C183.513 220.971 182.86 221.842 181.92 221.976C180.98 222.111 180.108 221.458 179.974 220.517L169.869 149.86C169.735 148.919 170.388 148.048 171.328 147.913ZM235.169 153.645C236.109 153.504 236.985 154.151 237.126 155.091L243.396 196.874C243.537 197.814 242.889 198.689 241.95 198.83C241.011 198.971 240.135 198.324 239.994 197.385L233.724 155.601C233.583 154.662 234.23 153.786 235.169 153.645ZM216.715 162.965C217.655 162.824 218.531 163.471 218.671 164.41L226.411 216.009C226.552 216.948 225.905 217.824 224.965 217.965C224.026 218.106 223.15 217.458 223.009 216.519L215.27 164.921C215.129 163.981 215.776 163.106 216.715 162.965Z" fill="black"/>
<path fill-rule="evenodd" clip-rule="evenodd" d="M117.859 286.997C118.453 286.997 118.934 287.478 118.934 288.072V308.281C118.934 308.875 118.453 309.356 117.859 309.356C117.265 309.356 116.784 308.875 116.784 308.281V288.072C116.784 287.478 117.265 286.997 117.859 286.997Z" fill="black"/>
<path fill-rule="evenodd" clip-rule="evenodd" d="M171.177 273.237C171.771 273.237 172.252 273.718 172.252 274.312V294.521C172.252 295.115 171.771 295.596 171.177 295.596C170.583 295.596 170.102 295.115 170.102 294.521V274.312C170.102 273.718 170.583 273.237 171.177 273.237Z" fill="black"/>
<path fill-rule="evenodd" clip-rule="evenodd" d="M224.495 232.603C225.089 232.603 225.57 233.085 225.57 233.678V253.888C225.57 254.481 225.089 254.963 224.495 254.963C223.902 254.963 223.42 254.481 223.42 253.888V233.678C223.42 233.085 223.902 232.603 224.495 232.603Z" fill="black"/>
<path fill-rule="evenodd" clip-rule="evenodd" d="M277.813 205.944C278.407 205.944 278.888 206.426 278.888 207.019V227.229C278.888 227.822 278.407 228.304 277.813 228.304C277.22 228.304 276.739 227.822 276.739 227.229V207.019C276.739 206.426 277.22 205.944 277.813 205.944Z" fill="black"/>
<path fill-rule="evenodd" clip-rule="evenodd" d="M331.132 185.735C331.726 185.735 332.207 186.216 332.207 186.81V207.019C332.207 207.613 331.726 208.094 331.132 208.094C330.538 208.094 330.057 207.613 330.057 207.019V186.81C330.057 186.216 330.538 185.735 331.132 185.735Z" fill="black"/>
<path fill-rule="evenodd" clip-rule="evenodd" d="M144.518 287.856C145.112 287.856 145.593 288.338 145.593 288.931V309.141C145.593 309.734 145.112 310.216 144.518 310.216C143.924 310.216 143.443 309.734 143.443 309.141V288.931C143.443 288.338 143.924 287.856 144.518 287.856Z" fill="black"/>
<path fill-rule="evenodd" clip-rule="evenodd" d="M197.836 249.158C198.43 249.158 198.911 249.639 198.911 250.233V270.442C198.911 271.036 198.43 271.517 197.836 271.517C197.243 271.517 196.761 271.036 196.761 270.442V250.233C196.761 249.639 197.243 249.158 197.836 249.158Z" fill="black"/>
<path fill-rule="evenodd" clip-rule="evenodd" d="M251.154 217.554C251.748 217.554 252.229 218.035 252.229 218.629V238.838C252.229 239.432 251.748 239.913 251.154 239.913C250.561 239.913 250.079 239.432 250.079 238.838V218.629C250.079 218.035 250.561 217.554 251.154 217.554Z" fill="black"/>
<path fill-rule="evenodd" clip-rule="evenodd" d="M304.473 197.344C305.066 197.344 305.548 197.826 305.548 198.419V218.629C305.548 219.222 305.066 219.704 304.473 219.704C303.879 219.704 303.398 219.222 303.398 218.629V198.419C303.398 197.826 303.879 197.344 304.473 197.344Z" fill="black"/>
<path fill-rule="evenodd" clip-rule="evenodd" d="M357.791 170.009C358.385 170.009 358.866 170.49 358.866 171.084V191.293C358.866 191.887 358.385 192.368 357.791 192.368C357.197 192.368 356.716 191.887 356.716 191.293V171.084C356.716 170.49 357.197 170.009 357.791 170.009Z" fill="black"/>
<path fill-rule="evenodd" clip-rule="evenodd" d="M131.188 289.792C131.782 289.792 132.263 290.273 132.263 290.866V311.076C132.263 311.669 131.782 312.151 131.188 312.151C130.595 312.151 130.113 311.669 130.113 311.076V290.866C130.113 290.273 130.595 289.792 131.188 289.792Z" fill="black"/>
<path fill-rule="evenodd" clip-rule="evenodd" d="M184.506 263.132C185.1 263.132 185.581 263.614 185.581 264.207V284.417C185.581 285.01 185.1 285.492 184.506 285.492C183.913 285.492 183.432 285.01 183.432 284.417V264.207C183.432 263.614 183.913 263.132 184.506 263.132Z" fill="black"/>
<path fill-rule="evenodd" clip-rule="evenodd" d="M237.825 224.434C238.418 224.434 238.9 224.915 238.9 225.509V245.718C238.9 246.312 238.418 246.793 237.825 246.793C237.231 246.793 236.75 246.312 236.75 245.718V225.509C236.75 224.915 237.231 224.434 237.825 224.434Z" fill="black"/>
<path fill-rule="evenodd" clip-rule="evenodd" d="M291.143 200.931C291.737 200.931 292.218 201.412 292.218 202.006V222.215C292.218 222.809 291.737 223.29 291.143 223.29C290.549 223.29 290.068 222.809 290.068 222.215V202.006C290.068 201.412 290.549 200.931 291.143 200.931Z" fill="black"/>
<path fill-rule="evenodd" clip-rule="evenodd" d="M344.461 180.114C345.055 180.114 345.536 180.595 345.536 181.189V201.398C345.536 201.992 345.055 202.473 344.461 202.473C343.868 202.473 343.386 201.992 343.386 201.398V181.189C343.386 180.595 343.868 180.114 344.461 180.114Z" fill="black"/>
<path fill-rule="evenodd" clip-rule="evenodd" d="M157.847 281.837C158.441 281.837 158.922 282.318 158.922 282.912V303.121C158.922 303.715 158.441 304.196 157.847 304.196C157.254 304.196 156.772 303.715 156.772 303.121V282.912C156.772 282.318 157.254 281.837 157.847 281.837Z" fill="black"/>
<path fill-rule="evenodd" clip-rule="evenodd" d="M211.166 240.343C211.759 240.343 212.241 240.824 212.241 241.418V261.627C212.241 262.221 211.759 262.702 211.166 262.702C210.572 262.702 210.091 262.221 210.091 261.627V241.418C210.091 240.824 210.572 240.343 211.166 240.343Z" fill="black"/>
<path fill-rule="evenodd" clip-rule="evenodd" d="M264.484 212.394C265.078 212.394 265.559 212.875 265.559 213.469V233.678C265.559 234.272 265.078 234.753 264.484 234.753C263.89 234.753 263.409 234.272 263.409 233.678V213.469C263.409 212.875 263.89 212.394 264.484 212.394Z" fill="black"/>
<path fill-rule="evenodd" clip-rule="evenodd" d="M317.802 192.185C318.396 192.185 318.877 192.666 318.877 193.26V213.469C318.877 214.063 318.396 214.544 317.802 214.544C317.208 214.544 316.727 214.063 316.727 213.469V193.26C316.727 192.666 317.208 192.185 317.802 192.185Z" fill="black"/>
<path d="M121.641 312.744C120.885 313.825 119.728 315.438 118.889 316.601C118.375 317.315 117.316 317.312 116.804 316.597C115.972 315.433 114.825 313.822 114.074 312.742C113.762 312.293 113.777 311.699 114.103 311.26L116.812 307.614C117.327 306.921 118.363 306.92 118.88 307.611L121.611 311.26C121.939 311.698 121.955 312.295 121.641 312.744Z" fill="black"/>
<path d="M134.97 315.659C134.215 316.74 133.057 318.353 132.219 319.516C131.705 320.23 130.645 320.227 130.134 319.512C129.302 318.348 128.154 316.737 127.403 315.657C127.091 315.208 127.106 314.614 127.432 314.175L130.142 310.529C130.656 309.836 131.693 309.835 132.21 310.526L134.94 314.175C135.268 314.613 135.284 315.21 134.97 315.659Z" fill="black"/>
<path d="M148.3 314.799C147.545 315.88 146.387 317.493 145.549 318.656C145.034 319.37 143.975 319.368 143.463 318.652C142.631 317.488 141.484 315.877 140.733 314.797C140.421 314.349 140.436 313.754 140.762 313.316L143.471 309.669C143.986 308.977 145.022 308.975 145.539 309.666L148.27 313.315C148.598 313.754 148.614 314.35 148.3 314.799Z" fill="black"/>
<path d="M161.63 308.349C160.874 309.43 159.717 311.043 158.878 312.206C158.364 312.92 157.304 312.918 156.793 312.202C155.961 311.039 154.813 309.427 154.062 308.347C153.75 307.899 153.765 307.304 154.091 306.866L156.801 303.22C157.315 302.527 158.352 302.525 158.869 303.216L161.599 306.865C161.928 307.304 161.944 307.9 161.63 308.349Z" fill="black"/>
<path d="M174.959 298.783C174.204 299.864 173.046 301.477 172.208 302.64C171.693 303.354 170.634 303.352 170.122 302.636C169.291 301.472 168.143 299.861 167.392 298.781C167.08 298.333 167.095 297.738 167.421 297.3L170.13 293.653C170.645 292.961 171.682 292.959 172.199 293.65L174.929 297.299C175.257 297.738 175.273 298.334 174.959 298.783Z" fill="black"/>
<path d="M188.289 289.539C187.533 290.62 186.376 292.232 185.537 293.396C185.023 294.109 183.963 294.107 183.452 293.391C182.62 292.228 181.473 290.616 180.722 289.537C180.41 289.088 180.425 288.494 180.75 288.055L183.46 284.409C183.975 283.716 185.011 283.714 185.528 284.405L188.258 288.054C188.587 288.493 188.603 289.089 188.289 289.539Z" fill="black"/>
<path d="M201.618 274.919C200.863 276 199.705 277.613 198.867 278.776C198.352 279.49 197.293 279.487 196.781 278.772C195.95 277.608 194.802 275.997 194.051 274.917C193.739 274.468 193.754 273.874 194.08 273.435L196.789 269.789C197.304 269.096 198.341 269.095 198.858 269.786L201.588 273.435C201.916 273.873 201.932 274.47 201.618 274.919Z" fill="black"/>
<path d="M214.948 266.856C214.192 267.937 213.035 269.55 212.196 270.713C211.682 271.427 210.622 271.424 210.111 270.709C209.279 269.545 208.131 267.934 207.381 266.854C207.069 266.405 207.084 265.811 207.409 265.372L210.119 261.726C210.634 261.033 211.67 261.032 212.187 261.723L214.917 265.372C215.246 265.81 215.262 266.407 214.948 266.856Z" fill="black"/>
<path d="M228.277 258.041C227.522 259.122 226.364 260.735 225.526 261.898C225.012 262.611 223.952 262.609 223.44 261.894C222.609 260.73 221.461 259.119 220.71 258.039C220.398 257.59 220.413 256.996 220.739 256.557L223.448 252.911C223.963 252.218 225 252.217 225.517 252.908L228.247 256.556C228.575 256.995 228.591 257.592 228.277 258.041Z" fill="black"/>
<path d="M241.607 250.301C240.852 251.382 239.694 252.995 238.856 254.158C238.341 254.872 237.282 254.87 236.77 254.154C235.938 252.991 234.791 251.379 234.04 250.299C233.728 249.851 233.743 249.256 234.069 248.818L236.778 245.171C237.293 244.479 238.329 244.477 238.846 245.168L241.577 248.817C241.905 249.256 241.921 249.852 241.607 250.301Z" fill="black"/>
<path d="M254.937 244.39C254.181 245.471 253.024 247.084 252.185 248.247C251.671 248.961 250.611 248.958 250.1 248.243C249.268 247.079 248.12 245.468 247.369 244.388C247.057 243.939 247.072 243.345 247.398 242.906L250.108 239.26C250.622 238.567 251.659 238.566 252.176 239.257L254.906 242.906C255.234 243.344 255.25 243.941 254.937 244.39Z" fill="black"/>
<path d="M268.266 238.479C267.511 239.56 266.353 241.172 265.515 242.336C265 243.049 263.941 243.047 263.429 242.331C262.597 241.168 261.45 239.556 260.699 238.477C260.387 238.028 260.402 237.434 260.728 236.995L263.437 233.349C263.952 232.656 264.988 232.654 265.505 233.345L268.236 236.994C268.564 237.433 268.58 238.029 268.266 238.479Z" fill="black"/>
<path d="M281.596 232.567C280.84 233.648 279.683 235.261 278.844 236.425C278.33 237.138 277.27 237.136 276.759 236.42C275.927 235.257 274.779 233.645 274.029 232.565C273.717 232.117 273.731 231.522 274.057 231.084L276.767 227.438C277.281 226.745 278.318 226.743 278.835 227.434L281.565 231.083C281.894 231.522 281.91 232.118 281.596 232.567Z" fill="black"/>
<path d="M294.925 226.656C294.17 227.737 293.012 229.35 292.174 230.513C291.659 231.227 290.6 231.225 290.088 230.509C289.256 229.346 288.109 227.734 287.358 226.654C287.046 226.206 287.061 225.611 287.387 225.173L290.096 221.526C290.611 220.834 291.647 220.832 292.164 221.523L294.895 225.172C295.223 225.611 295.239 226.207 294.925 226.656Z" fill="black"/>
<path d="M308.255 223.037C307.499 224.118 306.342 225.731 305.503 226.894C304.989 227.607 303.93 227.605 303.418 226.889C302.586 225.726 301.439 224.114 300.688 223.035C300.376 222.586 300.391 221.992 300.717 221.553L303.426 217.907C303.941 217.214 304.977 217.212 305.494 217.903L308.225 221.552C308.553 221.991 308.569 222.587 308.255 223.037Z" fill="black"/>
<path d="M321.584 218.269C320.829 219.35 319.671 220.963 318.833 222.126C318.319 222.84 317.259 222.838 316.748 222.122C315.916 220.958 314.768 219.347 314.017 218.267C313.705 217.819 313.72 217.224 314.046 216.786L316.756 213.139C317.27 212.447 318.307 212.445 318.824 213.136L321.554 216.785C321.882 217.223 321.898 217.82 321.584 218.269Z" fill="black"/>
<path d="M334.914 211.82C334.159 212.901 333.001 214.514 332.162 215.677C331.648 216.391 330.589 216.388 330.077 215.673C329.245 214.509 328.098 212.898 327.347 211.818C327.035 211.369 327.05 210.775 327.376 210.336L330.085 206.69C330.6 205.997 331.636 205.996 332.153 206.687L334.884 210.336C335.212 210.774 335.228 211.371 334.914 211.82Z" fill="black"/>
<path d="M348.243 206.447C347.488 207.528 346.33 209.141 345.492 210.304C344.978 211.017 343.918 211.015 343.406 210.3C342.575 209.136 341.427 207.525 340.676 206.445C340.364 205.996 340.379 205.402 340.705 204.963L343.414 201.317C343.929 200.624 344.966 200.623 345.483 201.314L348.213 204.962C348.541 205.401 348.557 205.998 348.243 206.447Z" fill="black"/>
<path d="M361.573 196.094C360.818 197.175 359.66 198.788 358.822 199.951C358.307 200.665 357.248 200.662 356.736 199.947C355.904 198.783 354.757 197.172 354.006 196.092C353.694 195.644 353.709 195.049 354.035 194.61L356.744 190.964C357.259 190.272 358.295 190.27 358.812 190.961L361.543 194.61C361.871 195.048 361.887 195.645 361.573 196.094Z" fill="black"/>
<path fill-rule="evenodd" clip-rule="evenodd" d="M168.644 163.846C169.233 163.773 169.77 164.191 169.843 164.78L172.692 187.677C172.765 188.266 172.347 188.803 171.758 188.876C171.169 188.95 170.632 188.531 170.559 187.942L167.71 165.045C167.637 164.456 168.055 163.919 168.644 163.846Z" fill="white"/>
<path fill-rule="evenodd" clip-rule="evenodd" d="M193.411 184.361C194 184.292 194.534 184.713 194.604 185.303L196.504 201.444C196.573 202.033 196.151 202.567 195.562 202.637C194.972 202.706 194.438 202.284 194.368 201.695L192.469 185.554C192.399 184.965 192.821 184.43 193.411 184.361Z" fill="white"/>
<path fill-rule="evenodd" clip-rule="evenodd" d="M157.053 162.073C157.641 161.991 158.185 162.401 158.267 162.989L158.877 167.343C158.959 167.931 158.549 168.475 157.961 168.557C157.373 168.639 156.83 168.23 156.748 167.642L156.138 163.287C156.056 162.699 156.466 162.155 157.053 162.073Z" fill="white"/>
<path fill-rule="evenodd" clip-rule="evenodd" d="M270.355 153.796C270.943 153.714 271.486 154.124 271.568 154.712L272.178 159.067C272.26 159.655 271.851 160.198 271.263 160.28C270.675 160.363 270.131 159.953 270.049 159.365L269.439 155.01C269.357 154.422 269.767 153.879 270.355 153.796Z" fill="white"/>
<path fill-rule="evenodd" clip-rule="evenodd" d="M218.362 209.897C218.95 209.815 219.493 210.225 219.575 210.813L220.185 215.168C220.267 215.756 219.857 216.299 219.27 216.381C218.682 216.464 218.138 216.054 218.056 215.466L217.446 211.111C217.364 210.523 217.774 209.98 218.362 209.897Z" fill="white"/>
<path fill-rule="evenodd" clip-rule="evenodd" d="M180.925 184.363C181.514 184.285 182.054 184.699 182.132 185.287L182.419 187.453C182.497 188.042 182.084 188.582 181.495 188.66C180.907 188.738 180.366 188.325 180.288 187.736L180.001 185.57C179.923 184.981 180.337 184.441 180.925 184.363Z" fill="white"/>
<path fill-rule="evenodd" clip-rule="evenodd" d="M163.906 204.236C164.494 204.157 165.035 204.571 165.113 205.16L165.4 207.326C165.478 207.914 165.064 208.455 164.476 208.533C163.887 208.611 163.347 208.197 163.269 207.609L162.981 205.442C162.903 204.854 163.317 204.314 163.906 204.236Z" fill="white"/>
<path fill-rule="evenodd" clip-rule="evenodd" d="M268.845 149.051C269.116 149.58 268.907 150.228 268.378 150.498C260.861 154.344 251.596 156.748 247.886 157.476C247.303 157.59 246.739 157.21 246.624 156.628C246.51 156.045 246.89 155.48 247.472 155.366C251.072 154.66 260.125 152.306 267.399 148.584C267.927 148.314 268.575 148.523 268.845 149.051Z" fill="white"/>
<path fill-rule="evenodd" clip-rule="evenodd" d="M251.877 154.706C252.468 154.649 252.993 155.083 253.049 155.674C253.479 160.185 254.679 170.842 256.042 177.489C256.161 178.071 255.787 178.639 255.205 178.758C254.623 178.877 254.055 178.503 253.936 177.921C252.548 171.152 251.339 160.396 250.909 155.878C250.853 155.287 251.286 154.762 251.877 154.706Z" fill="white"/>
<path fill-rule="evenodd" clip-rule="evenodd" d="M222.988 170.196C223.574 170.095 224.129 170.489 224.23 171.074C224.661 173.589 225.823 180.635 227.028 188.726C227.116 189.314 226.711 189.861 226.123 189.948C225.536 190.035 224.989 189.63 224.902 189.043C223.699 180.967 222.539 173.938 222.111 171.437C222.01 170.852 222.403 170.296 222.988 170.196Z" fill="white"/>
<path fill-rule="evenodd" clip-rule="evenodd" d="M232.183 181.602C232.287 182.186 231.898 182.744 231.313 182.848C228.074 183.424 219.996 184.706 213.582 185.226C212.991 185.274 212.472 184.834 212.424 184.242C212.376 183.65 212.817 183.131 213.409 183.083C219.723 182.571 227.725 181.303 230.937 180.732C231.521 180.628 232.079 181.017 232.183 181.602Z" fill="white"/>
<path fill-rule="evenodd" clip-rule="evenodd" d="M151.863 163.837C152.16 164.351 151.984 165.009 151.47 165.306C150.934 165.616 150.361 165.968 149.754 166.363C149.256 166.687 148.59 166.546 148.266 166.048C147.943 165.55 148.084 164.884 148.582 164.561C149.217 164.147 149.823 163.775 150.394 163.445C150.908 163.148 151.566 163.323 151.863 163.837ZM146.612 167.224C146.971 167.697 146.879 168.371 146.406 168.73C145.383 169.507 144.307 170.37 143.193 171.318C142.741 171.703 142.063 171.648 141.678 171.196C141.293 170.744 141.348 170.065 141.8 169.68C142.943 168.708 144.049 167.82 145.105 167.018C145.578 166.659 146.252 166.751 146.612 167.224ZM140.153 172.56C140.559 172.993 140.537 173.673 140.103 174.079C139.137 174.984 138.153 175.945 137.158 176.962C136.743 177.386 136.062 177.393 135.638 176.978C135.214 176.563 135.206 175.882 135.622 175.458C136.638 174.419 137.645 173.436 138.634 172.51C139.067 172.104 139.747 172.126 140.153 172.56ZM134.239 178.47C134.681 178.867 134.717 179.547 134.319 179.988C133.421 180.986 132.521 182.027 131.623 183.111C131.244 183.568 130.566 183.632 130.109 183.253C129.652 182.874 129.588 182.197 129.967 181.74C130.884 180.633 131.804 179.569 132.721 178.55C133.118 178.109 133.798 178.073 134.239 178.47ZM128.843 184.845C129.315 185.205 129.406 185.88 129.046 186.352C128.222 187.432 127.405 188.548 126.599 189.699C126.259 190.186 125.588 190.304 125.102 189.963C124.616 189.623 124.498 188.952 124.838 188.466C125.661 187.29 126.496 186.151 127.337 185.048C127.697 184.576 128.371 184.485 128.843 184.845ZM123.974 191.645C124.474 191.966 124.62 192.63 124.299 193.13C123.565 194.275 122.844 195.45 122.14 196.656C121.84 197.168 121.182 197.341 120.67 197.042C120.157 196.742 119.984 196.084 120.284 195.571C121.003 194.339 121.74 193.139 122.489 191.97C122.81 191.47 123.475 191.325 123.974 191.645ZM119.681 198.817C120.206 199.095 120.406 199.745 120.129 200.27C119.491 201.475 118.871 202.708 118.272 203.967C118.017 204.503 117.376 204.731 116.84 204.476C116.303 204.221 116.076 203.579 116.331 203.043C116.943 201.756 117.577 200.496 118.228 199.264C118.506 198.74 119.157 198.539 119.681 198.817ZM116.006 206.331C116.552 206.563 116.808 207.193 116.577 207.74C116.044 208.997 115.534 210.278 115.048 211.583C114.841 212.14 114.222 212.423 113.666 212.216C113.109 212.009 112.826 211.39 113.033 210.833C113.53 209.498 114.052 208.187 114.597 206.902C114.828 206.355 115.459 206.1 116.006 206.331ZM112.999 214.137C113.564 214.319 113.874 214.925 113.692 215.49C113.274 216.788 112.881 218.108 112.515 219.449C112.358 220.022 111.767 220.36 111.195 220.203C110.622 220.047 110.284 219.456 110.441 218.883C110.815 217.51 111.218 216.159 111.646 214.831C111.828 214.266 112.434 213.955 112.999 214.137ZM110.705 222.174C111.284 222.304 111.648 222.879 111.518 223.458C111.219 224.789 110.948 226.139 110.705 227.509C110.602 228.094 110.044 228.484 109.46 228.38C108.875 228.277 108.485 227.719 108.588 227.134C108.836 225.732 109.114 224.349 109.42 222.987C109.55 222.408 110.125 222.044 110.705 222.174ZM109.151 230.389C109.74 230.465 110.155 231.005 110.079 231.593C109.903 232.945 109.756 234.315 109.639 235.703C109.59 236.295 109.07 236.734 108.478 236.684C107.887 236.635 107.447 236.115 107.497 235.523C107.616 234.103 107.767 232.7 107.947 231.316C108.023 230.727 108.563 230.312 109.151 230.389ZM108.354 238.714C108.948 238.737 109.41 239.236 109.387 239.83C109.335 241.19 109.312 242.566 109.32 243.959C109.324 244.552 108.846 245.037 108.252 245.04C107.658 245.044 107.174 244.565 107.171 243.972C107.162 242.547 107.185 241.139 107.239 239.747C107.262 239.154 107.761 238.691 108.354 238.714ZM108.309 247.067C108.902 247.037 109.407 247.494 109.436 248.087C109.504 249.446 109.602 250.819 109.731 252.207C109.786 252.798 109.351 253.321 108.76 253.376C108.169 253.431 107.645 252.997 107.59 252.406C107.458 250.987 107.358 249.583 107.289 248.194C107.259 247.601 107.716 247.096 108.309 247.067ZM108.99 255.391C109.579 255.312 110.12 255.724 110.2 256.312C110.292 256.997 110.393 257.685 110.501 258.376C110.619 259.132 110.754 259.862 110.904 260.566C111.029 261.147 110.659 261.718 110.078 261.842C109.498 261.966 108.926 261.596 108.802 261.016C108.643 260.271 108.501 259.502 108.377 258.708C108.266 258.003 108.164 257.3 108.069 256.601C107.99 256.012 108.402 255.471 108.99 255.391ZM168.115 264.111C168.483 264.577 168.404 265.253 167.938 265.621C167.348 266.087 166.737 266.552 166.106 267.014C165.627 267.365 164.954 267.261 164.603 266.783C164.252 266.304 164.356 265.631 164.835 265.28C165.446 264.833 166.036 264.383 166.605 263.934C167.071 263.566 167.747 263.645 168.115 264.111ZM110.721 264.14C111.279 263.938 111.896 264.227 112.098 264.785C112.622 266.235 113.229 267.541 113.909 268.714C114.207 269.228 114.032 269.886 113.518 270.183C113.004 270.481 112.347 270.306 112.049 269.792C111.3 268.501 110.64 267.077 110.076 265.516C109.874 264.958 110.163 264.342 110.721 264.14ZM162.636 268.126C162.956 268.626 162.809 269.291 162.309 269.61C161.042 270.419 159.723 271.209 158.363 271.968C157.845 272.258 157.19 272.072 156.9 271.554C156.611 271.035 156.797 270.38 157.315 270.091C158.638 269.352 159.921 268.584 161.152 267.798C161.652 267.479 162.317 267.625 162.636 268.126ZM114.924 272.109C115.358 271.705 116.039 271.73 116.443 272.165C117.44 273.238 118.53 274.143 119.699 274.895C120.198 275.216 120.342 275.882 120.021 276.381C119.7 276.88 119.034 277.024 118.535 276.703C117.217 275.854 115.988 274.834 114.868 273.628C114.464 273.193 114.489 272.513 114.924 272.109ZM154.786 272.654C155.044 273.189 154.82 273.832 154.286 274.09C152.911 274.755 151.508 275.382 150.087 275.964C149.537 276.188 148.909 275.925 148.685 275.376C148.46 274.826 148.723 274.198 149.273 273.974C150.651 273.41 152.014 272.801 153.35 272.154C153.885 271.896 154.527 272.12 154.786 272.654ZM146.45 276.204C146.636 276.768 146.33 277.376 145.766 277.562C144.293 278.049 142.81 278.479 141.328 278.84C140.751 278.981 140.17 278.627 140.029 278.05C139.888 277.474 140.242 276.892 140.819 276.751C142.241 276.405 143.668 275.992 145.092 275.521C145.655 275.335 146.263 275.641 146.45 276.204ZM122.17 277.414C122.365 276.853 122.977 276.556 123.538 276.751C124.871 277.213 126.275 277.537 127.737 277.735C128.325 277.815 128.737 278.356 128.658 278.945C128.578 279.533 128.036 279.945 127.448 279.865C125.859 279.65 124.314 279.295 122.834 278.782C122.273 278.587 121.976 277.975 122.17 277.414ZM137.689 278.51C137.774 279.098 137.365 279.642 136.778 279.726C135.213 279.951 133.661 280.085 132.134 280.117C131.541 280.13 131.049 279.659 131.037 279.065C131.025 278.472 131.496 277.98 132.089 277.968C133.521 277.938 134.986 277.811 136.473 277.598C137.06 277.514 137.605 277.922 137.689 278.51Z" fill="black"/>
<path fill-rule="evenodd" clip-rule="evenodd" d="M339.298 141.653C339.309 141.06 339.8 140.588 340.393 140.599C341.162 140.614 341.898 140.66 342.601 140.732C343.192 140.793 343.621 141.321 343.56 141.912C343.5 142.502 342.972 142.931 342.381 142.871C341.739 142.804 341.063 142.763 340.351 142.749C339.758 142.737 339.286 142.247 339.298 141.653ZM337.181 141.767C337.249 142.357 336.826 142.89 336.236 142.958C334.957 143.105 333.593 143.331 332.14 143.649C331.56 143.776 330.987 143.409 330.86 142.829C330.733 142.249 331.1 141.676 331.68 141.549C333.199 141.216 334.635 140.978 335.991 140.822C336.581 140.754 337.114 141.178 337.181 141.767ZM328.812 143.37C328.985 143.938 328.664 144.539 328.096 144.711C326.829 145.096 325.507 145.545 324.127 146.063C323.571 146.272 322.951 145.991 322.742 145.435C322.534 144.879 322.815 144.259 323.371 144.051C324.792 143.517 326.158 143.053 327.471 142.654C328.039 142.482 328.639 142.802 328.812 143.37ZM320.78 146.235C321.018 146.779 320.77 147.413 320.226 147.651C318.99 148.191 317.714 148.783 316.397 149.43C315.865 149.692 315.22 149.472 314.959 148.94C314.697 148.407 314.916 147.763 315.449 147.501C316.794 146.84 318.098 146.235 319.364 145.681C319.908 145.443 320.542 145.691 320.78 146.235ZM313.08 149.91C313.362 150.432 313.167 151.084 312.645 151.366C311.448 152.012 310.22 152.701 308.96 153.435C308.447 153.734 307.789 153.561 307.49 153.048C307.191 152.535 307.365 151.877 307.878 151.578C309.157 150.832 310.405 150.132 311.624 149.474C312.146 149.192 312.798 149.387 313.08 149.91ZM305.671 154.145C305.985 154.649 305.831 155.312 305.327 155.626C304.159 156.353 302.966 157.117 301.747 157.92C301.252 158.247 300.585 158.109 300.258 157.614C299.932 157.118 300.069 156.451 300.564 156.125C301.798 155.312 303.006 154.538 304.191 153.801C304.695 153.487 305.358 153.641 305.671 154.145ZM298.511 158.795C298.849 159.283 298.727 159.953 298.239 160.291C297.105 161.075 295.952 161.892 294.777 162.741C294.296 163.089 293.624 162.981 293.276 162.5C292.929 162.019 293.037 161.347 293.518 160.999C294.704 160.141 295.869 159.316 297.015 158.523C297.503 158.185 298.173 158.307 298.511 158.795ZM291.574 163.756C291.931 164.231 291.835 164.905 291.361 165.262C290.253 166.095 289.128 166.956 287.986 167.846C287.518 168.211 286.842 168.128 286.477 167.659C286.112 167.191 286.196 166.516 286.664 166.151C287.816 165.253 288.951 164.384 290.068 163.544C290.543 163.187 291.217 163.282 291.574 163.756ZM284.813 168.978C285.185 169.441 285.112 170.117 284.649 170.49C283.568 171.36 282.471 172.256 281.36 173.177C280.903 173.556 280.225 173.493 279.846 173.036C279.467 172.579 279.531 171.901 279.988 171.522C281.107 170.594 282.212 169.692 283.301 168.815C283.764 168.443 284.44 168.516 284.813 168.978ZM278.235 174.391C278.62 174.842 278.565 175.521 278.113 175.906C277.055 176.807 275.983 177.732 274.899 178.679C274.452 179.07 273.772 179.024 273.382 178.577C272.991 178.13 273.037 177.451 273.484 177.06C274.576 176.107 275.654 175.177 276.719 174.269C277.171 173.884 277.85 173.939 278.235 174.391ZM271.796 179.979C272.192 180.421 272.154 181.101 271.711 181.497C270.668 182.43 269.613 183.383 268.546 184.358C268.108 184.759 267.428 184.728 267.027 184.29C266.627 183.852 266.657 183.172 267.095 182.771C268.168 181.791 269.229 180.832 270.278 179.894C270.721 179.498 271.4 179.536 271.796 179.979ZM265.468 185.729C265.873 186.164 265.85 186.844 265.415 187.249C264.397 188.198 263.369 189.167 262.33 190.155C261.899 190.564 261.219 190.547 260.81 190.117C260.401 189.686 260.418 189.006 260.848 188.597C261.892 187.604 262.926 186.631 263.949 185.677C264.383 185.272 265.063 185.295 265.468 185.729ZM259.281 191.583C259.694 192.01 259.683 192.69 259.257 193.103C258.245 194.083 257.223 195.08 256.192 196.096C255.769 196.513 255.088 196.507 254.672 196.084C254.255 195.661 254.261 194.981 254.683 194.564C255.719 193.544 256.745 192.543 257.761 191.559C258.188 191.146 258.868 191.157 259.281 191.583ZM253.189 197.557C253.609 197.977 253.609 198.657 253.189 199.077C252.684 199.583 252.177 200.092 251.668 200.606C251.25 201.028 250.569 201.031 250.147 200.613C249.726 200.195 249.723 199.514 250.141 199.093C250.652 198.577 251.161 198.065 251.668 197.558C252.088 197.138 252.769 197.137 253.189 197.557Z" fill="black"/>
<path d="M287.344 190.225C266.916 180.81 250.06 189.869 240.026 199.363C239.715 199.656 239.735 200.151 240.06 200.428L304.619 255.298C305.09 255.698 305.814 255.358 305.817 254.74C305.969 224.225 310.309 201.974 287.344 190.225Z" fill="#A5B7DF"/>
<path fill-rule="evenodd" clip-rule="evenodd" d="M241.623 199.854L304.38 253.193C304.415 249.483 304.506 245.843 304.593 242.351C304.671 239.24 304.746 236.246 304.776 233.423C304.845 226.882 304.682 220.974 303.82 215.678C302.959 210.394 301.409 205.771 298.736 201.777C296.074 197.798 292.247 194.365 286.711 191.528C267.448 182.665 251.485 190.794 241.623 199.854ZM239.03 198.311C249.287 188.607 266.765 179.146 287.951 188.91L287.978 188.922L288.004 188.936C293.937 191.971 298.17 195.721 301.144 200.166C304.112 204.601 305.773 209.651 306.679 215.213C307.583 220.763 307.742 226.873 307.673 233.454C307.641 236.414 307.565 239.417 307.487 242.512C307.389 246.412 307.287 250.458 307.265 254.748C307.256 256.565 305.114 257.62 303.682 256.402L239.122 201.531L240.06 200.428L240.064 200.423M239.03 198.311C238.077 199.212 238.158 200.711 239.122 201.531ZM239.122 201.531L240.06 200.428Z" fill="black"/>
<path d="M235.561 315.339L230.491 221.549C230.853 208.211 239.725 187.871 269.057 193.122C299.95 198.652 306.175 234.766 305.994 249.795V309.183C305.994 329.462 322.47 345.033 331.705 355.716C338.642 363.742 362.123 373.46 371.9 377.443C381.678 381.427 378.238 392.833 371.9 395.73C366.831 398.048 358.079 399.11 354.337 399.352H316.676C305.668 399.352 298.932 395.006 296.941 392.833L281.741 376.397C281.521 376.159 281.17 376.096 280.881 376.243L270.157 381.69C270.03 381.754 269.887 381.78 269.746 381.764L248.502 379.306C248.228 379.274 247.995 379.089 247.903 378.828L234.482 340.975C234.119 339.949 233.969 338.86 234.042 337.775L235.561 315.339Z" fill="#EBF0FD"/>
<path d="M254.895 341.323C251.194 348.359 257.75 355.874 261.678 358.914C261.815 359.021 261.969 359.112 262.127 359.185C290.618 372.401 298.497 343.366 298.894 326.913C298.898 326.743 298.885 326.58 298.851 326.414C296.867 316.887 281.057 309.095 277.679 325.199C274.271 341.442 259.602 332.372 254.895 341.323Z" fill="#100C0A"/>
<path d="M298.547 284.83C300.428 284.477 306 283.611 306 293.521V315.84C308.324 324.411 314.42 341.841 320.214 343L332.888 357.485L353.529 370.159L367.652 375.772L374.895 378.488L377.792 384.463C378.033 386.756 378.154 391.379 376.705 391.524C374.895 391.705 369.825 398.042 362.582 397.861C355.34 397.68 309.35 398.948 306 397.861C302.651 396.775 287.623 385.006 284.001 377.582C280.38 370.159 265.293 358.703 263.603 358.703C292.391 358.703 292.271 341.683 292.391 333.717V293.521C292.512 290.986 293.912 285.699 298.547 284.83Z" fill="#A5B7DF"/>
<path d="M261.882 357.345C253.916 353.145 243.354 353.543 239.069 354.267L247.941 379.254L270.03 381.97L261.882 357.345Z" fill="#A5B7DF"/>
<path fill-rule="evenodd" clip-rule="evenodd" d="M237.872 199.355C244.197 192.853 254.263 189.002 269.312 191.696C285.368 194.57 294.969 205.413 300.492 217.286C305.998 229.123 307.534 242.129 307.442 249.803V309.183C307.442 318.919 311.397 327.597 316.585 335.234C320.518 341.024 325.079 346.11 329.097 350.591C330.402 352.046 331.65 353.438 332.801 354.769C334.393 356.611 337.017 358.633 340.31 360.712C343.582 362.777 347.424 364.844 351.379 366.797C359.288 370.702 367.561 374.111 372.447 376.102C375.153 377.204 377.042 378.866 378.175 380.857C379.303 382.839 379.627 385.047 379.382 387.161C378.9 391.32 376.182 395.366 372.503 397.048C369.798 398.284 366.198 399.154 362.875 399.746C359.529 400.341 356.352 400.673 354.431 400.797L354.384 400.8H316.677C305.321 400.8 298.18 396.326 295.876 393.816C295.875 393.814 295.874 393.813 295.873 393.812L281.049 377.782L270.813 382.981C270.432 383.175 270.003 383.252 269.579 383.203L248.336 380.745C247.513 380.649 246.815 380.094 246.538 379.312L233.117 341.459C232.687 340.247 232.511 338.96 232.597 337.677L234.11 315.329L229.042 221.568L229.043 221.51C229.231 214.591 231.619 205.783 237.872 199.355ZM231.941 221.53L237.012 315.349L235.488 337.872C235.428 338.761 235.55 339.652 235.848 340.491L249.118 377.919L269.696 380.3L280.225 374.951C281.092 374.511 282.145 374.7 282.805 375.413L298.006 391.852L298.009 391.855C299.691 393.69 306.02 397.903 316.677 397.903H354.29C356.116 397.783 359.162 397.464 362.367 396.894C365.623 396.314 368.933 395.494 371.298 394.413C373.956 393.198 376.126 390.092 376.505 386.828C376.69 385.23 376.436 383.658 375.658 382.29C374.884 380.932 373.536 379.674 371.354 378.785C366.463 376.792 358.106 373.35 350.096 369.394C346.092 367.417 342.152 365.3 338.764 363.161C335.398 361.036 332.485 358.833 330.609 356.663C329.518 355.401 328.312 354.057 327.035 352.632C322.995 348.128 318.243 342.831 314.188 336.862C308.83 328.973 304.545 319.726 304.545 309.183V249.786L304.546 249.777C304.634 242.422 303.147 229.863 297.865 218.508C292.598 207.184 283.64 197.204 268.802 194.548C254.519 191.991 245.484 195.685 239.949 201.375C234.359 207.121 232.127 215.12 231.941 221.53Z" fill="black"/>
<path fill-rule="evenodd" clip-rule="evenodd" d="M280.124 376.61C270.577 356.124 248.972 355.054 239.926 355.174C239.126 355.185 238.469 354.545 238.458 353.745C238.447 352.945 239.087 352.288 239.887 352.278C248.947 352.157 272.38 353.135 282.75 375.386C283.088 376.111 282.774 376.973 282.049 377.311C281.324 377.649 280.462 377.335 280.124 376.61Z" fill="black"/>
<path d="M269.306 381.969L260.343 356.53C269.614 359.717 278.782 370.623 281.437 375.089L269.306 381.969Z" fill="black"/>
<path fill-rule="evenodd" clip-rule="evenodd" d="M303.725 284.086C305.986 285.444 307.449 288.339 307.449 293.521V294.97H304.552V293.521C304.552 288.793 303.229 287.167 302.233 286.569C301.118 285.899 299.762 286.076 298.814 286.254C297.057 286.583 295.86 287.742 295.051 289.24C294.237 290.744 293.897 292.459 293.84 293.557V333.728L293.84 333.739C293.838 333.863 293.836 333.989 293.834 334.119C293.778 338.079 293.687 344.529 289.944 350.014C285.996 355.799 278.279 360.152 263.602 360.152C262.802 360.152 262.154 359.503 262.154 358.703C262.154 357.903 262.802 357.255 263.602 357.255C277.714 357.255 284.332 353.098 287.551 348.381C290.795 343.628 290.88 337.945 290.94 333.908C290.941 333.84 290.942 333.773 290.943 333.706V293.487L290.944 293.452C291.013 292.013 291.435 289.837 292.502 287.862C293.582 285.865 295.403 283.946 298.28 283.406C299.213 283.231 301.583 282.799 303.725 284.086Z" fill="black"/>
<path fill-rule="evenodd" clip-rule="evenodd" d="M306.589 290.455C306.681 290.947 306.358 291.42 305.866 291.512C305.25 291.628 304.705 291.832 304.222 292.102C303.786 292.346 303.234 292.19 302.991 291.754C302.747 291.317 302.903 290.766 303.339 290.522C303.991 290.157 304.721 289.885 305.533 289.732C306.024 289.64 306.497 289.964 306.589 290.455ZM300.04 296.408C300.527 296.521 300.83 297.007 300.718 297.494C300.556 298.192 300.474 298.831 300.449 299.335V301.108C300.449 301.608 300.043 302.013 299.543 302.013C299.043 302.013 298.638 301.608 298.638 301.108V299.292L298.639 299.27C298.669 298.649 298.767 297.894 298.954 297.086C299.066 296.599 299.553 296.295 300.04 296.408ZM299.543 306.662C300.043 306.662 300.449 307.068 300.449 307.568V311.157C300.449 311.657 300.043 312.062 299.543 312.062C299.043 312.062 298.638 311.657 298.638 311.157V307.568C298.638 307.068 299.043 306.662 299.543 306.662ZM299.543 316.711C300.043 316.711 300.449 317.117 300.449 317.617V321.206C300.449 321.706 300.043 322.111 299.543 322.111C299.043 322.111 298.638 321.706 298.638 321.206V317.617C298.638 317.117 299.043 316.711 299.543 316.711ZM299.543 326.76C300.043 326.76 300.449 327.166 300.449 327.666V331.255C300.449 331.754 300.043 332.16 299.543 332.16C299.043 332.16 298.638 331.754 298.638 331.255V327.666C298.638 327.166 299.043 326.76 299.543 326.76ZM299.543 336.809C300.043 336.809 300.449 337.215 300.449 337.715V339.516L300.448 339.523C300.447 339.622 300.446 339.724 300.444 339.827C300.436 340.347 300.428 340.908 300.412 341.498C300.398 341.998 299.982 342.392 299.482 342.378C298.982 342.365 298.588 341.948 298.602 341.448C298.618 340.872 298.626 340.324 298.634 339.804C298.635 339.702 298.636 339.602 298.638 339.502V337.715C298.638 337.215 299.043 336.809 299.543 336.809ZM298.902 347.627C299.389 347.744 299.689 348.232 299.572 348.719C299.264 350.006 298.843 351.316 298.262 352.608C298.057 353.064 297.522 353.267 297.065 353.062C296.609 352.858 296.406 352.322 296.611 351.866C297.138 350.692 297.526 349.491 297.811 348.297C297.928 347.811 298.416 347.511 298.902 347.627ZM293.996 357.345C294.335 357.713 294.311 358.285 293.943 358.624C292.985 359.506 291.887 360.331 290.632 361.08C290.203 361.336 289.647 361.196 289.391 360.766C289.134 360.337 289.275 359.781 289.704 359.525C290.855 358.838 291.852 358.088 292.717 357.292C293.085 356.953 293.658 356.977 293.996 357.345ZM284.516 362.76C284.648 363.242 284.363 363.74 283.881 363.871C282.658 364.205 281.346 364.49 279.939 364.72C279.446 364.8 278.981 364.466 278.9 363.972C278.819 363.479 279.154 363.013 279.647 362.933C280.996 362.712 282.246 362.441 283.405 362.125C283.887 361.993 284.385 362.277 284.516 362.76ZM273.644 364.442C273.659 364.941 273.265 365.358 272.765 365.373C272.111 365.391 271.44 365.401 270.754 365.401C270.254 365.401 269.849 364.996 269.849 364.496C269.849 363.996 270.254 363.59 270.754 363.59C271.424 363.59 272.076 363.581 272.713 363.563C273.213 363.548 273.63 363.942 273.644 364.442Z" fill="black"/>
<path d="M272.846 227.301C269.879 212.273 276.759 201.953 282.915 199.056C291.314 207.385 305.075 215.532 305.075 239.976V260.979C296.384 262.789 289.976 259.53 291.314 247.218C292.834 233.232 275.231 239.38 272.846 227.301Z" fill="black"/>
<path d="M256.581 308.444C251.863 293.298 240.542 300.589 235.201 300.726C235.201 315.207 232.614 335.813 234.571 339.922L236.125 344.55C242.862 342.757 261.731 337.477 250.642 328.931C241.892 322.187 259.457 317.675 256.581 308.444Z" fill="black"/>
<path d="M283.271 285.857C287.09 281.918 284.264 275.24 279.539 267.674C277.443 263.921 279.136 262.674 279.502 261.986C281.507 258.215 278.332 252.02 273.259 252.342C268.929 252.616 265.8 255.117 264.307 256.869C263.878 257.372 263.314 257.768 262.672 257.926C248.077 261.513 250.934 268.461 252.874 271.934C254.268 274.431 260.032 276.987 264.291 278.382C265.477 278.771 266.525 279.508 267.288 280.496C274.032 289.224 279.512 289.734 283.271 285.857Z" fill="black"/>
<path d="M243.732 218.429C239.821 214.228 232.519 221.266 231.131 222.05C230.286 239.312 232.362 267.316 233.231 267.316C234.317 267.316 239.93 267.497 239.749 263.514C239.568 259.53 238.482 258.444 245.724 257.176C252.967 255.909 252.061 249.934 243.732 242.51C235.403 235.087 248.621 223.68 243.732 218.429Z" fill="black"/>
<path d="M257.334 221.335C257.614 220.248 259.157 220.248 259.438 221.335L261.347 228.736C261.446 229.118 261.745 229.417 262.128 229.516L269.528 231.425C270.615 231.706 270.615 233.249 269.528 233.529L262.128 235.438C261.745 235.537 261.446 235.836 261.347 236.219L259.438 243.62C259.157 244.706 257.614 244.706 257.334 243.62L255.425 236.219C255.326 235.836 255.027 235.537 254.644 235.438L247.243 233.529C246.157 233.249 246.157 231.706 247.243 231.425L254.644 229.516C255.027 229.417 255.326 229.118 255.425 228.736L257.334 221.335Z" fill="white"/>
<path fill-rule="evenodd" clip-rule="evenodd" d="M258.386 224.505L257.178 229.188C256.915 230.209 256.117 231.006 255.096 231.269L250.414 232.477L255.096 233.685C256.117 233.948 256.915 234.746 257.178 235.767L258.386 240.449L259.594 235.767C259.857 234.746 260.654 233.948 261.675 233.685L266.358 232.477L261.675 231.269C260.654 231.006 259.857 230.209 259.594 229.188L258.386 224.505ZM259.438 221.335C259.157 220.248 257.614 220.248 257.334 221.335L255.425 228.736C255.326 229.118 255.027 229.417 254.644 229.516L247.243 231.425C246.157 231.706 246.157 233.249 247.243 233.529L254.644 235.438C255.027 235.537 255.326 235.836 255.425 236.219L257.334 243.62C257.614 244.706 259.157 244.706 259.438 243.62L261.347 236.219C261.446 235.836 261.745 235.537 262.128 235.438L269.528 233.529C270.615 233.249 270.615 231.706 269.528 231.425L262.128 229.516C261.745 229.417 261.446 229.118 261.347 228.736L259.438 221.335Z" fill="black"/>
<path d="M269.838 296.781C270.119 295.694 271.662 295.694 271.942 296.781L273.7 303.597C273.799 303.98 274.098 304.279 274.481 304.378L281.297 306.136C282.384 306.416 282.384 307.959 281.297 308.24L274.481 309.998C274.098 310.097 273.799 310.396 273.7 310.779L271.942 317.595C271.662 318.682 270.119 318.682 269.838 317.595L268.08 310.779C267.981 310.396 267.682 310.097 267.299 309.998L260.483 308.24C259.397 307.959 259.397 306.416 260.483 306.136L267.299 304.378C267.682 304.279 267.981 303.98 268.08 303.597L269.838 296.781Z" fill="#F24822"/>
<path fill-rule="evenodd" clip-rule="evenodd" d="M270.89 299.952L269.833 304.049C269.57 305.07 268.773 305.867 267.752 306.131L263.654 307.188L267.752 308.245C268.773 308.508 269.57 309.305 269.833 310.326L270.89 314.424L271.947 310.326C272.211 309.305 273.008 308.508 274.029 308.245L278.126 307.188L274.029 306.131C273.008 305.867 272.211 305.07 271.947 304.049L270.89 299.952ZM271.942 296.781C271.662 295.694 270.119 295.694 269.838 296.781L268.08 303.597C267.981 303.98 267.682 304.279 267.299 304.378L260.483 306.136C259.397 306.416 259.397 307.959 260.483 308.24L267.299 309.998C267.682 310.097 267.981 310.396 268.08 310.779L269.838 317.595C270.119 318.682 271.662 318.682 271.942 317.595L273.7 310.779C273.799 310.396 274.098 310.097 274.481 309.998L281.297 308.24C282.384 307.959 282.384 306.416 281.297 306.136L274.481 304.378C274.098 304.279 273.799 303.98 273.7 303.597L271.942 296.781Z" fill="black"/>
<path d="M245.746 274.46C246.026 273.373 247.57 273.373 247.85 274.46L249.014 278.973C249.113 279.356 249.412 279.655 249.795 279.754L254.308 280.918C255.395 281.198 255.395 282.742 254.308 283.022L249.795 284.186C249.412 284.285 249.113 284.584 249.014 284.967L247.85 289.48C247.57 290.567 246.026 290.567 245.746 289.48L244.582 284.967C244.483 284.584 244.184 284.285 243.801 284.186L239.288 283.022C238.201 282.742 238.201 281.198 239.288 280.918L243.801 279.754C244.184 279.655 244.483 279.356 244.582 278.973L245.746 274.46Z" fill="white"/>
<path fill-rule="evenodd" clip-rule="evenodd" d="M246.798 277.631L246.335 279.426C246.072 280.447 245.274 281.244 244.253 281.507L242.459 281.97L244.253 282.433C245.274 282.696 246.072 283.494 246.335 284.515L246.798 286.309L247.261 284.515C247.524 283.494 248.321 282.696 249.342 282.433L251.137 281.97L249.342 281.507C248.321 281.244 247.524 280.447 247.261 279.426L246.798 277.631ZM247.85 274.46C247.57 273.373 246.026 273.373 245.746 274.46L244.582 278.973C244.483 279.356 244.184 279.655 243.801 279.754L239.288 280.918C238.201 281.198 238.201 282.742 239.288 283.022L243.801 284.186C244.184 284.285 244.483 284.584 244.582 284.967L245.746 289.48C246.026 290.567 247.57 290.567 247.85 289.48L249.014 284.967C249.113 284.584 249.412 284.285 249.795 284.186L254.308 283.022C255.395 282.742 255.395 281.198 254.308 280.918L249.795 279.754C249.412 279.655 249.113 279.356 249.014 278.973L247.85 274.46Z" fill="black"/>
</svg>
