<svg width="500" height="500" viewBox="0 0 500 500" fill="none" xmlns="http://www.w3.org/2000/svg">
<rect width="500" height="500" fill="#FFEBEE"/>
<rect x="25" y="25" width="450" height="450" rx="20" stroke="#FF77E6" stroke-width="10"/>
<path d="M227.136 324.811C215.943 324.811 206.522 317.349 203.537 307.182H167.904C127.234 307.182 94.12 274.067 94.12 233.398V116.425C94.12 98.7022 108.578 84.2439 126.301 84.2439H171.169C188.892 84.2439 203.35 98.7022 203.35 116.425V197.951H203.816C207.081 188.25 216.316 181.254 227.136 181.254C233.386 181.254 239.356 183.68 244.02 187.971L293.831 235.17C298.682 239.834 301.48 246.27 301.48 252.986C301.48 259.702 298.682 266.232 293.831 270.803L244.02 318.002C239.356 322.386 233.386 324.811 227.136 324.811Z" fill="white"/>
<path d="M283.757 245.71L233.946 198.511C227.509 192.355 216.876 196.925 216.876 205.88V212.41H188.892V116.425C188.892 106.631 180.963 98.7021 171.169 98.7021H126.301C116.507 98.7021 108.578 106.631 108.578 116.425V233.398C108.578 266.139 135.163 292.723 167.904 292.723H188.892H216.876V300.185C216.876 309.047 227.509 313.618 233.946 307.555L283.757 260.355C287.954 256.437 287.954 249.721 283.757 245.71Z" fill="#4BC17E"/>
<path d="M274.336 248.415L233.666 206.906C230.588 203.735 225.177 205.973 225.177 210.357V221.085L179.471 222.204V120.903C179.471 114.466 174.247 109.243 167.811 109.243H130.126C123.69 109.243 118.466 114.466 118.466 120.903V232.931C118.466 260.542 141.04 282.742 168.557 282.369L202.044 281.903H225.084V293.283C225.084 297.76 230.494 299.906 233.573 296.734L274.242 255.225C276.295 253.359 276.295 250.281 274.336 248.415Z" fill="#010101"/>
<path d="M148.502 150.752C159.32 150.752 168.091 141.982 168.091 131.163C168.091 120.345 159.32 111.575 148.502 111.575C137.683 111.575 128.913 120.345 128.913 131.163C128.913 141.982 137.683 150.752 148.502 150.752Z" fill="#FF77E6"/>
<path d="M148.502 177.896C159.32 177.896 168.091 169.126 168.091 158.307C168.091 147.489 159.32 138.719 148.502 138.719C137.683 138.719 128.913 147.489 128.913 158.307C128.913 169.126 137.683 177.896 148.502 177.896Z" fill="#FF77E6"/>
<path d="M148.502 208.865C159.32 208.865 168.091 200.095 168.091 189.276C168.091 178.458 159.32 169.688 148.502 169.688C137.683 169.688 128.913 178.458 128.913 189.276C128.913 200.095 137.683 208.865 148.502 208.865Z" fill="#FF77E6"/>
<path d="M148.502 237.409C159.32 237.409 168.091 228.638 168.091 217.82C168.091 207.001 159.32 198.231 148.502 198.231C137.683 198.231 128.913 207.001 128.913 217.82C128.913 228.638 137.683 237.409 148.502 237.409Z" fill="#FF77E6"/>
<path d="M148.502 263.993C159.32 263.993 168.091 255.223 168.091 244.404C168.091 233.586 159.32 224.816 148.502 224.816C137.683 224.816 128.913 233.586 128.913 244.404C128.913 255.223 137.683 263.993 148.502 263.993Z" fill="#FF77E6"/>
<path d="M156.77 132.189C156.883 132.506 156.963 132.87 157.008 133.278C157.076 133.664 157.11 134.061 157.11 134.47C157.11 134.878 157.076 135.287 157.008 135.695C156.963 136.081 156.894 136.422 156.804 136.717C156.44 137.988 155.714 139.055 154.625 139.917C153.535 140.757 152.287 141.37 150.88 141.755C149.495 142.141 148.054 142.278 146.556 142.164C145.081 142.051 143.764 141.676 142.607 141.041C141.88 140.632 141.256 140.133 140.734 139.543C140.212 138.952 139.77 138.294 139.406 137.568C139.27 137.318 139.179 137.035 139.134 136.717C139.111 136.376 139.145 136.059 139.236 135.763C139.327 135.446 139.474 135.173 139.679 134.946C139.883 134.697 140.167 134.526 140.53 134.436C140.757 134.39 141.006 134.368 141.279 134.368C141.574 134.368 141.858 134.413 142.13 134.504C142.402 134.572 142.652 134.697 142.879 134.878C143.106 135.037 143.288 135.264 143.424 135.559C143.673 136.036 144.025 136.478 144.479 136.887C144.956 137.273 145.455 137.591 145.977 137.84C146.726 138.09 147.475 138.192 148.224 138.147C148.996 138.101 149.688 137.931 150.301 137.636C150.936 137.341 151.447 136.944 151.833 136.444C152.219 135.922 152.412 135.332 152.412 134.674C152.412 134.129 152.332 133.687 152.173 133.346C152.015 132.983 151.788 132.688 151.493 132.461C151.22 132.211 150.88 132.007 150.471 131.848C150.085 131.689 149.654 131.553 149.177 131.44C148.633 131.326 148.077 131.247 147.509 131.201C146.964 131.156 146.408 131.099 145.841 131.031C145.274 130.963 144.717 130.872 144.173 130.759C143.628 130.645 143.095 130.475 142.573 130.248C141.529 129.817 140.734 129.159 140.189 128.273C139.645 127.388 139.316 126.435 139.202 125.414C139.111 124.392 139.236 123.382 139.577 122.384C139.917 121.362 140.462 120.488 141.211 119.762C141.937 119.104 142.8 118.639 143.798 118.366C144.82 118.071 145.943 117.901 147.169 117.856C147.85 117.833 148.531 117.856 149.211 117.924C149.915 117.992 150.585 118.105 151.22 118.264C151.878 118.423 152.48 118.627 153.025 118.877C153.592 119.127 154.08 119.422 154.489 119.762C154.784 119.989 155.079 120.295 155.374 120.681C155.669 121.044 155.896 121.442 156.055 121.873C156.214 122.281 156.259 122.679 156.191 123.064C156.145 123.45 155.907 123.779 155.476 124.052C155.113 124.279 154.761 124.381 154.42 124.358C154.103 124.313 153.796 124.211 153.501 124.052C153.206 123.87 152.922 123.666 152.65 123.439C152.378 123.212 152.128 123.008 151.901 122.826C151.288 122.372 150.528 122.066 149.62 121.907C148.712 121.748 147.861 121.714 147.067 121.805C146.567 121.873 146.102 121.986 145.671 122.145C145.239 122.304 144.865 122.52 144.547 122.792C144.252 123.064 144.014 123.405 143.832 123.813C143.673 124.199 143.617 124.642 143.662 125.141C143.685 125.504 143.787 125.811 143.968 126.06C144.173 126.31 144.411 126.514 144.683 126.673C144.978 126.832 145.296 126.957 145.637 127.048C145.977 127.139 146.318 127.207 146.658 127.252C147.679 127.388 148.701 127.49 149.722 127.558C150.744 127.627 151.742 127.854 152.718 128.239C153.717 128.625 154.568 129.147 155.272 129.806C155.975 130.464 156.475 131.258 156.77 132.189Z" fill="white"/>
<path d="M156.879 147.218C157.129 147.513 157.253 147.819 157.253 148.137C157.253 148.273 157.242 148.42 157.219 148.579C157.219 148.716 157.208 148.84 157.185 148.954C157.117 149.204 156.97 149.442 156.743 149.669C156.561 149.805 156.311 149.907 155.994 149.975C155.835 150.021 155.676 150.055 155.517 150.077C155.358 150.1 155.188 150.134 155.006 150.179C154.848 150.202 154.689 150.214 154.53 150.214C154.371 150.214 154.201 150.214 154.019 150.214H152.283C151.874 150.236 151.466 150.248 151.057 150.248C150.671 150.248 150.285 150.248 149.9 150.248C149.922 150.951 149.934 151.712 149.934 152.529C149.934 153.323 149.922 154.254 149.9 155.32C149.9 156.387 149.888 157.624 149.866 159.031C149.866 160.439 149.866 162.073 149.866 163.934V166.521C149.866 166.748 149.877 166.919 149.9 167.032C149.9 167.123 149.9 167.214 149.9 167.304C149.9 167.372 149.888 167.463 149.866 167.577C149.82 167.781 149.786 168.019 149.763 168.292C149.763 168.405 149.752 168.519 149.729 168.632C149.707 168.723 149.673 168.825 149.627 168.939C149.536 169.029 149.491 169.097 149.491 169.143L149.389 169.347C149.275 169.574 149.06 169.79 148.742 169.994C148.243 170.244 147.687 170.3 147.074 170.164C146.688 170.119 146.393 170.017 146.189 169.858C145.984 169.654 145.837 169.449 145.746 169.245C145.61 168.995 145.53 168.757 145.508 168.53C145.44 168.326 145.406 168.11 145.406 167.883V150.384C145.269 150.384 144.986 150.384 144.554 150.384C144.123 150.384 143.658 150.384 143.159 150.384C142.682 150.361 142.228 150.338 141.797 150.316C141.365 150.293 141.07 150.27 140.912 150.248C140.775 150.225 140.56 150.191 140.265 150.145C139.992 150.1 139.765 150.055 139.584 150.009C139.107 149.873 138.733 149.657 138.46 149.362C138.211 149.067 138.086 148.738 138.086 148.375C138.086 148.239 138.086 148.103 138.086 147.967C138.086 147.83 138.108 147.706 138.154 147.592C138.222 147.32 138.404 147.093 138.699 146.911C138.789 146.843 138.926 146.764 139.107 146.673C139.311 146.559 139.504 146.48 139.686 146.434C139.958 146.344 140.299 146.276 140.707 146.23C140.889 146.207 141.07 146.196 141.252 146.196C141.434 146.196 141.626 146.196 141.831 146.196C142.625 146.196 143.374 146.196 144.078 146.196C144.804 146.196 145.564 146.185 146.359 146.162C147.675 146.139 148.98 146.139 150.274 146.162C151.59 146.162 152.896 146.185 154.189 146.23C154.484 146.253 154.768 146.287 155.04 146.332C155.313 146.378 155.585 146.457 155.858 146.571C156.062 146.639 156.255 146.73 156.436 146.843C156.618 146.934 156.765 147.059 156.879 147.218Z" fill="white"/>
<path d="M158.128 196.121C158.15 196.257 158.162 196.393 158.162 196.529C158.184 196.643 158.196 196.779 158.196 196.938C158.196 197.21 158.116 197.46 157.957 197.687C157.889 197.801 157.799 197.914 157.685 198.027C157.572 198.118 157.435 198.198 157.277 198.266C156.709 198.584 156.108 198.697 155.472 198.606C155.154 198.515 154.871 198.368 154.621 198.164C154.576 198.118 154.542 198.096 154.519 198.096C154.496 198.073 154.473 198.039 154.451 197.993C154.428 197.971 154.405 197.948 154.383 197.925C154.36 197.88 154.326 197.846 154.281 197.823C154.167 197.71 154.076 197.608 154.008 197.517C153.94 197.403 153.872 197.29 153.804 197.176C153.759 197.063 153.702 196.961 153.634 196.87C153.588 196.756 153.532 196.643 153.463 196.529C153.418 196.439 153.373 196.359 153.327 196.291C153.282 196.2 153.248 196.11 153.225 196.019C153.134 195.815 153.078 195.633 153.055 195.474L152.34 193.806C150.774 193.806 149.208 193.817 147.642 193.84C146.098 193.84 144.544 193.829 142.977 193.806L142.262 195.474C142.217 195.565 142.183 195.656 142.16 195.746C142.16 195.837 142.138 195.928 142.092 196.019C142.047 196.11 142.001 196.2 141.956 196.291C141.933 196.359 141.899 196.439 141.854 196.529C141.786 196.643 141.718 196.756 141.65 196.87C141.604 196.961 141.548 197.063 141.479 197.176C141.434 197.29 141.377 197.403 141.309 197.517C141.241 197.608 141.15 197.71 141.037 197.823C140.991 197.846 140.957 197.88 140.935 197.925C140.912 197.948 140.889 197.971 140.867 197.993C140.844 198.039 140.821 198.073 140.799 198.096C140.776 198.096 140.742 198.118 140.696 198.164C140.447 198.368 140.163 198.515 139.845 198.606C139.21 198.697 138.608 198.584 138.041 198.266C137.882 198.198 137.746 198.118 137.632 198.027C137.519 197.914 137.428 197.801 137.36 197.687C137.201 197.46 137.122 197.21 137.122 196.938C137.122 196.779 137.122 196.643 137.122 196.529C137.144 196.393 137.167 196.257 137.19 196.121C137.235 195.917 137.292 195.712 137.36 195.508C137.428 195.304 137.462 195.202 137.462 195.202L144.544 177.77L144.748 177.226C144.793 177.089 144.85 176.965 144.918 176.851C144.986 176.738 145.043 176.601 145.088 176.443C145.202 176.148 145.327 175.887 145.463 175.66C145.531 175.523 145.61 175.399 145.701 175.285C145.792 175.172 145.883 175.058 145.973 174.945C146.11 174.763 146.303 174.615 146.552 174.502C146.87 174.389 147.233 174.332 147.642 174.332C148.073 174.332 148.447 174.389 148.765 174.502C149.015 174.615 149.208 174.763 149.344 174.945C149.503 175.149 149.673 175.387 149.855 175.66C149.991 175.887 150.116 176.148 150.229 176.443C150.275 176.601 150.331 176.738 150.399 176.851C150.467 176.965 150.524 177.089 150.57 177.226L150.774 177.77L157.855 195.202C157.855 195.202 157.889 195.304 157.957 195.508C158.026 195.712 158.082 195.917 158.128 196.121ZM150.059 187.78C149.764 187.122 149.457 186.441 149.14 185.737C148.845 185.033 148.527 184.318 148.186 183.592C148.096 183.388 148.005 183.184 147.914 182.979C147.823 182.752 147.732 182.537 147.642 182.332C147.574 182.537 147.494 182.752 147.403 182.979C147.313 183.184 147.222 183.388 147.131 183.592C146.791 184.318 146.461 185.033 146.144 185.737C145.849 186.441 145.554 187.122 145.258 187.78L144.646 189.278H150.672L150.059 187.78Z" fill="white"/>
<path d="M156.435 225.108C156.457 225.335 156.435 225.55 156.366 225.755C156.321 225.891 156.253 226.004 156.162 226.095C156.094 226.186 156.003 226.277 155.89 226.367C155.686 226.504 155.436 226.628 155.141 226.742C154.959 226.787 154.778 226.821 154.596 226.844C154.437 226.889 154.267 226.889 154.085 226.844C153.722 226.821 153.405 226.685 153.132 226.435C152.746 226.118 152.429 225.766 152.179 225.38C152.065 225.198 151.941 224.994 151.804 224.767C151.668 224.54 151.543 224.302 151.43 224.052L147.651 216.869C147.469 216.869 147.288 216.88 147.106 216.903C146.925 216.903 146.743 216.914 146.561 216.937C146.085 216.982 145.631 216.994 145.2 216.971C144.791 216.948 144.36 216.948 143.906 216.971H143.259V223.133C143.259 223.315 143.248 223.485 143.225 223.644C143.225 223.803 143.225 223.973 143.225 224.154C143.225 224.268 143.214 224.415 143.191 224.597C143.191 224.779 143.18 224.949 143.157 225.108C143.111 225.357 143.009 225.618 142.85 225.891C142.692 226.14 142.476 226.356 142.204 226.538C141.727 226.833 141.148 226.912 140.467 226.776C140.172 226.708 139.888 226.594 139.616 226.435C139.525 226.367 139.446 226.288 139.378 226.197C139.31 226.084 139.253 225.97 139.208 225.857C139.162 225.743 139.117 225.63 139.071 225.516C139.049 225.38 139.015 225.255 138.969 225.142C138.901 224.915 138.867 224.699 138.867 224.495V205.157C138.867 205.021 138.867 204.885 138.867 204.748C138.89 204.59 138.912 204.453 138.935 204.34C138.958 204.09 139.037 203.841 139.173 203.591C139.242 203.319 139.355 203.126 139.514 203.012C139.65 202.876 139.854 202.762 140.127 202.672C140.422 202.558 140.842 202.513 141.386 202.536C142.408 202.558 143.418 202.57 144.417 202.57C145.415 202.57 146.414 202.592 147.413 202.638C148.071 202.683 148.763 202.762 149.489 202.876C150.238 202.967 150.931 203.137 151.566 203.387C151.975 203.546 152.349 203.704 152.69 203.863C153.121 204.113 153.461 204.351 153.711 204.578C154.505 205.305 155.107 206.178 155.515 207.2C155.924 208.221 156.128 209.254 156.128 210.298C156.128 211.524 155.833 212.647 155.243 213.668C154.676 214.69 153.756 215.45 152.485 215.949C152.44 215.995 152.372 216.029 152.281 216.052C152.213 216.052 152.156 216.063 152.111 216.086L155.243 222.384L155.549 222.929C155.595 223.02 155.652 223.122 155.72 223.235C155.788 223.349 155.844 223.462 155.89 223.576C155.958 223.689 156.015 223.814 156.06 223.95C156.128 224.086 156.196 224.211 156.264 224.325C156.332 224.642 156.389 224.903 156.435 225.108ZM147.923 212.987C148.332 212.987 148.718 212.919 149.081 212.783C149.467 212.624 149.807 212.42 150.102 212.17C150.42 211.921 150.681 211.637 150.885 211.319C151.089 210.979 151.203 210.616 151.226 210.23C151.316 209.095 151.021 208.255 150.34 207.71C149.66 207.143 148.763 206.837 147.651 206.791C146.993 206.746 146.266 206.723 145.472 206.723C144.7 206.723 143.963 206.723 143.259 206.723C143.282 207.654 143.282 208.607 143.259 209.583C143.259 210.536 143.259 211.671 143.259 212.987H147.923Z" fill="white"/>
<path d="M156.879 231.725C157.129 232.02 157.253 232.326 157.253 232.644C157.253 232.78 157.242 232.928 157.219 233.087C157.219 233.223 157.208 233.348 157.185 233.461C157.117 233.711 156.97 233.949 156.743 234.176C156.561 234.312 156.311 234.414 155.994 234.483C155.835 234.528 155.676 234.562 155.517 234.585C155.358 234.607 155.188 234.641 155.006 234.687C154.848 234.709 154.689 234.721 154.53 234.721C154.371 234.721 154.201 234.721 154.019 234.721H152.283C151.874 234.744 151.466 234.755 151.057 234.755C150.671 234.755 150.285 234.755 149.9 234.755C149.922 235.459 149.934 236.219 149.934 237.036C149.934 237.83 149.922 238.761 149.9 239.828C149.9 240.894 149.888 242.131 149.866 243.539C149.866 244.946 149.866 246.58 149.866 248.441V251.029C149.866 251.256 149.877 251.426 149.9 251.539C149.9 251.63 149.9 251.721 149.9 251.812C149.9 251.88 149.888 251.971 149.866 252.084C149.82 252.288 149.786 252.527 149.763 252.799C149.763 252.913 149.752 253.026 149.729 253.139C149.707 253.23 149.673 253.332 149.627 253.446C149.536 253.537 149.491 253.605 149.491 253.65L149.389 253.854C149.275 254.081 149.06 254.297 148.742 254.501C148.243 254.751 147.687 254.808 147.074 254.672C146.688 254.626 146.393 254.524 146.189 254.365C145.984 254.161 145.837 253.957 145.746 253.752C145.61 253.503 145.53 253.264 145.508 253.037C145.44 252.833 145.406 252.617 145.406 252.39V234.891C145.269 234.891 144.986 234.891 144.554 234.891C144.123 234.891 143.658 234.891 143.159 234.891C142.682 234.868 142.228 234.846 141.797 234.823C141.365 234.8 141.07 234.778 140.912 234.755C140.775 234.732 140.56 234.698 140.265 234.653C139.992 234.607 139.765 234.562 139.584 234.517C139.107 234.38 138.733 234.165 138.46 233.87C138.211 233.575 138.086 233.246 138.086 232.882C138.086 232.746 138.086 232.61 138.086 232.474C138.086 232.338 138.108 232.213 138.154 232.099C138.222 231.827 138.404 231.6 138.699 231.418C138.789 231.35 138.926 231.271 139.107 231.18C139.311 231.067 139.504 230.987 139.686 230.942C139.958 230.851 140.299 230.783 140.707 230.738C140.889 230.715 141.07 230.703 141.252 230.703C141.434 230.703 141.626 230.703 141.831 230.703C142.625 230.703 143.374 230.703 144.078 230.703C144.804 230.703 145.564 230.692 146.359 230.669C147.675 230.647 148.98 230.647 150.274 230.669C151.59 230.669 152.896 230.692 154.189 230.738C154.484 230.76 154.768 230.794 155.04 230.84C155.313 230.885 155.585 230.964 155.858 231.078C156.062 231.146 156.255 231.237 156.436 231.35C156.618 231.441 156.765 231.566 156.879 231.725Z" fill="white"/>
<path d="M232.92 239.834H178.724V262.408H232.92V239.834Z" fill="#FFCA49"/>
<path d="M254.001 251.121L232.08 227.428V274.814L254.001 251.121Z" fill="#FFCA49"/>
<path d="M252.201 399.666C249.748 399.666 247.295 399.484 244.752 399.03C237.847 397.849 232.033 394.124 228.58 388.583C227.036 386.493 225.855 384.04 224.856 381.224C220.586 368.686 228.308 349.79 228.308 349.79C228.308 349.79 212.318 335.89 210.774 304.91C210.138 292.555 214.862 280.835 222.493 271.387C214.862 261.938 210.774 250.219 210.774 237.863C210.774 223.509 216.316 210.063 226.4 199.979C231.76 194.619 238.12 190.531 245.024 187.896V162.095C245.024 144.016 259.651 129.389 277.73 129.389H335.783C353.862 129.389 368.489 144.016 368.489 162.095V199.252C368.761 199.434 368.943 199.706 369.215 199.888C388.748 219.421 390.02 250.31 373.122 271.296C390.02 292.282 388.748 323.262 369.215 342.704C362.674 349.245 354.68 353.878 345.958 356.331C341.961 367.415 336.6 376.318 330.059 382.859C323.7 389.218 316.432 393.216 308.346 394.851C306.438 395.487 304.349 395.85 302.259 395.941C301.714 395.941 301.078 395.941 300.533 395.941C296.354 395.941 292.448 395.215 288.995 393.852L288.541 393.67L288.269 393.579C285.634 392.398 282.454 390.49 279.638 387.401C278.82 388.31 277.912 389.128 277.003 389.945C270.008 396.396 261.65 399.666 252.201 399.666Z" fill="#FDFDFD"/>
<path d="M238.665 373.229C234.849 379.498 239.482 386.039 246.75 387.311C262.013 389.946 273.551 382.133 282.272 359.965C298.444 318.538 267.373 333.71 256.834 346.701C250.748 354.151 243.661 365.144 238.665 373.229Z" fill="#4BC17E"/>
<path d="M293.356 382.768C293.356 382.768 322.973 393.307 336.782 346.156C346.685 312.542 323.7 308.726 301.896 334.346C280.183 359.965 283.998 375.319 293.356 382.768Z" fill="#4BC17E"/>
<path d="M360.857 275.475C358.586 273.204 358.586 269.57 360.857 267.299C377.028 251.128 377.028 224.599 360.857 208.337C344.686 192.166 318.158 192.166 301.896 208.337C299.625 210.609 295.991 210.609 293.719 208.337C277.548 192.166 251.02 192.166 234.758 208.337C218.587 224.509 218.587 251.037 234.758 267.299C237.029 269.57 237.029 273.204 234.758 275.475C218.587 291.646 218.587 318.174 234.758 334.436C250.929 350.608 277.457 350.608 293.719 334.436C295.991 332.165 299.625 332.165 301.896 334.436C318.067 350.608 344.595 350.608 360.857 334.436C377.119 318.174 377.119 291.646 360.857 275.475Z" fill="#FF77E6"/>
<path d="M325.607 301.73L337.872 313.45" stroke="#030401" stroke-width="2.72549" stroke-miterlimit="10" stroke-linecap="round" stroke-linejoin="round"/>
<path d="M257.016 227.779L269.19 239.589" stroke="#030401" stroke-width="2.72549" stroke-miterlimit="10" stroke-linecap="round" stroke-linejoin="round"/>
<path d="M263.285 297.461L251.565 309.635" stroke="#030401" stroke-width="2.72549" stroke-miterlimit="10" stroke-linecap="round" stroke-linejoin="round"/>
<path d="M337.236 228.779L325.426 240.952" stroke="#030401" stroke-width="2.72549" stroke-miterlimit="10" stroke-linecap="round" stroke-linejoin="round"/>
<path d="M297.898 314.995C321.982 314.995 341.506 295.471 341.506 271.387C341.506 247.303 321.982 227.779 297.898 227.779C273.814 227.779 254.291 247.303 254.291 271.387C254.291 295.471 273.814 314.995 297.898 314.995Z" fill="#FFCA49"/>
<path d="M287.996 251.4C287.996 258.85 282.908 264.846 276.549 264.846C270.189 264.846 265.102 258.85 265.102 251.4" stroke="#030401" stroke-width="2.72549" stroke-miterlimit="10" stroke-linecap="round" stroke-linejoin="round"/>
<path d="M330.604 251.4C330.604 258.85 325.517 264.846 319.157 264.846C312.798 264.846 307.71 258.85 307.71 251.4" stroke="#030401" stroke-width="2.72549" stroke-miterlimit="10" stroke-linecap="round" stroke-linejoin="round"/>
<path d="M305.348 265.754C305.348 270.569 301.987 274.567 297.898 274.567C293.81 274.567 290.449 270.66 290.449 265.754" stroke="#030401" stroke-width="2.72549" stroke-miterlimit="10" stroke-linecap="round" stroke-linejoin="round"/>
<path d="M224.31 312.633C224.31 312.633 239.755 318.356 236.03 335.708C236.03 335.708 254.654 331.62 259.378 346.792C259.378 346.792 274.913 330.712 284.18 343.612C284.18 343.612 281.818 314.904 301.987 318.083C301.987 318.083 288.995 298.46 297.989 287.376C297.989 287.376 275.64 290.92 276.367 270.933C276.367 270.933 259.742 286.195 248.295 271.932C248.295 271.932 243.207 289.557 231.215 288.285C231.306 288.285 240.481 310.725 224.31 312.633Z" fill="#FDFDFD"/>
<path d="M259.742 301.004C254.2 292.918 251.02 283.924 250.202 281.289C249.748 281.017 249.385 280.835 248.931 280.835C247.204 281.108 246.568 282.561 246.296 284.287C247.023 286.558 250.202 296.461 256.925 304.092L259.742 301.004Z" fill="#4BC17E"/>
<path d="M247.386 303.911C248.113 305.092 250.384 308.09 252.11 309.635L255.108 306.182C248.385 298.733 245.024 289.466 243.934 285.923C243.57 285.65 243.207 285.559 242.844 285.65C240.118 286.377 240.3 292.646 245.569 303.457C246.205 303.093 247.023 303.275 247.386 303.911Z" fill="#4BC17E"/>
<path d="M279.547 300.55C276.004 290.465 273.642 288.467 271.915 290.738C270.371 292.646 272.824 304.729 272.824 304.729C272.824 304.729 262.376 292.555 259.287 284.651C257.016 278.927 253.564 276.929 253.291 281.835C254.472 285.287 257.289 292.373 261.649 298.823L262.467 297.915C262.921 297.37 263.83 297.279 264.375 297.824C264.92 298.278 265.011 299.187 264.466 299.732L253.2 312.542C264.102 316.993 269.463 322.989 269.644 323.262C270.098 323.807 270.098 324.716 269.553 325.17C269.281 325.351 269.008 325.533 268.645 325.533C268.281 325.533 267.918 325.351 267.646 325.079C267.555 324.988 261.922 318.629 250.475 314.45C250.021 314.268 249.748 313.904 249.657 313.541C249.566 313.178 249.657 312.633 249.93 312.269L250.384 311.724C248.022 309.635 245.297 305.637 245.206 305.455C244.751 304.82 244.933 304.002 245.569 303.548C243.752 300.368 241.027 296.643 240.118 300.186C239.028 304.184 246.75 322.353 259.197 331.075C259.56 330.53 260.196 330.257 260.832 330.53L266.01 332.529C266.737 332.801 267.1 333.619 266.828 334.255C266.646 334.8 266.101 335.163 265.556 335.163C265.374 335.163 265.193 335.163 265.102 335.072L259.923 333.074C259.651 332.983 259.378 332.801 259.287 332.529C254.018 336.526 229.489 356.513 236.302 377.59C243.934 401.12 276.549 354.787 282.091 338.797C287.542 322.899 282.908 309.998 279.547 300.55Z" fill="#4BC17E"/>
<path d="M245.115 305.455C245.206 305.637 247.931 309.634 250.293 311.724L252.11 309.725C250.384 308.181 248.204 305.092 247.386 304.002C246.932 303.366 246.114 303.184 245.478 303.638C245.569 303.911 245.751 304.183 245.842 304.456C246.659 305.91 247.204 307.091 247.204 307.091C246.75 306.182 246.296 305.274 245.842 304.456C245.66 304.183 245.569 303.911 245.387 303.729C244.933 304.002 244.751 304.819 245.115 305.455Z" fill="#030401"/>
<path d="M245.933 304.365C246.387 305.183 246.841 306.091 247.295 307C247.295 307 246.75 305.819 245.933 304.365Z" fill="#030401"/>
<path d="M256.925 304.183C250.202 296.552 246.932 286.649 246.296 284.378C245.932 287.467 247.023 291.555 247.023 291.555C247.023 291.555 245.66 287.194 243.934 286.013C245.024 289.557 248.476 298.823 255.108 306.273L256.925 304.183Z" fill="#030401"/>
<path d="M261.649 298.914C257.289 292.464 254.472 285.377 253.291 281.925C253.2 283.379 253.382 285.468 253.927 288.194C253.927 288.194 252.292 282.925 250.202 281.38C251.02 284.015 254.2 293.009 259.742 301.094L261.649 298.914Z" fill="#030401"/>
<path d="M262.285 302.185C262.013 302.366 261.74 302.457 261.468 302.457C261.013 302.457 260.65 302.276 260.377 301.912C260.196 301.64 260.014 301.367 259.742 301.095L256.925 304.274C257.198 304.638 257.561 305.001 257.925 305.365C258.47 305.91 258.47 306.727 257.925 307.272C257.652 307.545 257.289 307.636 257.016 307.636C256.653 307.636 256.289 307.454 256.017 307.181C255.744 306.909 255.472 306.636 255.199 306.273L252.201 309.725C252.383 309.907 252.474 309.998 252.655 310.089C253.291 310.543 253.382 311.361 252.928 311.997C252.655 312.36 252.292 312.542 251.838 312.542C251.565 312.542 251.293 312.451 251.02 312.269C250.838 312.087 250.566 311.906 250.384 311.724L249.93 312.269C249.657 312.633 249.476 313.087 249.657 313.541C249.839 313.995 250.112 314.359 250.475 314.449C261.922 318.629 267.645 324.988 267.645 325.079C267.918 325.351 268.281 325.533 268.645 325.533C268.917 325.533 269.281 325.442 269.553 325.17C270.098 324.715 270.189 323.807 269.644 323.262C269.372 322.989 264.102 316.993 253.2 312.542L264.466 299.732C264.92 299.187 264.92 298.278 264.375 297.824C263.83 297.37 262.921 297.37 262.467 297.915L261.649 298.823C261.922 299.278 262.285 299.732 262.649 300.186C263.012 300.913 262.921 301.731 262.285 302.185Z" fill="#030401"/>
<path d="M251.747 312.542C252.201 312.542 252.564 312.36 252.837 311.997C253.291 311.361 253.2 310.543 252.564 310.089C252.383 309.998 252.292 309.816 252.11 309.726L250.293 311.724C250.475 311.906 250.747 312.088 250.929 312.269C251.202 312.451 251.474 312.542 251.747 312.542Z" fill="#030401"/>
<path d="M256.925 307.545C257.289 307.545 257.561 307.454 257.834 307.182C258.379 306.637 258.379 305.819 257.834 305.274C257.47 304.91 257.198 304.547 256.834 304.184L255.017 306.273C255.29 306.546 255.563 306.818 255.835 307.182C256.198 307.454 256.562 307.545 256.925 307.545Z" fill="#030401"/>
<path d="M260.378 301.822C260.65 302.185 261.104 302.367 261.468 302.367C261.74 302.367 262.013 302.276 262.285 302.094C262.921 301.64 263.012 300.822 262.558 300.186C262.195 299.732 261.922 299.278 261.559 298.823L259.742 300.913C260.014 301.276 260.196 301.549 260.378 301.822Z" fill="#030401"/>
<path d="M259.742 333.074L264.92 335.072C265.102 335.163 265.283 335.163 265.374 335.163C265.919 335.163 266.465 334.8 266.646 334.255C266.919 333.528 266.555 332.801 265.829 332.528L260.65 330.53C260.014 330.257 259.287 330.53 259.015 331.075C259.378 331.347 259.651 331.529 260.014 331.802C260.014 331.802 259.651 332.074 259.015 332.528C259.287 332.71 259.469 332.892 259.742 333.074Z" fill="#030401"/>
<path d="M302.077 307.454C297.172 299.641 295.991 302.73 295.991 306C297.353 307.363 299.352 309.907 301.441 313.995C301.805 314.631 301.532 315.449 300.806 315.812C300.624 315.903 300.442 315.994 300.17 315.994C299.624 315.994 299.17 315.721 298.989 315.267C295.9 309.089 292.902 306.909 292.902 306.909C292.538 306.636 292.266 306.182 292.357 305.728C287.632 301.185 280.183 294.644 276.458 294.644C274.187 294.644 273.732 295.644 274.005 296.734C276.367 298.46 284.362 304.456 287.905 307.908C288.45 308.453 288.45 309.271 287.905 309.816C287.632 310.089 287.269 310.18 286.906 310.18C286.542 310.18 286.179 310.089 285.906 309.816C281.909 305.91 271.734 298.46 271.643 298.369C271.461 298.278 271.37 298.097 271.279 297.915C270.371 297.824 269.553 297.915 268.917 298.551C268.009 299.368 268.191 300.64 268.736 301.912C268.736 301.912 268.827 301.912 268.827 302.003C269.281 302.276 279.274 309.634 283.362 313.723C283.908 314.268 283.908 315.085 283.362 315.63C283.09 315.903 282.726 315.994 282.363 315.994C282 315.994 281.636 315.903 281.364 315.63C277.821 312.178 269.372 305.819 267.464 304.456C266.374 304.729 265.829 305.91 266.828 307.999C267.01 308.09 267.1 308.09 267.191 308.181C267.645 308.544 278.275 317.084 280.728 320.809C281.182 321.445 281 322.263 280.364 322.717C280.092 322.899 279.91 322.898 279.638 322.898C279.183 322.898 278.729 322.717 278.457 322.263C276.821 319.81 270.462 314.268 266.828 311.361C266.192 311.451 265.647 311.815 265.465 312.905C264.829 317.084 283.544 333.619 283.272 343.794C282.999 353.969 277.639 385.04 301.623 384.04C325.789 383.041 309.164 318.81 302.077 307.454Z" fill="#4BC17E"/>
<path d="M278.547 322.353C278.82 322.717 279.274 322.989 279.728 322.989C280.001 322.989 280.274 322.898 280.455 322.807C281.091 322.353 281.273 321.536 280.819 320.9C278.366 317.084 267.736 308.635 267.282 308.272C267.191 308.181 267.009 308.09 266.919 308.09C267.464 309.362 268.645 310.997 270.553 312.905C270.553 312.905 268.372 311.36 266.919 311.542C270.553 314.358 276.912 319.9 278.547 322.353Z" fill="#030401"/>
<path d="M282.454 316.085C282.817 316.085 283.181 315.994 283.453 315.721C283.998 315.176 283.998 314.359 283.453 313.814C279.365 309.725 269.281 302.457 268.917 302.094C268.917 302.094 268.826 302.094 268.826 302.003C269.735 304.093 271.825 306.273 271.825 306.273C270.462 304.82 268.826 304.274 267.736 304.547C269.644 305.91 278.093 312.178 281.636 315.721C281.727 315.903 282.09 316.085 282.454 316.085Z" fill="#030401"/>
<path d="M271.734 298.46C271.824 298.551 282 306 285.997 309.907C286.27 310.18 286.633 310.27 286.996 310.27C287.36 310.27 287.723 310.18 287.996 309.907C288.541 309.362 288.541 308.544 287.996 307.999C284.453 304.456 276.458 298.551 274.096 296.825C274.459 298.551 276.367 300.64 276.367 300.64C276.367 300.64 273.732 298.369 271.37 298.006C271.37 298.187 271.552 298.369 271.734 298.46Z" fill="#030401"/>
<path d="M292.902 306.909C292.902 306.909 295.9 309.09 298.988 315.267C299.261 315.722 299.715 315.994 300.17 315.994C300.351 315.994 300.624 315.994 300.805 315.812C301.441 315.449 301.714 314.631 301.441 313.995C299.443 309.907 297.353 307.363 295.99 306.001C295.99 307.545 296.263 309.18 296.536 309.816C296.536 309.816 294.809 307.999 292.356 305.637C292.266 306.182 292.447 306.637 292.902 306.909Z" fill="#030401"/>
<path d="M276.458 294.644C270.916 294.644 276.276 300.64 276.276 300.64C276.276 300.64 271.28 296.37 268.917 298.642C266.555 300.913 271.734 306.273 271.734 306.273C268.191 302.548 262.467 304.729 270.644 312.905C270.644 312.905 266.192 309.725 265.647 313.087C265.102 316.539 278.275 328.895 282.272 338.797" stroke="#030401" stroke-width="2.72549" stroke-miterlimit="10" stroke-linecap="round" stroke-linejoin="round"/>
<path d="M312.525 341.614C312.525 341.614 314.524 352.152 314.342 367.324" stroke="#030401" stroke-width="2.72549" stroke-miterlimit="10" stroke-linecap="round" stroke-linejoin="round"/>
<path d="M280.001 343.521C280.001 343.521 265.919 365.961 256.38 376.59" stroke="#030401" stroke-width="2.72549" stroke-miterlimit="10" stroke-linecap="round" stroke-linejoin="round"/>
<path d="M283.453 343.885L282.272 359.965" stroke="#030401" stroke-width="2.72549" stroke-miterlimit="10" stroke-linecap="round" stroke-linejoin="round"/>
<path d="M335.874 222.51H277.821C266.283 222.51 257.016 213.152 257.016 201.705V162.095C257.016 150.557 266.374 141.29 277.821 141.29H335.874C347.411 141.29 356.678 150.648 356.678 162.095V201.705C356.678 213.152 347.411 222.51 335.874 222.51Z" fill="#010101"/>
<path d="M292.084 215.151L302.259 241.134C303.349 243.95 307.256 244.041 308.437 241.225L319.793 215.151H292.084Z" fill="#010101"/>
<path d="M310.254 162.095C311.163 165.093 309.8 167.818 305.439 167.909C302.714 168 299.897 166.365 299.897 166.365L299.806 172.27C299.806 172.27 301.26 169.635 303.985 168.908C310.436 167.182 314.07 173.542 309.164 177.357C303.895 181.536 294.355 179.265 294.355 173.542C294.355 169.817 295.082 167.273 295.082 164.366C295.082 160.55 294.174 158.006 294.446 154.736C294.901 149.467 304.985 146.378 309.436 151.193C311.163 153.01 311.072 156.28 308.891 157.825C303.895 161.277 299.988 156.553 299.988 156.553L299.806 162.004C302.623 158.733 309.346 159.369 310.254 162.095Z" fill="#FFCA49"/>
<path d="M319.248 171.543C319.248 171.543 320.883 169.908 323.791 169.272C329.787 167.909 332.694 177.357 325.426 178.993C318.431 180.537 313.706 178.811 313.706 172.906C313.706 169.09 314.524 166.455 314.524 163.457C314.524 159.551 313.706 156.916 313.888 153.555C314.251 146.923 321.61 147.74 321.065 154.463C320.338 161.186 319.248 171.543 319.248 171.543Z" fill="#FFCA49"/>
<path d="M336.964 171.543C336.964 171.543 338.599 169.908 341.416 169.272C347.412 167.909 350.319 177.357 343.051 178.993C336.055 180.537 331.331 178.811 331.331 172.906C331.331 169.09 332.149 166.455 332.149 163.457C332.149 159.551 331.331 156.916 331.513 153.555C331.876 146.923 339.235 147.74 338.69 154.463C338.054 161.186 336.964 171.543 336.964 171.543Z" fill="#FFCA49"/>
<path d="M290.358 150.012C288.087 148.467 285.452 149.103 284.089 151.647C282.545 154.463 283.454 162.276 283.908 165.093C283.999 165.638 283.544 166.092 282.999 166.001C282.454 166.001 282.091 165.547 282.182 165.002C282.454 163.639 282.908 161.186 282.818 159.187C282.818 157.734 282.363 157.007 281.546 156.462C279.91 155.372 276.276 155.735 276.367 159.187C276.458 161.186 276.731 163.73 277.003 165.002C277.094 165.547 276.731 166.001 276.186 166.001C275.64 166.001 275.277 165.547 275.368 165.002C275.822 162.185 276.731 154.372 275.277 151.556C273.823 148.921 271.189 148.286 269.008 149.83C265.829 152.01 266.374 156.28 266.919 158.733C269.644 169.908 268.009 174.087 269.826 176.903C271.007 178.72 273.278 179.629 275.64 179.083C278.366 178.448 279.274 171.816 279.547 168.454H279.638C279.91 171.816 280.819 178.448 283.544 179.083C285.816 179.629 288.087 178.811 289.359 176.903C291.267 174.087 289.631 169.908 292.357 158.733C292.993 156.553 293.538 152.283 290.358 150.012Z" fill="#FFCA49"/>
<path d="M269.008 184.898C267.827 185.171 267.009 186.261 267.009 187.442C267.009 189.986 266.919 194.528 266.828 199.525C266.737 204.158 266.646 208.247 266.646 210.609C266.646 211.971 267.736 213.152 269.099 213.152C273.642 213.334 282.908 212.335 284.543 201.796C286.633 188.805 278.82 182.355 269.008 184.898ZM273.096 202.977C273.642 197.981 273.278 194.528 273.278 194.528C274.732 194.256 276.912 196.073 277.003 197.981C277.185 202.251 273.096 202.977 273.096 202.977Z" fill="#FFCA49"/>
<path d="M314.433 203.977C314.433 203.977 320.611 210.881 315.16 212.971C312.525 213.97 309.981 212.062 309.164 209.791C308.074 206.793 308.619 203.068 308.437 199.888C308.164 195.891 305.711 185.443 311.617 184.262C314.433 183.717 317.522 185.443 317.976 189.622C318.794 196.89 321.61 197.254 321.61 197.254C321.61 197.254 320.066 193.529 319.884 192.62C318.339 186.897 320.883 184.171 323.609 183.99C330.059 183.626 329.514 188.986 329.423 195.073C329.332 199.252 330.332 209.427 326.97 211.79C325.062 213.152 321.247 213.152 319.521 210.427C318.43 208.701 317.976 207.247 317.249 206.248C315.523 203.977 314.433 203.977 314.433 203.977Z" fill="#FFCA49"/>
<path d="M346.048 196.527C346.957 199.343 345.594 202.069 341.415 202.16C338.781 202.25 336.146 200.706 336.146 200.706L336.055 206.339C336.055 206.339 337.418 203.795 340.052 203.068C346.23 201.433 349.682 207.52 345.049 211.245C339.962 215.242 330.877 213.062 330.877 207.611C330.877 204.067 331.603 201.524 331.603 198.798C331.603 195.164 330.695 192.711 330.967 189.622C331.422 184.535 341.052 181.628 345.322 186.261C346.957 188.078 346.866 191.167 344.777 192.62C339.962 195.891 336.237 191.348 336.237 191.348L336.055 196.527C338.781 193.256 345.231 193.892 346.048 196.527Z" fill="#FFCA49"/>
<path d="M306.438 197.89C306.438 191.712 305.711 183.536 296.172 184.262C293.083 184.535 287.36 184.898 286.906 192.62C286.451 200.343 286.27 207.883 288.813 210.609C291.357 213.334 298.625 214.515 302.623 211.063C306.711 207.611 306.438 202.523 306.438 197.89ZM298.171 198.889C297.808 201.796 298.625 204.249 295.9 203.977C294.083 203.795 294.537 201.433 294.9 198.526C295.264 195.619 294.628 193.166 297.172 193.438C298.807 193.62 298.534 195.982 298.171 198.889Z" fill="#FFCA49"/>
</svg>
