<svg width="500" height="500" viewBox="0 0 500 500" fill="none" xmlns="http://www.w3.org/2000/svg">
<rect width="500" height="500" fill="#FEE9CD"/>
<path d="M417.449 211.203C417.017 207.667 415.203 204.492 412.342 202.265C409.816 200.299 406.611 199.168 403.445 199.072C403.803 198.675 404.148 198.279 404.479 197.885C407.462 194.348 409.309 191.028 410.126 187.738C411.136 183.667 410.494 179.677 408.267 176.198C406.572 173.549 403.633 171.495 400.204 170.564C396.528 169.565 392.776 169.961 389.641 171.681C388.371 172.378 387.238 173.127 386.198 173.931C386.3 173.587 386.396 173.246 386.489 172.909C387.751 168.291 388.125 164.354 387.633 160.873C387.024 156.562 385.006 152.977 381.799 150.506C378.954 148.315 375.459 147.231 371.961 147.454C368.163 147.696 364.783 149.447 362.439 152.385C360.981 154.213 359.888 156.123 359.03 158.123C358.383 155.573 357.52 153.367 356.428 151.462C354.024 147.266 350.417 144.525 346 143.536C342.653 142.788 339.204 143.434 336.291 145.357C333.079 147.476 330.815 150.948 330.082 154.881C328.793 161.793 329.929 166.378 331.369 172.185C332.175 175.438 333.115 179.232 333.848 184.408C332.877 184.136 331.906 183.89 330.945 183.676C322.748 181.842 314.465 182.535 307.625 185.627C305.363 186.65 303.33 187.899 301.546 189.358C301.517 187.054 301.167 184.693 300.497 182.303C298.468 175.076 293.675 168.287 287.002 163.185C286.22 162.587 285.406 162 284.575 161.432C289.011 158.666 292.522 156.946 295.532 155.474C300.904 152.844 305.148 150.768 309.614 145.337C312.156 142.247 313.361 138.281 312.92 134.458C312.519 130.991 310.799 127.934 308.073 125.851C304.477 123.102 300.059 122.102 295.299 122.957C293.138 123.346 290.894 124.102 288.524 125.245C289.505 123.303 290.265 121.237 290.728 118.946C291.471 115.263 290.639 111.546 288.385 108.482C286.307 105.657 283.231 103.677 279.723 102.907C275.768 102.038 271.724 102.797 268.031 105.102C265.048 106.964 262.273 109.781 259.547 113.715C259.348 114.001 259.149 114.295 258.951 114.594C258.899 113.282 258.744 111.932 258.461 110.511C257.762 107.004 255.655 103.875 252.527 101.701C249.608 99.6735 246.147 98.7418 243.029 99.1459C238.931 99.677 235.462 101.75 232.993 105.139C230.997 107.88 229.642 111.429 228.85 115.988C228.761 116.495 228.68 117.012 228.605 117.542C226.498 115.179 223.57 113.45 220.441 112.78C216.895 112.02 213.297 112.671 210.311 114.613C207.303 116.566 205.25 119.172 204.204 122.356C203.261 125.227 203.165 128.435 203.909 132.165C205.057 137.918 208.203 144.942 214.111 154.937C214.115 154.944 214.119 154.951 214.124 154.959C214.127 154.966 214.131 154.973 214.135 154.979L214.187 155.066C214.201 155.088 214.214 155.112 214.225 155.13C215.359 157.12 217.21 162.373 215.436 170.588C212.841 182.595 209.973 191.63 199.308 208.882C196.964 212.675 193.9 216.708 193.626 221.78C193.309 227.653 196.49 233.057 203.349 238.3C206.889 241.006 209.991 242.981 212.806 244.294C215.776 245.679 218.426 246.326 220.935 246.318C226.076 246.301 229.501 243.594 232.524 241.207C233.147 240.715 233.792 240.204 234.445 239.722C240.346 235.367 240.848 235.365 244.985 235.816C252.272 237.011 259.961 236.817 266.654 235.266C274.763 233.387 281.189 229.596 285.236 224.301C285.249 224.283 285.262 224.266 285.276 224.247C285.27 224.269 285.265 224.29 285.26 224.312C283.805 230.816 285.031 238.175 288.805 245.595C291.92 251.719 296.713 257.734 302.312 262.548C305.316 265.427 305.638 265.814 306.094 273.133C306.145 273.943 306.169 274.764 306.192 275.559C306.306 279.409 306.435 283.772 309.726 287.722C311.332 289.649 313.532 291.263 316.502 292.648C319.317 293.961 322.823 295.067 327.172 296.04C335.598 297.924 341.782 296.887 346.077 292.87C349.787 289.4 350.906 284.461 352.305 280.226C358.666 260.967 363.744 252.961 371.273 243.256C376.425 236.616 381.64 234.659 383.893 234.247C383.914 234.244 383.94 234.24 383.967 234.235L384.066 234.219C384.074 234.218 384.082 234.217 384.089 234.215C384.097 234.214 384.105 234.213 384.114 234.211C395.569 232.311 402.971 230.207 408.117 227.389C411.452 225.562 413.848 223.425 415.441 220.858C417.208 218.01 417.884 214.761 417.45 211.203L417.449 211.203Z" fill="white"/>
<path d="M281.345 206.278C277.584 203.403 273.538 205.344 270.441 208.875L276.152 184.416C277.788 188.415 277.28 190.823 278.635 196.172C279.155 198.223 280.363 199.816 282.097 201.14C285.149 203.473 289.664 203.085 293.231 198.418C299.593 190.094 295.946 175.655 283.838 166.4C280.93 164.178 277.602 162.157 274.689 160.817C292.158 148.128 298.488 149.647 305.58 141.024C308.605 137.348 308.618 131.902 304.907 129.067C294.765 121.315 278.644 136.056 261.86 154.195C263.216 151.644 264.896 148.26 266.093 146.258C274.645 131.955 283.658 126.543 285.598 116.934C286.541 112.268 283.186 108.083 278.625 107.082C267.682 104.677 259.102 121.347 252.278 140.808C251.362 143.422 248.974 149.479 248.084 152.248C248.233 149.461 249.1 143.558 249.333 141.304C251.039 124.728 255.008 119.005 253.329 110.569C252.4 105.901 247.391 102.926 243.737 103.398C232.625 104.837 232.225 122.232 234.265 142.753C234.493 145.054 235.159 150.008 235.451 152.403C234.71 150.501 233.321 146.018 232.752 144.374C227.292 128.631 228.791 126.221 225.533 121.161C223.263 117.633 217.737 115.117 213.214 118.057C205.173 123.286 208.485 134.037 218.68 151.289C218.68 151.289 218.684 151.296 218.686 151.299C218.736 151.384 218.788 151.469 218.837 151.555C222.431 157.867 222.503 161.443 220.084 171.572C217.568 182.106 214.351 191.293 207.015 205.605C202.517 214.382 191.504 221.62 206.583 233.146C221.662 244.672 224.682 239.44 231.353 234.515C238.023 229.591 239.769 228.975 245.736 229.626C258.425 231.742 273.969 229.444 281.087 220.132C286.095 213.579 285.056 209.111 281.345 206.275L281.345 206.278Z" fill="#C18874"/>
<path d="M234.833 214.892C245.334 222.919 259.887 221.524 268.987 209.619C269.711 208.671 270.362 207.707 270.942 206.731L274.472 191.616C273.824 185.283 270.54 179.428 265.112 175.279C254.612 167.252 240.059 168.647 230.959 180.552C221.859 192.457 224.333 206.865 234.834 214.891L234.833 214.892Z" fill="#AF7766"/>
<path d="M273.265 183.85C276.221 183.556 279.15 181.937 279.639 178.77C279.796 177.789 279.677 176.752 279.286 175.812C279.184 175.572 279.51 175.368 279.68 175.569C281.424 177.53 281.284 180.656 279.789 182.728C278.353 184.813 275.711 186.055 273.221 185.478C272.298 185.295 272.341 183.979 273.264 183.849L273.265 183.85Z" fill="white"/>
<path d="M266.541 172.026C267.828 170.976 268.748 169.492 269.086 167.862C269.413 166.24 269.317 164.333 268.284 162.971C268.209 162.879 268.223 162.744 268.316 162.669C268.403 162.598 268.518 162.613 268.601 162.676C268.928 162.87 269.21 163.139 269.456 163.43C270.504 164.741 270.882 166.46 270.766 168.124C270.617 170.314 269.479 172.554 267.303 173.298C266.504 173.605 265.899 172.576 266.542 172.026L266.541 172.026Z" fill="#E4F7FE"/>
<path d="M271.966 207.022C280.327 196.082 278.592 180.708 268.09 172.681C257.588 164.655 242.297 167.017 233.937 177.956C225.576 188.896 227.311 204.27 237.813 212.297C248.314 220.323 263.606 217.961 271.966 207.022Z" fill="white"/>
<path d="M241.941 210.909C232.348 203.577 230.089 190.415 238.402 179.54C246.714 168.665 260.007 167.392 269.599 174.724C271.375 176.082 272.9 177.641 274.154 179.347C272.614 176.848 270.579 174.589 268.092 172.688C257.591 164.661 243.038 166.056 233.938 177.961C224.838 189.865 227.312 204.274 237.813 212.3C247.107 219.405 259.576 219.127 268.628 210.714C260.515 217.149 249.942 217.022 241.942 210.907L241.941 210.909Z" fill="#E4F7FE"/>
<path d="M236.557 177.525C232.149 176.221 230.535 170.075 233.911 166.863C234.346 166.441 234.86 166.102 235.417 165.875C235.66 165.773 235.862 166.092 235.664 166.266C234.9 166.939 234.338 167.82 234.049 168.77C233.098 171.831 235.02 174.57 237.547 176.131C238.325 176.661 237.776 177.853 236.872 177.614L236.556 177.524L236.557 177.525Z" fill="#E4F7FE"/>
<path d="M250.991 170.005C247.708 167.849 248.215 162.027 251.23 159.852C251.439 159.706 251.667 159.585 251.901 159.496C252.02 159.434 252.173 159.472 252.221 159.605C252.254 159.691 252.226 159.786 252.16 159.843C251.844 160.115 251.58 160.453 251.366 160.822C250.723 161.926 250.456 163.246 250.489 164.508C250.522 165.759 250.881 166.996 251.524 168.065C251.737 168.416 251.978 168.749 252.24 169.063C252.777 169.726 251.982 170.623 251.263 170.178L250.991 170.006L250.991 170.005Z" fill="#E4F7FE"/>
<path d="M230.547 188.767L222.209 185.265C221.746 185.064 221.951 184.368 222.449 184.451L231.353 186.033C232.133 186.171 232.653 186.915 232.514 187.696C232.367 188.591 231.377 189.126 230.547 188.767Z" fill="#E4F7FE"/>
<path d="M232.752 144.377C230.125 136.802 229.109 132.314 228.4 129.132C228.397 129.118 228.393 129.102 228.39 129.088C228.272 128.571 227.087 123.718 224.128 123.4C222.633 123.24 221.406 124.249 221.044 126.628C219.776 134.974 235.452 152.405 235.452 152.405C234.711 150.504 233.322 146.021 232.753 144.377L232.752 144.377Z" fill="#AF7766"/>
<g opacity="0.5">
<path d="M248.146 152.092L248.158 152.025C248.152 152.042 248.148 152.057 248.142 152.074L248.147 152.093L248.146 152.092Z" fill="#58595B"/>
</g>
<path d="M281.388 125.899C282.198 123.864 282.833 121.163 281.61 119.29C280.554 117.673 278.551 117.274 275.893 118.849C266.564 124.377 261.861 154.195 261.861 154.195C263.217 151.644 264.897 148.26 266.094 146.258C271.702 136.879 277.509 131.323 281.388 125.898L281.388 125.899Z" fill="#AF7766"/>
<path d="M274.688 160.818C269.901 158.54 264.459 156.667 264.459 156.667C264.459 156.667 278.927 152.867 274.688 160.818Z" fill="#AF7766"/>
<path d="M216.721 239.25C200.491 231.275 206.873 223.221 215.027 199.625C223.181 176.03 221.706 162.341 221.705 162.339C221.564 164.809 221.005 167.717 220.082 171.575C217.567 182.109 214.349 191.296 207.014 205.608C202.515 214.385 191.503 221.623 206.581 233.149C210.785 236.362 214.051 238.272 216.72 239.25L216.721 239.25Z" fill="#AF7766"/>
<path d="M228.345 231.484C224.056 237.557 220.969 240.824 216.721 239.25C223.629 241.781 226.542 238.07 231.352 234.518C238.023 229.594 239.768 228.978 245.735 229.629C246.316 229.726 246.905 229.813 247.497 229.891C235.962 227.935 231.954 226.374 228.346 231.483L228.345 231.484Z" fill="#AF7766"/>
<path d="M223.798 205.086C224.411 201.969 227.221 199.519 230.348 199.087C230.816 199.011 231.256 199.329 231.333 199.797C231.421 200.313 231.007 200.796 230.484 200.792C229.817 200.791 229.163 200.869 228.52 201.062C227.206 201.447 226.025 202.259 225.148 203.327C224.701 203.871 224.333 204.49 224.089 205.165C224.028 205.335 223.764 205.268 223.798 205.086Z" fill="#E4F7FE"/>
<path d="M231.599 216.611C231.206 213.458 233.108 210.252 235.942 208.864C236.363 208.645 236.881 208.81 237.099 209.231C237.344 209.694 237.103 210.282 236.605 210.442C235.971 210.65 235.375 210.93 234.823 211.313C233.695 212.089 232.828 213.23 232.329 214.52C232.074 215.177 231.919 215.879 231.899 216.597C231.894 216.777 231.622 216.796 231.598 216.612L231.599 216.611Z" fill="#E4F7FE"/>
<path d="M301.566 215.706C306.186 216.74 307.299 221.087 306.585 225.729L321.651 205.632C317.535 206.95 316.018 208.887 311.049 211.287C309.143 212.207 307.147 212.305 305.018 211.829C301.269 210.991 298.665 207.282 299.947 201.549C302.234 191.325 315.639 184.838 330.512 188.165C334.083 188.964 337.77 190.214 340.669 191.584C339.16 170.045 333.928 166.173 335.975 155.197C336.847 150.518 341.01 147.007 345.567 148.027C358.024 150.813 357.095 172.639 353.988 197.155C355.071 194.477 356.583 191.014 357.347 188.81C362.807 173.066 361.159 162.683 367.273 155.02C370.241 151.298 375.604 151.178 379.302 154.028C388.179 160.866 380.924 178.154 370.402 195.89C368.989 198.272 365.884 203.995 364.335 206.457C366.373 204.551 370.339 200.093 371.916 198.465C383.517 186.503 385.35 179.785 392.891 175.648C397.064 173.359 402.563 175.284 404.55 178.386C410.59 187.823 397.522 199.311 380.491 210.939C378.581 212.244 374.359 214.918 372.336 216.233C374.27 215.579 378.596 213.761 380.222 213.141C395.792 207.203 396.674 204.506 402.644 203.749C406.806 203.221 412.285 205.836 412.94 211.191C414.103 220.712 403.738 225.085 383.97 228.365C383.97 228.365 383.962 228.366 383.958 228.367C383.861 228.383 383.763 228.398 383.665 228.415C376.52 229.72 373.734 231.963 367.529 240.327C361.077 249.025 356.107 257.395 349.859 272.214C346.027 281.302 347.561 294.391 329.04 290.248C310.517 286.106 312.584 280.43 312.069 272.154C311.554 263.878 310.903 262.146 306.569 257.993C296.792 249.632 288.561 236.248 291.119 224.809C292.92 216.761 297.01 214.685 301.568 215.705L301.566 215.706Z" fill="#C18874"/>
<path d="M324.865 256.875C311.966 253.99 303.68 241.945 306.951 227.322C307.211 226.158 307.532 225.04 307.906 223.968L317.216 211.548C322.484 207.974 329.08 206.725 335.748 208.216C348.646 211.101 356.932 223.146 353.662 237.769C350.391 252.392 337.763 259.759 324.865 256.874L324.865 256.875Z" fill="#AF7766"/>
<path d="M323.941 207.48C322.266 205.027 321.623 201.743 323.735 199.333C324.386 198.582 325.257 198.006 326.228 197.701C326.478 197.626 326.424 197.245 326.162 197.243C323.538 197.167 321.233 199.284 320.607 201.761C319.932 204.202 320.68 207.024 322.722 208.561C323.456 209.15 324.436 208.271 323.942 207.481L323.941 207.48Z" fill="white"/>
<path d="M337.321 205.031C337.298 203.37 337.843 201.712 338.875 200.405C339.907 199.112 341.43 197.959 343.137 197.876C343.255 197.874 343.35 197.776 343.348 197.657C343.347 197.544 343.261 197.466 343.159 197.443C342.8 197.318 342.413 197.274 342.032 197.273C340.354 197.312 338.794 198.128 337.595 199.287C336.013 200.809 335.028 203.12 335.856 205.265C336.135 206.074 337.312 205.877 337.32 205.03L337.321 205.031Z" fill="#E4F7FE"/>
<path d="M324.927 252.933C337.825 255.819 350.719 247.266 353.725 233.829C356.73 220.393 348.711 207.161 335.812 204.276C322.913 201.39 310.02 209.943 307.014 223.38C304.008 236.816 312.028 250.048 324.927 252.933Z" fill="white"/>
<path d="M323.347 248.869C335.13 251.505 346.665 244.776 349.652 231.417C352.639 218.059 345.071 207.058 333.289 204.423C331.107 203.935 328.932 203.768 326.819 203.905C329.723 203.478 332.762 203.585 335.817 204.268C348.716 207.153 357.002 219.198 353.731 233.821C350.461 248.444 337.833 255.811 324.935 252.926C313.518 250.373 305.716 240.643 306.342 228.301C306.628 238.652 313.522 246.669 323.348 248.867L323.347 248.869Z" fill="#E4F7FE"/>
<path d="M352.382 231.534C356.214 234.073 361.959 231.359 362.25 226.708C362.294 226.103 362.223 225.492 362.039 224.919C361.96 224.667 361.587 224.718 361.58 224.982C361.556 225.999 361.242 226.997 360.7 227.829C358.966 230.524 355.633 230.813 352.813 229.88C351.907 229.625 351.347 230.812 352.111 231.35L352.383 231.535L352.382 231.534Z" fill="#E4F7FE"/>
<path d="M348.864 215.644C352.626 216.773 356.76 212.642 356.488 208.935C356.466 208.681 356.412 208.428 356.329 208.192C356.301 208.061 356.173 207.968 356.04 208.016C355.953 208.047 355.899 208.129 355.897 208.216C355.892 208.634 355.803 209.053 355.657 209.454C355.225 210.657 354.386 211.709 353.398 212.496C352.418 213.274 351.24 213.794 350.008 213.989C349.602 214.052 349.192 214.081 348.783 214.082C347.929 214.096 347.753 215.281 348.557 215.547L348.863 215.645L348.864 215.644Z" fill="#E4F7FE"/>
<path d="M347.633 243.365L355.675 247.501C356.127 247.726 356.528 247.122 356.145 246.794L349.209 240.99C348.602 240.481 347.698 240.561 347.189 241.169C346.598 241.857 346.824 242.96 347.633 243.365Z" fill="#E4F7FE"/>
<path d="M380.221 213.143C387.712 210.286 391.803 208.179 394.696 206.678C394.709 206.67 394.723 206.664 394.737 206.656C395.208 206.415 399.688 204.203 401.833 206.265C402.916 207.307 402.933 208.896 401.343 210.703C395.764 217.039 372.335 216.235 372.335 216.235C374.268 215.58 378.594 213.763 380.22 213.142L380.221 213.143Z" fill="#AF7766"/>
<g opacity="0.5">
<path d="M364.415 206.309L364.458 206.257C364.449 206.272 364.44 206.285 364.431 206.301L364.414 206.309L364.415 206.309Z" fill="#58595B"/>
</g>
<path d="M363.112 164.008C364.151 162.079 365.811 159.856 368.033 159.589C369.95 159.359 371.543 160.637 372.045 163.686C373.807 174.385 353.988 197.155 353.988 197.155C355.071 194.477 356.583 191.014 357.347 188.81C360.927 178.486 361.451 170.466 363.113 164.007L363.112 164.008Z" fill="#AF7766"/>
<path d="M340.67 191.585C345.492 193.789 350.425 196.753 350.425 196.753C350.425 196.753 344.036 183.228 340.67 191.585Z" fill="#AF7766"/>
<path d="M317.848 286.406C334.389 293.713 336.457 283.647 349.291 262.233C362.125 240.82 373.56 233.151 373.561 233.151C371.76 234.847 369.892 237.144 367.529 240.331C361.077 249.029 356.107 257.399 349.859 272.218C346.027 281.306 347.561 294.394 329.039 290.252C323.876 289.097 320.313 287.823 317.848 286.407L317.848 286.406Z" fill="#AF7766"/>
<path d="M316.325 272.51C314.43 279.698 313.911 284.164 317.848 286.406C311.468 282.741 312.439 278.124 312.068 272.156C311.552 263.882 310.902 262.148 306.568 257.995C306.12 257.613 305.675 257.218 305.235 256.815C314.147 264.393 317.92 266.461 316.325 272.509L316.325 272.51Z" fill="#AF7766"/>
<path d="M339.47 259.024C341.464 256.551 341.534 252.824 339.856 250.151C339.613 249.744 339.086 249.611 338.679 249.853C338.227 250.117 338.122 250.744 338.461 251.142C338.891 251.653 339.252 252.205 339.517 252.821C340.067 254.074 340.204 255.501 339.949 256.86C339.82 257.552 339.583 258.232 339.222 258.853C339.131 259.008 339.353 259.168 339.47 259.024Z" fill="#E4F7FE"/>
<path d="M325.627 260.457C328.295 258.731 329.528 255.213 328.77 252.15C328.667 251.687 328.208 251.396 327.745 251.5C327.233 251.61 326.937 252.173 327.135 252.656C327.383 253.276 327.552 253.913 327.613 254.582C327.744 255.944 327.427 257.342 326.76 258.553C326.42 259.171 325.982 259.741 325.445 260.218C325.31 260.337 325.47 260.558 325.627 260.458L325.627 260.457Z" fill="#E4F7FE"/>
<path d="M248.248 204.093C255.113 207.294 263.38 204.092 266.715 196.941C270.049 189.791 267.188 181.399 260.323 178.198C253.459 174.997 245.191 178.199 241.857 185.35C238.522 192.5 241.384 200.892 248.248 204.093Z" fill="#A7FECD"/>
<g style="mix-blend-mode:multiply" opacity="0.75">
<path d="M263.785 195.324C263.222 196.53 260.665 196.262 259.838 197.091C258.923 198.008 259.104 200.557 257.98 201.003C256.821 201.463 255.212 199.47 253.96 199.415C252.709 199.36 251.003 201.237 249.833 200.692C248.664 200.146 248.975 197.599 248.159 196.709C247.312 195.786 244.751 195.835 244.358 194.651C243.977 193.505 246.046 192.003 246.161 190.713C246.264 189.547 244.415 187.759 244.977 186.554C245.539 185.349 248.097 185.616 248.924 184.787C249.838 183.87 249.658 181.322 250.781 180.875C251.941 180.415 253.55 182.409 254.802 182.464C256.053 182.519 257.759 180.641 258.929 181.187C260.098 181.732 259.787 184.28 260.603 185.169C261.45 186.092 264.011 186.044 264.404 187.228C264.785 188.374 262.716 189.875 262.601 191.165C262.498 192.331 264.346 194.12 263.785 195.324Z" fill="#73D6FA"/>
</g>
<path d="M251.982 196.087C255.216 197.596 259.112 196.087 260.683 192.718C262.254 189.349 260.905 185.395 257.671 183.887C254.436 182.379 250.54 183.887 248.969 187.256C247.398 190.625 248.747 194.579 251.982 196.087Z" fill="#331546"/>
<path d="M261.185 193.628C263.451 194.685 266.18 193.628 267.281 191.268C268.382 188.907 267.437 186.137 265.171 185.08C262.905 184.023 260.175 185.08 259.074 187.441C257.973 189.801 258.918 192.572 261.185 193.628Z" fill="white"/>
<path d="M252.705 194.537C249.29 192.45 249.298 192.474 250.573 188.679C248.486 192.094 248.51 192.085 244.715 190.811C248.129 192.898 248.121 192.874 246.847 196.669C248.933 193.254 248.91 193.263 252.705 194.537Z" fill="white"/>
<path d="M324.514 239.657C331.379 242.858 339.647 239.656 342.981 232.505C346.315 225.354 343.454 216.962 336.589 213.761C329.725 210.56 321.457 213.762 318.123 220.913C314.788 228.064 317.65 236.456 324.514 239.657Z" fill="#A7FECD"/>
<g style="mix-blend-mode:multiply" opacity="0.75">
<path d="M340.052 230.888C339.489 232.094 336.932 231.826 336.105 232.655C335.19 233.572 335.371 236.121 334.247 236.567C333.088 237.027 331.479 235.034 330.227 234.979C328.976 234.924 327.27 236.801 326.1 236.256C324.931 235.71 325.242 233.163 324.426 232.273C323.579 231.35 321.018 231.399 320.625 230.215C320.244 229.068 322.313 227.567 322.428 226.277C322.531 225.111 320.682 223.323 321.244 222.118C321.806 220.913 324.364 221.18 325.191 220.351C326.105 219.434 325.925 216.886 327.048 216.439C328.208 215.979 329.817 217.973 331.069 218.028C332.32 218.083 334.026 216.205 335.195 216.751C336.365 217.296 336.054 219.844 336.87 220.733C337.717 221.656 340.278 221.608 340.671 222.792C341.052 223.938 338.983 225.439 338.868 226.729C338.765 227.895 340.613 229.683 340.052 230.888Z" fill="#73D6FA"/>
</g>
<path d="M328.248 231.651C331.482 233.159 335.378 231.651 336.949 228.282C338.52 224.913 337.171 220.959 333.937 219.451C330.702 217.942 326.806 219.451 325.235 222.82C323.664 226.188 325.013 230.142 328.248 231.651Z" fill="#331546"/>
<path d="M337.451 229.192C339.718 230.249 342.447 229.192 343.548 226.832C344.649 224.471 343.704 221.701 341.438 220.644C339.171 219.587 336.442 220.644 335.341 223.005C334.24 225.365 335.185 228.136 337.451 229.192Z" fill="white"/>
<path d="M328.971 230.1C325.556 228.014 325.564 228.037 326.838 224.242C324.752 227.657 324.775 227.649 320.98 226.374C324.395 228.461 324.387 228.437 323.113 232.232C325.199 228.817 325.176 228.826 328.971 230.1Z" fill="white"/>
<path d="M249.333 141.305C250.425 130.695 252.444 124.532 253.316 119.259C253.248 117.547 252.791 115.734 251.349 114.82C249.823 113.853 247.964 114.289 246.311 116.661C240.767 124.614 247.499 149.738 248.103 151.938C248.296 149.044 249.109 143.479 249.333 141.306L249.333 141.305Z" fill="#AF7766"/>
<path d="M371.915 198.466C379.341 190.81 382.765 185.302 386.243 181.244C387.598 180.196 389.281 179.38 390.908 179.898C392.63 180.445 393.491 182.15 392.737 184.94C390.207 194.299 366.635 205.292 364.561 206.243C366.654 204.235 370.393 200.035 371.915 198.467L371.915 198.466Z" fill="#AF7766"/>
<rect x="25" y="25" width="450" height="450" rx="20" stroke="#F99206" stroke-width="10"/>
<path d="M308.24 267.442C308.19 267.317 308.134 267.18 308.07 267.031C307.88 266.593 307.667 266.155 307.434 265.727C303.962 258.464 300.081 251.969 295.899 246.421C295.619 246.05 295.331 245.673 295.043 245.303C292.899 242.55 290.634 239.983 288.309 237.671C288.07 237.434 287.831 237.2 287.592 236.968C286.441 235.856 285.253 234.783 284.06 233.778C283.855 233.606 283.65 233.436 283.446 233.267C283.037 232.931 282.623 232.598 282.21 232.276C282.023 232.13 281.836 231.985 281.647 231.841C280.723 231.135 279.784 230.457 278.857 229.825C278.651 229.685 278.445 229.547 278.24 229.411C277.178 228.708 276.081 228.03 274.977 227.395C274.669 227.219 274.357 227.043 274.05 226.874C273.148 226.378 272.226 225.904 271.312 225.463C270.119 224.889 268.896 224.351 267.678 223.868C267.463 223.782 267.248 223.698 267.033 223.616C264.774 222.749 262.43 222.024 260.065 221.457C259.364 221.29 258.648 221.132 257.937 220.99C257.236 220.85 256.524 220.722 255.821 220.61C255.815 220.609 255.809 220.608 255.803 220.607L255.802 220.607C255.587 220.572 255.371 220.539 255.161 220.508L255.076 220.496C254.878 220.467 254.68 220.439 254.487 220.413L254.384 220.399C254.187 220.373 253.991 220.346 253.8 220.324L253.713 220.312C253.499 220.286 253.285 220.261 253.072 220.237C253.066 220.236 253.058 220.236 253.053 220.234C252.928 220.221 252.805 220.207 252.68 220.194C252.454 220.17 252.229 220.148 252.003 220.127C251.668 220.096 251.337 220.067 251.028 220.043L250.881 220.032C250.711 220.02 250.541 220.008 250.364 219.996L250.276 219.99C250.089 219.977 249.901 219.967 249.715 219.956L249.62 219.951C249.62 219.951 249.613 219.95 249.609 219.95C249.457 219.942 249.306 219.934 249.155 219.927C243.972 215.004 238.529 210.953 232.952 207.867C226.604 204.355 219.882 201.983 212.972 200.815C205.946 199.627 198.525 199.651 190.915 200.886C183.302 202.121 175.259 204.611 167.009 208.284C158.759 211.957 151.529 216.269 145.515 221.099C139.505 225.928 134.522 231.427 130.703 237.443C126.948 243.36 124.213 249.944 122.575 257.011C121.136 263.22 120.505 269.976 120.696 277.122C120.601 277.238 120.505 277.355 120.409 277.474L120.18 277.759C120.136 277.814 120.093 277.87 120.049 277.925L119.816 278.22C119.735 278.323 119.655 278.427 119.575 278.532L119.536 278.582C119.12 279.12 118.711 279.672 118.314 280.225L118.311 280.23C118.185 280.407 118.058 280.585 117.936 280.761L117.888 280.83C117.774 280.993 117.661 281.157 117.552 281.317L117.493 281.402C117.381 281.567 117.27 281.733 117.158 281.901L117.115 281.967C116.994 282.148 116.875 282.329 116.757 282.512C116.753 282.519 116.749 282.524 116.745 282.53C116.273 283.261 115.816 284.003 115.386 284.739C115.176 285.099 114.968 285.465 114.766 285.829C104.884 303.646 105.211 325.598 115.737 351.075C115.9 351.534 116.082 351.986 116.281 352.42C116.347 352.564 116.411 352.697 116.472 352.82C116.748 353.464 117.028 354.102 117.302 354.718C117.969 356.216 118.685 357.718 119.436 359.19L119.448 359.216C124.985 370.06 132.298 379.185 141.185 386.338C148.91 392.556 157.465 396.939 165.925 399.015C170.479 400.133 174.782 400.526 178.716 400.184C181.846 399.912 184.622 399.187 187.003 398.019C187.571 398.195 188.139 398.361 188.701 398.512L188.744 398.524C189.006 398.595 189.273 398.664 189.537 398.729L189.576 398.739C195.19 400.135 200.448 400.249 204.782 399.068C208.35 398.096 211.268 396.244 213.299 393.711C216.661 393.93 219.767 393.546 222.422 392.57C226.707 390.994 229.773 387.988 231.287 383.876C231.644 382.906 231.917 381.946 232.107 381.001C232.376 380.888 232.653 380.764 232.926 380.639L233.015 380.599C233.139 380.542 233.262 380.485 233.384 380.427L233.386 380.426C233.514 380.365 233.639 380.306 233.763 380.246L233.837 380.209C234.1 380.082 234.356 379.952 234.601 379.824L234.654 379.797C234.921 379.657 235.182 379.515 235.429 379.374L235.455 379.359L235.469 379.353C237.963 377.93 239.775 376.288 240.96 374.365C243.183 374.771 245.615 374.523 248.341 373.62L248.354 373.615L248.385 373.606C248.654 373.516 248.934 373.417 249.209 373.315L249.273 373.292C249.531 373.196 249.799 373.091 250.071 372.982L250.145 372.951C250.273 372.899 250.403 372.846 250.532 372.791L250.534 372.79C250.659 372.738 250.783 372.684 250.9 372.634L250.999 372.59C251.274 372.472 251.551 372.349 251.815 372.225C252.645 372.717 253.541 373.156 254.501 373.539C258.227 375.028 262.132 374.931 265.864 373.269C266.208 373.116 266.552 372.948 266.894 372.768C269.397 371.448 271.76 369.397 273.847 366.752C277.088 366.937 280.417 366.007 283.527 364.007C287.305 361.577 290.738 357.593 293.46 352.483L293.484 352.437C293.609 352.202 293.733 351.963 293.859 351.716L293.875 351.683C294.138 351.165 294.395 350.632 294.643 350.092C297.104 349.103 299.501 347.526 301.798 345.382C304.683 342.688 307.271 339.228 309.487 335.096C313.605 327.42 316.071 318.129 316.62 308.228C317.251 296.837 315.363 285.296 311.007 273.926L311.002 273.914C310.999 273.905 310.997 273.898 310.994 273.89C310.408 272.363 309.775 270.834 309.111 269.342C309.108 269.335 309.105 269.327 309.102 269.321C308.827 268.703 308.54 268.069 308.247 267.435L308.24 267.442Z" fill="#331546"/>
<mask id="mask0_3_2537" style="mask-type:alpha" maskUnits="userSpaceOnUse" x="183" y="223" width="128" height="145">
<path d="M209.874 285.896L217.113 284.328L183.318 261.804C195.572 256.847 212.638 253.554 231.084 262.54L211.04 245.112C230.535 239.996 258.861 241.478 282.664 282.685C282.251 281.566 281.793 280.425 281.29 279.265C281.25 279.172 281.209 279.078 281.168 278.984C281.164 278.975 281.16 278.965 281.156 278.956C281.021 278.648 280.882 278.34 280.741 278.028C280.722 277.984 280.701 277.94 280.68 277.895C280.557 277.628 280.434 277.362 280.307 277.092C280.274 277.023 280.241 276.954 280.207 276.885C280.091 276.64 279.974 276.395 279.853 276.149C279.812 276.063 279.768 275.976 279.726 275.891C279.613 275.66 279.498 275.428 279.381 275.196C279.331 275.097 279.281 274.999 279.231 274.901C279.118 274.679 279.004 274.457 278.888 274.234C278.832 274.126 278.775 274.018 278.718 273.91C278.605 273.694 278.49 273.48 278.375 273.264C278.313 273.148 278.25 273.031 278.186 272.915C278.072 272.705 277.957 272.494 277.841 272.283C277.773 272.16 277.705 272.038 277.636 271.915C277.52 271.709 277.404 271.502 277.285 271.294C277.213 271.166 277.139 271.038 277.065 270.909C276.948 270.705 276.829 270.5 276.709 270.295C276.632 270.162 276.554 270.029 276.475 269.896C276.355 269.693 276.233 269.489 276.111 269.284C276.028 269.147 275.947 269.011 275.864 268.875C275.742 268.673 275.616 268.468 275.491 268.264C275.404 268.125 275.319 267.986 275.232 267.845C275.105 267.641 274.976 267.436 274.846 267.229C274.757 267.088 274.669 266.948 274.578 266.807C274.445 266.598 274.31 266.388 274.173 266.179C274.082 266.039 273.994 265.9 273.902 265.759C273.76 265.543 273.615 265.324 273.471 265.106C273.383 264.972 273.294 264.838 273.205 264.703C273.045 264.465 272.881 264.225 272.718 263.985C272.64 263.87 272.564 263.755 272.484 263.639C272.241 263.283 271.995 262.926 271.744 262.569L271.742 262.565L235.222 224.173C237.891 223.737 240.707 223.435 243.631 223.342C243.802 223.336 243.975 223.332 244.148 223.328C244.839 223.312 245.535 223.308 246.238 223.317C246.413 223.319 246.589 223.322 246.765 223.326C247.823 223.349 248.89 223.4 249.969 223.486C250.148 223.5 250.328 223.516 250.509 223.531C250.87 223.563 251.231 223.599 251.593 223.639C252.318 223.718 253.048 223.812 253.78 223.924C254.147 223.979 254.514 224.039 254.882 224.103C255.249 224.166 255.618 224.235 255.988 224.307C256.726 224.452 257.469 224.614 258.213 224.795C260.075 225.247 261.951 225.812 263.836 226.508C264.118 226.612 264.4 226.721 264.682 226.831C264.966 226.941 265.249 227.054 265.533 227.171C266.288 227.481 267.044 227.813 267.8 228.167C268.282 228.394 268.765 228.63 269.247 228.875C269.415 228.96 269.584 229.047 269.753 229.135C271.181 229.88 272.609 230.708 274.033 231.626C274.34 231.825 274.646 232.028 274.953 232.234C279.351 235.198 283.701 239.04 287.902 243.961C288.261 244.382 288.619 244.811 288.977 245.248C294.156 251.586 299.09 259.609 303.582 269.7C320.358 307.379 304.391 340.927 290.03 344.142C285.465 355.546 277.667 361.864 270.746 359.292C266.648 365.946 261.069 369.158 255.646 366.991C253.833 366.265 252.456 365.351 251.423 364.247C250.676 364.854 249.739 365.397 248.481 365.957C243.143 368.334 238.586 369.06 235.505 362.139C232.424 355.219 232.674 337.105 227.788 326.132L209.875 285.898L209.874 285.896Z" fill="black"/>
</mask>
<g mask="url(#mask0_3_2537)">
<path d="M257.122 353.459C253.377 361.522 253.818 363.577 248.48 365.954C243.141 368.331 238.585 369.056 235.504 362.136C232.423 355.216 232.672 337.101 227.787 326.129L209.874 285.894L236.232 280.183L255.7 335.614" fill="#955945"/>
<path d="M189.359 256.958C208.71 250.621 239.189 249.003 265.635 289.958C292.081 330.913 270.712 374.67 254.372 366.814C244.658 362.143 248.548 352.608 251.033 337.307C253.127 324.41 250.253 308.97 231.35 289.272" fill="#6B382C"/>
<path d="M263.581 369.303C263.165 369.488 262.745 369.652 262.323 369.794C259.228 370.839 256.07 370.66 253.189 369.275C248.559 367.048 246.047 363.571 245.512 358.643C245.064 354.524 245.997 349.593 247.078 343.885C247.5 341.656 247.936 339.351 248.339 336.87C249.458 329.978 248.855 323.398 246.494 316.755C243.547 308.464 237.95 300.093 229.382 291.164L233.322 287.383C242.437 296.882 248.429 305.891 251.639 314.927C254.316 322.459 254.999 329.922 253.729 337.746C253.315 340.297 252.871 342.637 252.443 344.9C250.228 356.609 249.567 361.476 255.556 364.355C259.993 366.489 264.122 362.879 266.188 360.536C268.693 357.696 270.857 353.755 272.445 349.14C274.172 344.124 275.176 338.379 275.348 332.524C275.638 322.711 273.789 307.617 263.343 291.439C251.946 273.789 238.731 262.654 224.069 258.344C213.522 255.244 202.131 255.651 190.211 259.553L188.512 254.364C201.501 250.111 213.983 249.687 225.608 253.105C241.564 257.795 255.803 269.697 267.93 288.478C279.138 305.834 281.119 322.097 280.807 332.686C280.434 345.338 276.5 357.099 270.284 364.148C268.187 366.526 265.938 368.255 263.582 369.304L263.581 369.303Z" fill="#6B382C"/>
<path d="M183.318 261.803C202.195 254.167 232.493 250.48 261.66 289.543C290.828 328.607 272.481 373.715 255.645 366.987C245.636 362.988 248.869 353.21 250.309 337.775C251.523 324.766 247.606 309.557 227.408 291.189" fill="#955945"/>
<path d="M217.609 241.686C237.606 237.846 266.149 241.327 287.206 285.296C308.264 329.265 283.432 368.737 268.215 358.878C259.169 353.017 264.233 344.051 268.632 329.186C272.339 316.658 271.44 300.978 255.179 279.049" fill="#6B382C"/>
<path d="M278.818 361.891C277.729 362.376 276.63 362.72 275.525 362.924C272.425 363.494 269.383 362.888 266.732 361.169C262.42 358.375 260.369 354.608 260.46 349.652C260.537 345.509 262.085 340.736 263.878 335.209C264.578 333.052 265.302 330.82 266.015 328.411C267.997 321.716 268.23 315.112 266.728 308.224C264.853 299.626 260.358 290.614 252.987 280.674L257.373 277.422C265.214 287.997 270.02 297.691 272.063 307.06C273.766 314.87 273.5 322.361 271.252 329.96C270.519 332.438 269.783 334.703 269.072 336.894C265.394 348.23 264.124 352.973 269.7 356.586C271.202 357.559 272.785 357.875 274.537 357.553C276.372 357.216 278.35 356.149 280.259 354.471C282.961 352.095 285.451 348.592 287.459 344.339C289.646 339.707 291.214 334.247 291.994 328.548C293.302 318.99 293.105 303.932 284.743 286.474C275.592 267.367 264.182 254.43 250.828 248.022C241.014 243.314 230.011 242.083 218.124 244.366L217.095 239.003C230.155 236.495 242.3 237.873 253.191 243.099C260.043 246.387 266.461 251.245 272.267 257.539C278.718 264.532 284.572 273.473 289.669 284.114C298.614 302.793 298.813 318.989 297.405 329.288C296.539 335.621 294.853 341.469 292.397 346.671C290.073 351.592 287.122 355.707 283.865 358.572C282.221 360.017 280.532 361.127 278.817 361.89L278.818 361.891Z" fill="#6B382C"/>
<path d="M211.039 245.111C230.734 239.942 259.445 241.506 283.398 283.968C307.349 326.43 285.213 367.475 269.372 358.656C259.954 353.413 264.407 344.128 267.802 329.002C270.663 316.254 268.717 300.67 251.025 279.878" fill="#955945"/>
<path d="M236.11 226.167C256.207 222.884 284.641 227.156 304.47 271.692C324.298 316.228 297.572 355.595 282.635 345.317C273.755 339.207 279.592 329.69 284.685 315.049C290.38 298.674 291.074 283.987 275.428 261.615" fill="#6B382C"/>
<path d="M293.604 348.404C292.373 348.952 291.137 349.327 289.9 349.529C286.746 350.043 283.698 349.365 281.087 347.568C276.842 344.647 274.968 340.725 275.359 335.575C275.68 331.329 277.495 326.534 279.595 320.982C280.419 318.807 281.269 316.557 282.106 314.154C285.279 305.029 286.25 298.082 285.351 290.924C284.827 286.756 283.654 282.586 281.766 278.177C279.736 273.434 276.931 268.53 273.191 263.183L277.666 260.053C281.624 265.712 284.607 270.937 286.787 276.027C288.878 280.912 290.18 285.561 290.769 290.243C291.767 298.182 290.686 306.109 287.264 315.947C286.404 318.421 285.539 320.705 284.703 322.915C282.752 328.073 281.067 332.527 280.805 335.988C280.561 339.2 281.541 341.252 284.183 343.07C288.2 345.835 292.665 343.034 294.97 341.119C297.8 338.766 300.457 335.274 302.651 331.019C305.04 326.389 306.828 320.917 307.825 315.197C309.496 305.604 309.838 290.462 301.976 272.803C293.359 253.45 282.311 240.201 269.141 233.425C259.462 228.446 248.496 226.911 236.551 228.862L235.671 223.472C248.796 221.327 260.898 223.043 271.64 228.569C278.398 232.045 284.679 237.079 290.308 243.533C296.561 250.702 302.165 259.802 306.965 270.581C315.385 289.494 315.006 305.791 313.204 316.133C311.044 328.528 305.533 339.437 298.46 345.317C296.863 346.644 295.24 347.675 293.604 348.404V348.404Z" fill="#6B382C"/>
<path d="M235.222 224.172C255.318 220.889 283.752 225.16 303.581 269.697C323.41 314.233 297.492 353 282.555 342.723C273.676 336.613 278.987 327.79 283.797 313.053C287.851 300.633 287.386 284.935 271.74 262.563" fill="#955945"/>
<path d="M269.744 263.451L233.225 225.06C253.321 221.777 281.755 226.048 301.584 270.585C301.67 270.777 301.753 270.969 301.836 271.161C306.889 282.904 300.186 288.642 295.211 290.857C291.357 292.573 287.397 291.618 284.629 289.172C282.205 287.03 280.858 283.768 279.158 279.841C276.947 274.802 273.875 269.359 269.743 263.451L269.744 263.451Z" fill="#6B382C"/>
<path d="M296.323 293.353C291.776 295.377 286.603 294.56 282.823 291.219C280.038 288.757 278.563 285.342 276.854 281.387L276.671 280.963C276.667 280.955 276.663 280.946 276.66 280.938C274.467 275.942 271.428 270.641 267.625 265.183L231.249 226.942C230.552 226.208 230.317 225.15 230.639 224.19C230.962 223.231 231.788 222.528 232.786 222.364C245.912 220.22 258.013 221.935 268.756 227.461C275.514 230.937 281.794 235.971 287.423 242.425C293.677 249.594 299.281 258.694 304.08 269.473C304.143 269.615 304.206 269.757 304.267 269.898L304.348 270.08C306.926 276.075 307.047 281.379 304.705 285.848C302.576 289.913 298.971 292.171 296.324 293.35L296.323 293.353ZM281.642 278.707C281.65 278.724 281.657 278.741 281.665 278.759L281.866 279.222C283.375 282.715 284.568 285.474 286.439 287.128C288.629 289.064 291.493 289.526 294.101 288.365C295.621 287.688 298.391 286.132 299.867 283.317C301.406 280.378 301.227 276.654 299.332 272.246L299.258 272.081C299.203 271.952 299.148 271.825 299.09 271.696C290.474 252.343 279.426 239.094 266.256 232.318C258.021 228.081 248.855 226.338 238.946 227.114L271.722 261.57C271.816 261.669 271.903 261.775 271.982 261.887C276.035 267.684 279.286 273.342 281.642 278.707V278.707Z" fill="#6B382C"/>
<path d="M271.74 262.563L235.22 224.171C255.317 220.888 283.751 225.16 303.58 269.696C303.665 269.889 303.748 270.08 303.831 270.273C308.884 282.016 302.182 287.753 297.207 289.968C293.352 291.684 289.392 290.729 286.625 288.284C284.201 286.141 282.854 282.88 281.153 278.953C278.943 273.913 275.87 268.47 271.738 262.562L271.74 262.563Z" fill="#955945"/>
<path d="M302.494 267.364C300.43 262.609 295.057 260.36 290.492 262.341C285.927 264.322 283.9 269.783 285.963 274.538C288.027 279.293 293.4 281.542 297.965 279.561C302.53 277.58 304.557 272.119 302.494 267.364Z" fill="#BF7964"/>
<g opacity="0.25">
<path d="M292.175 268.988C289.862 269.991 287.387 270.015 285.216 269.122C285.66 266.118 287.614 263.598 290.534 262.332C292.847 261.328 295.322 261.304 297.493 262.197C297.049 265.201 295.095 267.721 292.175 268.988Z" fill="#E6E7E8"/>
</g>
<path d="M284.2 291.732C280.76 283.804 274.577 281 268.42 283.671C262.254 286.347 260.697 292.629 264.134 300.549C267.574 308.477 272.316 312.275 278.473 309.604C284.639 306.928 287.637 299.652 284.2 291.732V291.732Z" fill="#6B382C"/>
<path d="M265.918 304.314C263.323 296.071 257.466 292.638 251.063 294.653C244.652 296.672 241.829 302.847 244.422 311.081C247.017 319.325 252.418 324.332 259.916 321.813C266.287 319.672 268.511 312.548 265.918 304.313L265.918 304.314Z" fill="#6B382C"/>
<path d="M246.05 315.714C242.926 308.516 236.049 304.566 230.69 306.892C225.331 309.218 223.519 316.938 226.642 324.136C229.766 331.334 236.643 335.284 242.002 332.958C247.361 330.632 249.174 322.912 246.05 315.714Z" fill="#6B382C"/>
<path d="M271.74 262.563L235.22 224.171C241 223.227 247.468 222.909 254.223 223.992C267.303 237.828 274.766 264.596 282.935 282.945C282.343 281.716 281.771 280.379 281.155 278.954C278.944 273.914 275.872 268.471 271.74 262.563V262.563Z" fill="#6B382C"/>
</g>
<mask id="mask1_3_2537" style="mask-type:alpha" maskUnits="userSpaceOnUse" x="112" y="256" width="125" height="138">
<path d="M196.003 292.072L189.994 296.402L195.868 256.216C183.985 262.005 170.119 272.485 164.454 292.205L164.915 265.648C148.068 276.713 130.215 298.755 144.911 344.016C144.356 342.96 143.815 341.858 143.289 340.707C143.247 340.615 143.204 340.522 143.161 340.428C143.157 340.419 143.153 340.409 143.149 340.4C143.011 340.095 142.874 339.785 142.737 339.472C142.717 339.428 142.698 339.383 142.679 339.337C142.563 339.068 142.447 338.798 142.332 338.522C142.303 338.452 142.274 338.381 142.245 338.31C142.14 338.06 142.037 337.809 141.934 337.554C141.899 337.466 141.863 337.376 141.827 337.287C141.732 337.049 141.637 336.808 141.542 336.566C141.502 336.463 141.462 336.36 141.423 336.256C141.335 336.025 141.245 335.792 141.157 335.556C141.115 335.442 141.072 335.327 141.03 335.212C140.946 334.984 140.863 334.756 140.779 334.525C140.735 334.401 140.69 334.277 140.646 334.152C140.567 333.926 140.487 333.7 140.409 333.472C140.363 333.339 140.317 333.207 140.272 333.074C140.196 332.849 140.12 332.625 140.045 332.398C139.998 332.258 139.952 332.117 139.906 331.976C139.833 331.752 139.76 331.527 139.688 331.3C139.641 331.154 139.594 331.007 139.548 330.86C139.478 330.635 139.408 330.408 139.337 330.18C139.291 330.027 139.244 329.876 139.198 329.723C139.13 329.496 139.062 329.266 138.994 329.036C138.948 328.879 138.902 328.722 138.856 328.564C138.789 328.333 138.723 328.099 138.657 327.865C138.612 327.704 138.566 327.545 138.521 327.383C138.456 327.145 138.39 326.904 138.326 326.662C138.283 326.501 138.238 326.342 138.196 326.18C138.13 325.929 138.064 325.675 137.999 325.422C137.958 325.267 137.918 325.112 137.878 324.955C137.808 324.677 137.738 324.394 137.669 324.113C137.636 323.977 137.602 323.844 137.568 323.707C137.467 323.288 137.366 322.867 137.269 322.441L137.267 322.437L133.173 269.609C131.063 271.3 128.954 273.19 126.929 275.301C126.809 275.424 126.691 275.55 126.572 275.676C126.098 276.179 125.629 276.694 125.166 277.221C125.05 277.353 124.934 277.486 124.819 277.619C124.129 278.421 123.453 279.249 122.795 280.107C122.685 280.25 122.576 280.395 122.467 280.539C122.249 280.828 122.034 281.121 121.821 281.417C121.395 282.008 120.977 282.614 120.57 283.233C120.366 283.542 120.165 283.856 119.966 284.171C119.767 284.487 119.571 284.807 119.378 285.13C118.991 285.776 118.614 286.436 118.251 287.111C117.341 288.796 116.506 290.569 115.762 292.435C115.651 292.714 115.543 292.997 115.435 293.28C115.328 293.565 115.222 293.851 115.119 294.139C114.844 294.908 114.585 295.692 114.343 296.491C114.188 297.001 114.04 297.517 113.9 298.04C113.851 298.222 113.802 298.405 113.755 298.59C113.352 300.15 113.012 301.765 112.742 303.438C112.684 303.799 112.631 304.162 112.578 304.528C111.838 309.78 111.783 315.583 112.629 321.998C112.701 322.547 112.78 323.1 112.866 323.658C114.11 331.747 116.771 340.783 121.264 350.873C138.04 388.552 173.655 399.134 185.654 390.614C197.183 394.852 207.097 393.284 209.816 386.42C217.503 387.828 223.623 385.831 225.641 380.35C226.315 378.517 226.557 376.882 226.428 375.376C227.379 375.227 228.409 374.894 229.667 374.334C235.005 371.957 238.593 369.057 235.512 362.136C232.431 355.216 218.803 343.281 213.917 332.308L196.004 292.074L196.003 292.072Z" fill="black"/>
</mask>
<g mask="url(#mask1_3_2537)">
<path d="M214.597 372.393C223.096 375.005 224.327 376.708 229.666 374.331C235.005 371.954 238.592 369.053 235.511 362.133C232.43 355.213 218.801 343.277 213.916 332.305L196.003 292.07L174.121 307.837L202.288 359.395" fill="#955945"/>
<path d="M188.225 257.463C170.567 267.604 148.971 289.171 161.71 336.228C174.45 383.286 221.267 396.685 226.362 379.285C229.391 368.941 219.702 365.452 206.668 357.06C195.683 349.986 186.132 337.519 184.142 310.291" fill="#6B382C"/>
<path d="M222.05 387.794C219.694 388.842 216.903 389.357 213.734 389.324C204.336 389.228 192.963 384.281 183.311 376.091C175.235 369.239 164.474 356.884 159.075 336.941C153.232 315.362 153.917 296.817 161.106 281.821C166.347 270.894 175.013 261.902 186.865 255.095L189.584 259.83C178.708 266.076 170.782 274.27 166.03 284.182C159.422 297.964 158.854 315.234 164.345 335.514C169.378 354.102 179.357 365.575 186.844 371.927C191.309 375.715 196.251 378.814 201.135 380.888C205.626 382.795 210.003 383.824 213.79 383.863C215.468 383.88 217.816 383.7 219.844 382.797C221.592 382.019 223.101 380.705 223.742 378.518C225.609 372.14 221.55 369.375 211.366 363.187C209.398 361.99 207.363 360.754 205.189 359.355C198.526 355.064 193.436 349.562 189.63 342.533C185.064 334.101 182.377 323.619 181.419 310.49L186.865 310.091C187.767 322.433 190.242 332.195 194.433 339.932C197.79 346.131 202.276 350.983 208.147 354.762C210.26 356.123 212.264 357.342 214.203 358.519C219.168 361.536 223.457 364.142 226.218 367.231C229.522 370.927 230.426 375.121 228.982 380.05C228.085 383.117 226.105 385.584 223.256 387.186C222.868 387.404 222.466 387.606 222.05 387.791L222.05 387.794Z" fill="#6B382C"/>
<path d="M195.868 256.216C177.562 265.134 154.549 285.183 164.062 332.997C173.575 380.811 219.373 397.361 225.639 380.347C229.365 370.233 219.935 366.093 207.501 356.835C197.021 349.032 188.34 335.944 188.204 308.644" fill="#955945"/>
<path d="M157.972 268.238C141.737 280.529 125.226 304.07 143.811 349.14C162.396 394.209 208.345 402.168 211.201 384.263C212.898 373.618 202.846 371.382 188.856 364.704C177.065 359.077 166.015 347.916 160.599 321.159" fill="#6B382C"/>
<path d="M206.346 394.158C204.632 394.921 202.677 395.434 200.503 395.688C196.195 396.192 191.162 395.632 185.95 394.066C180.441 392.411 174.967 389.75 169.681 386.155C161.086 380.312 149.183 369.327 141.287 350.18C136.789 339.272 134.061 328.938 133.181 319.465C132.39 310.939 133.073 302.918 135.215 295.627C138.619 284.036 145.721 274.089 156.324 266.061L159.62 270.414C149.97 277.721 143.521 286.722 140.454 297.165C136.281 311.377 138.259 328.513 146.336 348.098C153.715 365.994 164.774 376.216 172.752 381.639C177.509 384.873 182.616 387.361 187.522 388.835C192.026 390.188 196.296 390.683 199.869 390.264C202.394 389.969 204.51 389.212 205.988 388.074C207.4 386.988 208.224 385.6 208.505 383.833C209.552 377.272 205.177 375.042 194.292 370.19C192.188 369.252 190.013 368.283 187.68 367.17C180.528 363.756 174.784 358.941 170.12 352.45C164.524 344.662 160.535 334.604 157.924 321.701L163.275 320.618C165.73 332.747 169.42 342.117 174.554 349.263C178.668 354.989 183.731 359.234 190.032 362.242C192.3 363.324 194.443 364.279 196.515 365.203C201.822 367.568 206.405 369.611 209.535 372.326C213.279 375.575 214.706 379.62 213.897 384.694C213.399 387.815 211.816 390.48 209.318 392.403C208.427 393.089 207.435 393.674 206.347 394.159L206.346 394.158Z" fill="#6B382C"/>
<path d="M164.914 265.648C147.894 276.825 129.844 299.208 145.372 345.421C160.901 391.633 206.216 402.647 210.262 384.974C212.667 374.467 202.787 371.563 189.275 363.965C177.887 357.561 167.608 345.686 163.994 318.627" fill="#955945"/>
<path d="M134.061 271.603C118.174 284.34 102.322 308.329 122.151 352.865C141.98 397.402 189.119 403.881 191.476 385.904C192.877 375.217 181.899 373.186 167.61 367.174C151.631 360.449 140.251 351.138 134.095 324.541" fill="#6B382C"/>
<path d="M186.429 396.121C184.794 396.849 182.941 397.366 180.885 397.664C171.783 398.986 159.988 395.782 149.332 389.093C140.442 383.513 128.076 372.89 119.655 353.977C114.856 343.198 111.843 332.944 110.7 323.5C109.672 314.998 110.132 306.962 112.07 299.614C115.152 287.933 121.975 277.792 132.351 269.473L135.767 273.734C126.323 281.305 120.127 290.481 117.351 301.007C113.574 315.328 116.028 332.403 124.645 351.756C132.506 369.414 143.988 379.291 152.235 384.47C157.153 387.557 162.416 389.888 167.455 391.212C172.085 392.428 176.458 392.791 180.101 392.262C183.066 391.831 188.135 390.386 188.769 385.551C189.186 382.371 188.316 380.271 185.766 378.303C183.018 376.181 178.581 374.453 173.442 372.452C171.241 371.594 168.965 370.708 166.551 369.693C156.951 365.653 150.335 361.152 145.104 355.098C142.019 351.529 139.435 347.449 137.204 342.627C134.879 337.601 132.993 331.888 131.436 325.16L136.756 323.929C138.227 330.286 139.995 335.653 142.161 340.334C144.174 344.687 146.488 348.349 149.235 351.528C153.952 356.985 159.764 360.913 168.67 364.66C171.016 365.648 173.257 366.52 175.424 367.364C180.956 369.518 185.733 371.378 189.104 373.98C193.192 377.135 194.854 381.153 194.184 386.261C193.772 389.404 192.238 392.123 189.745 394.123C188.767 394.907 187.66 395.574 186.43 396.122L186.429 396.121Z" fill="#6B382C"/>
<path d="M133.172 269.607C117.286 282.345 101.434 306.334 121.263 350.87C141.092 395.406 187.244 402.086 189.601 384.109C191.002 373.422 180.892 371.465 166.722 365.178C154.778 359.88 143.423 349.031 137.267 322.434" fill="#955945"/>
<path d="M139.262 321.546L135.167 268.718C119.281 281.455 103.429 305.444 123.258 349.981C123.343 350.173 123.43 350.363 123.518 350.554C128.864 362.166 137.612 361.025 142.587 358.809C146.441 357.093 148.382 353.511 148.416 349.819C148.446 346.583 146.923 343.4 145.143 339.509C142.877 334.494 140.888 328.569 139.262 321.545L139.262 321.546Z" fill="#6B382C"/>
<path d="M143.698 361.306C141.05 362.485 136.961 363.652 132.514 362.515C127.627 361.266 123.766 357.626 121.037 351.698L120.957 351.519C120.891 351.378 120.827 351.236 120.763 351.093C115.964 340.314 112.951 330.06 111.808 320.616C110.78 312.114 111.24 304.078 113.178 296.73C116.259 285.049 123.083 274.908 133.459 266.589C134.249 265.957 135.323 265.812 136.252 266.215C137.181 266.617 137.811 267.5 137.89 268.509L141.968 321.13C143.479 327.609 145.384 333.415 147.631 338.387C147.634 338.395 147.638 338.404 147.642 338.412L147.835 338.832C149.63 342.748 151.18 346.13 151.147 349.846C151.101 354.89 148.247 359.282 143.699 361.307L143.698 361.306ZM126 349.419C128.006 353.776 130.654 356.402 133.868 357.225C136.948 358.012 139.957 356.994 141.478 356.317C144.086 355.156 145.659 352.718 145.686 349.796C145.709 347.297 144.456 344.566 142.871 341.107L142.66 340.648C142.653 340.631 142.645 340.614 142.637 340.596C140.228 335.255 138.198 329.054 136.602 322.162C136.571 322.029 136.551 321.894 136.54 321.757L132.865 274.344C125.659 281.188 120.821 289.167 118.459 298.121C114.681 312.443 117.136 329.518 125.752 348.871C125.81 349 125.868 349.128 125.926 349.256L125.998 349.418L126 349.419Z" fill="#6B382C"/>
<path d="M137.266 322.434L133.172 269.606C117.285 282.344 101.433 306.333 121.262 350.869C121.348 351.062 121.435 351.251 121.522 351.442C126.868 363.055 135.616 361.913 140.592 359.698C144.446 357.982 146.386 354.4 146.42 350.707C146.45 347.472 144.928 344.288 143.148 340.397C140.881 335.382 138.892 329.457 137.267 322.433L137.266 322.434Z" fill="#955945"/>
<path d="M132.32 353.35C136.846 351.283 138.771 345.785 136.618 341.07C134.465 336.354 129.05 334.207 124.524 336.274C119.997 338.34 118.073 343.838 120.226 348.554C122.379 353.269 127.793 355.416 132.32 353.35Z" fill="#BF7964"/>
<g opacity="0.25">
<path d="M128.368 341.919C130.662 340.872 132.335 339.048 133.124 336.838C130.595 335.158 127.415 334.924 124.52 336.246C122.226 337.294 120.552 339.117 119.763 341.327C122.293 343.008 125.473 343.242 128.368 341.919Z" fill="#E6E7E8"/>
</g>
<path d="M150.605 351.212C147.015 343.351 149.069 336.88 155.173 334.091C161.288 331.3 166.998 334.346 170.584 342.2C174.174 350.061 173.823 356.127 167.719 358.915C161.605 361.707 154.191 359.066 150.605 351.212V351.212Z" fill="#6B382C"/>
<path d="M172.19 346.045C167.8 338.6 169.168 331.95 174.95 328.541C180.74 325.127 187.218 327.161 191.603 334.598C195.992 342.043 196.099 349.407 189.21 353.293C183.356 356.595 176.574 353.481 172.189 346.044L172.19 346.045Z" fill="#6B382C"/>
<path d="M209.454 347.496C214.768 345.07 216.435 337.317 213.176 330.179C209.917 323.041 202.967 319.222 197.652 321.648C192.338 324.075 190.671 331.828 193.93 338.966C197.189 346.104 204.139 349.923 209.454 347.496Z" fill="#6B382C"/>
<path d="M137.266 322.434L133.172 269.606C128.603 273.269 124.038 277.863 120.324 283.608C121.853 302.586 136.752 326.044 144.922 344.393C144.405 343.13 143.794 341.811 143.147 340.399C140.881 335.384 138.892 329.458 137.266 322.434V322.434Z" fill="#6B382C"/>
</g>
<path d="M197.309 320.833C191.726 305.888 192.252 296.926 204.121 291.642L204.118 291.643C215.987 286.359 222.998 291.965 230.37 306.113L237.508 301.975C227.312 281.137 216.471 272.388 199.008 280.163L199.011 280.162C181.548 287.937 180.796 301.847 189.459 323.368" fill="#F4AE7A"/>
<path d="M189.458 323.368C180.795 301.848 181.547 287.937 199.01 280.163L199.007 280.164C216.47 272.389 227.311 281.138 237.507 301.976L244.645 297.838C231.624 270.311 216.953 258.419 193.896 268.684L193.899 268.683C170.842 278.949 169.863 297.808 181.607 325.904" fill="#FD84A0"/>
<path d="M181.607 325.904C169.863 297.809 170.842 278.948 193.899 268.683L193.896 268.684C216.953 258.419 231.624 270.31 244.645 297.838L251.783 293.7C235.937 259.484 217.437 244.448 188.785 257.205L188.788 257.203C160.137 269.96 158.932 293.768 173.756 328.44" fill="#CA7EF2"/>
<path d="M173.756 328.438C158.932 293.767 160.137 269.959 188.789 257.202L188.786 257.203C217.437 244.447 235.936 259.483 251.783 293.698L258.921 289.56C240.25 248.655 217.921 230.477 183.676 245.724L183.679 245.723C149.434 260.97 148.002 289.727 165.907 330.973" fill="#73D6FA"/>
<path d="M165.905 330.974C147.999 289.727 149.432 260.971 183.677 245.724L183.674 245.725C217.919 230.478 240.248 248.656 258.919 289.561L266.057 285.423C244.561 237.829 218.403 216.508 178.563 234.246L178.566 234.244C138.727 251.982 137.068 285.688 158.053 333.51" fill="#A7FECD"/>
<path d="M158.053 333.51C137.068 285.688 138.726 251.982 178.566 234.244L178.563 234.246C218.402 216.508 244.561 237.829 266.057 285.423L273.195 281.285C248.874 227.002 218.886 202.538 173.453 222.766L173.456 222.764C128.022 242.993 126.138 281.648 150.204 336.045" fill="#A1EBFF"/>
<path d="M168.343 211.285C117.316 234.003 115.206 277.607 142.352 338.579L144.923 344.392L150.204 336.043C126.138 281.647 128.022 242.991 173.455 222.764C218.887 202.536 248.875 227.001 273.196 281.284L282.467 281.957L280.333 277.145C253.186 216.173 219.37 188.565 168.343 211.283L168.343 211.285Z" fill="#FEBBFF"/>
<path d="M205.16 318.297C202.66 309.928 202.958 305.915 209.232 303.122L209.229 303.123C215.504 300.329 218.687 302.793 223.232 310.252L230.37 306.114C222.999 291.965 215.987 286.359 204.118 291.643L204.121 291.642C192.253 296.926 191.727 305.888 197.309 320.833" fill="#FEFE8E"/>
<path d="M166.594 311.71C160.106 313.046 160.144 313.065 157.397 307.037C158.733 313.526 158.752 313.487 152.724 316.234C159.213 314.899 159.096 314.915 161.843 320.942C160.507 314.454 160.567 314.457 166.594 311.71V311.71Z" fill="white"/>
<path d="M216.751 248.072C211.649 252.298 211.692 252.297 206.437 248.265C210.663 253.366 210.662 253.323 206.63 258.578C211.731 254.353 211.688 254.354 216.943 258.386C212.717 253.285 212.718 253.327 216.751 248.072V248.072Z" fill="white"/>
<path d="M227.946 257.182C227.342 255.79 225.769 255.132 224.433 255.712C223.096 256.292 222.503 257.89 223.107 259.282C223.711 260.674 225.284 261.333 226.62 260.753C227.957 260.173 228.55 258.574 227.946 257.182Z" fill="white"/>
<path d="M233.901 263.186C233.395 262.02 232.077 261.469 230.958 261.955C229.839 262.44 229.341 263.779 229.847 264.945C230.353 266.111 231.671 266.662 232.79 266.176C233.909 265.691 234.407 264.352 233.901 263.186Z" fill="white"/>
<path d="M167.527 334.945C167.608 335.213 167.695 335.483 167.792 335.755L168.071 336.513C167.694 336.118 167.289 335.724 166.851 335.333L167.527 334.945ZM261.59 294.875L261.214 294.161C261.076 293.906 260.934 293.661 260.789 293.422L261.53 293.18C261.527 293.767 261.548 294.331 261.59 294.875Z" fill="white"/>
<mask id="mask2_3_2537" style="mask-type:alpha" maskUnits="userSpaceOnUse" x="142" y="271" width="144" height="86">
<path d="M264.05 272.822C257.758 275.552 253.606 282.226 257.743 289.869C254.653 287.375 250.985 287.03 248.243 288.503C245.309 290.079 243.521 293.671 244.236 297.992C239.933 292.584 233.41 290.935 228.371 293.121C223.901 295.061 220.767 298.681 220.86 303.295C217.477 300.505 213.106 300.096 208.658 302.127C204.303 304.117 201.757 307.587 201.559 311.857C198.193 308.722 193.417 308.633 188.996 310.653C184 312.935 180.861 318.886 182.001 325.702C179.267 322.28 175.401 321.205 172.268 322.331C169.338 323.383 167.14 326.339 166.926 330.304C164.014 322.116 156.276 320.736 150.037 323.585C142.84 326.872 140.122 333.894 145.237 345.096C150.348 356.289 157.409 358.856 164.636 355.556C168.667 353.714 171.631 350.044 171.916 345.798C175.297 350.874 181.009 352.103 185.559 350.469C190.456 348.709 193.923 343.237 192.453 336.414C196.793 344.77 202.558 346.6 208.451 343.909C212.506 342.058 214.897 337.295 213.966 332.333C216.335 334.733 219.773 335.348 222.89 333.996C226.059 332.621 227.969 329.613 227.763 326.172C230.826 330.195 235.973 331.609 240.066 329.833C246.01 327.254 248.507 321.745 245.201 312.929C249.289 318.587 255.675 319.672 260.259 317.21C264.518 314.923 267.427 309.855 265.917 303.946C269.264 306.576 273.974 306.83 278.04 305.065C285.329 301.902 288.145 294.938 283.247 283.65C278.345 272.353 271.308 269.675 264.05 272.824L264.05 272.822Z" fill="black"/>
</mask>
<g mask="url(#mask2_3_2537)">
<path d="M285.588 253.974L121.62 326.978L145.531 380.684L309.499 307.68L285.588 253.974Z" fill="#A3E4FC"/>
<path d="M262.145 268.542C255.853 271.272 251.7 277.945 255.837 285.588C252.747 283.094 249.079 282.75 246.337 284.223C243.403 285.798 241.616 289.39 242.33 293.712C238.028 288.304 231.505 286.655 226.466 288.841C221.996 290.781 218.861 294.401 218.955 299.015C215.572 296.224 211.2 295.816 206.753 297.847C202.398 299.836 199.852 303.307 199.654 307.577C196.288 304.442 191.512 304.353 187.09 306.373C182.094 308.655 178.955 314.606 180.095 321.422C177.361 317.999 173.496 316.924 170.362 318.051C167.433 319.103 165.234 322.059 165.02 326.024C162.108 317.835 154.37 316.456 148.131 319.305C140.935 322.592 138.216 329.613 143.332 340.816C148.443 352.008 155.503 354.576 162.73 351.276C166.761 349.434 169.725 345.764 170.01 341.518C173.392 346.593 179.103 347.823 183.654 346.188C188.55 344.429 192.017 338.957 190.547 332.134C194.887 340.49 200.652 342.32 206.546 339.629C210.6 337.777 212.992 333.015 212.06 328.052C214.429 330.453 217.868 331.068 220.985 329.716C224.154 328.34 226.064 325.332 225.858 321.891C228.921 325.914 234.068 327.329 238.161 325.553C244.104 322.974 246.602 317.465 243.296 308.649C247.383 314.306 253.77 315.391 258.353 312.93C262.613 310.642 265.521 305.575 264.012 299.666C267.358 302.295 272.069 302.549 276.135 300.785C283.423 297.622 286.239 290.658 281.341 279.37C276.439 268.072 269.402 265.394 262.144 268.543L262.145 268.542Z" fill="#E0F6FE"/>
<path d="M152.555 329.245C158.794 326.395 166.532 327.775 169.444 335.963C169.659 331.998 171.857 329.042 174.786 327.99C177.92 326.864 181.786 327.939 184.519 331.362C183.379 324.546 186.518 318.595 191.514 316.313C195.937 314.294 200.713 314.381 204.078 317.517C204.278 313.247 206.822 309.776 211.177 307.787C215.625 305.755 219.996 306.164 223.379 308.954C223.287 304.34 226.421 300.72 230.89 298.78C235.929 296.594 242.452 298.244 246.754 303.652C246.04 299.33 247.827 295.738 250.762 294.163C253.503 292.69 257.171 293.034 260.261 295.528C256.124 287.885 260.277 281.211 266.569 278.481C272.576 275.875 278.431 277.26 283.05 284.219C282.65 282.7 282.084 281.084 281.34 279.367C276.438 268.069 269.401 265.391 262.143 268.54C255.851 271.27 251.698 277.944 255.835 285.587C252.745 283.093 249.077 282.749 246.335 284.222C243.401 285.797 241.614 289.389 242.328 293.711C238.026 288.303 231.503 286.653 226.464 288.839C221.994 290.779 218.859 294.4 218.953 299.013C215.57 296.223 211.199 295.814 206.751 297.846C202.396 299.835 199.85 303.306 199.652 307.575C196.286 304.44 191.51 304.352 187.088 306.372C182.092 308.654 178.953 314.605 180.093 321.421C177.36 317.998 173.494 316.923 170.36 318.049C167.431 319.101 165.232 322.057 165.018 326.022C162.106 317.834 154.368 316.454 148.129 319.304C140.933 322.59 138.214 329.612 143.33 340.814C144.107 342.516 144.93 344.018 145.792 345.331C143.711 337.242 146.6 331.965 152.555 329.245V329.245Z" fill="#C1EDFD"/>
</g>
<path d="M201.895 330.59C201.387 329.42 200.066 328.867 198.943 329.354C197.82 329.841 197.322 331.185 197.829 332.354C198.337 333.524 199.659 334.077 200.781 333.59C201.904 333.103 202.402 331.76 201.895 330.59Z" fill="white"/>
<path d="M270.139 291.798C269.631 290.628 268.309 290.075 267.187 290.562C266.064 291.049 265.565 292.393 266.073 293.562C266.581 294.732 267.902 295.285 269.025 294.798C270.148 294.311 270.646 292.968 270.139 291.798Z" fill="white"/>
<path d="M273.567 285.261C273.118 284.227 271.95 283.739 270.958 284.17C269.965 284.6 269.524 285.787 269.972 286.821C270.421 287.855 271.589 288.343 272.582 287.912C273.574 287.482 274.016 286.295 273.567 285.261Z" fill="white"/>
<path d="M157.292 342.409C156.844 341.376 155.675 340.887 154.683 341.318C153.69 341.749 153.249 342.936 153.698 343.969C154.146 345.003 155.314 345.492 156.307 345.061C157.3 344.63 157.741 343.443 157.292 342.409Z" fill="white"/>
</svg>
