<svg width="500" height="500" viewBox="0 0 500 500" fill="none" xmlns="http://www.w3.org/2000/svg">
<rect width="500" height="500" fill="#E1E2CF"/>
<rect x="25" y="25" width="450" height="450" rx="20" stroke="#9C9F60" stroke-width="10"/>
<path d="M166.75 287.444L184.589 271.49C185.854 270.359 187.857 270.818 188.503 272.387L195.497 289.373C195.687 289.834 195.732 290.341 195.627 290.829L192.997 303.009C192.912 303.403 192.732 303.77 192.471 304.078L182.671 315.671C181.531 317.02 179.383 316.763 178.593 315.183L166.19 290.378C165.694 289.385 165.923 288.184 166.75 287.444Z" fill="#415074"/>
<path fill-rule="evenodd" clip-rule="evenodd" d="M187.366 272.855C187.043 272.071 186.041 271.841 185.409 272.407L167.57 288.361C167.157 288.731 167.042 289.332 167.29 289.828L179.693 314.633C180.088 315.423 181.162 315.551 181.732 314.877L191.532 303.284C191.662 303.13 191.753 302.946 191.795 302.749L194.425 290.569C194.478 290.326 194.455 290.072 194.36 289.841L187.366 272.855ZM183.769 270.573C185.666 268.877 188.671 269.565 189.64 271.919L196.634 288.905C196.919 289.596 196.987 290.357 196.829 291.088L194.199 303.269C194.072 303.86 193.801 304.41 193.411 304.872L183.61 316.465C181.9 318.488 178.677 318.103 177.493 315.733L165.09 290.928L166.19 290.378L165.09 290.928C164.346 289.439 164.69 287.637 165.93 286.528L183.769 270.573Z" fill="black"/>
<path d="M195.481 291.618L183.49 257.797L230.225 222.131L237.143 255.952L195.481 291.618Z" fill="#A47F5D"/>
<path fill-rule="evenodd" clip-rule="evenodd" d="M231.037 219.964L238.493 256.415L194.92 293.717L182.031 257.363L231.037 219.964ZM184.949 258.231L196.042 289.519L235.793 255.489L229.413 224.298L184.949 258.231Z" fill="black"/>
<path d="M112.773 215.059C124.334 196.12 149.566 167.607 160.738 155.719L183.797 257.49C174.451 269.05 164.53 263.741 160.738 259.642C139.83 271.694 126.609 256.465 122.612 247.343C117.078 248.881 98.3223 238.734 112.773 215.059Z" fill="#FFF2C0"/>
<path fill-rule="evenodd" clip-rule="evenodd" d="M161.426 153.19L185.129 257.799L184.754 258.263C179.863 264.312 174.663 266.102 170.067 265.663C166.034 265.277 162.652 263.191 160.524 261.173C150.093 266.892 141.393 266.077 134.752 262.517C128.43 259.127 124.105 253.324 121.885 248.706C120.219 248.829 118.162 248.335 116.177 247.386C113.69 246.197 111.101 244.196 109.178 241.343C105.267 235.539 104.318 226.55 111.723 214.419C123.358 195.358 148.672 166.764 159.841 154.877L161.426 153.19ZM160.051 158.255C148.236 170.978 124.796 197.724 113.823 215.7C106.777 227.243 107.981 235.165 111.218 239.969C112.87 242.42 115.104 244.146 117.238 245.167C119.43 246.215 121.312 246.428 122.283 246.158L123.31 245.873L123.738 246.85C125.66 251.234 129.803 257.072 135.914 260.349C141.935 263.577 150.015 264.404 160.123 258.576L160.974 258.086L161.64 258.807C163.391 260.699 166.557 262.856 170.302 263.214C173.848 263.553 178.136 262.302 182.465 257.172L160.051 158.255Z" fill="black"/>
<path d="M190.86 295.831L220.179 270.497C220.703 270.045 221.392 269.834 222.078 269.916L254.801 273.812C256.824 274.053 257.694 276.507 256.274 277.968L209.448 326.164C208.306 327.339 206.355 327.09 205.545 325.666L190.33 298.908C189.75 297.888 189.972 296.599 190.86 295.831Z" fill="#415074"/>
<path fill-rule="evenodd" clip-rule="evenodd" d="M221.933 271.138C221.59 271.097 221.245 271.202 220.984 271.428L220.183 270.502L220.984 271.428L191.665 296.762C191.22 297.146 191.109 297.791 191.4 298.301L206.614 325.058C207.019 325.77 207.995 325.895 208.566 325.307L255.392 277.112C256.102 276.381 255.667 275.154 254.655 275.033L221.933 271.138ZM219.375 269.567C220.16 268.889 221.194 268.573 222.224 268.695L254.946 272.591C257.98 272.952 259.286 276.634 257.156 278.826L210.33 327.021C208.617 328.784 205.691 328.411 204.476 326.274L189.261 299.517C188.391 297.986 188.724 296.053 190.056 294.901L219.375 269.567Z" fill="black"/>
<path d="M295.868 221.055C291.564 219.948 287.029 214.521 286.26 209.371C282.571 159.685 246.52 154.181 228.995 158.486C252.608 185.051 234.119 219.364 221.923 233.2C210.854 258.719 221.923 255.337 223.768 261.486C225.244 266.406 223.153 269.07 221.923 269.788C237.173 280.611 251.382 280.267 255.994 277.398C286.002 280.595 297.662 261.384 300.327 252.724C299.466 249.649 301.198 248.265 302.171 247.958C316.93 240.948 308.321 230.586 302.171 226.282C301.864 225.001 300.173 222.162 295.868 221.055Z" fill="#FFF2C0"/>
<path fill-rule="evenodd" clip-rule="evenodd" d="M231.267 159.254C242.144 172.526 243.221 187.52 240.085 200.897C236.856 214.67 229.153 226.811 222.975 233.866C220.279 240.107 218.963 244.514 218.499 247.698C218.034 250.895 218.44 252.778 219.095 254.041C219.731 255.268 220.658 256.046 221.744 256.958C221.808 257.012 221.872 257.066 221.937 257.12C223.062 258.068 224.37 259.214 224.946 261.133C226.161 265.184 225.2 268.043 223.895 269.655C230.913 274.37 237.621 276.682 243.131 277.512C249.038 278.401 253.397 277.565 255.344 276.354L255.703 276.13L256.124 276.175C270.825 277.742 280.92 273.819 287.656 268.54C294.251 263.371 297.699 256.841 299.048 252.688C298.669 251.047 298.904 249.707 299.498 248.685C300.089 247.669 300.977 247.071 301.71 246.816C305.225 245.135 307.199 243.328 308.198 241.603C309.184 239.9 309.29 238.157 308.824 236.425C307.861 232.839 304.459 229.385 301.466 227.289L301.084 227.022L300.976 226.569C300.776 225.737 299.432 223.241 295.562 222.246C293.075 221.607 290.659 219.773 288.79 217.513C286.912 215.241 285.468 212.395 285.044 209.553L285.037 209.508L285.034 209.462C283.213 184.941 273.444 171.541 262.18 164.735C251.692 158.397 239.737 157.671 231.267 159.254ZM287.483 209.233C285.605 184.097 275.51 169.916 263.452 162.63C251.457 155.381 237.717 155.077 228.701 157.292L226.72 157.778L228.076 159.303C239.552 172.214 240.819 186.991 237.69 200.336C234.552 213.723 226.998 225.583 221.001 232.387L220.872 232.532L220.795 232.711C218.008 239.136 216.578 243.823 216.065 247.344C215.55 250.882 215.952 253.323 216.911 255.173C217.782 256.853 219.066 257.926 220.108 258.797C220.191 258.867 220.273 258.935 220.353 259.002C221.476 259.947 222.243 260.685 222.59 261.84C223.921 266.279 221.988 268.327 221.303 268.726L219.656 269.687L221.211 270.791C228.989 276.311 236.534 279.006 242.765 279.944C248.647 280.829 253.518 280.167 256.266 278.663C271.359 280.18 281.974 276.118 289.173 270.476C296.401 264.81 300.109 257.614 301.502 253.086L301.608 252.74L301.511 252.392C301.156 251.126 301.368 250.362 301.624 249.922C301.903 249.443 302.318 249.202 302.542 249.131L302.623 249.105L302.699 249.069C306.522 247.253 308.987 245.149 310.327 242.835C311.685 240.489 311.81 238.058 311.2 235.786C310.054 231.524 306.319 227.767 303.225 225.523C302.585 223.736 300.509 220.979 296.175 219.864C294.357 219.397 292.354 217.963 290.686 215.946C289.039 213.953 287.836 211.529 287.483 209.233Z" fill="black"/>
<path fill-rule="evenodd" clip-rule="evenodd" d="M248.125 176.957C248.791 176.825 249.439 177.257 249.571 177.923C250.646 183.326 249.91 192.751 247.935 202.055C245.959 211.362 242.672 220.887 238.425 226.416C235.529 230.186 232.845 235.693 232.94 240.257C232.986 242.484 233.688 244.417 235.288 245.881C236.911 247.367 239.61 248.507 243.915 248.806C244.593 248.854 245.104 249.441 245.057 250.119C245.01 250.796 244.422 251.307 243.745 251.26C239.113 250.938 235.803 249.687 233.627 247.695C231.427 245.681 230.538 243.05 230.481 240.308C230.369 234.932 233.433 228.878 236.475 224.918C240.376 219.839 243.572 210.762 245.529 201.544C247.486 192.324 248.133 183.301 247.159 178.403C247.026 177.737 247.459 177.09 248.125 176.957ZM225.327 229.124C225.88 229.518 226.009 230.286 225.615 230.839C224.268 232.728 223.63 235.724 223.938 239.119C224.244 242.487 225.47 246.089 227.646 249.091C229.813 252.08 232.911 254.463 236.992 255.468C241.077 256.473 246.266 256.124 252.653 253.435C253.279 253.171 254.001 253.465 254.264 254.091C254.528 254.717 254.234 255.438 253.608 255.702C246.851 258.547 241.115 259.015 236.404 257.856C231.689 256.696 228.119 253.934 225.655 250.534C223.199 247.146 221.831 243.115 221.489 239.341C221.148 235.595 221.808 231.941 223.612 229.411C224.006 228.858 224.774 228.729 225.327 229.124Z" fill="black"/>
<path fill-rule="evenodd" clip-rule="evenodd" d="M263.937 190.535C264.576 190.305 265.281 190.637 265.51 191.276C267.891 197.895 269.961 208.452 268.409 218.676C266.85 228.953 261.603 238.983 249.304 244.172C248.678 244.436 247.957 244.143 247.693 243.517C247.429 242.891 247.722 242.17 248.348 241.906C259.662 237.132 264.511 227.972 265.977 218.307C267.452 208.589 265.478 198.454 263.196 192.108C262.966 191.469 263.298 190.765 263.937 190.535ZM286.22 227.138C286.766 226.734 287.536 226.849 287.94 227.395C289.373 229.329 292.109 231.916 295.578 233.325C298.992 234.711 303.114 234.962 307.532 232.3C308.114 231.95 308.87 232.137 309.22 232.719C309.571 233.301 309.383 234.056 308.802 234.407C303.627 237.525 298.678 237.238 294.652 235.604C290.681 233.991 287.606 231.075 285.964 228.859C285.559 228.313 285.674 227.543 286.22 227.138ZM310.331 237.63C310.856 238.061 310.932 238.836 310.501 239.361C307.379 243.162 303.408 244.243 299.79 244.044C296.226 243.847 292.975 242.416 291.042 241.146C290.475 240.773 290.317 240.01 290.69 239.442C291.063 238.875 291.825 238.717 292.393 239.09C294.047 240.177 296.885 241.42 299.925 241.588C302.912 241.752 306.065 240.887 308.6 237.8C309.031 237.275 309.806 237.199 310.331 237.63ZM287.796 249.068C288.244 248.558 289.021 248.508 289.532 248.956C291.004 250.25 295.229 252.414 299.943 251.516C300.61 251.389 301.254 251.827 301.381 252.494C301.508 253.161 301.07 253.805 300.403 253.932C294.786 255.002 289.818 252.482 287.908 250.804C287.398 250.355 287.348 249.578 287.796 249.068Z" fill="black"/>
<path fill-rule="evenodd" clip-rule="evenodd" d="M145.4 172.354C145.977 172.714 146.152 173.472 145.793 174.049C145.402 174.676 144.948 175.329 144.48 175.996C144.427 176.073 144.373 176.15 144.318 176.227C143.896 176.829 143.462 177.448 143.026 178.105C142.046 179.583 141.09 181.211 140.374 183.068C138.962 186.734 138.439 191.418 140.826 197.712C143.467 204.676 142.893 211.454 139.891 215.936C138.383 218.187 136.26 219.851 133.662 220.603C131.065 221.354 128.091 221.166 124.92 219.89C124.29 219.636 123.985 218.92 124.238 218.289C124.492 217.659 125.208 217.354 125.838 217.608C128.586 218.714 130.993 218.814 132.979 218.24C134.964 217.666 136.627 216.389 137.847 214.567C140.303 210.901 140.958 204.996 138.526 198.585C135.923 191.72 136.45 186.411 138.079 182.184C138.884 180.093 139.946 178.299 140.976 176.746C141.431 176.06 141.885 175.413 142.305 174.813C142.36 174.736 142.413 174.66 142.466 174.584C142.936 173.913 143.354 173.311 143.706 172.747C144.065 172.171 144.824 171.995 145.4 172.354ZM142.488 223.523C142.908 224.056 142.815 224.83 142.282 225.25C138.282 228.397 134.472 229.12 131.297 228.635C128.172 228.157 125.767 226.526 124.473 225.114C124.014 224.614 124.047 223.836 124.548 223.377C125.049 222.918 125.827 222.951 126.286 223.452C127.246 224.5 129.161 225.82 131.668 226.204C134.125 226.579 137.258 226.073 140.761 223.317C141.294 222.897 142.068 222.989 142.488 223.523Z" fill="black"/>
<path fill-rule="evenodd" clip-rule="evenodd" d="M147.644 228.53C148.186 228.94 148.292 229.711 147.882 230.253C144.436 234.804 140.645 236.535 137.212 236.696C133.842 236.853 130.992 235.487 129.364 234.15C128.839 233.719 128.763 232.944 129.195 232.419C129.626 231.894 130.401 231.818 130.926 232.249C132.167 233.269 134.437 234.363 137.098 234.239C139.697 234.117 142.849 232.825 145.921 228.768C146.331 228.226 147.103 228.12 147.644 228.53Z" fill="black"/>
<path fill-rule="evenodd" clip-rule="evenodd" d="M155.424 236.481C155.989 236.858 156.142 237.621 155.765 238.186C151.701 244.283 146.388 246.173 141.415 245.962C136.536 245.756 132.06 243.539 129.41 241.565C128.865 241.159 128.753 240.389 129.159 239.844C129.564 239.299 130.335 239.187 130.88 239.593C133.252 241.359 137.262 243.324 141.519 243.505C145.684 243.681 150.158 242.163 153.719 236.822C154.095 236.257 154.859 236.104 155.424 236.481Z" fill="black"/>
<path fill-rule="evenodd" clip-rule="evenodd" d="M120.76 240.009C121.436 239.941 122.039 240.434 122.106 241.11C122.299 243.036 123.032 245.14 123.779 246.849C124.147 247.694 124.51 248.422 124.793 248.958C124.934 249.226 125.054 249.444 125.145 249.603C125.19 249.683 125.227 249.747 125.255 249.795C125.269 249.818 125.28 249.837 125.289 249.851L125.299 249.868C125.301 249.871 125.302 249.873 125.302 249.873L125.302 249.873C125.667 250.446 125.498 251.206 124.925 251.571C124.352 251.935 123.592 251.767 123.227 251.193C123.082 250.966 122.313 249.64 121.524 247.833C120.739 246.034 119.889 243.656 119.659 241.355C119.591 240.679 120.084 240.076 120.76 240.009Z" fill="black"/>
<path fill-rule="evenodd" clip-rule="evenodd" d="M165.867 254.514C166.406 254.927 166.508 255.699 166.095 256.239C165.072 257.575 162.104 260.559 158.009 262.379C157.388 262.655 156.661 262.376 156.385 261.755C156.109 261.134 156.389 260.408 157.01 260.132C160.663 258.508 163.321 255.815 164.143 254.743C164.556 254.204 165.328 254.101 165.867 254.514Z" fill="black"/>
<path d="M153.82 185.543C151.237 173.367 158.483 160.279 162.429 155.257C183.09 152.552 214.8 155.77 228.072 157.717C253.131 179.547 234.222 217.826 226.074 228.434C217.926 239.041 196.711 260.41 179.8 256.721C162.89 253.031 161.353 240.886 153.82 223.361C146.287 205.835 157.048 200.762 153.82 185.543Z" fill="#A47F5D"/>
<path fill-rule="evenodd" clip-rule="evenodd" d="M162.269 154.038C183.111 151.309 214.964 154.551 228.251 156.5L228.608 156.553L228.88 156.79C241.868 168.104 243.391 183.66 240.733 197.516C238.079 211.351 231.225 223.747 227.049 229.183C222.922 234.556 215.501 242.639 206.952 248.929C198.469 255.171 188.549 259.888 179.538 257.922C170.735 256.002 165.845 251.826 162.241 245.866C160.466 242.931 159.009 239.576 157.538 235.906C157.074 234.75 156.61 233.565 156.134 232.349C155.086 229.674 153.979 226.847 152.69 223.846C150.754 219.342 149.973 215.588 149.866 212.237C149.76 208.893 150.329 206.012 151.013 203.288C151.19 202.581 151.374 201.887 151.557 201.197C152.786 196.557 153.959 192.128 152.617 185.798C151.26 179.403 152.494 172.839 154.521 167.295C156.549 161.746 159.413 157.105 161.462 154.498L161.772 154.103L162.269 154.038ZM163.091 156.412C161.215 158.896 158.665 163.123 156.831 168.14C154.894 173.439 153.797 179.507 155.023 185.287C156.494 192.223 155.167 197.206 153.927 201.862C153.746 202.542 153.567 203.215 153.398 203.886C152.737 206.524 152.229 209.148 152.325 212.159C152.42 215.165 153.119 218.617 154.95 222.875C156.255 225.913 157.388 228.805 158.442 231.498C158.915 232.703 159.371 233.869 159.821 234.99C161.285 238.642 162.681 241.84 164.346 244.593C167.621 250.009 171.956 253.75 180.063 255.519C187.963 257.243 197.105 253.121 205.494 246.948C213.817 240.825 221.078 232.919 225.099 227.685C229.07 222.514 235.745 210.466 238.318 197.052C240.867 183.759 239.358 169.377 227.534 158.882C214.183 156.948 183.399 153.87 163.091 156.412Z" fill="black"/>
<path fill-rule="evenodd" clip-rule="evenodd" d="M176.961 176.956C177.628 177.086 178.063 177.732 177.933 178.399C177.147 182.433 174.342 192.586 169.334 201.225C167.801 203.87 166.981 205.506 166.587 206.551C166.292 207.332 166.296 207.631 166.306 207.703C166.319 207.719 166.354 207.759 166.435 207.833C166.453 207.85 166.476 207.871 166.504 207.896C166.635 208.014 166.855 208.213 167.046 208.438C167.602 209.093 167.963 209.976 167.963 211.37C167.963 212.049 167.412 212.599 166.733 212.599C166.054 212.599 165.503 212.049 165.503 211.37C165.503 210.457 165.288 210.168 165.171 210.03C165.095 209.94 165.028 209.88 164.915 209.777C164.872 209.738 164.822 209.692 164.762 209.636C164.577 209.466 164.291 209.188 164.09 208.777C163.661 207.896 163.832 206.884 164.285 205.682C164.756 204.435 165.665 202.65 167.206 199.992C172.037 191.658 174.767 181.785 175.519 177.928C175.648 177.262 176.294 176.826 176.961 176.956ZM166.31 207.721C166.309 207.721 166.308 207.719 166.307 207.712C166.309 207.718 166.31 207.721 166.31 207.721ZM185.678 202.068C186.316 201.833 187.023 202.159 187.257 202.797C188.098 205.079 188.377 206.921 188.127 208.371C187.865 209.9 187.019 210.941 185.841 211.472C184.739 211.969 183.478 211.965 182.376 211.76C181.258 211.551 180.16 211.109 179.297 210.565C177.508 209.434 175.845 210.109 175.311 210.509C174.768 210.916 173.997 210.806 173.59 210.263C173.182 209.719 173.292 208.948 173.836 208.541C174.942 207.711 177.727 206.664 180.611 208.485C181.209 208.863 182.014 209.19 182.827 209.342C183.656 209.496 184.355 209.444 184.829 209.23C185.226 209.051 185.572 208.717 185.703 207.955C185.848 207.113 185.723 205.746 184.949 203.647C184.715 203.01 185.041 202.303 185.678 202.068Z" fill="black"/>
<path d="M168.117 108.677L152.129 148.34C181.645 157.195 235.144 132.351 258.204 118.823C258.204 115.287 257.073 106.009 251.132 108.677C243.599 112.059 239.705 108.164 238.68 107.139C222.999 92.996 223.922 90.6899 209.471 90.6899C195.02 90.69 187.641 113.596 177.956 107.139C172.091 103.23 168.834 106.729 168.117 108.677Z" fill="#3F4C6F"/>
<path fill-rule="evenodd" clip-rule="evenodd" d="M181.507 109.516C180.076 109.526 178.664 109.09 177.273 108.163C174.583 106.369 172.721 106.408 171.548 106.86C170.296 107.341 169.529 108.4 169.271 109.102L169.264 109.119L153.783 147.525C160.671 149.315 168.876 149.353 177.747 148.147C187.17 146.866 197.265 144.192 207.191 140.811C226.691 134.168 245.428 124.833 256.96 118.125C256.894 116.38 256.578 113.833 255.763 111.902C255.295 110.795 254.733 110.057 254.123 109.701C253.592 109.391 252.837 109.259 251.636 109.799C247.613 111.605 244.438 111.512 242.078 110.728C239.782 109.965 238.39 108.589 237.833 108.031C234.878 105.366 232.505 103.114 230.52 101.23C229.871 100.614 229.263 100.037 228.69 99.4981C226.342 97.2893 224.605 95.7431 222.934 94.6358C219.715 92.501 216.644 91.9197 209.471 91.9197C206.202 91.9197 203.278 93.2107 200.525 95.17C197.892 97.0445 195.502 99.4642 193.165 101.832C193.043 101.955 192.922 102.078 192.801 102.2C190.404 104.626 187.991 107.03 185.521 108.373C184.261 109.059 182.922 109.506 181.507 109.516ZM199.099 93.1661C202.097 91.0323 205.514 89.46 209.471 89.46C216.748 89.4599 220.442 90.0316 224.294 92.5857C226.159 93.8228 228.035 95.5051 230.375 97.7064C230.96 98.2558 231.574 98.8394 232.228 99.4601C234.216 101.346 236.564 103.574 239.504 106.226L239.527 106.247L239.55 106.27C240.032 106.752 241.094 107.809 242.853 108.393C244.58 108.967 247.119 109.13 250.628 107.555C252.398 106.76 254.012 106.788 255.364 107.577C256.637 108.321 257.471 109.624 258.029 110.945C259.147 113.593 259.434 116.986 259.434 118.823V119.527L258.826 119.884C247.239 126.682 228.023 136.313 207.984 143.139C197.963 146.553 187.707 149.275 178.078 150.584C168.461 151.892 159.388 151.801 151.775 149.518L150.484 149.13L166.97 108.233C167.434 106.989 168.652 105.338 170.665 104.564C172.765 103.756 175.464 104 178.638 106.116C179.668 106.803 180.605 107.063 181.489 107.056C182.387 107.05 183.327 106.767 184.346 106.213C186.435 105.077 188.586 102.966 191.051 100.471C191.186 100.335 191.321 100.199 191.457 100.061C193.757 97.7304 196.285 95.169 199.099 93.1661Z" fill="black"/>
<path d="M222.845 128.969C197.018 134.873 167.194 138.501 157.048 136.656L149.669 151.414L219.771 147.11L222.845 128.969Z" fill="black"/>
<path d="M141.982 176.934C126.404 171.912 94.2637 158.67 90.3282 145.88C85.4088 129.892 130.299 169.247 212.084 133.274C293.87 97.3004 320.619 136.041 325.231 149.262C329.843 162.483 328.306 200.609 286.183 208.91C283.724 196.202 271.117 168.632 240.371 160.023C214.021 152.645 185.891 153.973 160.435 154.919C148.71 162.513 143.248 172.76 141.982 176.934Z" fill="#A5B7DF"/>
<path d="M89.9622 145.257C93.8978 158.048 126.038 171.289 141.616 176.311C144.596 172.783 151.36 165.865 160.069 154.296C148.395 154.73 137.284 155.084 127.165 154.481C101.418 152.948 91.6351 147.693 89.9622 145.257Z" fill="#415074"/>
<path fill-rule="evenodd" clip-rule="evenodd" d="M297.15 123.965C280.067 117.282 253.288 116.494 212.579 134.4C171.433 152.498 139.518 151.66 118.497 148.286C113.249 147.443 108.688 146.444 104.847 145.548C103.777 145.298 102.769 145.058 101.82 144.832C99.3374 144.241 97.2608 143.746 95.5542 143.434C94.3801 143.218 93.4424 143.101 92.7133 143.092C91.9607 143.082 91.578 143.191 91.4037 143.291C91.3156 143.341 91.24 143.397 91.2057 143.659C91.1645 143.973 91.2078 144.496 91.4438 145.317C91.767 145.706 92.4884 146.32 93.821 147.057C95.2842 147.865 97.3863 148.768 100.264 149.655C106.018 151.428 114.799 153.113 127.605 153.876C137.655 154.475 148.707 154.124 160.389 153.69C161.212 153.659 162.037 153.628 162.866 153.597C187.631 152.667 214.993 151.64 240.703 158.839C271.107 167.352 284.086 194.017 287.134 207.459C307.004 203.195 317.274 192.079 322.097 180.459C327.053 168.519 326.277 155.994 324.07 149.667C321.861 143.335 314.247 130.654 297.15 123.965ZM93.9763 149.897C95.1784 151.398 96.7391 152.928 98.6082 154.466C102.305 157.509 107.066 160.471 112.232 163.215C122.216 168.518 133.571 172.928 141.308 175.47C146.187 169.704 148.968 166.588 151.109 164.189C153.477 161.536 155.062 159.759 157.838 156.245C147.129 156.63 136.874 156.892 127.458 156.331C114.517 155.561 105.532 153.852 99.5396 152.005C97.289 151.312 95.45 150.596 93.9763 149.897ZM161.055 156.126C161.644 156.104 162.235 156.082 162.826 156.06C187.689 155.128 214.709 154.115 240.039 161.207C270.18 169.647 282.568 196.705 284.976 209.144L285.21 210.355L286.421 210.117C307.893 205.885 319.141 193.997 324.369 181.402C329.558 168.899 328.797 155.751 326.392 148.857C323.989 141.968 315.923 128.668 298.046 121.675C280.154 114.675 252.666 114.08 211.589 132.148C170.95 150.023 139.527 149.17 118.887 145.857C113.719 145.027 109.22 144.042 105.406 143.153C104.378 142.913 103.394 142.679 102.458 142.456C99.9451 141.857 97.7727 141.34 95.9979 141.014C94.7748 140.79 93.6791 140.644 92.7451 140.632C91.8345 140.621 90.9243 140.731 90.1823 141.156C89.354 141.63 88.8896 142.403 88.7669 143.339C88.6544 144.197 88.8262 145.18 89.1527 146.241C90.2443 149.789 93.2031 153.203 97.0452 156.365C100.918 159.552 105.836 162.603 111.078 165.387C121.565 170.957 133.497 175.539 141.336 178.066L142.121 178.319L142.653 177.689C147.742 171.662 150.642 168.409 152.881 165.898C155.653 162.79 157.411 160.818 161.055 156.126Z" fill="black"/>
<path d="M201.838 299.324C201.838 300.682 200.737 301.784 199.379 301.784C198.02 301.784 196.919 300.682 196.919 299.324C196.919 297.966 198.02 296.864 199.379 296.864C200.737 296.864 201.838 297.966 201.838 299.324Z" fill="#FFF2C0"/>
<path fill-rule="evenodd" clip-rule="evenodd" d="M199.379 300.246C199.888 300.246 200.301 299.833 200.301 299.324C200.301 298.815 199.888 298.402 199.379 298.402C198.869 298.402 198.456 298.815 198.456 299.324C198.456 299.833 198.869 300.246 199.379 300.246ZM199.379 301.784C200.737 301.784 201.838 300.682 201.838 299.324C201.838 297.966 200.737 296.864 199.379 296.864C198.02 296.864 196.919 297.966 196.919 299.324C196.919 300.682 198.02 301.784 199.379 301.784Z" fill="black"/>
<path d="M175.55 290.157C175.55 291.516 174.449 292.617 173.09 292.617C171.732 292.617 170.631 291.516 170.631 290.157C170.631 288.799 171.732 287.698 173.09 287.698C174.449 287.698 175.55 288.799 175.55 290.157Z" fill="#FFF2C0"/>
<path fill-rule="evenodd" clip-rule="evenodd" d="M173.09 291.08C173.6 291.08 174.013 290.667 174.013 290.157C174.013 289.648 173.6 289.235 173.09 289.235C172.581 289.235 172.168 289.648 172.168 290.157C172.168 290.667 172.581 291.08 173.09 291.08ZM173.09 292.617C174.449 292.617 175.55 291.516 175.55 290.157C175.55 288.799 174.449 287.698 173.09 287.698C171.732 287.698 170.631 288.799 170.631 290.157C170.631 291.516 171.732 292.617 173.09 292.617Z" fill="black"/>
<path d="M179.109 296.307C179.109 297.665 178.007 298.767 176.649 298.767C175.29 298.767 174.189 297.665 174.189 296.307C174.189 294.948 175.29 293.847 176.649 293.847C178.007 293.847 179.109 294.948 179.109 296.307Z" fill="#FFF2C0"/>
<path fill-rule="evenodd" clip-rule="evenodd" d="M176.649 297.229C177.158 297.229 177.571 296.816 177.571 296.307C177.571 295.797 177.158 295.384 176.649 295.384C176.14 295.384 175.727 295.797 175.727 296.307C175.727 296.816 176.14 297.229 176.649 297.229ZM176.649 298.767C178.007 298.767 179.109 297.665 179.109 296.307C179.109 294.948 178.007 293.847 176.649 293.847C175.29 293.847 174.189 294.948 174.189 296.307C174.189 297.665 175.29 298.767 176.649 298.767Z" fill="black"/>
<path d="M207.273 295.077C207.273 296.435 206.172 297.537 204.813 297.537C203.455 297.537 202.354 296.435 202.354 295.077C202.354 293.718 203.455 292.617 204.813 292.617C206.172 292.617 207.273 293.718 207.273 295.077Z" fill="#FFF2C0"/>
<path fill-rule="evenodd" clip-rule="evenodd" d="M204.813 295.999C205.323 295.999 205.736 295.586 205.736 295.077C205.736 294.567 205.323 294.155 204.813 294.155C204.304 294.155 203.891 294.567 203.891 295.077C203.891 295.586 204.304 295.999 204.813 295.999ZM204.813 297.537C206.172 297.537 207.273 296.435 207.273 295.077C207.273 293.718 206.172 292.617 204.813 292.617C203.455 292.617 202.354 293.718 202.354 295.077C202.354 296.435 203.455 297.537 204.813 297.537Z" fill="black"/>
<path d="M180.985 285.911C180.985 287.269 179.883 288.37 178.525 288.37C177.167 288.37 176.065 287.269 176.065 285.911C176.065 284.552 177.167 283.451 178.525 283.451C179.883 283.451 180.985 284.552 180.985 285.911Z" fill="#FFF2C0"/>
<path fill-rule="evenodd" clip-rule="evenodd" d="M178.525 286.833C179.034 286.833 179.447 286.42 179.447 285.911C179.447 285.401 179.034 284.988 178.525 284.988C178.016 284.988 177.603 285.401 177.603 285.911C177.603 286.42 178.016 286.833 178.525 286.833ZM178.525 288.37C179.883 288.37 180.985 287.269 180.985 285.911C180.985 284.552 179.883 283.451 178.525 283.451C177.167 283.451 176.065 284.552 176.065 285.911C176.065 287.269 177.167 288.37 178.525 288.37Z" fill="black"/>
<path d="M184.543 292.06C184.543 293.419 183.442 294.52 182.084 294.52C180.725 294.52 179.624 293.419 179.624 292.06C179.624 290.702 180.725 289.6 182.084 289.6C183.442 289.6 184.543 290.702 184.543 292.06Z" fill="#FFF2C0"/>
<path fill-rule="evenodd" clip-rule="evenodd" d="M182.084 292.982C182.593 292.982 183.006 292.569 183.006 292.06C183.006 291.551 182.593 291.138 182.084 291.138C181.574 291.138 181.161 291.551 181.161 292.06C181.161 292.569 181.574 292.982 182.084 292.982ZM182.084 294.52C183.442 294.52 184.543 293.419 184.543 292.06C184.543 290.702 183.442 289.6 182.084 289.6C180.725 289.6 179.624 290.702 179.624 292.06C179.624 293.419 180.725 294.52 182.084 294.52Z" fill="black"/>
<path d="M213.291 291.234C213.291 292.592 212.19 293.693 210.832 293.693C209.473 293.693 208.372 292.592 208.372 291.234C208.372 289.875 209.473 288.774 210.832 288.774C212.19 288.774 213.291 289.875 213.291 291.234Z" fill="#FFF2C0"/>
<path fill-rule="evenodd" clip-rule="evenodd" d="M210.832 292.156C211.341 292.156 211.754 291.743 211.754 291.234C211.754 290.724 211.341 290.311 210.832 290.311C210.322 290.311 209.909 290.724 209.909 291.234C209.909 291.743 210.322 292.156 210.832 292.156ZM210.832 293.693C212.19 293.693 213.291 292.592 213.291 291.234C213.291 289.875 212.19 288.774 210.832 288.774C209.473 288.774 208.372 289.875 208.372 291.234C208.372 292.592 209.473 293.693 210.832 293.693Z" fill="black"/>
<path d="M187.003 282.067C187.003 283.426 185.902 284.527 184.543 284.527C183.185 284.527 182.084 283.426 182.084 282.067C182.084 280.709 183.185 279.607 184.543 279.607C185.902 279.607 187.003 280.709 187.003 282.067Z" fill="#FFF2C0"/>
<path fill-rule="evenodd" clip-rule="evenodd" d="M184.543 282.99C185.053 282.99 185.466 282.577 185.466 282.067C185.466 281.558 185.053 281.145 184.543 281.145C184.034 281.145 183.621 281.558 183.621 282.067C183.621 282.577 184.034 282.99 184.543 282.99ZM184.543 284.527C185.902 284.527 187.003 283.426 187.003 282.067C187.003 280.709 185.902 279.607 184.543 279.607C183.185 279.607 182.084 280.709 182.084 282.067C182.084 283.426 183.185 284.527 184.543 284.527Z" fill="black"/>
<path d="M206.012 306.857C206.012 308.215 204.911 309.317 203.552 309.317C202.194 309.317 201.092 308.215 201.092 306.857C201.092 305.498 202.194 304.397 203.552 304.397C204.911 304.397 206.012 305.498 206.012 306.857Z" fill="#FFF2C0"/>
<path fill-rule="evenodd" clip-rule="evenodd" d="M203.552 307.779C204.061 307.779 204.474 307.366 204.474 306.857C204.474 306.348 204.061 305.935 203.552 305.935C203.043 305.935 202.63 306.348 202.63 306.857C202.63 307.366 203.043 307.779 203.552 307.779ZM203.552 309.317C204.911 309.317 206.012 308.215 206.012 306.857C206.012 305.498 204.911 304.397 203.552 304.397C202.194 304.397 201.092 305.498 201.092 306.857C201.092 308.215 202.194 309.317 203.552 309.317Z" fill="black"/>
<path d="M211.447 302.61C211.447 303.968 210.345 305.07 208.987 305.07C207.628 305.07 206.527 303.968 206.527 302.61C206.527 301.251 207.628 300.15 208.987 300.15C210.345 300.15 211.447 301.251 211.447 302.61Z" fill="#FFF2C0"/>
<path fill-rule="evenodd" clip-rule="evenodd" d="M208.987 303.532C209.496 303.532 209.909 303.119 209.909 302.61C209.909 302.1 209.496 301.687 208.987 301.687C208.477 301.687 208.064 302.1 208.064 302.61C208.064 303.119 208.477 303.532 208.987 303.532ZM208.987 305.07C210.345 305.07 211.447 303.968 211.447 302.61C211.447 301.251 210.345 300.15 208.987 300.15C207.628 300.15 206.527 301.251 206.527 302.61C206.527 303.968 207.628 305.07 208.987 305.07Z" fill="black"/>
<path d="M217.465 298.767C217.465 300.125 216.364 301.226 215.005 301.226C213.647 301.226 212.545 300.125 212.545 298.767C212.545 297.408 213.647 296.307 215.005 296.307C216.364 296.307 217.465 297.408 217.465 298.767Z" fill="#FFF2C0"/>
<path fill-rule="evenodd" clip-rule="evenodd" d="M215.005 299.689C215.515 299.689 215.928 299.276 215.928 298.767C215.928 298.257 215.515 297.844 215.005 297.844C214.496 297.844 214.083 298.257 214.083 298.767C214.083 299.276 214.496 299.689 215.005 299.689ZM215.005 301.226C216.364 301.226 217.465 300.125 217.465 298.767C217.465 297.408 216.364 296.307 215.005 296.307C213.647 296.307 212.545 297.408 212.545 298.767C212.545 300.125 213.647 301.226 215.005 301.226Z" fill="black"/>
<path d="M210.931 313.929C210.931 315.287 209.83 316.388 208.471 316.388C207.113 316.388 206.012 315.287 206.012 313.929C206.012 312.57 207.113 311.469 208.471 311.469C209.83 311.469 210.931 312.57 210.931 313.929Z" fill="#FFF2C0"/>
<path fill-rule="evenodd" clip-rule="evenodd" d="M208.471 314.851C208.981 314.851 209.394 314.438 209.394 313.929C209.394 313.419 208.981 313.006 208.471 313.006C207.962 313.006 207.549 313.419 207.549 313.929C207.549 314.438 207.962 314.851 208.471 314.851ZM208.471 316.388C209.83 316.388 210.931 315.287 210.931 313.929C210.931 312.57 209.83 311.469 208.471 311.469C207.113 311.469 206.012 312.57 206.012 313.929C206.012 315.287 207.113 316.388 208.471 316.388Z" fill="black"/>
<path d="M216.366 309.682C216.366 311.04 215.265 312.141 213.906 312.141C212.548 312.141 211.447 311.04 211.447 309.682C211.447 308.323 212.548 307.222 213.906 307.222C215.265 307.222 216.366 308.323 216.366 309.682Z" fill="#FFF2C0"/>
<path fill-rule="evenodd" clip-rule="evenodd" d="M213.906 310.604C214.416 310.604 214.829 310.191 214.829 309.682C214.829 309.172 214.416 308.759 213.906 308.759C213.397 308.759 212.984 309.172 212.984 309.682C212.984 310.191 213.397 310.604 213.906 310.604ZM213.906 312.141C215.265 312.141 216.366 311.04 216.366 309.682C216.366 308.323 215.265 307.222 213.906 307.222C212.548 307.222 211.447 308.323 211.447 309.682C211.447 311.04 212.548 312.141 213.906 312.141Z" fill="black"/>
<path d="M222.384 305.838C222.384 307.197 221.283 308.298 219.925 308.298C218.566 308.298 217.465 307.197 217.465 305.838C217.465 304.48 218.566 303.379 219.925 303.379C221.283 303.379 222.384 304.48 222.384 305.838Z" fill="#FFF2C0"/>
<path fill-rule="evenodd" clip-rule="evenodd" d="M219.925 306.761C220.434 306.761 220.847 306.348 220.847 305.838C220.847 305.329 220.434 304.916 219.925 304.916C219.415 304.916 219.002 305.329 219.002 305.838C219.002 306.348 219.415 306.761 219.925 306.761ZM219.925 308.298C221.283 308.298 222.384 307.197 222.384 305.838C222.384 304.48 221.283 303.379 219.925 303.379C218.566 303.379 217.465 304.48 217.465 305.838C217.465 307.197 218.566 308.298 219.925 308.298Z" fill="black"/>
<path fill-rule="evenodd" clip-rule="evenodd" d="M271.108 123.927C271.111 123.503 271.458 123.161 271.883 123.165C272.886 123.173 273.893 123.199 274.901 123.243C275.325 123.262 275.654 123.621 275.635 124.045C275.617 124.469 275.258 124.798 274.834 124.779C273.844 124.735 272.856 124.71 271.87 124.702C271.446 124.699 271.104 124.352 271.108 123.927ZM269.653 123.941C269.664 124.365 269.329 124.718 268.904 124.73C267.913 124.756 266.924 124.799 265.939 124.857C265.515 124.882 265.151 124.559 265.126 124.135C265.101 123.711 265.424 123.347 265.848 123.322C266.849 123.263 267.855 123.219 268.864 123.193C269.288 123.182 269.641 123.517 269.653 123.941ZM277.088 124.136C277.122 123.713 277.493 123.398 277.916 123.432C278.917 123.514 279.92 123.615 280.923 123.737C281.345 123.788 281.645 124.171 281.594 124.592C281.543 125.014 281.16 125.314 280.738 125.263C279.755 125.144 278.773 125.045 277.791 124.964C277.368 124.93 277.053 124.559 277.088 124.136ZM263.674 124.244C263.713 124.667 263.401 125.041 262.978 125.08C261.989 125.169 261.004 125.274 260.025 125.393C259.603 125.444 259.22 125.143 259.169 124.722C259.118 124.3 259.419 123.917 259.84 123.866C260.834 123.746 261.834 123.64 262.839 123.548C263.262 123.51 263.636 123.822 263.674 124.244ZM283.034 124.796C283.103 124.377 283.498 124.093 283.917 124.161C284.908 124.322 285.9 124.504 286.891 124.709C287.307 124.794 287.574 125.201 287.489 125.617C287.403 126.032 286.997 126.3 286.581 126.214C285.611 126.015 284.641 125.836 283.67 125.678C283.251 125.61 282.966 125.215 283.034 124.796ZM257.727 124.918C257.79 125.337 257.5 125.729 257.08 125.792C256.096 125.939 255.118 126.1 254.148 126.273C253.73 126.347 253.331 126.068 253.256 125.65C253.182 125.233 253.461 124.833 253.879 124.759C254.862 124.584 255.854 124.421 256.852 124.272C257.272 124.209 257.664 124.498 257.727 124.918ZM251.827 125.924C251.912 126.34 251.644 126.746 251.228 126.831C250.251 127.031 249.283 127.242 248.324 127.463C247.91 127.558 247.497 127.3 247.402 126.886C247.307 126.472 247.565 126.06 247.979 125.965C248.95 125.741 249.93 125.527 250.92 125.325C251.336 125.24 251.742 125.508 251.827 125.924ZM288.907 125.94C289.011 125.529 289.429 125.279 289.84 125.382C290.318 125.503 290.795 125.628 291.272 125.759C291.737 125.842 292.229 125.946 292.746 126.07C293.159 126.169 293.413 126.584 293.314 126.997C293.215 127.41 292.8 127.664 292.387 127.565C291.885 127.444 291.41 127.345 290.968 127.266L290.933 127.26L290.899 127.251C290.421 127.119 289.944 126.994 289.465 126.873C289.054 126.77 288.804 126.352 288.907 125.94ZM245.988 127.229C246.093 127.641 245.844 128.059 245.433 128.164C244.463 128.412 243.503 128.668 242.556 128.932C242.147 129.046 241.723 128.807 241.609 128.398C241.495 127.99 241.734 127.566 242.143 127.452C243.101 127.184 244.071 126.925 245.053 126.674C245.465 126.57 245.883 126.818 245.988 127.229ZM294.73 127.413C294.867 127.011 295.303 126.796 295.705 126.932C296.621 127.243 297.581 127.609 298.571 128.033C298.962 128.2 299.142 128.652 298.975 129.042C298.808 129.432 298.357 129.613 297.966 129.446C297.013 129.038 296.089 128.686 295.21 128.388C294.809 128.251 294.593 127.815 294.73 127.413ZM240.21 128.805C240.332 129.211 240.102 129.64 239.696 129.763C238.735 130.053 237.788 130.35 236.856 130.652C236.452 130.783 236.019 130.562 235.888 130.158C235.757 129.754 235.978 129.321 236.382 129.19C237.323 128.885 238.28 128.585 239.252 128.291C239.658 128.169 240.087 128.399 240.21 128.805ZM300.311 129.672C300.506 129.295 300.969 129.147 301.347 129.342C302.228 129.797 303.121 130.297 304.018 130.845C304.381 131.066 304.495 131.539 304.274 131.901C304.053 132.264 303.58 132.378 303.218 132.157C302.353 131.629 301.491 131.147 300.641 130.708C300.264 130.513 300.116 130.05 300.311 129.672ZM234.512 130.619C234.65 131.02 234.437 131.458 234.036 131.596C233.08 131.927 232.142 132.261 231.224 132.597C230.825 132.743 230.384 132.538 230.238 132.139C230.092 131.741 230.297 131.299 230.695 131.153C231.622 130.814 232.569 130.477 233.534 130.143C233.935 130.005 234.373 130.218 234.512 130.619ZM228.876 132.652C229.029 133.048 228.832 133.493 228.436 133.646C227.488 134.011 226.564 134.377 225.666 134.741C225.273 134.9 224.824 134.71 224.665 134.316C224.506 133.923 224.696 133.475 225.089 133.316C225.994 132.949 226.926 132.58 227.882 132.211C228.278 132.058 228.723 132.256 228.876 132.652ZM305.503 132.713C305.75 132.368 306.23 132.288 306.575 132.535C307.39 133.117 308.202 133.741 309.002 134.408C309.328 134.679 309.372 135.164 309.1 135.49C308.829 135.816 308.344 135.86 308.018 135.589C307.248 134.947 306.467 134.346 305.681 133.785C305.336 133.539 305.256 133.059 305.503 132.713ZM223.317 134.874C223.482 135.265 223.299 135.716 222.908 135.882C221.959 136.283 221.045 136.677 220.169 137.061C219.78 137.232 219.327 137.055 219.156 136.666C218.986 136.278 219.162 135.824 219.551 135.654C220.433 135.267 221.354 134.869 222.31 134.465C222.701 134.3 223.152 134.483 223.317 134.874ZM310.195 136.475C310.491 136.171 310.978 136.164 311.282 136.46C312.004 137.163 312.711 137.905 313.397 138.688C313.677 139.007 313.645 139.493 313.326 139.772C313.006 140.052 312.521 140.02 312.241 139.701C311.583 138.95 310.904 138.237 310.21 137.562C309.906 137.266 309.899 136.78 310.195 136.475ZM217.834 137.257C218.009 137.643 217.837 138.099 217.45 138.274C216.984 138.485 216.532 138.691 216.094 138.892C215.708 139.069 215.252 138.899 215.075 138.513C214.898 138.127 215.068 137.671 215.454 137.494C215.893 137.293 216.348 137.086 216.816 136.873C217.203 136.698 217.658 136.87 217.834 137.257ZM314.253 140.921C314.594 140.668 315.075 140.74 315.328 141.081C315.928 141.889 316.504 142.735 317.053 143.619C317.277 143.98 317.166 144.454 316.805 144.678C316.444 144.902 315.97 144.791 315.747 144.43C315.221 143.583 314.668 142.772 314.093 141.996C313.84 141.655 313.912 141.174 314.253 140.921ZM317.53 145.963C317.908 145.77 318.371 145.919 318.564 146.297C319.022 147.193 319.451 148.122 319.848 149.086C320.009 149.479 319.822 149.928 319.43 150.09C319.037 150.251 318.588 150.064 318.426 149.671C318.045 148.746 317.634 147.855 317.195 146.997C317.002 146.619 317.152 146.156 317.53 145.963ZM319.936 151.476C320.34 151.346 320.773 151.569 320.902 151.973C321.208 152.926 321.484 153.91 321.726 154.924C321.824 155.337 321.569 155.752 321.156 155.85C320.743 155.948 320.329 155.694 320.23 155.281C319.997 154.304 319.733 153.358 319.439 152.443C319.309 152.038 319.531 151.606 319.936 151.476ZM321.446 157.3C321.865 157.232 322.26 157.516 322.328 157.935C322.488 158.92 322.618 159.931 322.715 160.97C322.755 161.393 322.444 161.767 322.021 161.807C321.599 161.846 321.224 161.536 321.185 161.113C321.091 160.109 320.965 159.132 320.81 158.182C320.742 157.763 321.027 157.368 321.446 157.3ZM322.111 163.272C322.535 163.26 322.889 163.593 322.902 164.018C322.918 164.525 322.925 165.038 322.925 165.557C322.925 165.982 322.581 166.326 322.157 166.326C321.732 166.326 321.388 165.982 321.388 165.557C321.388 165.053 321.38 164.556 321.366 164.064C321.353 163.64 321.686 163.285 322.111 163.272Z" fill="black"/>
<path d="M222.623 255.701C221.749 252.437 223.686 249.083 226.949 248.208L287.734 231.921C290.997 231.047 294.352 232.983 295.226 236.247L321.282 333.489C322.157 336.753 320.22 340.107 316.956 340.982L256.172 357.269C252.908 358.143 249.554 356.207 248.679 352.943L222.623 255.701Z" fill="white"/>
<path fill-rule="evenodd" clip-rule="evenodd" d="M226.246 245.582C221.532 246.845 218.734 251.69 219.997 256.404L246.053 353.646C247.316 358.36 252.162 361.158 256.876 359.895L322.913 342.2C327.627 340.937 330.424 336.092 329.161 331.378L303.105 234.135C301.842 229.421 296.997 226.624 292.283 227.887L226.246 245.582ZM226.949 248.208C223.686 249.082 221.749 252.437 222.623 255.7L248.679 352.943C249.554 356.206 252.908 358.143 256.172 357.269L316.956 340.981C317.442 340.851 317.898 340.666 318.32 340.435C320.734 339.111 322.027 336.267 321.282 333.489L295.226 236.247C294.482 233.469 291.941 231.652 289.188 231.712C288.707 231.723 288.219 231.791 287.734 231.921L226.949 248.208Z" fill="black"/>
<path d="M232.579 260.662C231.781 257.683 233.549 254.62 236.529 253.822V253.822C239.508 253.023 242.571 254.792 243.369 257.771L245.538 265.864C246.336 268.844 244.568 271.906 241.588 272.705V272.705C238.609 273.503 235.546 271.735 234.748 268.756L232.579 260.662Z" fill="white"/>
<path fill-rule="evenodd" clip-rule="evenodd" d="M242.911 266.568L240.743 258.475C240.333 256.946 238.761 256.038 237.232 256.448C235.703 256.858 234.796 258.429 235.206 259.958L237.374 268.052C237.784 269.581 239.356 270.488 240.885 270.079C242.414 269.669 243.321 268.097 242.911 266.568ZM236.529 253.822C233.549 254.62 231.781 257.683 232.579 260.662L234.748 268.756C235.546 271.735 238.609 273.503 241.588 272.705C244.568 271.906 246.336 268.844 245.538 265.864L243.369 257.771C242.571 254.792 239.508 253.023 236.529 253.822Z" fill="black"/>
<path fill-rule="evenodd" clip-rule="evenodd" d="M238.501 266.955C236.313 265.692 234.249 266.875 233.372 267.949C232.897 268.53 232.041 268.617 231.459 268.142C230.878 267.667 230.791 266.81 231.266 266.229C232.597 264.6 236.055 262.403 239.861 264.601C240.398 264.911 240.879 265.225 241.265 265.476C241.431 265.585 241.579 265.682 241.706 265.762C242.164 266.048 242.471 266.2 242.808 266.285C243.516 266.462 244.661 266.421 247.67 265.614C248.395 265.42 249.14 265.851 249.335 266.576C249.529 267.301 249.099 268.046 248.373 268.241C245.391 269.04 243.615 269.289 242.149 268.922C241.399 268.735 240.807 268.407 240.262 268.065C240.061 267.939 239.875 267.817 239.688 267.695C239.335 267.464 238.978 267.23 238.501 266.955Z" fill="black"/>
<path fill-rule="evenodd" clip-rule="evenodd" d="M248.497 252.232C248.399 251.87 248.615 251.497 248.977 251.4L286.935 241.229C287.298 241.132 287.671 241.347 287.768 241.71C287.865 242.072 287.65 242.445 287.287 242.542L249.329 252.713C248.966 252.81 248.594 252.595 248.497 252.232Z" fill="black"/>
<path fill-rule="evenodd" clip-rule="evenodd" d="M255.876 347.719C255.779 347.356 255.994 346.983 256.357 346.886L311.301 332.164C311.664 332.067 312.037 332.282 312.134 332.645C312.231 333.007 312.016 333.38 311.653 333.477L256.709 348.199C256.346 348.297 255.974 348.081 255.876 347.719Z" fill="black"/>
<path fill-rule="evenodd" clip-rule="evenodd" d="M239.581 293.616C241.896 294.727 244.633 293.785 245.742 291.468L246.246 290.606C246.34 290.446 246.546 290.391 246.708 290.483L247.576 290.977C249.694 292.429 252.594 291.861 254.043 289.741C255.493 287.621 254.925 284.244 252.498 282.125C250.867 280.702 246.93 278.349 244.522 276.959C243.415 276.32 242.013 276.693 241.371 277.798C239.968 280.209 237.713 284.225 237.012 286.275C235.969 289.324 237.266 292.505 239.581 293.616Z" fill="black"/>
<path fill-rule="evenodd" clip-rule="evenodd" d="M243.338 290.193L243.289 290.295C242.839 291.236 241.738 291.635 240.757 291.165C239.876 290.742 238.916 289.111 239.585 287.155C240.152 285.496 242.079 282.003 243.516 279.518C245.989 280.955 249.387 283.019 250.71 284.174C252.338 285.595 252.304 287.468 251.799 288.206C251.183 289.108 249.97 289.322 249.113 288.734L249.019 288.67L248.053 288.12C246.598 287.291 244.746 287.787 243.899 289.233L243.338 290.193ZM245.742 291.468C244.633 293.785 241.896 294.727 239.581 293.616C237.266 292.505 235.969 289.324 237.012 286.275C237.713 284.225 239.968 280.209 241.371 277.798C242.013 276.693 243.415 276.32 244.522 276.959C246.93 278.349 250.867 280.702 252.498 282.125C254.925 284.244 255.493 287.621 254.043 289.741C252.594 291.861 249.694 292.429 247.576 290.977L246.708 290.483C246.546 290.391 246.34 290.446 246.246 290.606L245.742 291.468Z" fill="black"/>
<path fill-rule="evenodd" clip-rule="evenodd" d="M246.13 289.25C246.855 289.055 247.601 289.486 247.795 290.211L248.982 294.643C249.177 295.368 248.746 296.114 248.021 296.308C247.296 296.502 246.55 296.072 246.356 295.347L245.169 290.915C244.974 290.189 245.405 289.444 246.13 289.25Z" fill="black"/>
<path d="M265.003 261.363C265.003 257.984 267.742 255.245 271.121 255.245H334.05C337.428 255.245 340.167 257.984 340.167 261.363V362.035C340.167 365.414 337.428 368.153 334.05 368.153H271.121C267.742 368.153 265.003 365.414 265.003 362.035V261.363Z" fill="white"/>
<path fill-rule="evenodd" clip-rule="evenodd" d="M271.121 252.526C266.241 252.526 262.284 256.483 262.284 261.363V362.036C262.284 366.916 266.241 370.872 271.121 370.872H339.488C344.368 370.872 348.324 366.916 348.324 362.036V261.363C348.324 256.483 344.368 252.526 339.488 252.526H271.121ZM271.121 255.245C267.742 255.245 265.003 257.984 265.003 261.363V362.036C265.003 365.414 267.742 368.153 271.121 368.153H334.05C334.552 368.153 335.041 368.093 335.508 367.978C338.183 367.324 340.167 364.912 340.167 362.036V261.363C340.167 258.487 338.183 256.075 335.508 255.42C335.041 255.306 334.552 255.245 334.05 255.245H271.121Z" fill="black"/>
<path d="M274.3 270.294C274.3 267.21 276.801 264.709 279.885 264.709V264.709C282.97 264.709 285.471 267.21 285.471 270.294V278.673C285.471 281.758 282.97 284.258 279.885 284.258V284.258C276.801 284.258 274.3 281.758 274.3 278.673V270.294Z" fill="white"/>
<path fill-rule="evenodd" clip-rule="evenodd" d="M282.752 278.673V270.294C282.752 268.711 281.468 267.428 279.885 267.428C278.302 267.428 277.019 268.711 277.019 270.294V278.673C277.019 280.256 278.302 281.539 279.885 281.539C281.468 281.539 282.752 280.256 282.752 278.673ZM279.885 264.709C276.801 264.709 274.3 267.21 274.3 270.294V278.673C274.3 281.758 276.801 284.258 279.885 284.258C282.97 284.258 285.471 281.758 285.471 278.673V270.294C285.471 267.21 282.97 264.709 279.885 264.709Z" fill="black"/>
<path fill-rule="evenodd" clip-rule="evenodd" d="M278.392 277.905C276.605 276.119 274.305 276.727 273.18 277.538C272.571 277.976 271.721 277.838 271.282 277.229C270.844 276.619 270.982 275.77 271.591 275.331C273.298 274.102 277.207 272.876 280.314 275.983C280.753 276.422 281.137 276.85 281.444 277.192C281.576 277.34 281.694 277.472 281.796 277.582C282.164 277.978 282.421 278.204 282.725 278.373C283.363 278.727 284.479 278.983 287.595 278.983C288.345 278.983 288.954 279.592 288.954 280.343C288.954 281.094 288.345 281.702 287.595 281.702C284.507 281.702 282.727 281.483 281.405 280.75C280.73 280.375 280.243 279.904 279.805 279.433C279.643 279.259 279.496 279.094 279.347 278.927C279.066 278.613 278.781 278.294 278.392 277.905Z" fill="black"/>
<path fill-rule="evenodd" clip-rule="evenodd" d="M290.893 264.709C290.893 264.334 291.197 264.029 291.572 264.029L330.869 264.029C331.245 264.029 331.549 264.334 331.549 264.709C331.549 265.084 331.245 265.389 330.869 265.389L291.572 265.389C291.197 265.389 290.893 265.084 290.893 264.709Z" fill="black"/>
<path fill-rule="evenodd" clip-rule="evenodd" d="M272.628 358.852C272.628 358.101 273.236 357.493 273.987 357.493L330.869 357.493C331.62 357.493 332.229 358.101 332.229 358.852C332.229 359.603 331.62 360.212 330.869 360.212L273.987 360.212C273.236 360.212 272.628 359.603 272.628 358.852Z" fill="black"/>
<path d="M287.678 297.48C286.016 299.894 282.437 304.86 280.817 307.101C280.409 307.665 279.574 307.663 279.169 307.098C277.561 304.854 274.012 299.891 272.357 297.478C272.113 297.122 272.125 296.652 272.382 296.305L279.175 287.164C279.581 286.617 280.401 286.616 280.809 287.162L287.651 296.305C287.91 296.651 287.923 297.123 287.678 297.48Z" fill="#F24822"/>
<path fill-rule="evenodd" clip-rule="evenodd" d="M287.678 297.48C287.923 297.123 287.91 296.651 287.651 296.305L280.809 287.162C280.401 286.616 279.581 286.617 279.175 287.164L272.382 296.305C272.125 296.652 272.113 297.122 272.357 297.478C274.012 299.891 277.561 304.854 279.169 307.098C279.574 307.663 280.409 307.665 280.817 307.101C282.437 304.86 286.016 299.894 287.678 297.48ZM284.736 296.948L279.998 290.615L275.295 296.945C276.615 298.838 278.522 301.518 280 303.587C281.488 301.52 283.409 298.841 284.736 296.948Z" fill="#F24822"/>
<path d="M310.77 283.502C312.459 280.576 316.201 279.573 319.127 281.263L373.625 312.727C376.551 314.416 377.553 318.158 375.864 321.084L325.527 408.269C323.838 411.195 320.097 412.198 317.171 410.508L262.673 379.044C259.747 377.354 258.744 373.613 260.433 370.687L310.77 283.502Z" fill="white"/>
<path fill-rule="evenodd" clip-rule="evenodd" d="M320.486 278.908C316.26 276.468 310.855 277.916 308.415 282.142L258.079 369.328C255.639 373.554 257.087 378.958 261.313 381.398L320.52 415.582C324.747 418.022 330.151 416.574 332.591 412.347L382.928 325.162C385.368 320.936 383.92 315.531 379.693 313.091L320.486 278.908ZM319.127 281.263C316.201 279.573 312.459 280.576 310.77 283.502L260.433 370.687C258.744 373.613 259.747 377.354 262.673 379.044L317.171 410.508C317.606 410.76 318.059 410.951 318.521 411.086C321.164 411.857 324.089 410.76 325.527 408.269L375.864 321.084C377.302 318.593 376.789 315.512 374.8 313.608C374.453 313.275 374.06 312.978 373.625 312.727L319.127 281.263Z" fill="black"/>
<path d="M314.355 295.263C315.897 292.592 319.313 291.677 321.984 293.219V293.219C324.656 294.761 325.571 298.177 324.029 300.848L319.839 308.105C318.297 310.776 314.881 311.691 312.21 310.149V310.149C309.539 308.607 308.623 305.191 310.166 302.519L314.355 295.263Z" fill="white"/>
<path fill-rule="evenodd" clip-rule="evenodd" d="M317.485 306.745L321.674 299.489C322.466 298.118 321.996 296.365 320.625 295.574C319.254 294.782 317.501 295.252 316.71 296.623L312.52 303.879C311.729 305.25 312.198 307.003 313.569 307.794C314.94 308.586 316.693 308.116 317.485 306.745ZM321.984 293.219C319.313 291.677 315.897 292.592 314.355 295.263L310.166 302.519C308.623 305.191 309.539 308.607 312.21 310.149C314.881 311.691 318.297 310.776 319.839 308.105L324.029 300.848C325.571 298.177 324.656 294.761 321.984 293.219Z" fill="black"/>
<path fill-rule="evenodd" clip-rule="evenodd" d="M314.093 303.9C313.439 301.459 311.143 300.837 309.763 300.976C309.016 301.051 308.35 300.507 308.274 299.76C308.199 299.012 308.744 298.346 309.491 298.271C311.583 298.06 315.582 298.952 316.719 303.196C316.88 303.796 316.998 304.358 317.092 304.808C317.133 305.003 317.17 305.176 317.203 305.323C317.324 305.849 317.433 306.174 317.612 306.472C317.987 307.097 318.826 307.878 321.524 309.435C322.174 309.811 322.397 310.642 322.021 311.292C321.646 311.943 320.815 312.165 320.164 311.79C317.491 310.246 316.058 309.166 315.281 307.87C314.883 307.208 314.697 306.557 314.553 305.93C314.5 305.698 314.454 305.481 314.409 305.263C314.322 304.85 314.235 304.432 314.093 303.9Z" fill="black"/>
<path fill-rule="evenodd" clip-rule="evenodd" d="M331.914 299.005C332.102 298.68 332.518 298.568 332.843 298.756L366.875 318.405C367.2 318.592 367.312 319.008 367.124 319.333C366.936 319.658 366.52 319.77 366.195 319.582L332.163 299.933C331.838 299.746 331.727 299.33 331.914 299.005Z" fill="black"/>
<path fill-rule="evenodd" clip-rule="evenodd" d="M269.614 371.742C269.801 371.417 270.217 371.306 270.542 371.494L319.804 399.935C320.129 400.123 320.24 400.538 320.052 400.863C319.865 401.188 319.449 401.3 319.124 401.112L269.862 372.671C269.537 372.483 269.426 372.068 269.614 371.742Z" fill="black"/>
<path fill-rule="evenodd" clip-rule="evenodd" d="M303.409 310.69C305.933 310.216 308.333 311.834 308.804 314.359L309.068 315.322C309.117 315.502 309.302 315.608 309.482 315.561L310.448 315.308C312.87 314.454 315.524 315.754 316.376 318.176C317.227 320.599 315.805 323.714 312.912 325.132C311.049 326.046 306.47 328.011 303.446 329.294C302.002 329.907 300.379 328.974 300.183 327.417C299.772 324.151 299.168 319.188 299.027 317.116C298.81 313.902 300.885 311.164 303.409 310.69Z" fill="#F24822"/>
<path fill-rule="evenodd" clip-rule="evenodd" d="M306.152 314.969L306.131 314.858C305.94 313.832 304.98 313.162 303.911 313.362C302.95 313.543 301.6 314.869 301.74 316.932C301.868 318.815 302.411 323.328 302.822 326.605C305.853 325.317 310.018 323.523 311.715 322.691C313.656 321.739 314.107 319.922 313.811 319.078C313.449 318.047 312.332 317.527 311.353 317.872L311.246 317.91L310.17 318.192C308.549 318.616 306.889 317.657 306.446 316.041L306.152 314.969ZM308.804 314.359C308.333 311.834 305.933 310.216 303.409 310.69C300.885 311.164 298.81 313.902 299.027 317.116C299.168 319.188 299.772 324.151 300.183 327.417C300.379 328.974 302.002 329.907 303.446 329.294C306.47 328.011 311.049 326.046 312.912 325.132C315.805 323.714 317.227 320.599 316.376 318.176C315.524 315.754 312.87 314.454 310.448 315.308L309.482 315.561C309.302 315.608 309.117 315.502 309.068 315.322L308.804 314.359Z" fill="#F24822"/>
<path fill-rule="evenodd" clip-rule="evenodd" d="M307.569 339.43C311.84 338.628 315.902 341.367 316.7 345.64L317.208 347.495C317.257 347.674 317.442 347.781 317.622 347.734L319.482 347.247C323.582 345.801 328.074 348 329.515 352.101C330.956 356.201 328.549 361.473 323.653 363.874C320.054 365.639 310.471 369.72 305.643 371.76C304.198 372.37 302.579 371.439 302.381 369.883C301.716 364.675 300.424 354.307 300.153 350.306C299.784 344.866 303.297 340.232 307.569 339.43Z" fill="#A5B7DF"/>
<path fill-rule="evenodd" clip-rule="evenodd" d="M314.048 346.25L314.027 346.139C313.509 343.365 310.887 341.574 308.07 342.102C305.362 342.611 302.575 345.834 302.865 350.123C303.122 353.909 304.335 363.701 305.018 369.072C309.993 366.968 319.045 363.105 322.455 361.433C326.4 359.499 327.836 355.524 326.95 353.002C325.998 350.294 323.044 348.874 320.387 349.811L320.28 349.848L318.31 350.364C316.69 350.788 315.029 349.829 314.586 348.214L314.048 346.25ZM307.569 339.43C303.297 340.232 299.784 344.866 300.153 350.306C300.424 354.307 301.716 364.675 302.381 369.883C302.579 371.439 304.198 372.37 305.643 371.76C310.471 369.72 320.054 365.639 323.653 363.874C328.549 361.473 330.956 356.201 329.515 352.101C328.074 348 323.582 345.801 319.482 347.247L317.622 347.734C317.442 347.781 317.257 347.674 317.208 347.495L316.7 345.64C315.902 341.367 311.84 338.628 307.569 339.43Z" fill="black"/>
<path fill-rule="evenodd" clip-rule="evenodd" d="M321.319 351.357C321.628 350.672 322.434 350.368 323.118 350.677C324.378 351.246 325.319 352.168 325.735 353.374C326.148 354.573 325.974 355.858 325.389 357.027C325.053 357.699 324.236 357.971 323.565 357.635C322.893 357.299 322.621 356.482 322.957 355.811C323.286 355.154 323.292 354.633 323.164 354.26C323.038 353.894 322.715 353.478 321.999 353.155C321.315 352.846 321.01 352.041 321.319 351.357Z" fill="white"/>
<path fill-rule="evenodd" clip-rule="evenodd" d="M321.184 359.172C321.494 359.855 321.191 360.661 320.507 360.971L314.815 363.551C314.131 363.861 313.325 363.558 313.015 362.874C312.705 362.19 313.008 361.385 313.692 361.075L319.385 358.495C320.069 358.185 320.874 358.488 321.184 359.172Z" fill="white"/>
</svg>
