<svg width="500" height="500" viewBox="0 0 500 500" fill="none" xmlns="http://www.w3.org/2000/svg">
<rect width="500" height="500" fill="#E1E2CF"/>
<path fill-rule="evenodd" clip-rule="evenodd" d="M297.272 127.66C298.12 127.66 298.807 128.347 298.807 129.195L298.807 199.032C298.807 199.88 298.12 200.567 297.272 200.567C296.425 200.567 295.738 199.88 295.738 199.032L295.738 129.195C295.738 128.347 296.425 127.66 297.272 127.66Z" fill="black"/>
<path fill-rule="evenodd" clip-rule="evenodd" d="M286.453 136.577C287.027 135.953 287.998 135.913 288.621 136.487C288.857 136.704 289.368 136.99 290.346 137.297C291.291 137.595 292.517 137.866 294.037 138.147C295.366 138.392 296.877 138.637 298.575 138.912C298.813 138.951 299.056 138.99 299.302 139.03C301.291 139.353 303.505 139.718 305.911 140.165C308.158 140.583 310.607 142.241 311.257 144.704C311.6 146.007 311.394 147.408 310.534 148.724C309.701 149.999 308.297 151.138 306.316 152.128C303.25 153.66 300.387 155.166 298.018 156.612C295.617 158.078 293.854 159.407 292.882 160.556C292.4 161.126 292.201 161.549 292.143 161.829C292.098 162.046 292.123 162.219 292.277 162.443C292.466 162.719 292.888 163.111 293.754 163.55C294.608 163.983 295.801 164.415 297.404 164.823C300.183 165.531 302.343 166.324 303.953 167.197C305.544 168.059 306.733 169.071 307.362 170.286C308.034 171.583 307.971 172.922 307.412 174.114C306.885 175.24 305.941 176.203 304.872 177.005C303.581 177.974 302.089 178.88 300.703 179.721C300.292 179.97 299.89 180.214 299.506 180.452C297.738 181.548 296.348 182.515 295.534 183.499C295.145 183.97 294.944 184.378 294.869 184.741C294.798 185.083 294.817 185.486 295.038 186.005C295.518 187.131 296.913 188.718 300.085 190.832C300.791 191.301 300.982 192.254 300.512 192.959C300.042 193.665 299.089 193.856 298.384 193.386C295.103 191.2 293.061 189.196 292.214 187.206C291.772 186.166 291.655 185.128 291.864 184.119C292.068 183.13 292.562 182.276 293.169 181.543C294.347 180.12 296.156 178.917 297.89 177.844C298.33 177.571 298.769 177.304 299.203 177.04C300.562 176.215 301.872 175.42 303.03 174.551C303.893 173.904 304.403 173.304 304.633 172.813C304.831 172.39 304.825 172.06 304.637 171.698C304.407 171.253 303.818 170.614 302.491 169.895C301.183 169.186 299.286 168.469 296.647 167.797C294.916 167.356 293.491 166.857 292.367 166.287C291.254 165.723 290.337 165.04 289.746 164.179C289.119 163.266 288.924 162.24 289.138 161.206C289.34 160.233 289.881 159.351 290.539 158.574C291.847 157.028 293.968 155.489 296.419 153.993C298.901 152.477 301.857 150.926 304.944 149.383C306.636 148.537 307.531 147.709 307.965 147.045C308.372 146.422 308.401 145.91 308.289 145.487C308.029 144.499 306.805 143.453 305.35 143.182C302.98 142.742 300.795 142.382 298.81 142.059C298.566 142.019 298.324 141.98 298.084 141.941C296.392 141.667 294.845 141.416 293.481 141.165C291.928 140.878 290.554 140.58 289.425 140.225C288.327 139.88 287.287 139.43 286.543 138.745C285.919 138.171 285.879 137.2 286.453 136.577Z" fill="white"/>
<path fill-rule="evenodd" clip-rule="evenodd" d="M287.264 139.216C287.863 138.617 288.835 138.617 289.434 139.216C289.631 139.413 290.072 139.686 290.95 139.986C291.801 140.276 292.909 140.543 294.296 140.821C295.508 141.064 296.886 141.307 298.438 141.58C298.656 141.618 298.878 141.657 299.103 141.697C300.921 142.018 302.947 142.381 305.148 142.825C307.297 143.259 309.537 144.956 310.122 147.364C310.428 148.623 310.25 149.985 309.468 151.285C308.705 152.554 307.41 153.698 305.577 154.693C302.776 156.213 300.164 157.705 298.005 159.137C295.816 160.588 294.216 161.899 293.333 163.032C292.897 163.592 292.709 164.017 292.652 164.315C292.605 164.564 292.638 164.762 292.781 164.988C292.951 165.258 293.325 165.634 294.096 166.059C294.861 166.48 295.935 166.903 297.39 167.306C299.941 168.012 301.933 168.806 303.422 169.682C304.899 170.551 305.994 171.568 306.568 172.772C307.171 174.036 307.114 175.33 306.612 176.494C306.134 177.605 305.269 178.567 304.28 179.373C302.66 180.693 300.639 181.707 298.869 182.576C298.77 182.625 298.671 182.673 298.574 182.721C296.844 183.57 295.43 184.263 294.486 185.019C294.006 185.403 293.764 185.716 293.656 185.957C293.568 186.152 293.534 186.366 293.636 186.696C293.891 187.521 294.947 188.916 297.88 191.039C298.567 191.535 298.721 192.495 298.224 193.181C297.727 193.868 296.768 194.022 296.081 193.525C293.116 191.38 291.283 189.475 290.704 187.602C290.389 186.583 290.452 185.598 290.857 184.698C291.24 183.845 291.886 183.169 292.568 182.623C293.791 181.644 295.505 180.806 297.106 180.022C297.244 179.955 297.381 179.888 297.517 179.821C299.326 178.933 301.034 178.059 302.341 176.994C303.117 176.362 303.582 175.772 303.794 175.279C303.984 174.839 303.98 174.476 303.798 174.093C303.586 173.649 303.055 173.027 301.865 172.327C300.687 171.634 298.971 170.928 296.572 170.264C294.978 169.823 293.66 169.322 292.616 168.748C291.58 168.177 290.729 167.487 290.186 166.627C289.617 165.726 289.448 164.733 289.638 163.739C289.818 162.794 290.306 161.924 290.912 161.146C292.114 159.604 294.062 158.069 296.309 156.579C298.583 155.071 301.29 153.528 304.113 151.996C305.637 151.168 306.443 150.36 306.838 149.703C307.214 149.078 307.25 148.542 307.14 148.088C306.893 147.07 305.776 146.082 304.541 145.833C302.378 145.397 300.383 145.039 298.57 144.719C298.346 144.68 298.125 144.641 297.907 144.602C296.361 144.33 294.943 144.081 293.693 143.83C292.272 143.545 291.004 143.247 289.958 142.89C288.94 142.542 287.962 142.084 287.264 141.386C286.665 140.787 286.665 139.815 287.264 139.216Z" fill="black"/>
<path d="M312.521 205.421C312.521 213.896 305.651 220.766 297.176 220.766C288.701 220.766 281.831 213.896 281.831 205.421C281.831 196.946 288.701 190.076 297.176 190.076C305.651 190.076 312.521 196.946 312.521 205.421Z" fill="black"/>
<path d="M390.876 292.636C390.876 344.331 348.968 386.239 297.272 386.239C245.576 386.239 203.669 344.331 203.669 292.636C203.669 240.94 245.576 199.032 297.272 199.032C348.968 199.032 390.876 240.94 390.876 292.636Z" fill="#EBF0FD"/>
<path d="M351.363 354.654V332.021L372.654 326.65L371.164 349.009L351.363 354.654Z" fill="#3F4C6F"/>
<path d="M222.466 347.54V324.907L243.757 319.536V341.786L222.466 347.54Z" fill="#3F4C6F"/>
<path d="M308.589 384.699V367.82L329.88 362.449V379.093L308.589 384.699Z" fill="#3F4C6F"/>
<path d="M330.455 227.037V206.464L342.348 212.218L353.664 220.85L330.455 227.037Z" fill="#A5B7DF"/>
<path d="M265.048 223.765V205.61L286.339 201.302V219.15L265.048 223.765Z" fill="#A5B7DF"/>
<path d="M205.274 305.899V284.459L222.657 279.372V300.449L205.274 305.899Z" fill="#A5B7DF"/>
<path d="M367.425 307.376V284.743L388.716 279.372V301.622L367.425 307.376Z" fill="#A5B7DF"/>
<path d="M265.24 378.519L252.005 372.38L243.949 368.16V362.53L265.24 357.442V378.519Z" fill="#A5B7DF"/>
<path fill-rule="evenodd" clip-rule="evenodd" d="M297.272 383.17C347.273 383.17 387.807 342.636 387.807 292.636C387.807 242.635 347.273 202.101 297.272 202.101C247.271 202.101 206.738 242.635 206.738 292.636C206.738 342.636 247.271 383.17 297.272 383.17ZM297.272 386.239C348.968 386.239 390.876 344.331 390.876 292.636C390.876 240.94 348.968 199.032 297.272 199.032C245.576 199.032 203.669 240.94 203.669 292.636C203.669 344.331 245.576 386.239 297.272 386.239Z" fill="black"/>
<path d="M243.949 340.156V317.522L265.24 312.151V334.401L243.949 340.156Z" fill="#A5B7DF"/>
<path d="M265.048 311.742V289.108L286.339 283.737V305.987L265.048 311.742Z" fill="#A5B7DF"/>
<path d="M286.723 261.744V239.11L308.013 233.739V255.989L286.723 261.744Z" fill="#A5B7DF"/>
<path d="M222.082 279.372V256.738L243.373 251.368V273.618L222.082 279.372Z" fill="#A5B7DF"/>
<path d="M350.506 311.742V289.108L371.797 283.737V305.987L350.506 311.742Z" fill="#A5B7DF"/>
<path d="M329.88 272.484V249.85L351.171 244.479V266.729L329.88 272.484Z" fill="#A5B7DF"/>
<path d="M329.88 361.542V338.909L351.171 333.538V355.788L329.88 361.542Z" fill="#A5B7DF"/>
<path d="M286.723 373.694V351.061L308.013 345.69V367.94L286.723 373.694Z" fill="#A5B7DF"/>
<path d="M265.048 379.381V356.747L286.339 351.376V373.626L265.048 379.381Z" fill="#3F4C6F"/>
<path d="M308.301 346.006V323.372L329.592 318.001V340.251L308.301 346.006Z" fill="#3F4C6F"/>
<path d="M308.301 301.558V278.924L329.592 273.554V295.804L308.301 301.558Z" fill="#3F4C6F"/>
<path d="M351.267 334.716V312.083L372.558 306.712V328.962L351.267 334.716Z" fill="#3F4C6F"/>
<path d="M287.298 329.562V306.929L308.589 301.558V323.808L287.298 329.562Z" fill="#7C8EBE"/>
<path d="M351.746 289.748V267.115L373.037 261.744V283.994L351.746 289.748Z" fill="#7C8EBE"/>
<path d="M243.949 252.369V229.735L265.24 224.365V246.615L243.949 252.369Z" fill="#7C8EBE"/>
<path d="M264.281 268.8V246.167L285.572 240.796V263.046L264.281 268.8Z" fill="#7C8EBE"/>
<path d="M243.182 296.262V273.629L264.473 268.258V290.508L243.182 296.262Z" fill="#7C8EBE"/>
<path d="M264.473 357.567V334.933L285.763 329.562V351.812L264.473 357.567Z" fill="#7C8EBE"/>
<path d="M329.496 251.368V228.734L350.787 223.364V245.614L329.496 251.368Z" fill="#3F4C6F"/>
<path d="M222.466 323.774V301.14L243.757 295.77V318.02L222.466 323.774Z" fill="#3F4C6F"/>
<path d="M243.949 274.11V251.476L265.24 246.105V268.355L243.949 274.11Z" fill="#3F4C6F"/>
<path d="M286.531 240.796V218.162L307.822 212.792V235.042L286.531 240.796Z" fill="#3F4C6F"/>
<path fill-rule="evenodd" clip-rule="evenodd" d="M222.082 238.304C222.93 238.304 223.617 238.991 223.617 239.839V345.69C223.617 346.537 222.93 347.224 222.082 347.224C221.235 347.224 220.548 346.537 220.548 345.69V239.839C220.548 238.991 221.235 238.304 222.082 238.304Z" fill="black"/>
<path fill-rule="evenodd" clip-rule="evenodd" d="M243.565 203.234C244.413 203.234 245.1 203.921 245.1 204.768V367.393C245.1 368.24 244.413 368.927 243.565 368.927C242.718 368.927 242.031 368.24 242.031 367.393V204.768C242.031 203.921 242.718 203.234 243.565 203.234Z" fill="black"/>
<path fill-rule="evenodd" clip-rule="evenodd" d="M265.048 205.313C265.895 205.313 266.582 206 266.582 206.847V378.518C266.582 379.365 265.895 380.052 265.048 380.052C264.2 380.052 263.513 379.365 263.513 378.518V206.847C263.513 206 264.2 205.313 265.048 205.313Z" fill="black"/>
<path fill-rule="evenodd" clip-rule="evenodd" d="M286.531 199.767C287.378 199.767 288.065 200.454 288.065 201.302V393.126C288.065 393.973 287.378 394.66 286.531 394.66C285.683 394.66 284.996 393.973 284.996 393.126V201.302C284.996 200.454 285.683 199.767 286.531 199.767Z" fill="black"/>
<path fill-rule="evenodd" clip-rule="evenodd" d="M308.014 199.767C308.861 199.767 309.548 200.454 309.548 201.302V383.97C309.548 384.817 308.861 385.504 308.014 385.504C307.166 385.504 306.479 384.817 306.479 383.97V201.302C306.479 200.454 307.166 199.767 308.014 199.767Z" fill="black"/>
<path fill-rule="evenodd" clip-rule="evenodd" d="M329.496 205.313C330.344 205.313 331.031 206 331.031 206.847V378.518C331.031 379.365 330.344 380.052 329.496 380.052C328.649 380.052 327.962 379.365 327.962 378.518V206.847C327.962 206 328.649 205.313 329.496 205.313Z" fill="black"/>
<path fill-rule="evenodd" clip-rule="evenodd" d="M350.979 216.63C351.826 216.63 352.513 217.317 352.513 218.164V367.393C352.513 368.24 351.826 368.927 350.979 368.927C350.131 368.927 349.444 368.24 349.444 367.393V218.164C349.444 217.317 350.131 216.63 350.979 216.63Z" fill="black"/>
<path fill-rule="evenodd" clip-rule="evenodd" d="M372.462 238.62C373.309 238.62 373.996 239.307 373.996 240.155V344.598C373.996 345.445 373.309 346.132 372.462 346.132C371.614 346.132 370.927 345.445 370.927 344.598V240.155C370.927 239.307 371.614 238.62 372.462 238.62Z" fill="black"/>
<path fill-rule="evenodd" clip-rule="evenodd" d="M330.292 205.946C330.511 206.765 330.025 207.606 329.206 207.825L226.962 235.222C226.143 235.441 225.302 234.955 225.083 234.137C224.863 233.318 225.349 232.477 226.168 232.257L328.412 204.861C329.231 204.642 330.072 205.127 330.292 205.946Z" fill="black"/>
<path fill-rule="evenodd" clip-rule="evenodd" d="M356.788 221.087C357.007 221.906 356.521 222.747 355.703 222.966L211.559 261.589C210.74 261.809 209.899 261.323 209.68 260.504C209.46 259.686 209.946 258.844 210.765 258.625L354.908 220.002C355.727 219.783 356.568 220.268 356.788 221.087Z" fill="black"/>
<path fill-rule="evenodd" clip-rule="evenodd" d="M373.279 238.908C373.498 239.727 373.013 240.568 372.194 240.788L206.373 285.219C205.555 285.439 204.713 284.953 204.494 284.134C204.275 283.316 204.76 282.474 205.579 282.255L371.4 237.823C372.218 237.604 373.06 238.09 373.279 238.908Z" fill="black"/>
<path fill-rule="evenodd" clip-rule="evenodd" d="M393.935 255.004C394.157 255.822 393.674 256.665 392.856 256.887L206.672 307.38C205.854 307.602 205.011 307.119 204.789 306.301C204.567 305.483 205.05 304.64 205.868 304.418L392.053 253.925C392.871 253.703 393.714 254.186 393.935 255.004Z" fill="black"/>
<path fill-rule="evenodd" clip-rule="evenodd" d="M389.756 278.975C389.976 279.793 389.49 280.635 388.671 280.854L212.227 328.132C211.409 328.352 210.567 327.866 210.348 327.047C210.129 326.229 210.614 325.387 211.433 325.168L387.877 277.89C388.696 277.67 389.537 278.156 389.756 278.975Z" fill="black"/>
<path fill-rule="evenodd" clip-rule="evenodd" d="M389.959 301.16C390.179 301.979 389.694 302.82 388.875 303.04L212.167 350.491C211.349 350.711 210.507 350.226 210.287 349.407C210.067 348.589 210.553 347.747 211.371 347.527L388.079 300.076C388.898 299.856 389.74 300.342 389.959 301.16Z" fill="black"/>
<path fill-rule="evenodd" clip-rule="evenodd" d="M384.588 324.841C384.808 325.659 384.322 326.501 383.503 326.72L239.36 365.343C238.541 365.562 237.7 365.077 237.48 364.258C237.261 363.439 237.747 362.598 238.566 362.379L382.709 323.756C383.528 323.536 384.369 324.022 384.588 324.841Z" fill="black"/>
<path fill-rule="evenodd" clip-rule="evenodd" d="M368.908 351.283C369.127 352.102 368.641 352.943 367.823 353.162L265.578 380.559C264.759 380.778 263.918 380.292 263.699 379.474C263.479 378.655 263.965 377.814 264.784 377.594L367.028 350.198C367.847 349.979 368.688 350.464 368.908 351.283Z" fill="black"/>
<path fill-rule="evenodd" clip-rule="evenodd" d="M238.239 309.497C238.769 309.497 239.198 309.926 239.198 310.456L239.198 334.529L270.601 326.216C271.113 326.08 271.638 326.386 271.774 326.898C271.909 327.41 271.604 327.935 271.092 328.07L239.448 336.447C238.353 336.737 237.28 335.911 237.28 334.778L237.28 310.456C237.28 309.926 237.709 309.497 238.239 309.497Z" fill="white"/>
<path fill-rule="evenodd" clip-rule="evenodd" d="M302.931 226.536C303.46 226.536 303.89 226.966 303.89 227.495L303.89 251.567L346.366 240.285C346.878 240.149 347.403 240.454 347.539 240.966C347.675 241.478 347.37 242.003 346.858 242.139L304.141 253.485C303.045 253.776 301.972 252.95 301.972 251.817L301.971 227.495C301.971 226.966 302.401 226.536 302.931 226.536Z" fill="white"/>
<path fill-rule="evenodd" clip-rule="evenodd" d="M238.239 301.871C238.769 301.871 239.198 302.301 239.198 302.83V305.899C239.198 306.429 238.769 306.858 238.239 306.858C237.709 306.858 237.28 306.429 237.28 305.899V302.83C237.28 302.301 237.709 301.871 238.239 301.871Z" fill="white"/>
<path fill-rule="evenodd" clip-rule="evenodd" d="M227.306 313.067C227.835 313.067 228.265 313.496 228.265 314.026V339.419C228.265 339.949 227.835 340.378 227.306 340.378C226.776 340.378 226.347 339.949 226.347 339.419V314.026C226.347 313.496 226.776 313.067 227.306 313.067Z" fill="white"/>
<path fill-rule="evenodd" clip-rule="evenodd" d="M292.74 310.839C293.269 310.839 293.699 311.268 293.699 311.798V321.496C293.699 322.025 293.269 322.455 292.74 322.455C292.21 322.455 291.781 322.025 291.781 321.496V311.798C291.781 311.268 292.21 310.839 292.74 310.839Z" fill="white"/>
<path fill-rule="evenodd" clip-rule="evenodd" d="M238.239 259.562C238.769 259.562 239.198 259.992 239.198 260.521V270.219C239.198 270.748 238.769 271.178 238.239 271.178C237.709 271.178 237.28 270.748 237.28 270.219V260.521C237.28 259.992 237.709 259.562 238.239 259.562Z" fill="white"/>
<path fill-rule="evenodd" clip-rule="evenodd" d="M281.396 341.145C281.926 341.145 282.355 341.575 282.355 342.104V378.165C282.355 378.694 281.926 379.124 281.396 379.124C280.867 379.124 280.437 378.694 280.437 378.165V342.104C280.437 341.575 280.867 341.145 281.396 341.145Z" fill="white"/>
<path fill-rule="evenodd" clip-rule="evenodd" d="M313.045 335.391C313.575 335.391 314.004 335.82 314.004 336.35V339.419C314.004 339.949 313.575 340.378 313.045 340.378C312.515 340.378 312.086 339.949 312.086 339.419V336.35C312.086 335.82 312.515 335.391 313.045 335.391Z" fill="white"/>
<path fill-rule="evenodd" clip-rule="evenodd" d="M346.036 349.009C346.566 349.009 346.995 349.439 346.995 349.968V353.037C346.995 353.567 346.566 353.996 346.036 353.996C345.507 353.996 345.077 353.567 345.077 353.037V349.968C345.077 349.439 345.507 349.009 346.036 349.009Z" fill="white"/>
<path fill-rule="evenodd" clip-rule="evenodd" d="M346.036 318.128C346.566 318.128 346.995 318.558 346.995 319.087V345.766C346.995 346.296 346.566 346.726 346.036 346.726C345.507 346.726 345.077 346.296 345.077 345.766V319.087C345.077 318.558 345.507 318.128 346.036 318.128Z" fill="white"/>
<path fill-rule="evenodd" clip-rule="evenodd" d="M367.425 294.823C367.955 294.823 368.385 295.253 368.385 295.782V301.429C368.385 302.209 367.861 302.892 367.108 303.095L360.576 304.86C360.065 304.998 359.539 304.696 359.4 304.184C359.262 303.673 359.565 303.147 360.076 303.008L366.466 301.282V295.782C366.466 295.253 366.896 294.823 367.425 294.823Z" fill="white"/>
<path fill-rule="evenodd" clip-rule="evenodd" d="M356.777 345.191C356.247 345.191 355.818 344.762 355.818 344.232V338.585C355.818 337.805 356.341 337.122 357.094 336.919L363.626 335.154C364.137 335.016 364.664 335.318 364.802 335.83C364.94 336.341 364.637 336.868 364.126 337.006L357.736 338.732V344.232C357.736 344.762 357.306 345.191 356.777 345.191Z" fill="white"/>
<path fill-rule="evenodd" clip-rule="evenodd" d="M324.692 368.54C325.222 368.54 325.651 368.969 325.651 369.499V375.145C325.651 375.925 325.128 376.608 324.375 376.812L317.843 378.576C317.332 378.715 316.806 378.412 316.667 377.901C316.529 377.389 316.832 376.863 317.343 376.725L323.733 374.998V369.499C323.733 368.969 324.163 368.54 324.692 368.54Z" fill="white"/>
<path fill-rule="evenodd" clip-rule="evenodd" d="M302.931 217.548C303.46 217.548 303.89 217.977 303.89 218.507V221.576C303.89 222.106 303.46 222.535 302.931 222.535C302.401 222.535 301.971 222.106 301.971 221.576V218.507C301.971 217.977 302.401 217.548 302.931 217.548Z" fill="white"/>
<path fill-rule="evenodd" clip-rule="evenodd" d="M217.191 285.72C217.721 285.72 218.15 286.15 218.15 286.679V289.748C218.15 290.278 217.721 290.707 217.191 290.707C216.662 290.707 216.232 290.278 216.232 289.748V286.679C216.232 286.15 216.662 285.72 217.191 285.72Z" fill="white"/>
<path fill-rule="evenodd" clip-rule="evenodd" d="M345.951 229.063C346.088 229.575 345.784 230.101 345.273 230.238L342.308 231.032C341.797 231.169 341.271 230.865 341.134 230.354C340.996 229.842 341.3 229.316 341.812 229.179L344.776 228.385C345.288 228.248 345.814 228.551 345.951 229.063Z" fill="white"/>
<path fill-rule="evenodd" clip-rule="evenodd" d="M325.619 278.727C325.756 279.238 325.452 279.764 324.941 279.901L321.976 280.696C321.465 280.833 320.939 280.529 320.802 280.017C320.665 279.506 320.968 278.98 321.48 278.843L324.444 278.049C324.956 277.911 325.482 278.215 325.619 278.727Z" fill="white"/>
<path fill-rule="evenodd" clip-rule="evenodd" d="M304.085 307.128C304.222 307.64 303.918 308.166 303.406 308.303L300.442 309.097C299.93 309.234 299.404 308.93 299.267 308.419C299.13 307.907 299.434 307.381 299.946 307.244L302.91 306.45C303.422 306.313 303.947 306.616 304.085 307.128Z" fill="white"/>
<path fill-rule="evenodd" clip-rule="evenodd" d="M367.871 267.437C368.006 267.95 367.7 268.474 367.188 268.609L342.445 275.131C341.932 275.266 341.408 274.96 341.273 274.448C341.138 273.936 341.444 273.411 341.956 273.276L366.699 266.754C367.211 266.619 367.736 266.925 367.871 267.437Z" fill="white"/>
<path fill-rule="evenodd" clip-rule="evenodd" d="M298.104 298.053C298.239 298.565 297.933 299.09 297.421 299.225L272.677 305.746C272.165 305.881 271.64 305.575 271.505 305.063C271.37 304.551 271.676 304.026 272.188 303.891L296.932 297.37C297.444 297.235 297.969 297.541 298.104 298.053Z" fill="white"/>
<path fill-rule="evenodd" clip-rule="evenodd" d="M248.311 254.594C248.841 254.594 249.27 255.023 249.27 255.553V258.622C249.27 259.151 248.841 259.581 248.311 259.581C247.782 259.581 247.352 259.151 247.352 258.622V255.553C247.352 255.023 247.782 254.594 248.311 254.594Z" fill="white"/>
<path fill-rule="evenodd" clip-rule="evenodd" d="M318.191 280.667C318.329 281.179 318.026 281.705 317.515 281.843L300.443 286.446C299.932 286.584 299.406 286.281 299.268 285.77C299.13 285.259 299.433 284.732 299.944 284.594L317.015 279.991C317.527 279.853 318.053 280.156 318.191 280.667Z" fill="white"/>
<path fill-rule="evenodd" clip-rule="evenodd" d="M259.146 322.156C259.676 322.156 260.105 322.586 260.105 323.115V350.352C260.105 350.882 259.676 351.311 259.146 351.311C258.617 351.311 258.187 350.882 258.187 350.352V323.115C258.187 322.586 258.617 322.156 259.146 322.156Z" fill="white"/>
<path fill-rule="evenodd" clip-rule="evenodd" d="M259.146 274.634C259.676 274.634 260.105 275.064 260.105 275.593V302.83C260.105 303.36 259.676 303.789 259.146 303.789C258.617 303.789 258.187 303.36 258.187 302.83V275.593C258.187 275.064 258.617 274.634 259.146 274.634Z" fill="white"/>
<path fill-rule="evenodd" clip-rule="evenodd" d="M260.105 229.146C260.635 229.146 261.064 229.576 261.064 230.106V257.343C261.064 257.872 260.635 258.302 260.105 258.302C259.576 258.302 259.146 257.872 259.146 257.343V230.106C259.146 229.576 259.576 229.146 260.105 229.146Z" fill="white"/>
<path fill-rule="evenodd" clip-rule="evenodd" d="M313.045 270.965C313.575 270.965 314.004 271.394 314.004 271.924V329.061C314.004 329.591 313.575 330.02 313.045 330.02C312.515 330.02 312.086 329.591 312.086 329.061V271.924C312.086 271.394 312.515 270.965 313.045 270.965Z" fill="white"/>
<path fill-rule="evenodd" clip-rule="evenodd" d="M366.909 323.65C367.049 324.161 366.749 324.689 366.238 324.829L334.206 333.63C333.696 333.771 333.168 333.47 333.028 332.96C332.887 332.449 333.187 331.921 333.698 331.781L365.73 322.979C366.241 322.839 366.768 323.139 366.909 323.65Z" fill="white"/>
<path fill-rule="evenodd" clip-rule="evenodd" d="M325.696 312.44C325.836 312.951 325.536 313.479 325.025 313.619L292.994 322.42C292.483 322.561 291.955 322.26 291.815 321.75C291.674 321.239 291.975 320.711 292.485 320.571L324.517 311.769C325.028 311.629 325.556 311.929 325.696 312.44Z" fill="white"/>
<path fill-rule="evenodd" clip-rule="evenodd" d="M281.221 223.89C281.362 224.4 281.061 224.928 280.551 225.068L248.519 233.87C248.008 234.01 247.481 233.71 247.34 233.199C247.2 232.688 247.5 232.161 248.011 232.02L280.042 223.219C280.553 223.079 281.081 223.379 281.221 223.89Z" fill="white"/>
<path fill-rule="evenodd" clip-rule="evenodd" d="M302.704 363.607C302.844 364.118 302.544 364.646 302.033 364.786L270.002 373.587C269.491 373.728 268.963 373.427 268.823 372.917C268.683 372.406 268.983 371.878 269.494 371.738L301.525 362.936C302.036 362.796 302.564 363.096 302.704 363.607Z" fill="white"/>
<rect x="25" y="25" width="450" height="450" rx="20" stroke="#9C9F60" stroke-width="10"/>
<path d="M111.305 117.365C112.219 115.647 114.353 114.994 116.071 115.908L180.513 150.172C182.231 151.086 182.884 153.22 181.97 154.938L168.734 179.832C167.82 181.55 165.686 182.202 163.968 181.289L99.5263 147.025C97.8078 146.111 97.1554 143.977 98.0691 142.258L111.305 117.365Z" fill="#A5B7DF"/>
<path fill-rule="evenodd" clip-rule="evenodd" d="M178.858 153.284L114.417 119.02L101.181 143.913L165.622 178.177L178.858 153.284ZM116.071 115.908C114.353 114.994 112.219 115.647 111.305 117.365L98.0691 142.258C97.1554 143.977 97.8078 146.111 99.5263 147.025L163.968 181.289C165.686 182.202 167.82 181.55 168.734 179.832L181.97 154.938C182.884 153.22 182.231 151.086 180.513 150.172L116.071 115.908Z" fill="black"/>
<path d="M181.26 155.155C179.541 154.242 178.889 152.108 179.803 150.389L214.359 85.3976C215.273 83.6791 217.407 83.0267 219.125 83.9404L244.019 97.1764C245.737 98.0902 246.39 100.224 245.476 101.943L210.919 166.934C210.005 168.653 207.872 169.305 206.153 168.391L181.26 155.155Z" fill="#A5B7DF"/>
<path fill-rule="evenodd" clip-rule="evenodd" d="M217.471 87.0521L182.914 152.044L207.807 165.28L242.364 100.288L217.471 87.0521ZM179.803 150.389C178.889 152.108 179.541 154.242 181.26 155.155L206.153 168.391C207.872 169.305 210.005 168.653 210.919 166.934L245.476 101.943C246.39 100.224 245.737 98.0902 244.019 97.1764L219.125 83.9404C217.407 83.0267 215.273 83.6791 214.359 85.3976L179.803 150.389Z" fill="black"/>
<path d="M249.55 199.548C244.298 205.18 231.869 209.953 222.262 212.99C216.288 214.879 210.803 209.764 212.271 203.673C214.63 193.878 218.524 181.145 223.776 175.513C232.902 165.727 246.07 163.174 253.187 169.811C260.304 176.448 258.676 189.762 249.55 199.548Z" fill="#EBF0FD"/>
<path fill-rule="evenodd" clip-rule="evenodd" d="M236.07 204.039C240.949 201.801 244.839 199.433 246.973 197.145C251.083 192.737 253.403 187.636 253.962 183.071C254.521 178.501 253.314 174.749 250.784 172.389C248.253 170.028 244.425 169.087 239.906 169.963C235.39 170.839 230.464 173.509 226.353 177.917C224.22 180.205 222.128 184.251 220.237 189.274C218.383 194.197 216.859 199.675 215.697 204.498C214.872 207.923 217.841 210.692 221.199 209.63C225.93 208.134 231.288 206.232 236.07 204.039ZM222.262 212.99C231.869 209.953 244.298 205.18 249.55 199.548C258.676 189.762 260.304 176.448 253.187 169.811C246.07 163.174 232.902 165.727 223.776 175.513C218.524 181.145 214.63 193.878 212.271 203.673C210.803 209.764 216.288 214.879 222.262 212.99Z" fill="black"/>
<path d="M240.404 209.47C236.087 208.473 229.183 209.712 223.106 211.294C217.043 212.872 215.349 220.208 220.106 224.284C224.876 228.371 230.538 232.51 234.855 233.507C243.982 235.614 252.623 231.941 254.155 225.304C255.687 218.666 249.531 211.577 240.404 209.47Z" fill="#EBF0FD"/>
<path fill-rule="evenodd" clip-rule="evenodd" d="M232.858 212.911C235.747 212.546 238.061 212.546 239.612 212.904C243.528 213.808 246.667 215.754 248.616 217.999C250.568 220.247 251.171 222.561 250.721 224.511C250.271 226.46 248.715 228.276 245.974 229.441C243.238 230.604 239.564 230.977 235.648 230.073C234.097 229.715 232.017 228.701 229.581 227.106C227.201 225.548 224.719 223.596 222.399 221.608C219.803 219.384 220.685 215.565 223.993 214.704C226.95 213.935 230.036 213.268 232.858 212.911ZM223.106 211.294C229.183 209.712 236.087 208.473 240.404 209.47C249.531 211.577 255.687 218.666 254.155 225.304C252.623 231.941 243.982 235.614 234.855 233.507C230.538 232.51 224.876 228.371 220.106 224.284C215.349 220.208 217.043 212.872 223.106 211.294Z" fill="black"/>
<path d="M163.997 233.348C167.018 230.108 173.435 227.274 179.358 225.187C185.267 223.105 190.773 228.24 189.109 234.28C187.44 240.334 185.06 246.933 182.039 250.173C175.651 257.023 166.433 258.81 161.451 254.164C156.469 249.519 157.609 240.199 163.997 233.348Z" fill="#EBF0FD"/>
<path fill-rule="evenodd" clip-rule="evenodd" d="M172.178 231.981C169.578 233.294 167.659 234.588 166.574 235.752C163.833 238.692 162.319 242.06 161.958 245.011C161.597 247.966 162.391 250.223 163.854 251.587C165.318 252.952 167.624 253.587 170.547 253.02C173.466 252.454 176.72 250.709 179.461 247.769C180.547 246.606 181.704 244.601 182.832 241.917C183.934 239.295 184.9 236.288 185.711 233.343C186.62 230.048 183.753 227.375 180.529 228.511C177.648 229.526 174.716 230.699 172.178 231.981ZM179.358 225.187C173.435 227.274 167.018 230.108 163.997 233.348C157.609 240.199 156.469 249.519 161.451 254.164C166.433 258.81 175.651 257.023 182.039 250.173C185.06 246.933 187.44 240.334 189.109 234.28C190.773 228.24 185.267 223.105 179.358 225.187Z" fill="black"/>
<path d="M150.178 229.929C157.682 231.661 170.655 228.667 180.318 225.813C186.326 224.039 188.013 216.731 183.391 212.502C175.957 205.701 165.609 197.323 158.106 195.591C145.068 192.581 132.724 197.827 130.535 207.31C128.345 216.792 137.14 226.919 150.178 229.929Z" fill="#EBF0FD"/>
<path fill-rule="evenodd" clip-rule="evenodd" d="M163.865 226.114C158.569 226.987 154.02 227.199 150.971 226.495C145.099 225.14 140.323 222.209 137.307 218.736C134.288 215.26 133.19 211.474 133.968 208.102C134.747 204.731 137.393 201.81 141.63 200.009C145.864 198.21 151.441 197.669 157.313 199.024C160.362 199.728 164.358 201.913 168.735 205.019C173.025 208.064 177.351 211.753 181.012 215.102C183.611 217.48 182.698 221.436 179.32 222.434C174.561 223.839 169.055 225.258 163.865 226.114ZM180.318 225.813C170.655 228.667 157.682 231.661 150.178 229.929C137.14 226.919 128.345 216.792 130.535 207.31C132.724 197.827 145.068 192.581 158.106 195.591C165.609 197.323 175.957 205.701 183.391 212.502C188.013 216.731 186.326 224.039 180.318 225.813Z" fill="black"/>
<path fill-rule="evenodd" clip-rule="evenodd" d="M204.38 199.349C205.16 197.187 205.273 194.764 204.55 192.397C202.771 186.58 196.615 183.307 190.798 185.085C184.981 186.863 181.708 193.02 183.486 198.837C184.21 201.204 185.659 203.15 187.515 204.506C183.708 210.052 182.61 218.572 185.231 227.144C188.461 237.708 205.744 253.159 211.674 258.228C212.627 259.042 214.058 258.605 214.393 257.397C216.475 249.879 222.163 227.405 218.933 216.84C216.312 208.268 210.638 201.818 204.38 199.349Z" fill="#FFDB52"/>
<path fill-rule="evenodd" clip-rule="evenodd" d="M199.903 201.371L201.065 198.152C201.596 196.683 201.673 195.041 201.18 193.427C199.97 189.472 195.784 187.246 191.828 188.455C187.873 189.664 185.647 193.851 186.856 197.806C187.35 199.42 188.332 200.738 189.594 201.66L192.358 203.678L190.421 206.5C187.345 210.98 186.224 218.337 188.601 226.113C189.245 228.218 190.677 230.801 192.753 233.687C194.8 236.534 197.338 239.492 200.008 242.334C204.213 246.809 208.638 250.882 211.755 253.631C212.803 249.609 214.193 243.758 215.176 237.696C215.801 233.847 216.251 229.976 216.356 226.471C216.463 222.918 216.206 219.975 215.563 217.871C213.185 210.093 208.141 204.621 203.087 202.627L199.903 201.371ZM187.515 204.506C185.659 203.15 184.21 201.204 183.486 198.837C181.708 193.02 184.981 186.863 190.798 185.085C196.615 183.307 202.771 186.58 204.55 192.397C205.273 194.764 205.16 197.187 204.38 199.349C210.638 201.818 216.312 208.268 218.933 216.84C222.163 227.405 216.475 249.879 214.393 257.397C214.058 258.605 212.627 259.042 211.674 258.228C205.744 253.159 188.461 237.708 185.231 227.144C182.61 218.572 183.708 210.052 187.515 204.506Z" fill="black"/>
<path d="M185.334 224.089C185.614 225.005 185.098 225.975 184.182 226.255C183.266 226.535 182.296 226.02 182.016 225.104C181.736 224.187 182.252 223.218 183.168 222.938C184.084 222.658 185.054 223.173 185.334 224.089Z" fill="black"/>
<path d="M219.747 213.568C220.027 214.484 219.511 215.454 218.595 215.734C217.679 216.014 216.709 215.499 216.429 214.583C216.149 213.666 216.665 212.697 217.581 212.417C218.497 212.137 219.466 212.652 219.747 213.568Z" fill="black"/>
<path fill-rule="evenodd" clip-rule="evenodd" d="M218.054 229.824L218.771 231.078C214.657 236.714 210.109 238.999 204.942 239.952C199.833 240.893 196.265 239.871 193.274 238.95L194.101 237.147L191.044 233.505L193.57 234.283C195.834 234.98 199.798 235.525 203.984 234.753C208.114 233.992 212.355 231.978 215.513 227.652L217.071 225.517L218.054 229.824Z" fill="black"/>
<path fill-rule="evenodd" clip-rule="evenodd" d="M220.1 213.88L218.616 216.067C213.736 223.26 206.995 226.507 200.651 227.621C194.379 228.723 188.427 227.764 184.762 226.5L182.263 225.638L183.987 220.641L186.485 221.502C189.415 222.513 194.458 223.342 199.736 222.415C204.941 221.5 210.306 218.9 214.242 213.099L215.726 210.912L220.1 213.88Z" fill="black"/>
<path d="M214.958 243.391C211.862 247.124 205.804 247.351 203.163 246.997L213.17 256.375L214.958 243.391Z" fill="black"/>
<path fill-rule="evenodd" clip-rule="evenodd" d="M207.818 250.426C208.764 250.196 209.717 250.776 209.947 251.721C211.683 258.851 218.721 275.306 232.694 283.902C233.337 284.297 233.966 284.683 234.58 285.061C242.538 289.949 248.095 293.363 251.522 296.68C253.418 298.515 254.759 300.403 255.511 302.592C256.262 304.776 256.377 307.113 256.056 309.763C255.459 314.706 252.88 317.75 249.42 319.675C246.099 321.522 241.946 322.347 238.129 323.06C237.902 323.102 237.676 323.144 237.452 323.186C233.759 323.873 230.414 324.495 227.799 325.727C225.166 326.966 223.472 328.726 223.052 331.791L223.038 331.89L223.013 331.987C222.931 332.311 222.841 333.417 223.272 335.24C223.691 337.014 224.583 339.372 226.329 342.161C226.845 342.986 226.595 344.073 225.77 344.59C224.945 345.106 223.858 344.856 223.342 344.031C221.408 340.943 220.357 338.229 219.842 336.05C219.355 333.988 219.326 332.305 219.573 331.223C220.217 326.747 222.895 324.14 226.297 322.538C229.344 321.104 233.125 320.403 236.666 319.747C236.939 319.696 237.212 319.646 237.482 319.596C241.394 318.865 244.97 318.117 247.707 316.595C250.304 315.15 252.112 313.029 252.558 309.34C252.837 307.032 252.704 305.267 252.178 303.738C251.655 302.214 250.69 300.779 249.071 299.212C245.935 296.177 240.709 292.965 232.473 287.903C231.944 287.577 231.402 287.244 230.847 286.903C215.772 277.629 208.374 260.156 206.523 252.555C206.293 251.609 206.873 250.656 207.818 250.426Z" fill="black"/>
<path fill-rule="evenodd" clip-rule="evenodd" d="M213.787 251.254C214.683 250.873 215.717 251.291 216.098 252.186C217.055 254.439 218.857 258.155 221.121 261.902C223.401 265.679 226.064 269.339 228.713 271.603C231.137 273.675 233.576 275.498 235.898 277.233C236.249 277.496 236.598 277.756 236.943 278.015C239.538 279.961 241.996 281.854 243.916 283.838C245.845 285.832 247.359 288.045 247.903 290.675C248.455 293.338 247.961 296.175 246.359 299.307C244.192 303.543 239.264 304.316 234.332 304.241C231.763 304.202 228.933 303.925 226.032 303.606C225.406 303.537 224.776 303.466 224.143 303.395C221.82 303.134 219.46 302.868 217.088 302.68C211.021 302.199 205.222 302.264 200.522 304.088C195.968 305.855 192.306 309.325 190.527 316.102L190.508 316.173L190.483 316.242C188.952 320.567 188.213 332.567 199.034 343.693C199.712 344.391 199.697 345.507 198.999 346.185C198.301 346.864 197.186 346.848 196.507 346.15C184.726 334.036 185.215 320.663 187.136 315.137C189.203 307.342 193.627 302.983 199.247 300.802C204.736 298.672 211.22 298.68 217.366 299.167C219.802 299.36 222.239 299.634 224.569 299.897C225.194 299.967 225.811 300.036 226.418 300.103C229.318 300.422 232 300.681 234.386 300.718C239.364 300.793 242.111 299.872 243.221 297.702C244.557 295.091 244.802 293.077 244.452 291.39C244.097 289.67 243.072 288.034 241.383 286.289C239.686 284.534 237.447 282.798 234.828 280.834C234.49 280.581 234.146 280.324 233.798 280.063C231.48 278.331 228.942 276.435 226.423 274.282C223.338 271.645 220.442 267.595 218.104 263.725C215.749 259.825 213.872 255.959 212.855 253.565C212.474 252.669 212.892 251.634 213.787 251.254Z" fill="black"/>
<path fill-rule="evenodd" clip-rule="evenodd" d="M172.03 166.706C172.913 166.297 173.96 166.681 174.369 167.564C176.398 171.945 179.72 175.709 183.114 178.651C186.507 181.592 189.882 183.634 191.893 184.593C192.772 185.013 193.144 186.064 192.725 186.943C192.306 187.821 191.254 188.193 190.376 187.774C188.072 186.675 184.433 184.458 180.806 181.314C177.181 178.172 173.478 174.027 171.171 169.046C170.762 168.163 171.147 167.115 172.03 166.706Z" fill="black"/>
<path fill-rule="evenodd" clip-rule="evenodd" d="M195.786 159.443C194.825 159.598 194.172 160.502 194.326 161.463C195.094 166.229 194.445 171.207 193.276 175.545C192.107 179.88 190.451 183.46 189.321 185.38C188.827 186.219 189.106 187.299 189.945 187.793C190.784 188.286 191.864 188.007 192.357 187.168C193.652 184.969 195.43 181.096 196.679 176.462C197.927 171.83 198.678 166.322 197.806 160.903C197.651 159.942 196.747 159.289 195.786 159.443Z" fill="black"/>
<path d="M232.811 343.595C234.02 347.55 231.794 351.737 227.839 352.946C223.883 354.155 219.697 351.929 218.487 347.974C217.278 344.019 219.504 339.832 223.46 338.623C227.415 337.413 231.601 339.64 232.811 343.595Z" fill="white"/>
<path fill-rule="evenodd" clip-rule="evenodd" d="M226.808 349.576C228.902 348.936 230.081 346.719 229.441 344.625C228.8 342.531 226.584 341.353 224.49 341.993C222.396 342.633 221.217 344.85 221.858 346.944C222.498 349.037 224.714 350.216 226.808 349.576ZM227.839 352.946C231.794 351.737 234.02 347.55 232.811 343.595C231.601 339.64 227.415 337.413 223.46 338.623C219.504 339.832 217.278 344.019 218.487 347.974C219.697 351.929 223.883 354.155 227.839 352.946Z" fill="black"/>
<path d="M237.812 351.97C238.737 354.994 237.035 358.196 234.01 359.121C230.985 360.045 227.784 358.343 226.859 355.318C225.934 352.294 227.637 349.092 230.661 348.167C233.686 347.243 236.887 348.945 237.812 351.97Z" fill="#F24822"/>
<path fill-rule="evenodd" clip-rule="evenodd" d="M232.98 355.75C234.143 355.395 234.798 354.163 234.442 353C234.086 351.837 232.855 351.182 231.692 351.538C230.528 351.893 229.874 353.125 230.229 354.288C230.585 355.451 231.816 356.106 232.98 355.75ZM234.01 359.121C237.035 358.196 238.737 354.994 237.812 351.97C236.887 348.945 233.686 347.243 230.661 348.167C227.637 349.092 225.934 352.294 226.859 355.318C227.784 358.343 230.985 360.045 234.01 359.121Z" fill="black"/>
<path d="M206.34 343.857C207.549 347.812 205.323 351.999 201.368 353.208C197.413 354.417 193.226 352.191 192.017 348.236C190.807 344.281 193.034 340.094 196.989 338.885C200.944 337.675 205.131 339.902 206.34 343.857Z" fill="white"/>
<path fill-rule="evenodd" clip-rule="evenodd" d="M200.338 349.838C202.431 349.198 203.61 346.981 202.97 344.887C202.33 342.793 200.113 341.615 198.019 342.255C195.925 342.895 194.747 345.112 195.387 347.205C196.027 349.299 198.244 350.478 200.338 349.838ZM201.368 353.208C205.323 351.999 207.549 347.812 206.34 343.857C205.131 339.902 200.944 337.675 196.989 338.885C193.034 340.094 190.807 344.281 192.017 348.236C193.226 352.191 197.413 354.417 201.368 353.208Z" fill="black"/>
<path d="M211.847 352.077C212.772 355.101 211.07 358.303 208.045 359.228C205.021 360.152 201.819 358.45 200.894 355.426C199.97 352.401 201.672 349.199 204.697 348.275C207.721 347.35 210.923 349.052 211.847 352.077Z" fill="#F24822"/>
<path fill-rule="evenodd" clip-rule="evenodd" d="M207.015 355.858C208.178 355.502 208.833 354.271 208.477 353.107C208.122 351.944 206.89 351.289 205.727 351.645C204.564 352 203.909 353.232 204.264 354.395C204.62 355.558 205.852 356.213 207.015 355.858ZM208.045 359.228C211.07 358.303 212.772 355.101 211.847 352.077C210.923 349.052 207.721 347.35 204.697 348.275C201.672 349.199 199.97 352.401 200.894 355.426C201.819 358.45 205.021 360.152 208.045 359.228Z" fill="black"/>
<path fill-rule="evenodd" clip-rule="evenodd" d="M223.76 88.3322C224.297 88.6178 224.5 89.2846 224.215 89.8216L223.127 91.8672C222.842 92.4043 222.175 92.6081 221.638 92.3226C221.101 92.037 220.897 91.3702 221.182 90.8332L222.27 88.7876C222.556 88.2505 223.223 88.0467 223.76 88.3322ZM220.497 94.4689C221.034 94.7545 221.238 95.4213 220.952 95.9584L218.777 100.049C218.491 100.587 217.824 100.79 217.287 100.505C216.75 100.219 216.546 99.5525 216.832 99.0154L219.007 94.9243C219.293 94.3873 219.96 94.1834 220.497 94.4689ZM216.146 102.651C216.683 102.937 216.887 103.604 216.601 104.141L214.426 108.232C214.141 108.769 213.474 108.973 212.937 108.687C212.4 108.402 212.196 107.735 212.481 107.198L214.657 103.107C214.942 102.57 215.609 102.366 216.146 102.651ZM211.795 110.833C212.332 111.119 212.536 111.786 212.251 112.323L210.075 116.414C209.79 116.951 209.123 117.155 208.586 116.869C208.049 116.584 207.845 115.917 208.131 115.38L210.306 111.289C210.592 110.752 211.258 110.548 211.795 110.833ZM207.445 119.016C207.982 119.301 208.186 119.968 207.9 120.505L205.725 124.596C205.439 125.133 204.773 125.337 204.235 125.052C203.698 124.766 203.495 124.099 203.78 123.562L205.955 119.471C206.241 118.934 206.908 118.73 207.445 119.016ZM203.094 127.198C203.631 127.484 203.835 128.15 203.55 128.687L201.374 132.779C201.089 133.316 200.422 133.519 199.885 133.234C199.348 132.948 199.144 132.282 199.43 131.745L201.605 127.653C201.89 127.116 202.557 126.912 203.094 127.198ZM198.744 135.38C199.281 135.666 199.485 136.333 199.199 136.87L197.024 140.961C196.738 141.498 196.071 141.702 195.534 141.416C194.997 141.131 194.793 140.464 195.079 139.927L197.254 135.836C197.54 135.299 198.207 135.095 198.744 135.38ZM194.393 143.563C194.93 143.848 195.134 144.515 194.848 145.052L192.673 149.143C192.388 149.68 191.721 149.884 191.184 149.598C190.647 149.313 190.443 148.646 190.728 148.109L192.904 144.018C193.189 143.481 193.856 143.277 194.393 143.563ZM190.042 151.745C190.58 152.03 190.783 152.697 190.498 153.234L189.41 155.28C189.125 155.817 188.458 156.021 187.921 155.735C187.384 155.45 187.18 154.783 187.465 154.246L188.553 152.2C188.839 151.663 189.505 151.459 190.042 151.745Z" fill="black"/>
<path fill-rule="evenodd" clip-rule="evenodd" d="M109.79 123.176C109.505 123.713 109.709 124.38 110.246 124.665L112.291 125.753C112.828 126.039 113.495 125.835 113.781 125.298C114.066 124.761 113.862 124.094 113.325 123.808L111.28 122.721C110.743 122.435 110.076 122.639 109.79 123.176ZM115.927 126.439C115.641 126.976 115.845 127.643 116.382 127.928L120.473 130.104C121.011 130.389 121.677 130.185 121.963 129.648C122.248 129.111 122.045 128.445 121.508 128.159L117.416 125.984C116.879 125.698 116.213 125.902 115.927 126.439ZM124.109 130.79C123.824 131.327 124.028 131.993 124.565 132.279L128.656 134.454C129.193 134.74 129.86 134.536 130.145 133.999C130.431 133.462 130.227 132.795 129.69 132.51L125.599 130.334C125.062 130.049 124.395 130.253 124.109 130.79ZM132.292 135.14C132.006 135.677 132.21 136.344 132.747 136.63L136.838 138.805C137.375 139.09 138.042 138.887 138.327 138.35C138.613 137.813 138.409 137.146 137.872 136.86L133.781 134.685C133.244 134.399 132.577 134.603 132.292 135.14ZM140.474 139.491C140.188 140.028 140.392 140.695 140.929 140.98L145.02 143.156C145.557 143.441 146.224 143.237 146.51 142.7C146.795 142.163 146.591 141.496 146.054 141.211L141.963 139.035C141.426 138.75 140.759 138.954 140.474 139.491ZM148.656 143.841C148.371 144.378 148.574 145.045 149.111 145.331L153.203 147.506C153.74 147.792 154.406 147.588 154.692 147.051C154.978 146.514 154.774 145.847 154.237 145.561L150.146 143.386C149.608 143.1 148.942 143.304 148.656 143.841ZM156.838 148.192C156.553 148.729 156.757 149.396 157.294 149.681L161.385 151.857C161.922 152.142 162.589 151.938 162.874 151.401C163.16 150.864 162.956 150.197 162.419 149.912L158.328 147.737C157.791 147.451 157.124 147.655 156.838 148.192ZM165.021 152.543C164.735 153.08 164.939 153.746 165.476 154.032L169.567 156.207C170.104 156.493 170.771 156.289 171.057 155.752C171.342 155.215 171.138 154.548 170.601 154.262L166.51 152.087C165.973 151.802 165.306 152.006 165.021 152.543ZM173.203 156.893C172.917 157.43 173.121 158.097 173.658 158.383L175.704 159.47C176.241 159.756 176.908 159.552 177.193 159.015C177.479 158.478 177.275 157.811 176.738 157.525L174.692 156.438C174.155 156.152 173.488 156.356 173.203 156.893Z" fill="black"/>
</svg>
