<svg width="500" height="500" viewBox="0 0 500 500" fill="none" xmlns="http://www.w3.org/2000/svg">
<rect width="500" height="500" fill="#FFEBEE"/>
<path d="M234.201 332.666C231.748 332.666 229.295 332.484 226.752 332.03C219.847 330.849 214.033 327.124 210.58 321.583C209.036 319.493 207.855 317.04 206.856 314.224C202.586 301.686 210.308 282.79 210.308 282.79C210.308 282.79 194.318 268.89 192.774 237.91C192.138 225.555 196.862 213.835 204.493 204.387C196.862 194.938 192.774 183.219 192.774 170.863C192.774 156.509 198.316 143.063 208.4 132.979C213.76 127.619 220.12 123.531 227.024 120.896V95.0947C227.024 77.0157 241.651 62.3889 259.73 62.3889H317.783C335.862 62.3889 350.489 77.0157 350.489 95.0947V132.252C350.761 132.434 350.943 132.706 351.215 132.888C370.748 152.421 372.02 183.31 355.122 204.296C372.02 225.282 370.748 256.262 351.215 275.704C344.674 282.245 336.679 286.878 327.958 289.331C323.961 300.415 318.6 309.318 312.059 315.859C305.7 322.218 298.432 326.216 290.346 327.851C288.438 328.487 286.349 328.85 284.259 328.941C283.714 328.941 283.078 328.941 282.533 328.941C278.354 328.941 274.448 328.215 270.995 326.852L270.541 326.67L270.269 326.579C267.634 325.398 264.454 323.49 261.638 320.401C260.82 321.31 259.912 322.128 259.003 322.945C252.008 329.396 243.65 332.666 234.201 332.666Z" fill="#FDFDFD"/>
<path d="M220.665 306.229C216.849 312.498 221.482 319.039 228.75 320.311C244.013 322.946 255.551 315.133 264.273 292.965C280.444 251.538 249.373 266.71 238.835 279.701C232.748 287.151 225.662 298.144 220.665 306.229Z" fill="#4BC17E"/>
<path d="M275.356 315.768C275.356 315.768 304.973 326.307 318.782 279.156C328.685 245.542 305.7 241.726 283.896 267.346C262.183 292.965 265.999 308.319 275.356 315.768Z" fill="#4BC17E"/>
<path d="M342.857 208.475C340.586 206.204 340.586 202.57 342.857 200.299C359.029 184.128 359.029 157.599 342.857 141.337C326.686 125.166 300.158 125.166 283.896 141.337C281.625 143.609 277.991 143.609 275.72 141.337C259.548 125.166 233.02 125.166 216.758 141.337C200.587 157.509 200.587 184.037 216.758 200.299C219.029 202.57 219.029 206.204 216.758 208.475C200.587 224.646 200.587 251.174 216.758 267.436C232.929 283.608 259.457 283.608 275.72 267.436C277.991 265.165 281.625 265.165 283.896 267.436C300.067 283.608 326.595 283.608 342.857 267.436C359.119 251.174 359.119 224.646 342.857 208.475Z" fill="#FF77E6"/>
<path d="M307.608 234.73L319.872 246.45" stroke="#030401" stroke-width="2.72549" stroke-miterlimit="10" stroke-linecap="round" stroke-linejoin="round"/>
<path d="M239.016 160.779L251.19 172.589" stroke="#030401" stroke-width="2.72549" stroke-miterlimit="10" stroke-linecap="round" stroke-linejoin="round"/>
<path d="M245.285 230.461L233.565 242.635" stroke="#030401" stroke-width="2.72549" stroke-miterlimit="10" stroke-linecap="round" stroke-linejoin="round"/>
<path d="M319.236 161.779L307.426 173.952" stroke="#030401" stroke-width="2.72549" stroke-miterlimit="10" stroke-linecap="round" stroke-linejoin="round"/>
<path d="M279.899 247.995C303.982 247.995 323.506 228.471 323.506 204.387C323.506 180.303 303.982 160.779 279.899 160.779C255.815 160.779 236.291 180.303 236.291 204.387C236.291 228.471 255.815 247.995 279.899 247.995Z" fill="#FFCA49"/>
<path d="M269.996 184.4C269.996 191.85 264.908 197.846 258.549 197.846C252.189 197.846 247.102 191.85 247.102 184.4" stroke="#030401" stroke-width="2.72549" stroke-miterlimit="10" stroke-linecap="round" stroke-linejoin="round"/>
<path d="M312.604 184.4C312.604 191.85 307.517 197.846 301.157 197.846C294.798 197.846 289.71 191.85 289.71 184.4" stroke="#030401" stroke-width="2.72549" stroke-miterlimit="10" stroke-linecap="round" stroke-linejoin="round"/>
<path d="M287.348 198.754C287.348 203.569 283.987 207.567 279.898 207.567C275.81 207.567 272.449 203.66 272.449 198.754" stroke="#030401" stroke-width="2.72549" stroke-miterlimit="10" stroke-linecap="round" stroke-linejoin="round"/>
<path d="M206.31 245.633C206.31 245.633 221.755 251.356 218.03 268.708C218.03 268.708 236.654 264.62 241.378 279.792C241.378 279.792 256.913 263.712 266.18 276.612C266.18 276.612 263.818 247.904 283.987 251.083C283.987 251.083 270.995 231.46 279.989 220.376C279.989 220.376 257.64 223.92 258.367 203.933C258.367 203.933 241.742 219.195 230.295 204.932C230.295 204.932 225.207 222.557 213.215 221.285C213.306 221.285 222.482 243.725 206.31 245.633Z" fill="#FDFDFD"/>
<path d="M241.742 234.004C236.2 225.918 233.02 216.924 232.203 214.289C231.748 214.017 231.385 213.835 230.931 213.835C229.205 214.108 228.569 215.561 228.296 217.287C229.023 219.558 232.203 229.461 238.926 237.092L241.742 234.004Z" fill="#4BC17E"/>
<path d="M229.386 236.911C230.113 238.092 232.384 241.09 234.11 242.635L237.108 239.182C230.386 231.733 227.024 222.466 225.934 218.923C225.571 218.65 225.207 218.559 224.844 218.65C222.118 219.377 222.3 225.646 227.569 236.457C228.205 236.093 229.023 236.275 229.386 236.911Z" fill="#4BC17E"/>
<path d="M261.547 233.55C258.004 223.465 255.642 221.467 253.916 223.738C252.371 225.646 254.824 237.729 254.824 237.729C254.824 237.729 244.376 225.555 241.287 217.651C239.016 211.927 235.564 209.929 235.291 214.835C236.472 218.287 239.289 225.373 243.65 231.823L244.467 230.915C244.921 230.37 245.83 230.279 246.375 230.824C246.92 231.278 247.011 232.187 246.466 232.732L235.201 245.542C246.103 249.993 251.463 255.989 251.644 256.262C252.099 256.807 252.099 257.716 251.554 258.17C251.281 258.351 251.008 258.533 250.645 258.533C250.282 258.533 249.918 258.351 249.646 258.079C249.555 257.988 243.922 251.629 232.475 247.45C232.021 247.268 231.748 246.904 231.657 246.541C231.567 246.178 231.657 245.633 231.93 245.269L232.384 244.724C230.022 242.635 227.297 238.637 227.206 238.455C226.752 237.82 226.933 237.002 227.569 236.548C225.752 233.368 223.027 229.643 222.118 233.186C221.028 237.184 228.75 255.353 241.197 264.075C241.56 263.53 242.196 263.257 242.832 263.53L248.01 265.529C248.737 265.801 249.101 266.619 248.828 267.255C248.646 267.8 248.101 268.163 247.556 268.163C247.374 268.163 247.193 268.163 247.102 268.072L241.923 266.074C241.651 265.983 241.378 265.801 241.287 265.529C236.018 269.526 211.489 289.513 218.303 310.59C225.934 334.12 258.549 287.787 264.091 271.797C269.542 255.899 264.908 242.998 261.547 233.55Z" fill="#4BC17E"/>
<path d="M227.115 238.455C227.206 238.637 229.931 242.634 232.293 244.724L234.11 242.725C232.384 241.181 230.204 238.092 229.386 237.002C228.932 236.366 228.114 236.184 227.478 236.638C227.569 236.911 227.751 237.183 227.842 237.456C228.659 238.91 229.204 240.091 229.204 240.091C228.75 239.182 228.296 238.274 227.842 237.456C227.66 237.183 227.569 236.911 227.387 236.729C226.933 237.002 226.752 237.819 227.115 238.455Z" fill="#030401"/>
<path d="M227.933 237.365C228.387 238.183 228.841 239.091 229.295 240C229.295 240 228.75 238.819 227.933 237.365Z" fill="#030401"/>
<path d="M238.925 237.183C232.202 229.552 228.932 219.649 228.296 217.378C227.933 220.467 229.023 224.555 229.023 224.555C229.023 224.555 227.66 220.194 225.934 219.013C227.024 222.557 230.476 231.823 237.108 239.273L238.925 237.183Z" fill="#030401"/>
<path d="M243.649 231.914C239.289 225.464 236.472 218.377 235.291 214.925C235.2 216.379 235.382 218.468 235.927 221.194C235.927 221.194 234.292 215.925 232.202 214.38C233.02 217.015 236.2 226.009 241.742 234.094L243.649 231.914Z" fill="#030401"/>
<path d="M244.286 235.185C244.013 235.366 243.74 235.457 243.468 235.457C243.014 235.457 242.65 235.276 242.378 234.912C242.196 234.64 242.014 234.367 241.742 234.095L238.925 237.274C239.198 237.638 239.561 238.001 239.925 238.365C240.47 238.91 240.47 239.727 239.925 240.272C239.652 240.545 239.289 240.636 239.016 240.636C238.653 240.636 238.29 240.454 238.017 240.181C237.744 239.909 237.472 239.636 237.199 239.273L234.201 242.725C234.383 242.907 234.474 242.998 234.656 243.089C235.291 243.543 235.382 244.361 234.928 244.997C234.656 245.36 234.292 245.542 233.838 245.542C233.565 245.542 233.293 245.451 233.02 245.269C232.839 245.087 232.566 244.906 232.384 244.724L231.93 245.269C231.657 245.633 231.476 246.087 231.657 246.541C231.839 246.995 232.112 247.359 232.475 247.449C243.922 251.629 249.646 257.988 249.646 258.079C249.918 258.351 250.282 258.533 250.645 258.533C250.918 258.533 251.281 258.442 251.554 258.17C252.099 257.715 252.189 256.807 251.644 256.262C251.372 255.989 246.103 249.993 235.201 245.542L246.466 232.732C246.92 232.187 246.92 231.278 246.375 230.824C245.83 230.37 244.921 230.37 244.467 230.915L243.65 231.823C243.922 232.278 244.286 232.732 244.649 233.186C245.012 233.913 244.922 234.731 244.286 235.185Z" fill="#030401"/>
<path d="M233.747 245.542C234.201 245.542 234.565 245.36 234.837 244.997C235.291 244.361 235.201 243.543 234.565 243.089C234.383 242.998 234.292 242.816 234.11 242.726L232.293 244.724C232.475 244.906 232.748 245.088 232.929 245.269C233.202 245.451 233.474 245.542 233.747 245.542Z" fill="#030401"/>
<path d="M238.925 240.545C239.289 240.545 239.561 240.454 239.834 240.182C240.379 239.637 240.379 238.819 239.834 238.274C239.47 237.91 239.198 237.547 238.835 237.184L237.018 239.273C237.29 239.546 237.563 239.818 237.835 240.182C238.199 240.454 238.562 240.545 238.925 240.545Z" fill="#030401"/>
<path d="M242.378 234.822C242.65 235.185 243.104 235.367 243.468 235.367C243.74 235.367 244.013 235.276 244.286 235.094C244.921 234.64 245.012 233.822 244.558 233.186C244.195 232.732 243.922 232.278 243.559 231.823L241.742 233.913C242.014 234.276 242.196 234.549 242.378 234.822Z" fill="#030401"/>
<path d="M241.742 266.074L246.92 268.072C247.102 268.163 247.284 268.163 247.374 268.163C247.919 268.163 248.465 267.8 248.646 267.255C248.919 266.528 248.555 265.801 247.829 265.528L242.65 263.53C242.014 263.257 241.287 263.53 241.015 264.075C241.378 264.347 241.651 264.529 242.014 264.802C242.014 264.802 241.651 265.074 241.015 265.528C241.287 265.71 241.469 265.892 241.742 266.074Z" fill="#030401"/>
<path d="M284.078 240.454C279.172 232.641 277.991 235.73 277.991 239C279.353 240.363 281.352 242.907 283.442 246.995C283.805 247.631 283.533 248.449 282.806 248.812C282.624 248.903 282.442 248.994 282.17 248.994C281.625 248.994 281.17 248.721 280.989 248.267C277.9 242.089 274.902 239.909 274.902 239.909C274.538 239.636 274.266 239.182 274.357 238.728C269.633 234.185 262.183 227.644 258.458 227.644C256.187 227.644 255.733 228.644 256.005 229.734C258.367 231.46 266.362 237.456 269.905 240.908C270.45 241.453 270.45 242.271 269.905 242.816C269.633 243.089 269.269 243.18 268.906 243.18C268.542 243.18 268.179 243.089 267.906 242.816C263.909 238.91 253.734 231.46 253.643 231.369C253.461 231.278 253.37 231.097 253.28 230.915C252.371 230.824 251.554 230.915 250.918 231.551C250.009 232.368 250.191 233.64 250.736 234.912C250.736 234.912 250.827 234.912 250.827 235.003C251.281 235.276 261.274 242.634 265.363 246.723C265.908 247.268 265.908 248.085 265.363 248.63C265.09 248.903 264.727 248.994 264.363 248.994C264 248.994 263.637 248.903 263.364 248.63C259.821 245.178 251.372 238.819 249.464 237.456C248.374 237.729 247.829 238.91 248.828 240.999C249.01 241.09 249.101 241.09 249.191 241.181C249.646 241.544 260.275 250.084 262.728 253.809C263.182 254.445 263.001 255.263 262.365 255.717C262.092 255.899 261.91 255.898 261.638 255.898C261.184 255.898 260.729 255.717 260.457 255.263C258.821 252.81 252.462 247.268 248.828 244.361C248.192 244.451 247.647 244.815 247.465 245.905C246.829 250.084 265.544 266.619 265.272 276.794C264.999 286.969 259.639 318.04 283.623 317.04C307.789 316.041 291.164 251.81 284.078 240.454Z" fill="#4BC17E"/>
<path d="M260.548 255.353C260.82 255.717 261.274 255.989 261.729 255.989C262.001 255.989 262.274 255.898 262.456 255.807C263.091 255.353 263.273 254.536 262.819 253.9C260.366 250.084 249.737 241.635 249.282 241.272C249.192 241.181 249.01 241.09 248.919 241.09C249.464 242.362 250.645 243.997 252.553 245.905C252.553 245.905 250.373 244.36 248.919 244.542C252.553 247.358 258.912 252.9 260.548 255.353Z" fill="#030401"/>
<path d="M264.454 249.085C264.817 249.085 265.181 248.994 265.453 248.721C265.998 248.176 265.998 247.359 265.453 246.814C261.365 242.725 251.281 235.457 250.917 235.094C250.917 235.094 250.827 235.094 250.827 235.003C251.735 237.093 253.825 239.273 253.825 239.273C252.462 237.82 250.827 237.274 249.736 237.547C251.644 238.91 260.093 245.178 263.636 248.721C263.727 248.903 264.091 249.085 264.454 249.085Z" fill="#030401"/>
<path d="M253.734 231.46C253.825 231.551 264 239 267.997 242.907C268.27 243.18 268.633 243.27 268.996 243.27C269.36 243.27 269.723 243.18 269.996 242.907C270.541 242.362 270.541 241.544 269.996 240.999C266.453 237.456 258.458 231.551 256.096 229.825C256.459 231.551 258.367 233.64 258.367 233.64C258.367 233.64 255.732 231.369 253.37 231.006C253.37 231.187 253.552 231.369 253.734 231.46Z" fill="#030401"/>
<path d="M274.902 239.909C274.902 239.909 277.9 242.09 280.989 248.267C281.261 248.722 281.715 248.994 282.17 248.994C282.351 248.994 282.624 248.994 282.806 248.812C283.442 248.449 283.714 247.631 283.442 246.995C281.443 242.907 279.353 240.363 277.991 239.001C277.991 240.545 278.263 242.18 278.536 242.816C278.536 242.816 276.81 240.999 274.357 238.637C274.266 239.182 274.447 239.637 274.902 239.909Z" fill="#030401"/>
<path d="M258.458 227.644C252.916 227.644 258.276 233.64 258.276 233.64C258.276 233.64 253.28 229.37 250.918 231.642C248.555 233.913 253.734 239.273 253.734 239.273C250.191 235.548 244.467 237.729 252.644 245.905C252.644 245.905 248.192 242.725 247.647 246.087C247.102 249.539 260.275 261.895 264.272 271.797" stroke="#030401" stroke-width="2.72549" stroke-miterlimit="10" stroke-linecap="round" stroke-linejoin="round"/>
<path d="M294.525 274.614C294.525 274.614 296.524 285.152 296.342 300.324" stroke="#030401" stroke-width="2.72549" stroke-miterlimit="10" stroke-linecap="round" stroke-linejoin="round"/>
<path d="M262.001 276.521C262.001 276.521 247.92 298.961 238.38 309.59" stroke="#030401" stroke-width="2.72549" stroke-miterlimit="10" stroke-linecap="round" stroke-linejoin="round"/>
<path d="M265.453 276.885L264.272 292.965" stroke="#030401" stroke-width="2.72549" stroke-miterlimit="10" stroke-linecap="round" stroke-linejoin="round"/>
<path d="M317.874 155.51H259.821C248.283 155.51 239.016 146.152 239.016 134.705V95.0948C239.016 83.5569 248.374 74.2903 259.821 74.2903H317.874C329.412 74.2903 338.678 83.6478 338.678 95.0948V134.705C338.678 146.152 329.412 155.51 317.874 155.51Z" fill="#010101"/>
<path d="M274.084 148.151L284.259 174.134C285.349 176.95 289.256 177.041 290.437 174.225L301.793 148.151H274.084Z" fill="#010101"/>
<path d="M292.254 95.0946C293.163 98.0926 291.8 100.818 287.439 100.909C284.714 101 281.897 99.3645 281.897 99.3645L281.806 105.27C281.806 105.27 283.26 102.635 285.985 101.908C292.436 100.182 296.07 106.542 291.164 110.357C285.895 114.536 276.355 112.265 276.355 106.542C276.355 102.817 277.082 100.273 277.082 97.3658C277.082 93.5502 276.174 91.0064 276.446 87.7358C276.901 82.4665 286.985 79.3776 291.436 84.1927C293.163 86.0097 293.072 89.2802 290.891 90.8247C285.895 94.2769 281.988 89.5528 281.988 89.5528L281.806 95.0037C284.623 91.7332 291.346 92.3691 292.254 95.0946Z" fill="#FFCA49"/>
<path d="M301.248 104.543C301.248 104.543 302.883 102.908 305.791 102.272C311.787 100.909 314.694 110.357 307.426 111.993C300.43 113.537 295.706 111.811 295.706 105.906C295.706 102.09 296.524 99.4553 296.524 96.4573C296.524 92.5507 295.706 89.9161 295.888 86.5547C296.251 79.9227 303.61 80.7403 303.065 87.4632C302.338 94.186 301.248 104.543 301.248 104.543Z" fill="#FFCA49"/>
<path d="M318.964 104.543C318.964 104.543 320.599 102.908 323.416 102.272C329.412 100.909 332.319 110.357 325.051 111.993C318.055 113.537 313.331 111.811 313.331 105.906C313.331 102.09 314.149 99.4553 314.149 96.4573C314.149 92.5507 313.331 89.9161 313.513 86.5547C313.876 79.9227 321.235 80.7403 320.69 87.4632C320.054 94.186 318.964 104.543 318.964 104.543Z" fill="#FFCA49"/>
<path d="M272.358 83.0116C270.087 81.4672 267.452 82.1032 266.089 84.647C264.545 87.4633 265.454 95.2763 265.908 98.0927C265.999 98.6378 265.544 99.092 264.999 99.0012C264.454 99.0012 264.091 98.5469 264.182 98.0018C264.454 96.6391 264.908 94.1861 264.818 92.1874C264.818 90.7339 264.363 90.0071 263.546 89.462C261.91 88.3718 258.276 88.7352 258.367 92.1874C258.458 94.1861 258.731 96.7299 259.003 98.0018C259.094 98.5469 258.731 99.0012 258.186 99.0012C257.64 99.0012 257.277 98.5469 257.368 98.0018C257.822 95.1855 258.731 87.3724 257.277 84.5561C255.823 81.9215 253.189 81.2855 251.008 82.83C247.829 85.0104 248.374 89.2803 248.919 91.7332C251.644 102.908 250.009 107.087 251.826 109.903C253.007 111.72 255.278 112.629 257.64 112.083C260.366 111.448 261.274 104.816 261.547 101.454H261.638C261.91 104.816 262.819 111.448 265.544 112.083C267.816 112.629 270.087 111.811 271.359 109.903C273.267 107.087 271.631 102.908 274.357 91.7332C274.993 89.5528 275.538 85.2829 272.358 83.0116Z" fill="#FFCA49"/>
<path d="M251.008 117.898C249.827 118.171 249.01 119.261 249.01 120.442C249.01 122.986 248.919 127.528 248.828 132.525C248.737 137.158 248.646 141.247 248.646 143.609C248.646 144.971 249.737 146.152 251.099 146.152C255.642 146.334 264.908 145.335 266.544 134.796C268.633 121.805 260.82 115.355 251.008 117.898ZM255.097 135.977C255.642 130.981 255.278 127.528 255.278 127.528C256.732 127.256 258.912 129.073 259.003 130.981C259.185 135.251 255.097 135.977 255.097 135.977Z" fill="#FFCA49"/>
<path d="M296.433 136.977C296.433 136.977 302.611 143.881 297.16 145.971C294.525 146.97 291.982 145.062 291.164 142.791C290.074 139.793 290.619 136.068 290.437 132.888C290.165 128.891 287.712 118.443 293.617 117.262C296.433 116.717 299.522 118.443 299.976 122.622C300.794 129.89 303.61 130.254 303.61 130.254C303.61 130.254 302.066 126.529 301.884 125.62C300.34 119.897 302.884 117.171 305.609 116.99C312.059 116.626 311.514 121.986 311.423 128.073C311.332 132.252 312.332 142.427 308.97 144.79C307.063 146.152 303.247 146.152 301.521 143.427C300.431 141.701 299.976 140.247 299.25 139.248C297.523 136.977 296.433 136.977 296.433 136.977Z" fill="#FFCA49"/>
<path d="M328.049 129.527C328.957 132.343 327.594 135.069 323.415 135.16C320.781 135.25 318.146 133.706 318.146 133.706L318.055 139.339C318.055 139.339 319.418 136.795 322.053 136.068C328.23 134.433 331.683 140.52 327.049 144.245C321.962 148.242 312.877 146.062 312.877 140.611C312.877 137.067 313.604 134.524 313.604 131.798C313.604 128.164 312.695 125.711 312.968 122.622C313.422 117.535 323.052 114.628 327.322 119.261C328.957 121.078 328.866 124.167 326.777 125.62C321.962 128.891 318.237 124.348 318.237 124.348L318.055 129.527C320.781 126.256 327.231 126.892 328.049 129.527Z" fill="#FFCA49"/>
<path d="M288.438 130.89C288.438 124.712 287.711 116.536 278.172 117.262C275.083 117.535 269.36 117.898 268.906 125.62C268.451 133.343 268.27 140.883 270.813 143.609C273.357 146.334 280.625 147.515 284.623 144.063C288.711 140.611 288.438 135.523 288.438 130.89ZM280.171 131.889C279.808 134.796 280.625 137.249 277.9 136.977C276.083 136.795 276.537 134.433 276.9 131.526C277.264 128.619 276.628 126.166 279.172 126.438C280.807 126.62 280.534 128.982 280.171 131.889Z" fill="#FFCA49"/>
<rect x="25" y="25" width="450" height="450" rx="20" stroke="#FF77E6" stroke-width="10"/>
<path d="M266.76 373.625C261.803 377.096 256.482 379.552 251.603 380.66C246.514 381.799 242.641 383.357 239.156 385.797C235.439 388.4 232.24 391.909 227.687 396.944C225.154 399.756 222.173 402.421 218.61 404.916C204.05 415.111 181.07 421.853 160.263 410.106C148.466 403.477 143.43 395.461 139.533 389.072C135.505 382.659 133.134 378.779 123.374 375.225C108.905 369.89 97.4169 359.583 91.1256 345.982C85.5006 333.993 84.244 320.33 87.6968 308.448C91.0955 296.488 99.1419 288.199 105.678 281.545C110.395 276.742 114.468 272.505 115.66 268.438C119.26 256.107 124.394 242.009 141.045 230.35C142.671 229.211 144.429 228.095 146.242 227.057C167.44 214.638 181.847 218.401 195.882 221.962C205.565 224.416 215.564 226.993 230.699 224.706C242.774 222.83 254.362 226.028 264.486 234.058C276.509 243.646 285.302 259.995 286.35 274.843C286.87 281.52 286.444 287.012 286.058 291.899C285.517 299.203 285.138 304.431 287.47 312.378L288.354 315.453L289.903 315.522L291.113 324.832L292.422 329.34L291.477 329.309C291.999 347.527 279.848 364.46 266.76 373.625Z" fill="white"/>
<path d="M266.76 373.625C261.803 377.096 256.482 379.552 251.603 380.66C246.514 381.799 242.641 383.357 239.156 385.797C235.439 388.4 232.24 391.909 227.687 396.944C225.154 399.756 222.173 402.421 218.61 404.916C204.05 415.111 181.07 421.853 160.263 410.106C148.466 403.477 143.43 395.461 139.533 389.072C135.505 382.659 133.134 378.779 123.374 375.225C108.905 369.89 97.4169 359.583 91.1256 345.982C85.5006 333.993 84.244 320.33 87.6968 308.448C91.0955 296.488 99.1419 288.199 105.678 281.545C110.395 276.742 114.468 272.505 115.66 268.438C119.26 256.107 124.394 242.009 141.045 230.35C142.671 229.211 144.429 228.095 146.242 227.057C167.44 214.638 181.847 218.401 195.882 221.962C205.565 224.416 215.564 226.993 230.699 224.706C242.774 222.83 254.362 226.028 264.486 234.058C276.509 243.646 285.302 259.995 286.35 274.843C286.87 281.52 286.444 287.012 286.058 291.899C285.517 299.203 285.138 304.431 287.47 312.378L288.354 315.453L289.903 315.522L291.113 324.832L292.422 329.34L291.477 329.309C291.999 347.527 279.848 364.46 266.76 373.625Z" stroke="white" stroke-width="2.83639" stroke-miterlimit="10"/>
<path d="M325.582 338.785C322.252 341.117 318.186 342.233 314.088 341.985L267.754 339.111L266.42 328.964C266.319 327.996 266.087 327.004 265.7 326.122C264.808 323.86 264.049 321.622 263.476 319.484L258.47 302.444L316.283 306.054C321.116 306.363 325.493 308.492 328.723 312.117C331.953 315.741 333.449 320.349 333.217 325.128C332.87 330.566 330.074 335.64 325.582 338.785Z" fill="white"/>
<path d="M325.582 338.785C322.252 341.117 318.186 342.233 314.088 341.985L267.754 339.111L266.42 328.964C266.319 327.996 266.087 327.004 265.7 326.122C264.808 323.86 264.049 321.622 263.476 319.484L258.47 302.444L316.283 306.054C321.116 306.363 325.493 308.492 328.723 312.117C331.953 315.741 333.449 320.349 333.217 325.128C332.87 330.566 330.074 335.64 325.582 338.785Z" stroke="white" stroke-width="2.83639" stroke-miterlimit="10"/>
<path d="M240.866 313.732L275.303 315.935C270.576 299.624 274.865 291.08 273.756 275.813C272.576 258.634 256.183 233.409 232.505 237.177C192.857 243.355 182.598 220.298 152.393 237.985C135.749 247.677 131.096 259.823 127.442 272.077C123.215 286.81 104.433 294.767 99.5558 312.032C94.6243 329.221 102.52 354.509 127.594 363.614C152.668 372.719 146.303 388.025 166.366 399.37C186.428 410.714 209.5 398.829 218.399 388.79C227.351 378.828 233.779 372.018 248.836 368.632C262.537 365.617 281.054 346.072 278.635 327.452L240.1 325.002L240.866 313.732Z" fill="#010101"/>
<path d="M315.541 318.346L275.326 315.803C275.891 317.6 276.511 319.474 277.24 321.504C277.991 323.401 278.402 325.307 278.681 327.189L314.853 329.562C317.951 329.701 320.6 327.384 320.793 324.363C320.932 321.265 318.616 318.617 315.541 318.346Z" fill="#010101"/>
<path d="M275.38 315.881L240.943 313.678L240.255 324.894L278.79 327.344C278.588 325.407 278.046 323.479 277.348 321.659C276.488 319.606 275.868 317.732 275.38 315.881Z" stroke="white" stroke-width="2.83639" stroke-miterlimit="10"/>
<path d="M244.7 313.933C245.078 302.935 241.986 291.596 235.207 281.915C218.45 257.983 185.531 252.179 161.599 268.936C137.668 285.693 131.863 318.612 148.62 342.543C165.377 366.475 198.297 372.279 222.228 355.522C233.071 347.93 240.164 336.962 243.144 325.064L278.735 327.266C278.534 325.33 277.991 323.402 277.294 321.581C276.566 319.552 275.946 317.678 275.38 315.881L244.7 313.933ZM152.028 340.157C136.627 318.162 141.967 287.876 163.962 272.475C185.957 257.074 216.243 262.414 231.644 284.409C247.046 306.404 241.705 336.69 219.71 352.091C197.715 367.493 167.429 362.152 152.028 340.157Z" fill="white"/>
<path d="M219.764 352.169C241.76 336.768 247.1 306.482 231.699 284.487C216.297 262.492 186.012 257.152 164.016 272.553C142.021 287.954 136.681 318.24 152.082 340.235C167.483 362.23 197.769 367.57 219.764 352.169ZM148.617 319.462C147.888 315.125 147.864 310.64 148.499 306.271C149.373 299.773 151.696 293.529 155.374 288.068C158.162 283.808 161.825 279.973 166.186 276.805C166.341 276.696 166.573 276.534 166.728 276.425C171.065 273.388 175.789 271.234 180.638 269.917C190.598 267.329 201.086 268.295 210.311 272.57C213.627 274.172 216.818 276.093 219.653 278.494C222.675 280.995 225.363 283.845 227.695 287.175C229.376 289.576 230.77 292.062 231.878 294.634C233.73 298.762 234.854 303.169 235.373 307.537C235.699 310.31 235.684 313.091 235.46 315.902C235.235 318.714 234.67 321.533 233.919 324.252C232.851 328.001 231.333 331.603 229.312 334.98C226.23 340.139 222.11 344.64 216.921 348.274C208.015 354.51 197.605 356.951 187.59 356C181.781 355.451 176.18 353.717 171.029 350.975C165.134 347.832 159.89 343.309 155.823 337.5C152.127 331.893 149.679 325.759 148.617 319.462Z" fill="#010101"/>
<path d="M198.479 349.298C195.226 352.73 191.548 354.729 187.745 355.891C197.76 356.843 208.17 354.401 217.076 348.165C222.265 344.531 226.462 339.977 229.467 334.872C222.48 330.992 210.436 336.54 198.479 349.298Z" fill="#FFCA49"/>
<path d="M202.83 330.786C200.746 332.591 198.531 334.373 196.371 336.232C191.298 340.361 186.488 342.228 181.903 342.438C169.905 343.106 160.067 332.682 154.806 325.169C152.908 322.459 150.848 320.67 148.749 319.485C149.811 325.782 152.205 331.839 156.109 337.415C160.177 343.223 165.421 347.746 171.316 350.89C176.467 353.631 182.145 355.311 187.877 355.915C191.602 354.806 195.358 352.753 198.611 349.322C210.568 336.563 222.689 330.961 229.599 334.895C231.62 331.518 233.138 327.916 234.206 324.167C234.957 321.448 235.522 318.629 235.746 315.817C225.328 312.147 214.718 320.731 202.83 330.786Z" fill="#4BC17E"/>
<path d="M208.48 304.9C208.093 305.171 207.783 305.388 207.396 305.659C187.422 318.837 174.502 313.572 167.321 305.788C163.904 302.063 161.735 297.811 160.666 294.636C159.542 291.383 157.528 289.33 155.374 288.068C151.75 293.607 149.428 299.85 148.499 306.271C147.864 310.64 147.966 315.07 148.617 319.462C150.716 320.647 152.777 322.435 154.675 325.146C159.935 332.659 169.773 343.083 181.771 342.415C186.302 342.128 191.166 340.338 196.239 336.209C198.454 334.427 200.615 332.568 202.698 330.763C214.586 320.707 225.25 312.201 235.537 315.848C235.761 313.036 235.699 310.31 235.451 307.483C234.931 303.114 233.807 298.707 231.956 294.579C225.604 295.564 217.751 298.524 208.48 304.9Z" fill="#FF77E6"/>
<path d="M219.731 278.439C216.818 276.093 213.704 274.118 210.389 272.515C208.383 273.112 206.508 273.732 204.797 274.584C193.636 279.744 187.836 288.768 180.563 288.436C173.421 288.127 168.618 281.103 166.263 276.75C161.903 279.919 158.24 283.753 155.452 288.014C157.605 289.276 159.643 291.197 160.743 294.581C161.812 297.757 163.982 302.009 167.398 305.734C174.633 313.595 187.499 318.782 207.473 305.604C207.86 305.333 208.17 305.116 208.558 304.845C217.828 298.469 225.682 295.509 232.087 294.602C230.979 292.031 229.585 289.545 227.903 287.144C225.44 283.79 222.698 280.863 219.731 278.439Z" fill="#4BC17E"/>
<path d="M180.715 269.863C175.867 271.18 171.142 273.334 166.805 276.371C166.65 276.479 166.418 276.642 166.263 276.75C168.618 281.103 173.499 288.073 180.563 288.436C187.968 288.792 193.713 279.69 204.797 274.584C206.563 273.809 208.383 273.112 210.389 272.515C201.163 268.241 190.621 267.197 180.715 269.863Z" fill="#FFCA49"/>
<path d="M212.39 293.505C215.078 294.047 216.868 296.602 216.457 299.313C215.467 306.47 212.293 320.235 202.303 327.23C192.389 334.172 178.37 332.446 171.228 330.983C168.54 330.442 166.751 327.886 167.161 325.175C168.151 318.018 171.325 304.254 181.316 297.258C191.306 290.262 205.326 291.988 212.39 293.505Z" fill="white"/>
<path d="M200.404 324.52C207.163 319.788 208.805 310.473 204.073 303.715C199.341 296.957 190.026 295.314 183.268 300.046C176.51 304.778 174.867 314.093 179.599 320.851C184.331 327.609 193.646 329.252 200.404 324.52Z" fill="#010101"/>
<path d="M125.567 325.444L126.582 325.08L125.97 325.855C122.779 329.705 122.168 335.096 124.291 339.611L127.592 346.303L122.432 340.913C118.993 337.319 113.718 336.05 108.931 337.785L107.994 338.095L108.683 337.266C111.874 333.416 112.594 328.18 110.393 323.719L107.666 318.011L112.097 322.526C115.769 325.957 120.99 327.149 125.567 325.444Z" fill="#FFCA49"/>
<path d="M196.129 380.722L196.935 380.389L196.423 380.978C193.922 383.999 193.365 388.313 195.124 391.814L197.789 397.104L193.73 392.79C191.042 389.94 186.797 388.988 183.102 390.305L182.374 390.584L182.963 389.941C185.464 386.92 185.998 382.737 184.317 379.182L182.194 374.667L185.711 378.206C188.322 381.11 192.435 382.039 196.129 380.722Z" fill="#FFCA49"/>
<path d="M260.378 263.136L261.392 262.772L260.78 263.546C257.59 267.396 256.979 272.787 259.102 277.303L262.402 283.994L257.243 278.604C253.803 275.011 248.528 273.741 243.742 275.477L242.805 275.787L243.494 274.958C246.685 271.108 247.404 265.872 245.204 261.411L242.477 255.703L246.908 260.218C250.502 263.703 255.723 264.895 260.378 263.136Z" fill="#FFCA49"/>
<path d="M232.213 251.924C233.411 251.086 233.702 249.435 232.863 248.237C232.025 247.04 230.374 246.749 229.176 247.587C227.979 248.426 227.688 250.077 228.526 251.274C229.365 252.472 231.016 252.763 232.213 251.924Z" fill="#FFCA49"/>
<path d="M139.977 348.826C141.175 347.988 141.466 346.337 140.627 345.139C139.789 343.942 138.138 343.651 136.94 344.489C135.742 345.328 135.451 346.978 136.29 348.176C137.129 349.374 138.779 349.665 139.977 348.826Z" fill="#FFCA49"/>
<path d="M142.158 272.16C143.356 271.322 143.647 269.671 142.809 268.473C141.97 267.276 140.319 266.985 139.122 267.823C137.924 268.662 137.633 270.313 138.471 271.51C139.31 272.708 140.961 272.999 142.158 272.16Z" fill="#FFCA49"/>
<path d="M197.358 309.455C199.711 307.808 200.283 304.566 198.635 302.213C196.988 299.861 193.746 299.289 191.393 300.936C189.041 302.583 188.469 305.826 190.116 308.178C191.763 310.531 195.006 311.103 197.358 309.455Z" fill="white"/>
</svg>
