<svg width="500" height="500" viewBox="0 0 500 500" fill="none" xmlns="http://www.w3.org/2000/svg">
<rect width="500" height="500" fill="#E1E2CF"/>
<path d="M206.965 117.109C206.017 113.573 208.116 109.939 211.651 108.992L277.501 91.3476C281.036 90.4002 284.67 92.4983 285.618 96.0338L313.845 201.38C314.793 204.915 312.694 208.549 309.159 209.497L243.309 227.141C239.774 228.088 236.14 225.99 235.192 222.455L206.965 117.109Z" fill="white"/>
<path fill-rule="evenodd" clip-rule="evenodd" d="M210.889 106.147C205.782 107.515 202.751 112.764 204.12 117.871L232.347 223.217C233.715 228.324 238.965 231.354 244.071 229.986L315.612 210.817C320.718 209.448 323.749 204.199 322.381 199.093L294.153 93.7465C292.785 88.6397 287.536 85.6091 282.429 86.9775L210.889 106.147ZM211.651 108.992C208.116 109.939 206.017 113.573 206.965 117.109L235.192 222.455C236.139 225.99 239.773 228.088 243.309 227.141L309.159 209.496C309.685 209.355 310.179 209.155 310.636 208.904C313.251 207.47 314.652 204.389 313.845 201.38L285.618 96.0336C284.811 93.0242 282.058 91.0562 279.076 91.1214C278.555 91.1329 278.027 91.2064 277.501 91.3473L211.651 108.992Z" fill="black"/>
<path d="M217.75 122.484C216.885 119.256 218.801 115.938 222.029 115.073V115.073C225.257 114.209 228.574 116.124 229.439 119.352L231.789 128.12C232.653 131.347 230.738 134.665 227.51 135.53V135.53C224.282 136.395 220.965 134.479 220.1 131.252L217.75 122.484Z" fill="white"/>
<path fill-rule="evenodd" clip-rule="evenodd" d="M228.943 128.882L226.594 120.114C226.15 118.458 224.448 117.475 222.791 117.919C221.135 118.362 220.152 120.065 220.595 121.721L222.945 130.489C223.389 132.146 225.091 133.129 226.748 132.685C228.404 132.241 229.387 130.538 228.943 128.882ZM222.029 115.073C218.801 115.938 216.885 119.256 217.75 122.484L220.1 131.252C220.965 134.479 224.282 136.395 227.51 135.53C230.738 134.665 232.653 131.347 231.789 128.12L229.439 119.352C228.574 116.124 225.257 114.209 222.029 115.073Z" fill="black"/>
<path fill-rule="evenodd" clip-rule="evenodd" d="M224.166 129.301C221.795 127.932 219.559 129.214 218.609 130.378C218.094 131.007 217.167 131.101 216.537 130.586C215.907 130.072 215.813 129.144 216.328 128.514C217.77 126.749 221.516 124.37 225.639 126.75C226.221 127.086 226.742 127.427 227.159 127.699C227.34 127.817 227.5 127.922 227.638 128.008C228.134 128.319 228.466 128.483 228.832 128.575C229.598 128.767 230.838 128.722 234.098 127.849C234.884 127.638 235.691 128.104 235.902 128.89C236.112 129.676 235.646 130.483 234.861 130.694C231.63 131.559 229.705 131.83 228.117 131.432C227.305 131.229 226.663 130.874 226.073 130.503C225.855 130.367 225.654 130.235 225.452 130.103C225.069 129.853 224.682 129.599 224.166 129.301Z" fill="black"/>
<path fill-rule="evenodd" clip-rule="evenodd" d="M234.994 113.351C234.889 112.959 235.122 112.555 235.515 112.45L276.636 101.431C277.029 101.326 277.432 101.559 277.538 101.952C277.643 102.345 277.41 102.748 277.017 102.854L235.896 113.872C235.503 113.977 235.099 113.744 234.994 113.351Z" fill="black"/>
<path fill-rule="evenodd" clip-rule="evenodd" d="M242.989 216.795C242.884 216.402 243.117 215.999 243.51 215.893L303.032 199.944C303.425 199.839 303.829 200.072 303.934 200.465C304.039 200.858 303.806 201.262 303.413 201.367L243.891 217.316C243.498 217.421 243.094 217.188 242.989 216.795Z" fill="black"/>
<path fill-rule="evenodd" clip-rule="evenodd" d="M225.336 158.184C227.844 159.388 230.809 158.367 232.01 155.857L232.556 154.923C232.658 154.749 232.881 154.69 233.056 154.789L233.996 155.325C236.291 156.898 239.433 156.282 241.003 153.986C242.574 151.69 241.959 148.031 239.329 145.736C237.563 144.193 233.297 141.645 230.688 140.139C229.489 139.447 227.971 139.851 227.274 141.048C225.755 143.659 223.312 148.01 222.552 150.231C221.423 153.534 222.827 156.981 225.336 158.184Z" fill="black"/>
<path fill-rule="evenodd" clip-rule="evenodd" d="M229.406 154.475L229.353 154.586C228.865 155.606 227.672 156.038 226.61 155.528C225.655 155.07 224.615 153.303 225.339 151.184C225.954 149.388 228.042 145.604 229.598 142.912C232.278 144.468 235.959 146.704 237.392 147.955C239.156 149.495 239.119 151.524 238.572 152.323C237.904 153.3 236.59 153.532 235.662 152.895L235.561 152.826L234.514 152.23C232.937 151.332 230.931 151.869 230.014 153.436L229.406 154.475ZM232.01 155.857C230.809 158.367 227.844 159.388 225.336 158.184C222.827 156.981 221.423 153.534 222.552 150.231C223.312 148.01 225.755 143.659 227.274 141.048C227.971 139.851 229.489 139.447 230.688 140.139C233.297 141.645 237.563 144.193 239.329 145.736C241.959 148.031 242.574 151.69 241.003 153.986C239.433 156.282 236.291 156.898 233.996 155.325L233.056 154.789C232.881 154.69 232.658 154.749 232.556 154.923L232.01 155.857Z" fill="black"/>
<path fill-rule="evenodd" clip-rule="evenodd" d="M232.43 153.454C233.216 153.243 234.023 153.709 234.234 154.495L235.52 159.296C235.731 160.082 235.265 160.889 234.479 161.1C233.693 161.31 232.886 160.844 232.675 160.058L231.389 155.257C231.178 154.472 231.644 153.664 232.43 153.454Z" fill="black"/>
<path d="M252.876 123.243C252.876 119.582 255.844 116.615 259.504 116.615H327.677C331.337 116.615 334.304 119.582 334.304 123.243V232.305C334.304 235.965 331.337 238.932 327.677 238.932H259.504C255.844 238.932 252.876 235.965 252.876 232.305V123.243Z" fill="white"/>
<path fill-rule="evenodd" clip-rule="evenodd" d="M259.504 113.67C254.217 113.67 249.931 117.956 249.931 123.243V232.305C249.931 237.592 254.217 241.878 259.504 241.878H333.568C338.855 241.878 343.141 237.592 343.141 232.305V123.243C343.141 117.956 338.855 113.67 333.568 113.67H259.504ZM259.504 116.615C255.844 116.615 252.877 119.583 252.877 123.243V232.305C252.877 235.965 255.844 238.932 259.504 238.932H327.677C328.221 238.932 328.751 238.867 329.257 238.743C332.154 238.034 334.304 235.421 334.304 232.305V123.243C334.304 120.127 332.154 117.514 329.257 116.805C328.751 116.681 328.221 116.615 327.677 116.615H259.504Z" fill="black"/>
<path d="M262.948 132.919C262.948 129.577 265.657 126.868 268.999 126.868V126.868C272.34 126.868 275.049 129.577 275.049 132.919V141.996C275.049 145.338 272.34 148.046 268.999 148.046V148.046C265.657 148.046 262.948 145.338 262.948 141.996V132.919Z" fill="white"/>
<path fill-rule="evenodd" clip-rule="evenodd" d="M272.104 141.996V132.919C272.104 131.204 270.714 129.814 268.999 129.814C267.284 129.814 265.894 131.204 265.894 132.919V141.996C265.894 143.711 267.284 145.101 268.999 145.101C270.714 145.101 272.104 143.711 272.104 141.996ZM268.999 126.868C265.657 126.868 262.948 129.577 262.948 132.919V141.996C262.948 145.338 265.657 148.046 268.999 148.046C272.34 148.046 275.049 145.338 275.049 141.996V132.919C275.049 129.577 272.34 126.868 268.999 126.868Z" fill="black"/>
<path fill-rule="evenodd" clip-rule="evenodd" d="M267.38 141.164C265.445 139.228 262.953 139.888 261.734 140.766C261.074 141.241 260.154 141.091 259.679 140.431C259.203 139.771 259.353 138.851 260.013 138.375C261.863 137.044 266.097 135.715 269.463 139.081C269.938 139.557 270.354 140.02 270.687 140.392C270.83 140.552 270.958 140.695 271.069 140.814C271.467 141.242 271.746 141.487 272.075 141.67C272.766 142.054 273.975 142.332 277.35 142.332C278.164 142.332 278.823 142.991 278.823 143.805C278.823 144.618 278.164 145.277 277.35 145.277C274.006 145.277 272.077 145.04 270.645 144.245C269.914 143.839 269.386 143.33 268.912 142.819C268.736 142.631 268.576 142.452 268.415 142.271C268.11 141.931 267.802 141.586 267.38 141.164Z" fill="black"/>
<path fill-rule="evenodd" clip-rule="evenodd" d="M280.923 126.868C280.923 126.462 281.253 126.132 281.659 126.132L324.231 126.132C324.638 126.132 324.968 126.462 324.968 126.868C324.968 127.275 324.638 127.605 324.231 127.605L281.659 127.605C281.253 127.605 280.923 127.275 280.923 126.868Z" fill="black"/>
<path fill-rule="evenodd" clip-rule="evenodd" d="M261.136 228.856C261.136 228.043 261.795 227.384 262.609 227.384L324.231 227.384C325.045 227.384 325.704 228.043 325.704 228.856C325.704 229.67 325.045 230.329 324.231 230.329L262.609 230.329C261.795 230.329 261.136 229.67 261.136 228.856Z" fill="black"/>
<path d="M277.44 162.37C275.64 164.985 271.763 170.365 270.008 172.793C269.566 173.403 268.661 173.402 268.222 172.789C266.48 170.359 262.636 164.982 260.843 162.368C260.578 161.982 260.591 161.473 260.87 161.097L268.229 151.195C268.669 150.602 269.557 150.6 270 151.192L277.411 161.097C277.692 161.472 277.706 161.983 277.44 162.37Z" fill="#F24822"/>
<path fill-rule="evenodd" clip-rule="evenodd" d="M277.44 162.37C277.706 161.983 277.692 161.472 277.411 161.097L270 151.192C269.557 150.6 268.669 150.602 268.229 151.195L260.87 161.097C260.591 161.473 260.578 161.982 260.843 162.368C262.636 164.982 266.48 170.359 268.222 172.789C268.661 173.402 269.566 173.403 270.008 172.793C271.763 170.365 275.64 164.985 277.44 162.37ZM274.254 161.793L269.12 154.933L264.025 161.79C265.455 163.841 267.521 166.745 269.122 168.986C270.735 166.747 272.816 163.845 274.254 161.793Z" fill="#F24822"/>
<path d="M302.457 147.227C304.287 144.057 308.34 142.971 311.51 144.801L370.549 178.887C373.719 180.718 374.805 184.771 372.975 187.941L318.444 282.391C316.614 285.561 312.561 286.647 309.391 284.817L250.351 250.731C247.182 248.9 246.096 244.847 247.926 241.677L302.457 147.227Z" fill="white"/>
<path fill-rule="evenodd" clip-rule="evenodd" d="M312.983 142.25C308.404 139.607 302.549 141.176 299.906 145.754L245.375 240.205C242.731 244.783 244.3 250.638 248.879 253.282L313.02 290.314C317.598 292.957 323.453 291.388 326.097 286.81L380.628 192.359C383.271 187.78 381.702 181.926 377.124 179.282L312.983 142.25ZM311.51 144.801C308.34 142.971 304.287 144.057 302.457 147.227L247.926 241.678C246.096 244.847 247.182 248.901 250.351 250.731L309.391 284.817C309.862 285.089 310.354 285.297 310.854 285.443C313.718 286.278 316.886 285.09 318.444 282.391L372.975 187.941C374.533 185.243 373.978 181.904 371.823 179.842C371.446 179.481 371.021 179.16 370.549 178.888L311.51 144.801Z" fill="black"/>
<path d="M306.341 159.968C308.011 157.074 311.712 156.083 314.606 157.754V157.754C317.5 159.424 318.491 163.125 316.821 166.019L312.282 173.88C310.611 176.774 306.911 177.765 304.017 176.095V176.095C301.123 174.424 300.131 170.723 301.802 167.829L306.341 159.968Z" fill="white"/>
<path fill-rule="evenodd" clip-rule="evenodd" d="M309.731 172.407L314.27 164.546C315.127 163.061 314.618 161.162 313.133 160.304C311.648 159.447 309.749 159.956 308.891 161.441L304.353 169.302C303.495 170.787 304.004 172.686 305.489 173.544C306.975 174.401 308.874 173.892 309.731 172.407ZM314.606 157.754C311.712 156.083 308.011 157.074 306.341 159.968L301.802 167.829C300.131 170.723 301.123 174.424 304.017 176.095C306.911 177.765 310.611 176.774 312.282 173.88L316.821 166.019C318.491 163.125 317.5 159.424 314.606 157.754Z" fill="black"/>
<path fill-rule="evenodd" clip-rule="evenodd" d="M306.056 169.325C305.348 166.681 302.861 166.006 301.366 166.157C300.557 166.239 299.835 165.649 299.753 164.839C299.672 164.03 300.262 163.308 301.071 163.226C303.338 162.998 307.67 163.965 308.902 168.563C309.076 169.212 309.204 169.821 309.306 170.309C309.35 170.52 309.39 170.707 309.426 170.866C309.557 171.436 309.676 171.788 309.869 172.111C310.276 172.788 311.184 173.634 314.107 175.321C314.811 175.728 315.053 176.629 314.646 177.333C314.239 178.038 313.338 178.279 312.634 177.872C309.738 176.2 308.186 175.03 307.343 173.626C306.913 172.908 306.711 172.203 306.555 171.524C306.498 171.273 306.448 171.038 306.399 170.801C306.305 170.354 306.211 169.901 306.056 169.325Z" fill="black"/>
<path fill-rule="evenodd" clip-rule="evenodd" d="M325.363 164.022C325.566 163.67 326.017 163.549 326.369 163.752L363.237 185.038C363.589 185.242 363.71 185.692 363.507 186.044C363.303 186.396 362.853 186.517 362.501 186.314L325.633 165.028C325.28 164.825 325.16 164.374 325.363 164.022Z" fill="black"/>
<path fill-rule="evenodd" clip-rule="evenodd" d="M257.871 242.821C258.074 242.469 258.524 242.348 258.876 242.551L312.243 273.363C312.595 273.566 312.716 274.016 312.513 274.368C312.309 274.721 311.859 274.841 311.507 274.638L258.14 243.827C257.788 243.623 257.667 243.173 257.871 242.821Z" fill="black"/>
<path fill-rule="evenodd" clip-rule="evenodd" d="M294.482 176.681C297.217 176.168 299.817 177.921 300.327 180.656L300.613 181.699C300.666 181.894 300.866 182.009 301.061 181.958L302.108 181.684C304.732 180.759 307.607 182.167 308.53 184.791C309.452 187.416 307.911 190.79 304.777 192.327C302.759 193.317 297.798 195.446 294.522 196.836C292.958 197.499 291.2 196.488 290.988 194.802C290.542 191.264 289.888 185.887 289.736 183.643C289.5 180.16 291.748 177.194 294.482 176.681Z" fill="#F24822"/>
<path fill-rule="evenodd" clip-rule="evenodd" d="M297.454 181.317L297.431 181.196C297.224 180.085 296.184 179.358 295.026 179.576C293.985 179.771 292.523 181.209 292.674 183.443C292.813 185.483 293.401 190.372 293.846 193.923C297.13 192.527 301.642 190.584 303.481 189.682C305.583 188.651 306.072 186.682 305.751 185.768C305.359 184.652 304.149 184.088 303.088 184.462L302.972 184.503L301.807 184.808C300.051 185.267 298.252 184.229 297.772 182.478L297.454 181.317ZM300.327 180.656C299.817 177.921 297.217 176.168 294.482 176.681C291.748 177.194 289.5 180.16 289.736 183.643C289.888 185.887 290.542 191.264 290.988 194.802C291.2 196.488 292.958 197.499 294.522 196.836C297.798 195.446 302.759 193.317 304.777 192.327C307.911 190.79 309.452 187.416 308.53 184.791C307.607 182.167 304.732 180.759 302.108 181.684L301.061 181.958C300.866 182.009 300.666 181.894 300.613 181.699L300.327 180.656Z" fill="#F24822"/>
<path fill-rule="evenodd" clip-rule="evenodd" d="M298.989 207.816C303.616 206.947 308.017 209.914 308.88 214.543L309.431 216.552C309.485 216.747 309.685 216.862 309.88 216.811L311.895 216.284C316.336 214.717 321.202 217.1 322.764 221.542C324.325 225.984 321.717 231.696 316.413 234.297C312.515 236.208 302.132 240.63 296.902 242.84C295.337 243.501 293.584 242.493 293.368 240.807C292.648 235.164 291.249 223.932 290.955 219.598C290.555 213.704 294.361 208.684 298.989 207.816Z" fill="#A5B7DF"/>
<path fill-rule="evenodd" clip-rule="evenodd" d="M306.007 215.204L305.985 215.084C305.424 212.078 302.584 210.138 299.532 210.711C296.598 211.261 293.579 214.753 293.893 219.399C294.172 223.501 295.485 234.11 296.226 239.928C301.615 237.648 311.421 233.464 315.116 231.652C319.389 229.557 320.945 225.251 319.985 222.519C318.954 219.585 315.753 218.046 312.875 219.062L312.759 219.102L310.625 219.661C308.87 220.12 307.071 219.082 306.591 217.331L306.007 215.204ZM298.989 207.816C294.361 208.684 290.555 213.704 290.955 219.598C291.249 223.932 292.648 235.164 293.368 240.807C293.584 242.493 295.337 243.501 296.902 242.84C302.132 240.63 312.515 236.208 316.413 234.297C321.717 231.696 324.325 225.984 322.764 221.542C321.202 217.1 316.336 214.717 311.895 216.284L309.88 216.811C309.685 216.862 309.485 216.747 309.431 216.552L308.88 214.543C308.017 209.914 303.616 206.947 298.989 207.816Z" fill="black"/>
<path fill-rule="evenodd" clip-rule="evenodd" d="M313.885 220.736C314.22 219.995 315.092 219.665 315.834 220C317.199 220.616 318.218 221.616 318.669 222.922C319.116 224.221 318.928 225.612 318.294 226.88C317.93 227.607 317.045 227.902 316.318 227.538C315.59 227.174 315.296 226.289 315.66 225.562C316.016 224.85 316.023 224.285 315.884 223.882C315.747 223.485 315.397 223.035 314.622 222.685C313.88 222.35 313.551 221.478 313.885 220.736Z" fill="white"/>
<path fill-rule="evenodd" clip-rule="evenodd" d="M313.739 229.202C314.075 229.943 313.747 230.816 313.006 231.152L306.839 233.947C306.098 234.283 305.225 233.954 304.889 233.213C304.553 232.473 304.882 231.6 305.623 231.264L311.79 228.469C312.531 228.133 313.403 228.461 313.739 229.202Z" fill="white"/>
<rect x="25" y="25" width="450" height="450" rx="20" stroke="#9C9F60" stroke-width="10"/>
<path fill-rule="evenodd" clip-rule="evenodd" d="M212.959 129.3C213.806 129.3 214.493 129.987 214.493 130.835L214.493 200.672C214.493 201.52 213.806 202.207 212.959 202.207C212.111 202.207 211.424 201.52 211.424 200.672L211.424 130.835C211.424 129.987 212.111 129.3 212.959 129.3Z" fill="black"/>
<path fill-rule="evenodd" clip-rule="evenodd" d="M202.14 138.217C202.714 137.593 203.684 137.553 204.308 138.127C204.543 138.344 205.054 138.63 206.032 138.937C206.978 139.235 208.203 139.506 209.724 139.787C211.053 140.032 212.564 140.277 214.261 140.552C214.5 140.591 214.743 140.63 214.989 140.67C216.978 140.993 219.191 141.358 221.597 141.805C223.844 142.223 226.293 143.881 226.943 146.344C227.287 147.647 227.08 149.048 226.221 150.363C225.388 151.639 223.983 152.778 222.003 153.768C218.937 155.3 216.074 156.806 213.704 158.252C211.304 159.718 209.541 161.047 208.568 162.196C208.086 162.766 207.888 163.189 207.83 163.468C207.785 163.686 207.81 163.859 207.963 164.083C208.152 164.359 208.574 164.751 209.441 165.19C210.295 165.623 211.487 166.055 213.091 166.463C215.869 167.171 218.03 167.964 219.639 168.837C221.23 169.699 222.419 170.711 223.049 171.926C223.721 173.223 223.657 174.561 223.099 175.754C222.572 176.88 221.628 177.843 220.559 178.645C219.268 179.614 217.776 180.52 216.39 181.361C215.979 181.61 215.577 181.854 215.192 182.092C213.424 183.188 212.035 184.155 211.22 185.139C210.831 185.609 210.631 186.018 210.556 186.381C210.485 186.723 210.504 187.126 210.725 187.644C211.204 188.771 212.6 190.358 215.772 192.471C216.477 192.941 216.668 193.894 216.198 194.599C215.728 195.305 214.776 195.495 214.07 195.026C210.789 192.84 208.747 190.836 207.901 188.846C207.458 187.806 207.342 186.768 207.55 185.759C207.755 184.77 208.249 183.916 208.856 183.183C210.033 181.76 211.843 180.557 213.576 179.483C214.017 179.21 214.456 178.944 214.89 178.68C216.249 177.855 217.559 177.06 218.717 176.191C219.579 175.544 220.09 174.944 220.319 174.453C220.517 174.03 220.512 173.7 220.324 173.338C220.094 172.893 219.504 172.254 218.177 171.535C216.869 170.826 214.972 170.109 212.334 169.437C210.602 168.996 209.177 168.497 208.053 167.927C206.941 167.363 206.023 166.68 205.433 165.819C204.806 164.906 204.61 163.88 204.825 162.846C205.026 161.873 205.568 160.991 206.226 160.214C207.534 158.668 209.654 157.129 212.105 155.633C214.587 154.117 217.544 152.566 220.631 151.023C222.323 150.177 223.217 149.349 223.651 148.685C224.059 148.061 224.087 147.55 223.976 147.127C223.715 146.139 222.492 145.093 221.036 144.822C218.667 144.382 216.481 144.021 214.497 143.699C214.252 143.659 214.01 143.62 213.771 143.581C212.079 143.307 210.532 143.056 209.167 142.805C207.615 142.518 206.241 142.22 205.111 141.865C204.014 141.52 202.973 141.07 202.229 140.385C201.606 139.811 201.566 138.84 202.14 138.217Z" fill="white"/>
<path fill-rule="evenodd" clip-rule="evenodd" d="M202.951 140.856C203.55 140.257 204.521 140.257 205.121 140.856C205.318 141.053 205.758 141.326 206.637 141.626C207.488 141.916 208.596 142.183 209.983 142.461C211.195 142.704 212.572 142.946 214.124 143.22C214.343 143.258 214.564 143.297 214.79 143.337C216.608 143.658 218.633 144.02 220.835 144.465C222.984 144.899 225.224 146.596 225.809 149.004C226.115 150.263 225.936 151.625 225.154 152.925C224.391 154.194 223.096 155.338 221.263 156.333C218.463 157.853 215.851 159.345 213.691 160.777C211.503 162.228 209.902 163.539 209.02 164.672C208.583 165.232 208.395 165.657 208.339 165.955C208.291 166.203 208.324 166.401 208.467 166.628C208.637 166.897 209.011 167.274 209.783 167.699C210.547 168.12 211.621 168.543 213.076 168.946C215.627 169.652 217.62 170.446 219.108 171.322C220.586 172.191 221.68 173.208 222.254 174.412C222.858 175.676 222.801 176.969 222.299 178.134C221.82 179.244 220.956 180.206 219.966 181.013C218.347 182.333 216.326 183.347 214.556 184.216C214.456 184.265 214.358 184.313 214.26 184.361C212.53 185.21 211.117 185.903 210.172 186.659C209.692 187.043 209.451 187.356 209.342 187.597C209.255 187.792 209.221 188.006 209.323 188.336C209.578 189.161 210.633 190.556 213.567 192.678C214.253 193.175 214.407 194.135 213.91 194.821C213.414 195.508 212.454 195.662 211.768 195.165C208.803 193.019 206.969 191.115 206.39 189.242C206.076 188.223 206.139 187.238 206.543 186.338C206.927 185.485 207.572 184.809 208.255 184.263C209.477 183.284 211.191 182.446 212.793 181.662C212.931 181.595 213.068 181.528 213.204 181.461C215.012 180.573 216.72 179.699 218.027 178.634C218.803 178.002 219.268 177.412 219.481 176.919C219.67 176.479 219.667 176.116 219.484 175.733C219.272 175.288 218.741 174.667 217.552 173.967C216.374 173.273 214.658 172.568 212.258 171.904C210.665 171.463 209.346 170.962 208.303 170.388C207.266 169.817 206.416 169.127 205.873 168.267C205.303 167.366 205.134 166.373 205.324 165.379C205.505 164.434 205.992 163.564 206.599 162.786C207.8 161.244 209.749 159.709 211.995 158.219C214.27 156.711 216.976 155.168 219.799 153.635C221.323 152.808 222.13 151.999 222.525 151.343C222.901 150.718 222.937 150.182 222.827 149.728C222.579 148.71 221.463 147.722 220.228 147.473C218.065 147.037 216.07 146.679 214.256 146.359C214.033 146.32 213.812 146.281 213.593 146.242C212.047 145.97 210.63 145.721 209.38 145.47C207.958 145.185 206.691 144.887 205.645 144.53C204.627 144.182 203.649 143.724 202.951 143.026C202.351 142.427 202.351 141.455 202.951 140.856Z" fill="black"/>
<path d="M228.207 207.061C228.207 215.535 221.337 222.405 212.863 222.405C204.388 222.405 197.518 215.535 197.518 207.061C197.518 198.586 204.388 191.716 212.863 191.716C221.337 191.716 228.207 198.586 228.207 207.061Z" fill="black"/>
<path d="M306.562 294.275C306.562 345.971 264.654 387.879 212.959 387.879C161.263 387.879 119.355 345.971 119.355 294.275C119.355 242.58 161.263 200.672 212.959 200.672C264.654 200.672 306.562 242.58 306.562 294.275Z" fill="#EBF0FD"/>
<path d="M267.049 356.294V333.661L288.34 328.29L286.85 350.649L267.049 356.294Z" fill="#3F4C6F"/>
<path d="M138.153 349.18V326.546L159.444 321.176V343.426L138.153 349.18Z" fill="#3F4C6F"/>
<path d="M224.275 386.339V369.46L245.566 364.089V380.733L224.275 386.339Z" fill="#3F4C6F"/>
<path d="M246.142 228.677V208.104L258.034 213.858L269.351 222.49L246.142 228.677Z" fill="#A5B7DF"/>
<path d="M180.735 225.405V207.25L202.026 202.941V220.789L180.735 225.405Z" fill="#A5B7DF"/>
<path d="M120.96 307.539V286.1L138.343 281.012V302.089L120.96 307.539Z" fill="#A5B7DF"/>
<path d="M283.112 309.017V286.383L304.403 281.012V303.262L283.112 309.017Z" fill="#A5B7DF"/>
<path d="M180.926 380.159L167.691 374.02L159.635 369.8V364.17L180.926 359.083V380.159Z" fill="#A5B7DF"/>
<path fill-rule="evenodd" clip-rule="evenodd" d="M212.959 384.81C262.959 384.81 303.493 344.276 303.493 294.275C303.493 244.275 262.959 203.741 212.959 203.741C162.958 203.741 122.424 244.275 122.424 294.275C122.424 344.276 162.958 384.81 212.959 384.81ZM212.959 387.879C264.654 387.879 306.562 345.971 306.562 294.275C306.562 242.58 264.654 200.672 212.959 200.672C161.263 200.672 119.355 242.58 119.355 294.275C119.355 345.971 161.263 387.879 212.959 387.879Z" fill="black"/>
<path d="M159.635 341.796V319.162L180.926 313.791V336.041L159.635 341.796Z" fill="#A5B7DF"/>
<path d="M180.735 313.382V290.748L202.026 285.377V307.627L180.735 313.382Z" fill="#A5B7DF"/>
<path d="M202.409 263.384V240.75L223.7 235.379V257.629L202.409 263.384Z" fill="#A5B7DF"/>
<path d="M137.769 281.012V258.378L159.06 253.008V275.258L137.769 281.012Z" fill="#A5B7DF"/>
<path d="M266.192 313.382V290.748L287.483 285.377V307.627L266.192 313.382Z" fill="#A5B7DF"/>
<path d="M245.566 274.123V251.49L266.857 246.119V268.369L245.566 274.123Z" fill="#A5B7DF"/>
<path d="M245.566 363.182V340.549L266.857 335.178V357.428L245.566 363.182Z" fill="#A5B7DF"/>
<path d="M202.409 375.334V352.701L223.7 347.33V369.58L202.409 375.334Z" fill="#A5B7DF"/>
<path d="M180.735 381.02V358.387L202.026 353.016V375.266L180.735 381.02Z" fill="#3F4C6F"/>
<path d="M223.988 347.646V325.012L245.279 319.642V341.892L223.988 347.646Z" fill="#3F4C6F"/>
<path d="M223.988 303.198V280.565L245.279 275.194V297.444L223.988 303.198Z" fill="#3F4C6F"/>
<path d="M266.953 336.356V313.723L288.244 308.352V330.602L266.953 336.356Z" fill="#3F4C6F"/>
<path d="M202.984 331.202V308.568L224.275 303.198V325.448L202.984 331.202Z" fill="#7C8EBE"/>
<path d="M267.433 291.388V268.754L288.724 263.384V285.634L267.433 291.388Z" fill="#7C8EBE"/>
<path d="M159.635 254.009V231.375L180.926 226.005V248.255L159.635 254.009Z" fill="#7C8EBE"/>
<path d="M179.967 270.44V247.806L201.258 242.436V264.686L179.967 270.44Z" fill="#7C8EBE"/>
<path d="M158.868 297.902V275.269L180.159 269.898V292.148L158.868 297.902Z" fill="#7C8EBE"/>
<path d="M180.159 359.207V336.573L201.45 331.202V353.452L180.159 359.207Z" fill="#7C8EBE"/>
<path d="M245.183 253.008V230.374L266.474 225.003V247.253L245.183 253.008Z" fill="#3F4C6F"/>
<path d="M138.153 325.414V302.78L159.444 297.41V319.66L138.153 325.414Z" fill="#3F4C6F"/>
<path d="M159.635 275.749V253.116L180.926 247.745V269.995L159.635 275.749Z" fill="#3F4C6F"/>
<path d="M202.217 242.435V219.802L223.508 214.431V236.681L202.217 242.435Z" fill="#3F4C6F"/>
<path fill-rule="evenodd" clip-rule="evenodd" d="M137.769 239.944C138.616 239.944 139.303 240.631 139.303 241.479V347.33C139.303 348.177 138.616 348.864 137.769 348.864C136.921 348.864 136.234 348.177 136.234 347.33V241.479C136.234 240.631 136.921 239.944 137.769 239.944Z" fill="black"/>
<path fill-rule="evenodd" clip-rule="evenodd" d="M159.252 204.874C160.099 204.874 160.786 205.561 160.786 206.408V369.033C160.786 369.88 160.099 370.567 159.252 370.567C158.404 370.567 157.717 369.88 157.717 369.033V206.408C157.717 205.561 158.404 204.874 159.252 204.874Z" fill="black"/>
<path fill-rule="evenodd" clip-rule="evenodd" d="M180.734 206.953C181.582 206.953 182.269 207.64 182.269 208.487V380.158C182.269 381.005 181.582 381.692 180.734 381.692C179.887 381.692 179.2 381.005 179.2 380.158V208.487C179.2 207.64 179.887 206.953 180.734 206.953Z" fill="black"/>
<path fill-rule="evenodd" clip-rule="evenodd" d="M202.217 201.407C203.065 201.407 203.752 202.094 203.752 202.941V394.766C203.752 395.613 203.065 396.3 202.217 396.3C201.37 396.3 200.683 395.613 200.683 394.766V202.941C200.683 202.094 201.37 201.407 202.217 201.407Z" fill="black"/>
<path fill-rule="evenodd" clip-rule="evenodd" d="M223.7 201.407C224.548 201.407 225.235 202.094 225.235 202.941V385.61C225.235 386.457 224.548 387.144 223.7 387.144C222.853 387.144 222.166 386.457 222.166 385.61V202.941C222.166 202.094 222.853 201.407 223.7 201.407Z" fill="black"/>
<path fill-rule="evenodd" clip-rule="evenodd" d="M245.183 206.953C246.03 206.953 246.717 207.64 246.717 208.487V380.158C246.717 381.005 246.03 381.692 245.183 381.692C244.335 381.692 243.648 381.005 243.648 380.158V208.487C243.648 207.64 244.335 206.953 245.183 206.953Z" fill="black"/>
<path fill-rule="evenodd" clip-rule="evenodd" d="M266.665 218.27C267.513 218.27 268.2 218.957 268.2 219.805V369.033C268.2 369.88 267.513 370.567 266.665 370.567C265.818 370.567 265.131 369.88 265.131 369.033V219.805C265.131 218.957 265.818 218.27 266.665 218.27Z" fill="black"/>
<path fill-rule="evenodd" clip-rule="evenodd" d="M288.148 240.26C288.996 240.26 289.683 240.947 289.683 241.795V346.238C289.683 347.085 288.996 347.772 288.148 347.772C287.301 347.772 286.614 347.085 286.614 346.238V241.795C286.614 240.947 287.301 240.26 288.148 240.26Z" fill="black"/>
<path fill-rule="evenodd" clip-rule="evenodd" d="M245.978 207.586C246.198 208.404 245.712 209.246 244.893 209.465L142.649 236.861C141.83 237.081 140.989 236.595 140.769 235.776C140.55 234.958 141.036 234.116 141.854 233.897L244.099 206.501C244.917 206.281 245.759 206.767 245.978 207.586Z" fill="black"/>
<path fill-rule="evenodd" clip-rule="evenodd" d="M272.474 222.727C272.694 223.545 272.208 224.387 271.389 224.606L127.246 263.229C126.427 263.449 125.586 262.963 125.366 262.144C125.147 261.326 125.633 260.484 126.451 260.265L270.595 221.642C271.414 221.422 272.255 221.908 272.474 222.727Z" fill="black"/>
<path fill-rule="evenodd" clip-rule="evenodd" d="M288.966 240.549C289.185 241.367 288.699 242.209 287.881 242.428L122.06 286.859C121.241 287.079 120.4 286.593 120.18 285.774C119.961 284.956 120.447 284.114 121.266 283.895L287.086 239.464C287.905 239.244 288.746 239.73 288.966 240.549Z" fill="black"/>
<path fill-rule="evenodd" clip-rule="evenodd" d="M309.622 256.644C309.844 257.462 309.361 258.305 308.543 258.527L122.358 309.02C121.54 309.242 120.697 308.759 120.476 307.941C120.254 307.123 120.737 306.28 121.555 306.058L307.739 255.565C308.557 255.343 309.4 255.826 309.622 256.644Z" fill="black"/>
<path fill-rule="evenodd" clip-rule="evenodd" d="M305.443 280.615C305.662 281.434 305.176 282.275 304.358 282.494L127.914 329.772C127.095 329.992 126.254 329.506 126.034 328.687C125.815 327.869 126.301 327.027 127.12 326.808L303.564 279.53C304.382 279.311 305.224 279.796 305.443 280.615Z" fill="black"/>
<path fill-rule="evenodd" clip-rule="evenodd" d="M305.646 302.8C305.866 303.618 305.38 304.46 304.562 304.68L127.854 352.131C127.035 352.351 126.194 351.865 125.974 351.047C125.754 350.228 126.239 349.387 127.058 349.167L303.766 301.716C304.585 301.496 305.426 301.981 305.646 302.8Z" fill="black"/>
<path fill-rule="evenodd" clip-rule="evenodd" d="M300.275 326.481C300.494 327.299 300.009 328.141 299.19 328.36L155.046 366.983C154.228 367.203 153.386 366.717 153.167 365.898C152.948 365.08 153.433 364.238 154.252 364.019L298.396 325.396C299.214 325.176 300.056 325.662 300.275 326.481Z" fill="black"/>
<path fill-rule="evenodd" clip-rule="evenodd" d="M284.594 352.923C284.814 353.741 284.328 354.583 283.509 354.802L181.265 382.199C180.446 382.418 179.605 381.932 179.385 381.114C179.166 380.295 179.652 379.454 180.47 379.234L282.715 351.838C283.533 351.618 284.375 352.104 284.594 352.923Z" fill="black"/>
<path fill-rule="evenodd" clip-rule="evenodd" d="M153.925 311.136C154.455 311.136 154.885 311.566 154.885 312.095L154.885 336.168L186.288 327.856C186.8 327.72 187.325 328.025 187.46 328.537C187.596 329.049 187.291 329.574 186.779 329.71L155.134 338.086C154.039 338.376 152.966 337.55 152.966 336.417L152.966 312.095C152.966 311.566 153.396 311.136 153.925 311.136Z" fill="white"/>
<path fill-rule="evenodd" clip-rule="evenodd" d="M218.617 228.176C219.147 228.176 219.576 228.605 219.576 229.135L219.576 253.207L262.052 241.925C262.564 241.789 263.089 242.093 263.225 242.605C263.361 243.117 263.057 243.643 262.545 243.779L219.828 255.125C218.732 255.416 217.658 254.59 217.658 253.456L217.658 229.135C217.658 228.605 218.088 228.176 218.617 228.176Z" fill="white"/>
<path fill-rule="evenodd" clip-rule="evenodd" d="M153.925 303.511C154.455 303.511 154.885 303.94 154.885 304.47V307.539C154.885 308.069 154.455 308.498 153.925 308.498C153.396 308.498 152.966 308.069 152.966 307.539V304.47C152.966 303.94 153.396 303.511 153.925 303.511Z" fill="white"/>
<path fill-rule="evenodd" clip-rule="evenodd" d="M142.992 314.707C143.522 314.707 143.952 315.136 143.952 315.666V341.059C143.952 341.588 143.522 342.018 142.992 342.018C142.463 342.018 142.033 341.588 142.033 341.059V315.666C142.033 315.136 142.463 314.707 142.992 314.707Z" fill="white"/>
<path fill-rule="evenodd" clip-rule="evenodd" d="M208.426 312.479C208.956 312.479 209.385 312.908 209.385 313.438V323.135C209.385 323.665 208.956 324.094 208.426 324.094C207.896 324.094 207.467 323.665 207.467 323.135V313.438C207.467 312.908 207.896 312.479 208.426 312.479Z" fill="white"/>
<path fill-rule="evenodd" clip-rule="evenodd" d="M153.925 261.202C154.455 261.202 154.885 261.631 154.885 262.161V271.858C154.885 272.388 154.455 272.817 153.925 272.817C153.396 272.817 152.966 272.388 152.966 271.858V262.161C152.966 261.631 153.396 261.202 153.925 261.202Z" fill="white"/>
<path fill-rule="evenodd" clip-rule="evenodd" d="M197.083 342.785C197.613 342.785 198.042 343.214 198.042 343.744V379.804C198.042 380.334 197.613 380.763 197.083 380.763C196.553 380.763 196.124 380.334 196.124 379.804V343.744C196.124 343.214 196.553 342.785 197.083 342.785Z" fill="white"/>
<path fill-rule="evenodd" clip-rule="evenodd" d="M228.732 337.031C229.261 337.031 229.691 337.46 229.691 337.99V341.059C229.691 341.588 229.261 342.018 228.732 342.018C228.202 342.018 227.772 341.588 227.772 341.059V337.99C227.772 337.46 228.202 337.031 228.732 337.031Z" fill="white"/>
<path fill-rule="evenodd" clip-rule="evenodd" d="M261.723 350.649C262.253 350.649 262.682 351.078 262.682 351.608V354.677C262.682 355.207 262.253 355.636 261.723 355.636C261.193 355.636 260.764 355.207 260.764 354.677V351.608C260.764 351.078 261.193 350.649 261.723 350.649Z" fill="white"/>
<path fill-rule="evenodd" clip-rule="evenodd" d="M261.723 319.768C262.253 319.768 262.682 320.197 262.682 320.727V347.406C262.682 347.936 262.253 348.365 261.723 348.365C261.193 348.365 260.764 347.936 260.764 347.406V320.727C260.764 320.197 261.193 319.768 261.723 319.768Z" fill="white"/>
<path fill-rule="evenodd" clip-rule="evenodd" d="M283.112 296.463C283.642 296.463 284.071 296.892 284.071 297.422V303.068C284.071 303.848 283.548 304.531 282.795 304.735L276.263 306.5C275.752 306.638 275.225 306.335 275.087 305.824C274.949 305.313 275.251 304.786 275.763 304.648L282.153 302.921V297.422C282.153 296.892 282.582 296.463 283.112 296.463Z" fill="white"/>
<path fill-rule="evenodd" clip-rule="evenodd" d="M272.463 346.831C271.934 346.831 271.504 346.401 271.504 345.872V340.225C271.504 339.445 272.027 338.762 272.78 338.559L279.312 336.794C279.824 336.656 280.35 336.958 280.488 337.469C280.626 337.981 280.324 338.507 279.813 338.645L273.422 340.372V345.872C273.422 346.401 272.993 346.831 272.463 346.831Z" fill="white"/>
<path fill-rule="evenodd" clip-rule="evenodd" d="M240.379 370.179C240.909 370.179 241.338 370.609 241.338 371.138V376.785C241.338 377.565 240.815 378.248 240.062 378.451L233.53 380.216C233.019 380.354 232.492 380.052 232.354 379.54C232.216 379.029 232.518 378.502 233.03 378.364L239.42 376.638V371.138C239.42 370.609 239.849 370.179 240.379 370.179Z" fill="white"/>
<path fill-rule="evenodd" clip-rule="evenodd" d="M218.617 219.188C219.147 219.188 219.576 219.617 219.576 220.147V223.216C219.576 223.745 219.147 224.175 218.617 224.175C218.088 224.175 217.658 223.745 217.658 223.216V220.147C217.658 219.617 218.088 219.188 218.617 219.188Z" fill="white"/>
<path fill-rule="evenodd" clip-rule="evenodd" d="M132.878 287.36C133.408 287.36 133.837 287.789 133.837 288.319V291.388C133.837 291.918 133.408 292.347 132.878 292.347C132.348 292.347 131.919 291.918 131.919 291.388V288.319C131.919 287.789 132.348 287.36 132.878 287.36Z" fill="white"/>
<path fill-rule="evenodd" clip-rule="evenodd" d="M261.637 230.703C261.774 231.214 261.471 231.74 260.959 231.877L257.995 232.672C257.483 232.809 256.957 232.505 256.82 231.993C256.683 231.482 256.987 230.956 257.498 230.819L260.463 230.025C260.974 229.887 261.5 230.191 261.637 230.703Z" fill="white"/>
<path fill-rule="evenodd" clip-rule="evenodd" d="M241.305 280.366C241.442 280.878 241.139 281.404 240.627 281.541L237.663 282.335C237.151 282.472 236.625 282.169 236.488 281.657C236.351 281.145 236.655 280.62 237.166 280.482L240.131 279.688C240.642 279.551 241.168 279.855 241.305 280.366Z" fill="white"/>
<path fill-rule="evenodd" clip-rule="evenodd" d="M219.771 308.768C219.908 309.279 219.605 309.805 219.093 309.942L216.129 310.737C215.617 310.874 215.091 310.57 214.954 310.058C214.817 309.547 215.121 309.021 215.632 308.884L218.597 308.09C219.108 307.952 219.634 308.256 219.771 308.768Z" fill="white"/>
<path fill-rule="evenodd" clip-rule="evenodd" d="M283.558 269.077C283.693 269.589 283.387 270.114 282.875 270.249L258.131 276.77C257.619 276.905 257.094 276.6 256.959 276.087C256.824 275.575 257.13 275.051 257.642 274.916L282.386 268.394C282.898 268.259 283.423 268.565 283.558 269.077Z" fill="white"/>
<path fill-rule="evenodd" clip-rule="evenodd" d="M213.79 299.692C213.925 300.205 213.619 300.729 213.107 300.864L188.364 307.386C187.852 307.521 187.327 307.215 187.192 306.703C187.057 306.191 187.363 305.666 187.875 305.531L212.618 299.01C213.131 298.875 213.655 299.18 213.79 299.692Z" fill="white"/>
<path fill-rule="evenodd" clip-rule="evenodd" d="M163.998 256.233C164.527 256.233 164.957 256.663 164.957 257.192V260.261C164.957 260.791 164.527 261.22 163.998 261.22C163.468 261.22 163.039 260.791 163.039 260.261V257.192C163.039 256.663 163.468 256.233 163.998 256.233Z" fill="white"/>
<path fill-rule="evenodd" clip-rule="evenodd" d="M233.878 282.307C234.015 282.818 233.713 283.345 233.201 283.482L216.13 288.086C215.619 288.224 215.092 287.921 214.954 287.41C214.817 286.898 215.119 286.372 215.631 286.234L232.702 281.63C233.213 281.493 233.74 281.795 233.878 282.307Z" fill="white"/>
<path fill-rule="evenodd" clip-rule="evenodd" d="M174.833 323.796C175.363 323.796 175.792 324.225 175.792 324.755V351.992C175.792 352.522 175.363 352.951 174.833 352.951C174.303 352.951 173.874 352.522 173.874 351.992V324.755C173.874 324.225 174.303 323.796 174.833 323.796Z" fill="white"/>
<path fill-rule="evenodd" clip-rule="evenodd" d="M174.833 276.274C175.363 276.274 175.792 276.703 175.792 277.233V304.47C175.792 305 175.363 305.429 174.833 305.429C174.303 305.429 173.874 305 173.874 304.47V277.233C173.874 276.703 174.303 276.274 174.833 276.274Z" fill="white"/>
<path fill-rule="evenodd" clip-rule="evenodd" d="M175.792 230.786C176.322 230.786 176.751 231.216 176.751 231.745V258.982C176.751 259.512 176.322 259.941 175.792 259.941C175.262 259.941 174.833 259.512 174.833 258.982V231.745C174.833 231.216 175.262 230.786 175.792 230.786Z" fill="white"/>
<path fill-rule="evenodd" clip-rule="evenodd" d="M228.732 272.604C229.261 272.604 229.691 273.034 229.691 273.563V330.701C229.691 331.231 229.261 331.66 228.732 331.66C228.202 331.66 227.772 331.231 227.772 330.701V273.563C227.772 273.034 228.202 272.604 228.732 272.604Z" fill="white"/>
<path fill-rule="evenodd" clip-rule="evenodd" d="M282.595 325.29C282.736 325.8 282.435 326.328 281.925 326.469L249.893 335.27C249.382 335.41 248.855 335.11 248.714 334.599C248.574 334.088 248.874 333.561 249.385 333.42L281.416 324.619C281.927 324.479 282.455 324.779 282.595 325.29Z" fill="white"/>
<path fill-rule="evenodd" clip-rule="evenodd" d="M241.382 314.08C241.523 314.59 241.223 315.118 240.712 315.259L208.68 324.06C208.169 324.2 207.642 323.9 207.501 323.389C207.361 322.879 207.661 322.351 208.172 322.21L240.204 313.409C240.714 313.269 241.242 313.569 241.382 314.08Z" fill="white"/>
<path fill-rule="evenodd" clip-rule="evenodd" d="M196.908 225.529C197.048 226.04 196.748 226.568 196.237 226.708L164.206 235.509C163.695 235.65 163.167 235.349 163.027 234.839C162.887 234.328 163.187 233.8 163.698 233.66L195.729 224.858C196.24 224.718 196.768 225.018 196.908 225.529Z" fill="white"/>
<path fill-rule="evenodd" clip-rule="evenodd" d="M218.391 365.247C218.531 365.757 218.231 366.285 217.72 366.426L185.688 375.227C185.178 375.367 184.65 375.067 184.51 374.556C184.369 374.046 184.67 373.518 185.18 373.377L217.212 364.576C217.723 364.436 218.25 364.736 218.391 365.247Z" fill="white"/>
</svg>
