<svg width="500" height="500" viewBox="0 0 500 500" fill="none" xmlns="http://www.w3.org/2000/svg">
<rect width="500" height="500" fill="#FEE9CD"/>
<rect x="25" y="25" width="450" height="450" rx="20" stroke="#F99206" stroke-width="10"/>
<path d="M351.008 153.338C348.934 150.014 345.65 147.692 341.762 146.802C338.33 146.016 334.61 146.379 331.408 147.754C331.58 147.192 331.74 146.637 331.888 146.091C333.217 141.177 333.514 137.009 332.8 133.349C331.914 128.821 329.419 125.142 325.581 122.709C322.661 120.856 318.775 120.175 314.924 120.841C310.795 121.554 307.239 123.693 304.913 126.865C303.97 128.15 303.19 129.424 302.526 130.708C302.468 130.317 302.406 129.933 302.341 129.554C301.452 124.364 299.995 120.265 297.886 117.023C295.275 113.009 291.597 110.372 287.251 109.4C283.396 108.538 279.408 109.082 276.024 110.931C272.351 112.938 269.795 116.255 268.824 120.274C268.22 122.774 268.018 125.186 268.092 127.578C266.262 125.337 264.376 123.539 262.402 122.148C258.054 119.082 253.185 118.026 248.321 119.094C244.637 119.904 241.499 122.152 239.488 125.422C237.271 129.028 236.628 133.542 237.726 137.804C239.654 145.294 242.919 149.337 247.053 154.457C249.369 157.325 252.07 160.67 255.207 165.49C254.113 165.67 253.03 165.876 251.972 166.109C242.948 168.092 235.013 172.634 229.631 178.896C227.852 180.967 226.405 183.157 225.305 185.441C224.205 183.158 222.759 180.967 220.98 178.896C215.597 172.634 207.662 168.093 198.638 166.109C197.581 165.877 196.497 165.67 195.404 165.49C198.54 160.67 201.242 157.324 203.558 154.457C207.691 149.337 210.956 145.294 212.884 137.804C213.982 133.542 213.339 129.028 211.122 125.422C209.111 122.152 205.975 119.904 202.289 119.094C197.426 118.026 192.556 119.082 188.209 122.148C186.235 123.539 184.35 125.337 182.518 127.578C182.593 125.186 182.39 122.774 181.787 120.274C180.816 116.256 178.259 112.938 174.587 110.931C171.202 109.081 167.215 108.537 163.36 109.4C159.012 110.372 155.334 113.009 152.724 117.023C150.616 120.266 149.158 124.365 148.269 129.554C148.205 129.932 148.143 130.317 148.084 130.708C147.422 129.424 146.64 128.15 145.697 126.865C143.371 123.693 139.816 121.554 135.686 120.841C131.834 120.176 127.95 120.856 125.029 122.709C121.191 125.143 118.696 128.822 117.811 133.349C117.095 137.009 117.394 141.177 118.723 146.091C118.87 146.637 119.03 147.191 119.202 147.754C116.002 146.377 112.28 146.015 108.848 146.802C104.961 147.692 101.676 150.014 99.602 153.338C97.5106 156.683 96.6752 160.236 97.113 163.897C97.5081 167.197 98.9033 170.44 101.379 173.813C105.198 179.014 111.6 184.554 122.136 191.773C122.144 191.778 122.151 191.782 122.159 191.789C122.166 191.793 122.173 191.798 122.18 191.803L122.272 191.865C122.296 191.881 122.32 191.898 122.34 191.912C124.395 193.369 128.683 197.745 130.733 206.759C133.728 219.936 135.068 230.277 132.457 252.434C131.883 257.305 130.703 262.75 132.788 267.934C135.202 273.937 140.885 277.845 150.161 279.883C154.949 280.935 158.958 281.462 162.376 281.462C165.98 281.462 168.923 280.876 171.421 279.701C176.538 277.294 178.694 273.004 180.598 269.218C180.99 268.438 181.396 267.629 181.823 266.845C185.681 259.76 186.181 259.524 190.515 258.051C198.334 255.855 205.91 252.087 211.861 247.429C219.072 241.786 223.716 235.019 225.289 227.86C225.294 227.835 225.299 227.812 225.304 227.788C225.309 227.812 225.314 227.835 225.319 227.86C226.892 235.019 231.535 241.786 238.747 247.429C244.699 252.087 252.274 255.855 260.093 258.051C264.426 259.524 264.927 259.761 268.785 266.845C269.212 267.629 269.618 268.437 270.01 269.218C271.914 273.004 274.07 277.294 279.187 279.701C281.685 280.876 284.628 281.462 288.232 281.462C291.65 281.462 295.659 280.935 300.447 279.883C309.723 277.845 315.406 273.937 317.82 267.934C319.906 262.751 318.725 257.306 318.151 252.434C315.54 230.277 316.88 219.935 319.875 206.759C321.924 197.745 326.213 193.369 328.268 191.912C328.288 191.898 328.312 191.882 328.336 191.865L328.428 191.803C328.435 191.798 328.442 191.793 328.449 191.789C328.456 191.784 328.463 191.779 328.472 191.773C339.008 184.553 345.41 179.014 349.229 173.813C351.705 170.441 353.1 167.197 353.495 163.897C353.933 160.236 353.096 156.683 351.01 153.338H351.008Z" fill="white"/>
<path d="M213.032 211.7C207.945 210.583 204.815 214.398 203.369 219.358L197.692 192.319C201.182 195.546 201.794 198.182 205.632 202.885C207.104 204.689 209.049 205.714 211.393 206.229C215.52 207.136 219.841 204.65 221.227 198.339C223.7 187.082 213.352 174.384 196.978 170.786C193.047 169.923 188.789 169.454 185.262 169.473C196.779 148.702 203.795 147.274 206.858 135.38C208.164 130.309 205.645 124.873 200.628 123.772C186.914 120.759 177.694 142.949 169.394 168.835C169.56 165.662 169.662 161.507 169.924 158.954C171.801 140.72 178.271 131.134 175.738 120.653C174.509 115.562 169.218 112.95 164.206 114.072C152.178 116.762 151.374 137.37 153.618 159.943C153.919 162.975 154.355 170.124 154.755 173.298C153.608 170.451 151.728 164.163 150.912 161.807C144.907 144.488 146.204 136.938 140.608 129.309C137.512 125.087 131.135 124.449 127.712 126.619C117.303 133.219 124.991 150.747 136.564 170.257C137.862 172.444 140.828 177.074 142.233 179.325C140.61 177.774 137.141 173.951 135.81 172.576C123.047 159.419 123.422 156.32 117.822 152.79C113.918 150.329 107.24 150.388 104.097 155.422C98.5118 164.374 106.812 173.552 124.995 186.012C124.995 186.012 125.002 186.017 125.006 186.019C125.095 186.08 125.186 186.141 125.275 186.203C131.793 190.825 133.527 194.357 135.824 205.58C138.213 217.251 139.277 227.906 138.617 245.584C138.212 256.425 130.599 268.761 150.989 273.241C171.381 277.722 171.959 271.102 176.32 263.091C180.681 255.082 182.134 253.656 188.386 251.53C202.02 247.741 216.448 238.224 219.215 225.631C221.161 216.77 218.048 212.8 213.031 211.697L213.032 211.7Z" fill="#C18874"/>
<path d="M170.667 241.911C184.867 245.032 198.727 236.875 202.265 220.776C202.546 219.495 202.746 218.231 202.871 216.989L199.363 200.279C195.773 194.267 189.778 189.956 182.438 188.342C168.238 185.221 154.378 193.378 150.84 209.476C147.302 225.575 156.467 238.79 170.667 241.91V241.911Z" fill="#AF7766"/>
<path d="M194.55 193.097C197.361 191.43 199.528 188.454 198.543 185.07C198.244 184.019 197.643 183.04 196.816 182.285C196.602 182.093 196.833 181.738 197.095 181.859C199.746 183.003 201.06 186.185 200.533 188.946C200.071 191.692 198.013 194.158 195.263 194.741C194.257 194.987 193.689 193.656 194.549 193.097H194.55Z" fill="white"/>
<path d="M182.35 184.435C183.145 182.79 183.372 180.884 182.951 179.101C182.523 177.333 181.541 175.475 179.878 174.598C179.761 174.541 179.712 174.4 179.769 174.283C179.823 174.17 179.945 174.133 180.057 174.157C180.473 174.198 180.879 174.335 181.26 174.511C182.915 175.33 184.09 176.868 184.747 178.581C185.617 180.834 185.524 183.596 183.701 185.35C183.047 186.027 181.966 185.283 182.351 184.435H182.35Z" fill="#E4F7FE"/>
<path d="M204.028 216.802C207.277 202.009 198.4 187.488 184.199 184.369C169.998 181.249 155.852 190.712 152.602 205.505C149.353 220.298 158.23 234.819 172.431 237.938C186.632 241.058 200.778 231.595 204.028 216.802Z" fill="white"/>
<path d="M175.901 234.635C162.929 231.785 154.558 219.714 157.79 205.008C161.022 190.302 173.682 182.853 186.652 185.703C189.055 186.231 191.3 187.076 193.343 188.195C190.646 186.419 187.567 185.113 184.204 184.374C170.003 181.253 156.144 189.409 152.606 205.508C149.068 221.607 158.233 234.822 172.433 237.941C185.001 240.703 197.302 234.63 202.416 222.035C197.319 232.222 186.719 237.01 175.901 234.633V234.635Z" fill="#E4F7FE"/>
<path d="M155.014 203.856C150.013 204.606 145.547 199.229 147.419 194.457C147.657 193.834 148.012 193.257 148.462 192.772C148.657 192.557 149.006 192.782 148.89 193.047C148.441 194.073 148.29 195.213 148.443 196.295C148.919 199.788 152.108 201.626 155.353 202.006C156.375 202.173 156.381 203.617 155.369 203.799L155.013 203.856H155.014Z" fill="#E4F7FE"/>
<path d="M165.908 189.65C161.633 189.027 159.431 182.986 161.426 179.417C161.567 179.174 161.737 178.947 161.93 178.75C162.019 178.633 162.19 178.6 162.3 178.709C162.373 178.78 162.389 178.888 162.35 178.975C162.161 179.394 162.055 179.853 162.013 180.32C161.885 181.72 162.233 183.159 162.852 184.403C163.467 185.635 164.4 186.701 165.537 187.468C165.913 187.719 166.308 187.939 166.716 188.13C167.559 188.541 167.184 189.805 166.259 189.696L165.908 189.651V189.65Z" fill="#E4F7FE"/>
<path d="M154.249 217.858L144.308 218.243C143.753 218.257 143.634 217.468 144.169 217.319L153.781 214.757C154.623 214.533 155.488 215.033 155.712 215.876C155.981 216.837 155.244 217.83 154.249 217.858Z" fill="#E4F7FE"/>
<path d="M135.811 172.579C129.67 166.248 126.571 162.246 124.385 159.404C124.375 159.391 124.364 159.377 124.354 159.364C123.997 158.904 120.559 154.616 117.462 155.675C115.897 156.21 115.142 157.787 115.887 160.327C118.503 169.237 142.235 179.328 142.235 179.328C140.612 177.776 137.143 173.953 135.812 172.579H135.811Z" fill="#AF7766"/>
<g opacity="0.5">
<path d="M154.745 173.114L154.725 173.042C154.728 173.062 154.73 173.079 154.733 173.098L154.746 173.114H154.745Z" fill="#58595B"/>
</g>
<path d="M175.708 131.548C175.569 129.142 174.947 126.154 172.857 124.855C171.052 123.735 168.871 124.268 166.952 127.074C160.222 136.921 169.395 168.835 169.395 168.835C169.561 165.662 169.663 161.507 169.925 158.954C171.156 146.997 174.362 138.758 175.708 131.547V131.548Z" fill="#AF7766"/>
<path d="M185.262 169.474C179.43 169.429 173.134 170.091 173.134 170.091C173.134 170.091 185.791 159.578 185.262 169.474Z" fill="#AF7766"/>
<path d="M163.934 274.614C144.046 274.209 146.664 263.212 143.824 235.897C140.984 208.584 133.15 195.623 133.148 195.622C134.156 198.15 134.95 201.308 135.824 205.584C138.213 217.255 139.276 227.91 138.617 245.588C138.212 256.429 130.598 268.765 150.989 273.245C156.673 274.494 160.817 274.881 163.933 274.615L163.934 274.614Z" fill="#AF7766"/>
<path d="M171.912 261.468C170.459 269.516 168.901 274.209 163.934 274.614C171.997 273.926 173.175 268.872 176.32 263.095C180.682 255.085 182.135 253.66 188.386 251.534C189.011 251.361 189.638 251.174 190.264 250.977C177.856 254.389 173.134 254.696 171.912 261.467V261.468Z" fill="#AF7766"/>
<path d="M155.107 237.265C154.269 233.872 155.931 230.123 158.847 228.239C159.279 227.946 159.866 228.058 160.159 228.489C160.487 228.962 160.3 229.637 159.777 229.876C159.111 230.185 158.495 230.567 157.944 231.058C156.813 232.052 156.013 233.411 155.635 234.884C155.442 235.634 155.363 236.422 155.434 237.209C155.452 237.406 155.157 237.462 155.107 237.265Z" fill="#E4F7FE"/>
<path d="M168.241 245.128C166.384 242.167 166.79 238.087 168.969 235.385C169.288 234.972 169.88 234.895 170.294 235.213C170.753 235.561 170.786 236.26 170.364 236.65C169.829 237.152 169.364 237.709 168.992 238.348C168.229 239.645 167.895 241.185 167.997 242.704C168.049 243.477 168.221 244.249 168.534 244.974C168.613 245.156 168.351 245.301 168.241 245.129V245.128Z" fill="#E4F7FE"/>
<path d="M237.573 211.7C242.66 210.583 245.79 214.398 247.237 219.358L252.914 192.319C249.423 195.546 248.811 198.182 244.973 202.885C243.501 204.689 241.556 205.714 239.212 206.229C235.086 207.136 230.765 204.65 229.378 198.339C226.905 187.082 237.254 174.384 253.627 170.786C257.559 169.923 261.816 169.454 265.343 169.473C253.826 148.702 246.81 147.274 243.748 135.38C242.442 130.309 244.96 124.873 249.977 123.772C263.692 120.759 272.911 142.949 281.211 168.835C281.046 165.662 280.943 161.507 280.681 158.954C278.804 140.72 272.335 131.134 274.867 120.653C276.097 115.562 281.387 112.95 286.399 114.072C298.427 116.762 299.231 137.37 296.987 159.943C296.686 162.975 296.251 170.124 295.851 173.298C296.997 170.451 298.877 164.163 299.693 161.807C305.698 144.488 304.402 136.938 309.997 129.309C313.093 125.087 319.47 124.449 322.893 126.619C333.302 133.219 325.614 150.747 314.041 170.257C312.743 172.444 309.777 177.074 308.373 179.325C309.996 177.774 313.464 173.951 314.796 172.576C327.558 159.419 327.184 156.32 332.784 152.79C336.687 150.329 343.365 150.388 346.508 155.422C352.094 164.374 343.793 173.552 325.61 186.012C325.61 186.012 325.603 186.017 325.599 186.019C325.51 186.08 325.419 186.141 325.33 186.203C318.813 190.825 317.079 194.357 314.781 205.58C312.392 217.251 311.329 227.906 311.988 245.584C312.393 256.425 320.007 268.761 299.616 273.241C279.225 277.722 278.647 271.102 274.286 263.091C269.925 255.08 268.471 253.656 262.22 251.53C248.586 247.741 234.157 238.224 231.39 225.631C229.444 216.77 232.557 212.8 237.575 211.697L237.573 211.7Z" fill="#C18874"/>
<path d="M279.939 241.911C265.739 245.032 251.88 236.875 248.342 220.776C248.06 219.495 247.86 218.231 247.736 216.989L251.243 200.279C254.833 194.267 260.828 189.956 268.169 188.342C282.369 185.221 296.229 193.378 299.766 209.476C303.304 225.575 294.14 238.79 279.939 241.91V241.911Z" fill="#AF7766"/>
<path d="M256.056 193.097C253.245 191.43 251.078 188.454 252.064 185.07C252.362 184.019 252.964 183.04 253.79 182.285C254.004 182.093 253.773 181.738 253.511 181.859C250.86 183.003 249.546 186.185 250.073 188.946C250.536 191.692 252.593 194.158 255.343 194.741C256.349 194.987 256.917 193.656 256.058 193.097H256.056Z" fill="white"/>
<path d="M268.256 184.435C267.461 182.79 267.235 180.884 267.655 179.101C268.083 177.333 269.065 175.475 270.728 174.598C270.845 174.541 270.894 174.4 270.837 174.283C270.783 174.17 270.661 174.133 270.549 174.157C270.133 174.198 269.727 174.335 269.347 174.511C267.692 175.33 266.516 176.868 265.859 178.581C264.989 180.834 265.082 183.596 266.905 185.35C267.559 186.027 268.641 185.283 268.255 184.435H268.256Z" fill="#E4F7FE"/>
<path d="M278.169 237.953C292.37 234.834 301.247 220.313 297.998 205.52C294.748 190.727 280.602 181.264 266.401 184.384C252.2 187.504 243.323 202.024 246.572 216.817C249.822 231.61 263.968 241.073 278.169 237.953Z" fill="white"/>
<path d="M274.705 234.635C287.677 231.785 296.048 219.714 292.816 205.008C289.585 190.302 276.925 182.853 263.954 185.703C261.551 186.231 259.306 187.076 257.264 188.195C259.96 186.419 263.039 185.113 266.403 184.374C280.603 181.253 294.463 189.409 298 205.508C301.538 221.607 292.374 234.822 278.173 237.941C265.605 240.703 253.304 234.63 248.19 222.035C253.287 232.222 263.887 237.01 274.705 234.633V234.635Z" fill="#E4F7FE"/>
<path d="M295.592 203.856C300.593 204.606 305.059 199.229 303.187 194.457C302.949 193.834 302.594 193.257 302.144 192.772C301.949 192.557 301.6 192.782 301.716 193.047C302.165 194.073 302.316 195.213 302.163 196.295C301.687 199.788 298.498 201.626 295.253 202.006C294.231 202.173 294.225 203.617 295.237 203.799L295.593 203.856H295.592Z" fill="#E4F7FE"/>
<path d="M284.698 189.65C288.974 189.027 291.175 182.986 289.18 179.417C289.039 179.174 288.869 178.947 288.676 178.75C288.587 178.633 288.416 178.6 288.306 178.709C288.233 178.78 288.217 178.888 288.256 178.975C288.445 179.394 288.552 179.853 288.593 180.32C288.721 181.72 288.374 183.159 287.754 184.403C287.139 185.635 286.206 186.701 285.069 187.468C284.693 187.719 284.298 187.939 283.891 188.13C283.047 188.541 283.422 189.805 284.347 189.696L284.698 189.651V189.65Z" fill="#E4F7FE"/>
<path d="M296.358 217.858L306.298 218.243C306.853 218.257 306.972 217.468 306.437 217.319L296.825 214.757C295.983 214.533 295.119 215.033 294.894 215.876C294.625 216.837 295.363 217.83 296.358 217.858Z" fill="#E4F7FE"/>
<path d="M314.796 172.579C320.936 166.248 324.035 162.246 326.221 159.404C326.231 159.391 326.242 159.377 326.252 159.364C326.609 158.904 330.047 154.616 333.145 155.675C334.709 156.21 335.464 157.787 334.719 160.327C332.103 169.237 308.371 179.328 308.371 179.328C309.994 177.776 313.463 173.953 314.794 172.579H314.796Z" fill="#AF7766"/>
<g opacity="0.5">
<path d="M295.861 173.114L295.881 173.042C295.879 173.062 295.876 173.079 295.874 173.098L295.86 173.114H295.861Z" fill="#58595B"/>
</g>
<path d="M274.898 131.548C275.037 129.142 275.659 126.154 277.749 124.855C279.554 123.735 281.736 124.268 283.654 127.074C290.385 136.921 281.211 168.835 281.211 168.835C281.045 165.662 280.943 161.507 280.681 158.954C279.45 146.997 276.244 138.758 274.898 131.547V131.548Z" fill="#AF7766"/>
<path d="M265.344 169.474C271.176 169.429 277.472 170.091 277.472 170.091C277.472 170.091 264.815 159.578 265.344 169.474Z" fill="#AF7766"/>
<path d="M286.672 274.614C306.56 274.209 303.942 263.212 306.782 235.897C309.622 208.584 317.457 195.623 317.458 195.622C316.451 198.15 315.657 201.308 314.782 205.584C312.393 217.255 311.33 227.91 311.99 245.588C312.394 256.429 320.008 268.765 299.618 273.245C293.933 274.494 289.789 274.881 286.674 274.615L286.672 274.614Z" fill="#AF7766"/>
<path d="M278.694 261.468C280.147 269.516 281.705 274.209 286.672 274.614C278.609 273.926 277.431 268.872 274.286 263.095C269.925 255.085 268.471 253.66 262.22 251.534C261.595 251.361 260.969 251.174 260.342 250.977C272.75 254.389 277.472 254.696 278.694 261.467V261.468Z" fill="#AF7766"/>
<path d="M295.499 237.265C296.337 233.872 294.675 230.123 291.759 228.239C291.327 227.946 290.741 228.058 290.447 228.489C290.119 228.962 290.307 229.637 290.83 229.876C291.496 230.185 292.111 230.567 292.663 231.058C293.793 232.052 294.593 233.411 294.971 234.884C295.164 235.634 295.243 236.422 295.172 237.209C295.154 237.406 295.449 237.462 295.499 237.265Z" fill="#E4F7FE"/>
<path d="M282.365 245.128C284.222 242.167 283.816 238.087 281.637 235.385C281.319 234.972 280.726 234.895 280.313 235.213C279.853 235.561 279.82 236.26 280.242 236.65C280.777 237.152 281.242 237.709 281.614 238.348C282.377 239.645 282.711 241.185 282.609 242.704C282.558 243.477 282.386 244.249 282.072 244.974C281.993 245.156 282.255 245.301 282.365 245.129V245.128Z" fill="#E4F7FE"/>
<path d="M179.021 224.908C187.352 224.908 194.106 217.873 194.106 209.194C194.106 200.515 187.352 193.479 179.021 193.479C170.689 193.479 163.935 200.515 163.935 209.194C163.935 217.873 170.689 224.908 179.021 224.908Z" fill="#A7FECD"/>
<g style="mix-blend-mode:multiply" opacity="0.75">
<path d="M190.433 208.944C190.433 210.407 187.759 211.329 187.32 212.54C186.834 213.879 188.199 216.337 187.287 217.304C186.344 218.301 183.814 217.062 182.54 217.589C181.267 218.116 180.439 220.78 179.02 220.78C177.6 220.78 176.726 218.096 175.499 217.589C174.226 217.062 171.695 218.301 170.753 217.304C169.84 216.338 171.205 213.879 170.72 212.54C170.281 211.329 167.606 210.406 167.606 208.944C167.606 207.482 170.281 206.558 170.72 205.347C171.205 204.008 169.84 201.551 170.753 200.584C171.695 199.586 174.226 200.825 175.499 200.299C176.772 199.772 177.6 197.107 179.02 197.107C180.439 197.107 181.314 199.791 182.54 200.299C183.814 200.825 186.344 199.586 187.287 200.584C188.199 201.55 186.834 204.008 187.32 205.347C187.759 206.558 190.433 207.482 190.433 208.944Z" fill="#73D6FA"/>
</g>
<path d="M179.021 215.191C182.947 215.191 186.13 211.877 186.13 207.788C186.13 203.699 182.947 200.384 179.021 200.384C175.095 200.384 171.912 203.699 171.912 207.788C171.912 211.877 175.095 215.191 179.021 215.191Z" fill="#331546"/>
<path d="M187.053 208.462C189.803 208.462 192.033 206.139 192.033 203.274C192.033 200.409 189.803 198.086 187.053 198.086C184.302 198.086 182.072 200.409 182.072 203.274C182.072 206.139 184.302 208.462 187.053 208.462Z" fill="white"/>
<path d="M179.021 213.31C174.646 212.817 174.666 212.837 174.172 208.461C173.679 212.835 173.699 212.816 169.323 213.31C173.698 213.802 173.678 213.783 174.172 218.159C174.665 213.784 174.645 213.804 179.021 213.31Z" fill="white"/>
<path d="M271.586 224.908C279.918 224.908 286.672 217.873 286.672 209.194C286.672 200.515 279.918 193.479 271.586 193.479C263.255 193.479 256.501 200.515 256.501 209.194C256.501 217.873 263.255 224.908 271.586 224.908Z" fill="#A7FECD"/>
<g style="mix-blend-mode:multiply" opacity="0.75">
<path d="M283 208.944C283 210.407 280.325 211.329 279.886 212.54C279.401 213.879 280.765 216.337 279.853 217.304C278.911 218.301 276.38 217.062 275.107 217.589C273.834 218.116 273.006 220.78 271.586 220.78C270.167 220.78 269.292 218.096 268.065 217.589C266.792 217.062 264.262 218.301 263.319 217.304C262.407 216.338 263.771 213.879 263.286 212.54C262.847 211.329 260.173 210.406 260.173 208.944C260.173 207.482 262.847 206.558 263.286 205.347C263.771 204.008 262.407 201.551 263.319 200.584C264.262 199.586 266.792 200.825 268.065 200.299C269.339 199.772 270.167 197.107 271.586 197.107C273.006 197.107 273.88 199.791 275.107 200.299C276.38 200.825 278.911 199.586 279.853 200.584C280.765 201.55 279.401 204.008 279.886 205.347C280.325 206.558 283 207.482 283 208.944Z" fill="#73D6FA"/>
</g>
<path d="M271.586 215.191C275.512 215.191 278.695 211.877 278.695 207.788C278.695 203.699 275.512 200.384 271.586 200.384C267.66 200.384 264.478 203.699 264.478 207.788C264.478 211.877 267.66 215.191 271.586 215.191Z" fill="#331546"/>
<path d="M279.619 208.462C282.37 208.462 284.6 206.139 284.6 203.274C284.6 200.409 282.37 198.086 279.619 198.086C276.868 198.086 274.638 200.409 274.638 203.274C274.638 206.139 276.868 208.462 279.619 208.462Z" fill="white"/>
<path d="M271.586 213.31C267.212 212.817 267.231 212.837 266.737 208.461C266.245 212.835 266.264 212.816 261.888 213.31C266.263 213.802 266.243 213.783 266.737 218.159C267.23 213.784 267.21 213.804 271.586 213.31Z" fill="white"/>
<path d="M150.913 161.808C147.069 150.724 146.217 143.641 144.635 137.978C143.772 136.303 142.473 134.708 140.611 134.467C138.64 134.213 136.989 135.511 136.444 138.644C134.614 149.151 153.005 171.068 154.63 172.98C153.477 170.006 151.701 164.08 150.913 161.809V161.808Z" fill="#AF7766"/>
<path d="M299.693 161.808C303.537 150.724 304.39 143.641 305.971 137.978C306.835 136.303 308.134 134.708 309.996 134.467C311.966 134.213 313.618 135.511 314.163 138.644C315.992 149.151 297.602 171.068 295.976 172.98C297.13 170.006 298.905 164.08 299.693 161.809V161.808Z" fill="#AF7766"/>
<path d="M216.845 264.2C216.648 282.175 204.298 295.593 187.755 295.962C186.769 295.997 185.717 295.96 184.662 295.875C183.627 295.791 182.741 296.603 182.743 297.64L182.766 307.216C182.769 308.199 181.97 308.996 180.987 308.988C177.583 308.964 173.672 308.933 170.282 308.91C169.298 308.903 168.51 308.094 168.527 307.109C168.817 291.021 169.107 275.543 169.397 259.405C169.415 258.439 169.116 257.492 168.55 256.708L163.338 249.514C162.761 248.718 162.94 247.601 163.744 247.035C169.937 242.681 178.193 238.909 187.523 237.937C205.844 236.029 217.06 245.723 216.845 264.199V264.2ZM201.489 265.179C201.588 256.514 198.231 250.475 186.775 252.507C185.794 252.681 184.814 252.938 183.859 253.278C183.151 253.529 182.68 254.2 182.684 254.951C182.712 262.986 182.976 271.929 183.01 279.999C183.013 280.874 183.655 281.617 184.523 281.742C185.55 281.89 186.566 281.926 187.551 281.849C196.475 281.22 201.375 275.4 201.49 265.178L201.489 265.179Z" fill="#A7FECD"/>
<path d="M263.49 278.613C263.719 258.641 275.809 249.11 288.174 249.326C300.255 249.526 312.209 259.416 311.979 279.286C311.75 299.263 299.578 308.294 287.496 308.185C275.131 308.031 263.257 298.694 263.489 278.613H263.49ZM297.14 278.866C297.242 270.06 294.011 264.112 287.91 264.011C281.809 263.921 278.442 269.778 278.34 278.602C278.237 287.557 281.47 293.421 287.57 293.498C293.672 293.573 297.037 287.804 297.139 278.867L297.14 278.866Z" fill="#FEFE8E"/>
<path d="M315.807 278.07C315.984 269.896 316.162 261.724 316.34 253.554C316.361 252.547 317.22 251.759 318.226 251.828C321.905 252.077 325.581 252.362 329.252 252.679C330.192 252.76 330.902 253.567 330.866 254.509C330.54 262.995 330.215 271.489 329.889 279.992C329.503 289.756 330.484 294.195 336.189 294.4C341.892 294.608 342.961 290.351 342.794 280.754C342.66 272.502 342.525 264.241 342.391 255.971C342.375 254.906 343.296 254.064 344.355 254.184C348.004 254.594 351.647 255.038 355.285 255.517C356.165 255.633 356.822 256.384 356.821 257.272C356.821 265.041 356.818 272.807 356.817 280.567C356.782 299.566 350.576 307.827 336.04 307.637C321.494 307.418 315.39 298.381 315.807 278.072V278.07Z" fill="#73D6FA"/>
<path d="M362.07 305.43C362.026 289.728 361.981 274.002 361.938 258.252C361.936 257.25 362.766 256.446 363.767 256.479C369.441 256.667 373.541 257.114 377.848 257.86C397.993 261.696 404.072 272.981 403.946 285.765C403.791 298.515 396.152 307.859 378.437 307.576C373.569 307.443 368.687 307.315 363.794 307.193C362.837 307.17 362.071 306.389 362.068 305.43H362.07ZM375.718 293.09C375.694 294.04 376.425 294.839 377.373 294.901C378.157 294.951 378.94 295.002 379.724 295.055C384.131 295.324 389.511 293.252 389.614 284.039C389.719 274.729 384.399 271.449 379.995 270.819C379.418 270.738 378.841 270.658 378.263 270.578C377.217 270.434 376.279 271.229 376.252 272.285C376.075 279.214 375.897 286.151 375.719 293.093L375.718 293.09Z" fill="#F4AE7A"/>
<path d="M163.931 334.995C164.558 320.641 174.888 313.403 186.317 313.458C197.474 313.537 208.736 322.024 208.734 340.344C208.734 358.771 197.522 365.365 186.317 363.546C171.992 361.224 163.241 350.672 163.931 334.995V334.995ZM194.781 339.233C194.781 332.843 191.283 328.424 186.56 328.136C181.837 327.852 178.368 331.591 178.367 337.594C178.367 343.679 181.836 348.192 186.56 348.852C191.283 349.508 194.782 345.711 194.781 339.233Z" fill="#73D6FA"/>
<path d="M243.487 329.7C239.025 329.382 232.805 329.054 228.339 328.715C227.313 328.638 226.438 329.449 226.438 330.479V339.757C226.438 340.727 227.22 341.517 228.19 341.525C232.124 341.558 237.725 341.575 241.679 341.573C242.67 341.573 243.468 342.387 243.449 343.378C243.384 346.543 243.321 349.709 243.257 352.873C243.236 353.882 242.378 354.669 241.37 354.601C237.644 354.349 232.403 354.077 228.653 353.789C227.609 353.709 226.725 354.547 226.75 355.594C226.837 359.166 226.923 362.74 227.009 366.314C227.035 367.373 226.129 368.22 225.074 368.118C221.894 367.812 218.718 367.478 215.547 367.119C214.66 367.018 213.988 366.271 213.979 365.378C213.815 349.181 213.65 333.001 213.485 316.837C213.475 315.845 214.284 315.038 215.276 315.051C223.908 315.163 235.157 315.253 243.827 315.323C244.811 315.33 245.599 316.14 245.581 317.124C245.514 320.74 245.448 324.354 245.381 327.969C245.363 328.982 244.499 329.772 243.488 329.7H243.487Z" fill="#F4AE7A"/>
<path d="M302.633 315.447C298.613 315.464 294.592 315.476 290.57 315.482C289.31 315.485 288.284 316.497 288.269 317.757C288.189 324.298 288.109 331.649 288.031 337.975C288.031 337.984 288.031 337.994 288.031 338.003C287.584 344.737 285.717 350.236 280.83 350.23C276.029 350.216 274.607 345.995 274.606 340.145C274.606 333.568 275.03 323.591 275.629 316.029C275.652 315.734 275.422 315.483 275.126 315.482C271.557 315.469 267.919 315.382 264.329 315.338C263.665 315.33 263.438 314.451 264.015 314.123L267.264 312.276C268.347 311.659 268.658 310.24 267.929 309.229C265.06 305.241 258.316 295.742 253.918 288.51C253.326 287.536 253.453 286.283 254.241 285.46C257.793 281.742 259.708 276.174 259.778 270.019C259.905 258.831 253.976 250.819 243.221 251.453C235.964 251.873 228.718 252.426 221.491 253.112C221.237 253.136 221.041 253.346 221.035 253.602C220.673 270.709 220.3 288.948 219.937 306.095C219.913 307.268 220.851 308.229 222.023 308.231C225.13 308.242 228.242 308.252 231.357 308.266C232.516 308.271 233.46 307.334 233.461 306.175C233.465 301.843 233.475 296.973 233.479 292.629C233.479 291.377 234.485 290.36 235.736 290.342C236.987 290.324 238.354 290.305 239.57 290.289C240.484 290.276 241.317 290.809 241.691 291.641C245.948 301.126 249.209 307.862 253.424 317.483C253.923 318.623 255.3 319.081 256.382 318.466L260.574 316.082C261.032 315.822 261.593 316.183 261.543 316.708C260.64 326.174 260.031 336.965 260.031 341.672C260.031 355.197 263.849 364.017 274.516 364.191C280.596 364.267 284.968 361.013 287.572 355.657C287.81 355.167 288.544 355.336 288.539 355.88C288.517 358.106 288.497 360.333 288.475 362.559C288.386 369.84 285.208 377.29 272.738 376.541C265.109 376.083 259.502 370.799 256.059 363.716C255.502 362.57 254.116 362.099 252.971 362.659L243.15 367.458C241.988 368.026 241.516 369.437 242.108 370.588C249.525 385.021 261.127 391.858 275.26 391.858C290.821 391.858 303.339 380.389 303.058 359.564C302.814 341.66 302.5 334.615 303.908 325.023C304.248 322.712 304.586 320.403 304.926 318.094C305.132 316.697 304.045 315.445 302.633 315.451V315.447ZM240.408 278.846C238.587 278.892 236.768 278.943 234.95 278.999C234.167 279.022 233.523 278.394 233.526 277.612C233.548 273.54 233.569 269.47 233.591 265.4C233.595 264.668 234.169 264.066 234.899 264.029C236.791 263.931 238.684 263.841 240.578 263.757C244.16 263.596 246.465 265.781 246.406 271.114C246.348 276.315 243.99 278.758 240.409 278.846H240.408Z" fill="#FEBBFF"/>
<path d="M307.344 342.67C307.344 323.136 319.927 314.112 332.855 314.059C345.492 314.05 358.052 322.369 358.05 340.475C358.051 358.693 346.273 368.549 333.64 369.628C320.716 370.746 307.344 362.324 307.345 342.67H307.344ZM343.516 341.391C343.516 333.923 338.954 329.095 332.757 329.225C326.56 329.357 321.981 334.516 321.981 342.193C321.981 349.976 326.56 354.863 332.757 354.534C338.954 354.201 343.516 348.962 343.516 341.391V341.391Z" fill="#FD84A0"/>
<path d="M391.137 314.253C394.408 314.177 397.672 314.098 400.927 314.015C401.927 313.99 402.748 314.796 402.74 315.796C402.633 328.87 402.526 341.96 402.42 355.069C402.413 355.804 401.955 356.46 401.265 356.715C398.756 357.645 396.241 358.572 393.722 359.493C392.617 359.897 391.432 359.128 391.351 357.953C391.242 356.368 391.134 354.78 391.024 353.189C390.975 352.484 390.011 352.325 389.737 352.977C387.446 358.419 384.276 362.715 377.094 363.985C365.829 365.971 361.66 356.436 361.666 347.636C361.666 341.31 362.692 325.932 363.92 316.312C364.031 315.442 364.765 314.786 365.643 314.771C368.999 314.711 372.348 314.65 375.692 314.584C376.75 314.563 377.588 315.468 377.486 316.521C376.695 324.689 376.023 333.506 376.023 340.78C376.023 345.929 377.423 349.46 382.128 348.818C387.177 348.117 388.91 343.854 389.171 337.524C389.252 330.343 389.332 323.168 389.413 315.999C389.423 315.046 390.188 314.274 391.141 314.252L391.137 314.253Z" fill="#A7FECD"/>
</svg>
