<svg width="500" height="500" viewBox="0 0 500 500" fill="none" xmlns="http://www.w3.org/2000/svg">
<rect width="500" height="500" fill="#FFEBEE"/>
<rect x="25" y="25" width="450" height="450" rx="20" stroke="#FF77E6" stroke-width="10"/>
<path d="M262.409 309.797C258.499 308.75 255.03 307.034 252.002 304.651C245.26 300.488 239.634 294.44 234.71 288.057C225.99 293.229 217.925 292.377 213.119 291.09C212.141 290.828 211.186 290.484 210.23 290.141C208.356 289.639 206.407 288.768 204.605 287.673C204.22 287.483 203.107 286.748 201.533 285.454C199.107 283.756 197.094 281.82 195.554 279.748C190.015 273.375 183.689 262.775 184.19 247.544C184.22 245.805 185.431 237.05 186.525 230.359C178.662 223.538 173.87 215.357 171.157 203.979C169.032 195.29 169.846 187.04 173.544 178.776C176.54 172.158 180.93 166.525 185.196 161.033C190.005 154.813 194.543 148.957 196.886 142.164C198.675 136.794 199.98 130.945 201.242 125.259C203.344 115.783 205.556 105.899 210.297 97.6532C216.301 87.3013 225.142 81.0269 237.519 78.4941C244.088 77.1113 250.139 77.3358 256.493 79.0383C260.81 80.1951 264.79 81.9598 269.117 83.7305C274.275 85.9855 280.084 88.4152 287.823 90.4887C300.856 93.9809 316.439 95.4499 335.37 94.8479C340.118 94.7232 344.958 95.2342 349.682 96.5001C363.774 100.276 375.051 109.671 380.565 122.323C385.295 133.02 388.12 151.15 374.764 176.556C369.015 187.588 371.468 193.745 375.259 203.055C377.794 209.234 380.643 216.196 380.622 224.746C380.665 234.361 377.106 244.059 369.733 254.306C362.339 264.635 348.275 273.787 331.532 279.254C326.717 285.821 319.289 292.037 309.336 297.577C300.807 302.363 290.59 306.61 281.238 309.255C274.782 311.192 268.193 311.347 262.409 309.797Z" fill="#FDFDFD"/>
<path d="M278.376 299.408C294.612 294.854 321 282.718 326.647 266.857C332.293 250.997 308.186 232.14 295.434 243.565C282.682 254.99 254.962 263.626 252.332 282.565C250.82 293.422 262.22 303.985 278.376 299.408Z" fill="#FF77E6"/>
<path d="M209.95 278.804C209.95 278.804 193.79 269.061 194.517 247.779C195.243 226.497 201.458 216.987 201.458 216.987L238.515 230.845C238.494 230.927 230.642 291.507 209.95 278.804Z" fill="#4BC17E"/>
<path d="M335.564 105.202C360.021 104.509 388.555 127.694 365.557 171.819C348.395 204.587 386.628 213.085 361.261 248.456C345.758 270.145 284.979 292.36 237.551 251.714C208.231 226.572 188.122 230.263 181.16 201.508C175.576 178.36 199.372 167.101 206.59 145.376C214.647 121.169 212.279 94.1682 239.457 88.5296C263.658 83.5773 267.372 107.184 335.564 105.202Z" fill="#010101"/>
<path d="M238.049 121.153C239.018 114.603 228.385 111.929 226.172 118.233C226.085 118.558 225.976 118.966 225.889 119.292C224.244 127.058 221.277 128.358 220.54 135.669C219.908 141.611 229.433 144.512 232.828 139.66C236.811 133.917 235.09 129.265 237.198 124.33C237.688 123.152 237.972 122.093 238.049 121.153Z" fill="#FFCA49"/>
<path d="M241.285 108.75C240.205 112.128 236.553 114.03 233.278 112.891C229.982 111.833 228.183 108.121 229.263 104.743C230.343 101.366 233.995 99.4635 237.27 100.603C240.544 101.742 242.446 105.395 241.285 108.75Z" fill="#FFCA49"/>
<path d="M298.571 137.37C299.54 130.82 288.907 128.145 286.694 134.449C286.607 134.775 286.498 135.183 286.411 135.508C284.766 143.274 281.799 144.575 281.062 151.885C280.43 157.827 289.955 160.729 293.35 155.876C297.333 150.134 295.612 145.482 297.72 140.547C298.128 139.347 298.412 138.288 298.571 137.37Z" fill="#FFCA49"/>
<path d="M301.807 124.967C300.727 128.345 297.075 130.247 293.8 129.108C290.504 128.05 288.705 124.338 289.785 120.96C290.865 117.583 294.517 115.68 297.791 116.82C301.147 117.981 302.886 121.59 301.807 124.967Z" fill="#FFCA49"/>
<path d="M256.733 109.746C260.151 108.393 263.294 110.02 264.355 113.884C265.512 118.036 261.828 127.874 260.379 131.327C260.123 131.957 260.54 132.68 261.192 132.855C261.866 132.948 262.507 132.509 262.519 131.813C262.57 129.994 262.791 126.561 263.468 124.036C263.97 122.162 264.802 121.337 265.954 120.948C268.383 120.027 272.999 121.7 271.82 126.099C271.122 128.706 269.944 131.795 269.138 133.5C268.882 134.13 269.218 134.831 269.87 135.005C270.522 135.18 271.245 134.762 271.256 134.067C271.565 130.309 272.783 119.897 275.639 116.733C278.266 113.77 281.928 113.791 284.336 116.532C287.748 120.414 285.716 125.719 284.213 128.721C277.233 142.391 278.013 148.275 274.728 151.411C272.526 153.44 269.348 153.898 266.59 152.46C263.284 150.789 264.169 141.946 264.859 137.417L264.696 137.373C263.273 141.706 260.025 149.916 256.342 149.976C253.192 150.005 250.543 148.161 249.547 145.362C247.982 141.101 251.378 136.249 251.309 120.865C251.286 117.367 251.852 111.669 256.733 109.746Z" fill="#FFCA49"/>
<path d="M310.712 154.941C310.712 154.941 313.891 149.594 307.897 147.202C304.666 145.9 300.717 145.977 298.81 151.141C296.902 156.304 300.404 162.132 309.756 164.376C314.746 165.625 322.305 163.809 324.684 154.931C326.255 149.066 324.688 142.534 319.232 139.763C317.608 138.979 316.164 138.505 315.764 136.739C315.018 133.658 318.68 133.678 318.68 133.678C318.68 133.678 315.448 137.265 321.882 140.299C326.752 142.651 331.967 137.85 330.686 132.53C329.405 127.211 321.886 123.013 314.159 125.134C309.062 126.562 305.7 130.637 304.763 137.719C303.847 144.72 312.992 147.083 313.494 150.099C313.974 153.196 310.712 154.941 310.712 154.941Z" fill="#FFCA49"/>
<path d="M333.377 135.522C331.175 141.131 332.185 141.925 330.562 149.609C328.999 157.397 322.6 166.945 330.06 169.729C340.751 173.816 341.68 159.922 340.774 154.179L348.926 156.014L349.018 151.761L341.947 150.128C341.947 150.128 347.721 141.286 346.776 136.668C345.713 130.533 335.834 129.283 333.377 135.522Z" fill="#FFCA49"/>
<path d="M360.974 142.654C360.158 148.634 358.968 148.839 356.531 156.305C354.153 163.875 355.106 175.305 347.128 174.128C335.782 172.485 341.762 159.944 345.358 155.32L337.337 152.996L339.303 149.245L346.265 151.285C346.265 151.285 345.908 140.887 348.894 137.235C353.045 132.498 361.884 136.001 360.974 142.654Z" fill="#FFCA49"/>
<path d="M263.707 174.3C265.561 177.154 264.557 180.901 261.546 182.364C255.687 185.334 245.557 189.254 235.863 186.657C226.17 184.06 219.335 175.681 215.768 170.098C213.913 167.243 214.917 163.496 217.929 162.033C223.788 159.064 233.918 155.143 243.611 157.74C253.283 160.419 260.117 168.798 263.707 174.3Z" fill="white"/>
<path d="M239.525 181.789C247.757 183.995 256.22 179.109 258.425 170.877C260.631 162.644 255.746 154.182 247.513 151.976C239.281 149.77 230.818 154.656 228.613 162.888C226.407 171.121 231.292 179.583 239.525 181.789Z" fill="#010101"/>
<path d="M345.163 196.126C347.017 198.98 346.013 202.727 343.002 204.19C337.142 207.16 327.012 211.081 317.319 208.483C307.626 205.886 300.791 197.507 297.223 191.924C295.369 189.07 296.373 185.323 299.384 183.86C305.244 180.89 315.374 176.969 325.067 179.567C334.76 182.164 341.492 190.603 345.163 196.126Z" fill="white"/>
<path d="M315.245 202.864C323.478 205.07 331.94 200.184 334.146 191.952C336.352 183.719 331.466 175.257 323.233 173.051C315.001 170.845 306.539 175.731 304.333 183.964C302.127 192.196 307.012 200.658 315.245 202.864Z" fill="#010101"/>
<path d="M287.852 193.341C286.455 198.554 281.084 201.655 275.871 200.258C270.658 198.861 267.557 193.491 268.954 188.277" stroke="#FDFDFD" stroke-width="2.52988" stroke-miterlimit="10" stroke-linecap="round" stroke-linejoin="round"/>
<path d="M213.12 221.683C213.81 222.043 214.477 222.484 215.248 222.865C214.477 222.484 213.788 222.124 213.12 221.683Z" fill="#FF77E6"/>
<path d="M226.842 230.424C227.347 230.821 227.955 231.158 228.46 231.556C227.933 231.24 227.347 230.821 226.842 230.424Z" fill="#FF77E6"/>
<path d="M218.103 224.59C218.63 224.906 219.156 225.222 219.683 225.537C219.134 225.303 218.63 224.906 218.103 224.59Z" fill="#FF77E6"/>
<path d="M228.601 231.681C229.268 232.121 229.833 232.622 230.5 233.063C229.914 232.644 229.247 232.203 228.601 231.681Z" fill="#FF77E6"/>
<path d="M248.318 264.639C248.089 264.84 247.78 265.019 247.492 265.116C247.78 265.019 248.089 264.84 248.318 264.639Z" fill="#FF77E6"/>
<path d="M215.308 222.968C216.057 223.431 216.746 223.79 217.495 224.253C216.746 223.79 215.997 223.327 215.308 222.968Z" fill="#FF77E6"/>
<path d="M220.269 225.956C220.937 226.397 221.523 226.816 222.131 227.153C221.523 226.816 220.855 226.375 220.269 225.956Z" fill="#FF77E6"/>
<path d="M224.839 229.101C225.284 229.395 225.789 229.792 226.234 230.086C225.811 229.711 225.284 229.395 224.839 229.101Z" fill="#FF77E6"/>
<path d="M222.272 227.278C222.94 227.719 223.607 228.16 224.275 228.601C223.586 228.241 222.918 227.801 222.272 227.278Z" fill="#FF77E6"/>
<path d="M210.829 220.458C211.356 220.774 211.904 221.008 212.512 221.346C211.882 221.09 211.356 220.774 210.829 220.458Z" fill="#FF77E6"/>
<path d="M207.887 219.059C208.658 219.44 209.429 219.821 210.118 220.18C209.347 219.799 208.576 219.418 207.887 219.059Z" fill="#FF77E6"/>
<path d="M249.966 262.724C249.922 262.887 249.797 263.028 249.775 263.109C249.797 263.028 249.922 262.887 249.966 262.724Z" fill="#FF77E6"/>
<path d="M250.539 260.258C250.496 260.421 250.534 260.606 250.49 260.769C250.555 260.524 250.496 260.421 250.539 260.258Z" fill="#FF77E6"/>
<path d="M250.535 259.297C250.573 259.481 250.529 259.644 250.567 259.829C250.529 259.644 250.492 259.46 250.535 259.297Z" fill="#FF77E6"/>
<path d="M248.981 264.119C249.085 264.059 249.106 263.978 249.231 263.837C249.357 263.695 249.482 263.554 249.504 263.473C249.525 263.391 249.65 263.25 249.672 263.169C249.797 263.028 249.841 262.865 249.863 262.783C249.885 262.702 249.928 262.539 250.032 262.48C250.075 262.317 250.119 262.154 250.163 261.991C250.184 261.909 250.228 261.746 250.25 261.665C250.294 261.502 250.337 261.339 250.381 261.176C250.425 261.013 250.446 260.932 250.408 260.747C250.452 260.584 250.414 260.399 250.458 260.237C250.502 260.074 250.442 259.97 250.486 259.807C250.448 259.623 250.492 259.46 250.454 259.275C250.416 259.09 250.438 259.009 250.4 258.824C250.362 258.639 250.324 258.455 250.287 258.27C250.249 258.085 250.271 258.004 250.233 257.819C250.195 257.634 250.157 257.449 250.119 257.265C250.082 257.08 250.022 256.977 250.066 256.814C250.028 256.629 249.908 256.422 249.892 256.156C249.833 256.053 249.795 255.868 249.735 255.765C249.616 255.558 249.6 255.292 249.481 255.086C249.421 254.982 249.362 254.879 249.405 254.716C249.248 254.325 249.151 254.037 248.994 253.646C248.837 253.254 248.658 252.944 248.501 252.553C248.441 252.45 248.381 252.347 248.344 252.162C248.224 251.955 248.105 251.749 248.008 251.461C244.821 245.107 240.004 239.625 234.202 235.539L234.121 235.517C234.039 235.495 233.979 235.392 233.817 235.348C233.372 235.054 232.926 234.76 232.503 234.385C232.281 234.238 232.14 234.113 231.917 233.966C231.472 233.672 230.967 233.275 230.522 232.981C229.936 232.562 229.268 232.122 228.623 231.599C228.541 231.577 228.481 231.474 228.481 231.474C227.977 231.077 227.369 230.74 226.864 230.342C226.641 230.195 226.5 230.07 226.278 229.923C225.833 229.63 225.328 229.232 224.883 228.939C224.66 228.792 224.519 228.666 224.297 228.52C223.629 228.079 222.961 227.638 222.294 227.197C222.212 227.175 222.212 227.175 222.153 227.072C221.567 226.653 220.899 226.212 220.291 225.875C220.068 225.728 219.846 225.581 219.705 225.456C219.178 225.14 218.652 224.824 218.125 224.509C217.903 224.362 217.68 224.215 217.539 224.09C216.79 223.627 216.122 223.186 215.351 222.805L215.27 222.783C214.581 222.424 213.913 221.983 213.142 221.602C212.919 221.455 212.675 221.39 212.453 221.243C211.926 220.927 211.378 220.693 210.77 220.355C210.547 220.208 210.303 220.143 210.08 219.996C209.309 219.615 208.538 219.233 207.849 218.874C201.942 216.156 198.508 217.244 200.497 220.571C201.771 222.658 206.504 225.847 209.864 227.97C215.095 228.324 218.656 230.675 218.878 230.822C219.464 231.241 219.616 231.98 219.197 232.566C218.903 233.011 218.327 233.206 217.838 233.075C217.675 233.031 217.594 233.009 217.452 232.884C217.371 232.862 214.033 230.658 209.209 230.414C208.78 230.386 208.417 230.114 208.156 229.782C199.547 229.658 194.883 232.075 194.755 234.834C194.715 235.959 195.236 236.622 195.925 236.981C199.92 235.433 208.424 233.346 218.277 238.605C218.885 238.943 219.117 239.704 218.78 240.311C218.442 240.919 217.682 241.152 217.074 240.815C206.754 235.343 198.004 238.673 195.487 239.92C194.884 240.544 194.628 241.173 194.822 241.75C195.131 242.88 195.733 243.565 196.482 244.028C198.254 243.28 207.742 239.799 219.69 247.016C220.298 247.353 220.509 248.196 220.09 248.782C219.752 249.39 218.91 249.601 218.324 249.182C207.956 242.911 199.669 245.493 197.631 246.256C196.962 247.125 197.085 248.293 198.822 249.631C202.132 252.264 207.474 250.902 222.591 260.627C237.708 270.352 247.351 264.991 247.351 264.991C247.66 264.812 247.948 264.715 248.177 264.514C248.28 264.455 248.302 264.373 248.405 264.314C248.753 264.319 248.856 264.26 248.981 264.119Z" fill="#FF77E6"/>
<path d="M249.585 263.495C249.46 263.636 249.335 263.777 249.313 263.858C249.357 263.695 249.482 263.554 249.585 263.495Z" fill="#FF77E6"/>
<path d="M248.981 264.119C248.856 264.26 248.649 264.379 248.524 264.52C248.753 264.32 248.856 264.26 248.981 264.119Z" fill="#FF77E6"/>
<path d="M248.046 251.645C248.165 251.852 248.203 252.037 248.322 252.243C248.284 252.058 248.165 251.852 248.046 251.645Z" fill="#FF77E6"/>
<path d="M248.479 252.635C248.636 253.026 248.815 253.336 248.972 253.727C248.815 253.336 248.658 252.944 248.479 252.635Z" fill="#FF77E6"/>
<path d="M248.972 253.727C249.129 254.118 249.308 254.428 249.383 254.798C249.308 254.428 249.151 254.037 248.972 253.727Z" fill="#FF77E6"/>
<path d="M250.368 258.292C250.406 258.476 250.443 258.661 250.481 258.846C250.443 258.661 250.406 258.476 250.368 258.292Z" fill="#FF77E6"/>
<path d="M233.876 235.452C233.958 235.473 234.017 235.577 234.18 235.62C234.017 235.577 233.936 235.555 233.876 235.452Z" fill="#FF77E6"/>
<path d="M231.895 234.048C232.118 234.195 232.34 234.342 232.481 234.467C232.34 234.342 232.118 234.195 231.895 234.048Z" fill="#FF77E6"/>
<path d="M250.201 257.286C250.239 257.471 250.276 257.656 250.314 257.841C250.276 257.656 250.239 257.471 250.201 257.286Z" fill="#FF77E6"/>
<path d="M249.871 256.237C249.908 256.422 250.028 256.629 250.044 256.895C250.028 256.629 249.99 256.444 249.871 256.237Z" fill="#FF77E6"/>
<path d="M249.562 255.107C249.682 255.314 249.698 255.58 249.817 255.787C249.698 255.58 249.578 255.373 249.562 255.107Z" fill="#FF77E6"/>
<path d="M218.546 249.328C219.154 249.666 219.893 249.515 220.312 248.928C220.65 248.32 220.499 247.581 219.912 247.162C207.965 239.945 198.395 243.405 196.704 244.174C198.344 245.224 200.435 244.912 200.435 244.912C199.49 245.182 198.479 245.697 197.957 246.343C199.891 245.639 208.157 243.139 218.546 249.328Z" fill="#030401"/>
<path d="M217.215 240.94C217.823 241.277 218.583 241.045 218.921 240.437C219.258 239.829 219.026 239.068 218.418 238.73C208.565 233.471 200.061 235.558 196.066 237.107C197.445 237.825 199.559 237.431 199.559 237.431C198.032 238.244 196.504 239.057 195.732 239.985C198.123 238.88 206.813 235.446 217.215 240.94Z" fill="#030401"/>
<path d="M209.247 230.598C214.071 230.843 217.431 232.966 217.49 233.069C217.631 233.194 217.713 233.216 217.876 233.26C218.364 233.391 218.941 233.196 219.234 232.751C219.653 232.164 219.421 231.404 218.916 231.007C218.775 230.881 215.192 228.612 209.902 228.155C211.986 229.499 213.588 230.365 213.588 230.365C211.649 230.107 209.932 229.996 208.276 229.989C208.433 230.38 208.818 230.571 209.247 230.598Z" fill="#030401"/>
<path d="M278.572 298.675C255.564 305.693 241.66 281.015 228.149 259.759L239.744 239.293C239.825 239.315 320.681 285.862 278.572 298.675Z" fill="#FF77E6"/>
<path d="M302.472 241.085L303.607 241.738L302.482 241.699C296.55 241.681 291.152 245.211 288.728 250.673L285.155 258.795L286.122 249.974C286.753 244.032 283.843 238.276 278.697 235.326L277.704 234.798L279.013 234.799C284.863 234.795 290.24 231.347 292.723 225.988L295.866 219.148L295.167 226.643C294.475 232.482 297.326 238.135 302.472 241.085Z" fill="#FFCA49"/>
<path d="M214.934 185.589L215.542 185.927L214.928 185.937C211.615 185.922 208.636 187.917 207.318 190.882L205.319 195.41L205.851 190.489C206.214 187.181 204.61 184.045 201.733 182.401L201.206 182.085L201.901 182.097C205.134 182.09 208.091 180.176 209.49 177.233L211.19 173.498L210.794 177.583C210.535 180.831 212.139 183.967 214.934 185.589Z" fill="#FFCA49"/>
<path d="M353.222 233.818L353.971 234.281L353.195 234.247C349.001 234.258 345.277 236.753 343.556 240.569L341.067 246.276L341.764 240.089C342.182 235.923 340.204 231.901 336.578 229.795L335.888 229.435L336.768 229.409C340.88 229.376 344.664 226.985 346.363 223.25L348.509 218.499L347.992 223.686C347.596 227.771 349.596 231.711 353.222 233.818Z" fill="#FFCA49"/>
<path d="M353.425 227.848C354.595 228.162 355.797 227.467 356.11 226.298C356.424 225.128 355.73 223.926 354.56 223.612C353.39 223.299 352.188 223.993 351.875 225.163C351.561 226.332 352.255 227.535 353.425 227.848Z" fill="#FFCA49"/>
<path d="M198.711 193.028C199.88 193.341 201.083 192.647 201.396 191.477C201.709 190.308 201.015 189.105 199.845 188.792C198.676 188.479 197.474 189.173 197.16 190.342C196.847 191.512 197.541 192.714 198.711 193.028Z" fill="#FFCA49"/>
<path d="M305.533 257.358C306.702 257.672 307.905 256.978 308.218 255.808C308.531 254.638 307.837 253.436 306.668 253.123C305.498 252.809 304.296 253.503 303.982 254.673C303.669 255.843 304.363 257.045 305.533 257.358Z" fill="#FFCA49"/>
<path d="M252.342 238.217C252.469 236.767 252.514 235.295 252.456 233.882C252.304 229.564 250.677 222.929 244.015 215.207C232.298 201.591 232.902 196.078 229.82 193.245C228.209 191.765 227.062 191.807 226.333 192.572C226.093 193.468 225.792 195.57 226.011 198.335C226.301 201.818 227.604 207.056 232.133 212.635C232.594 213.195 232.479 213.95 231.919 214.411C231.587 214.671 231.136 214.725 230.81 214.638C230.566 214.572 230.343 214.425 230.143 214.197C221.345 203.371 223.475 193.465 223.977 191.592C223.456 190.928 222.626 190.444 221.523 190.323C220.85 190.23 220.312 190.609 219.789 191.255C218.906 193.9 216.809 203.029 223.708 212.472C224.087 213.011 223.95 213.847 223.412 214.227C223.081 214.487 222.711 214.563 222.304 214.454C222.059 214.388 221.755 214.219 221.636 214.013C215.058 205.004 216.003 196.265 216.953 192.067C216.514 191.425 215.764 190.963 214.656 191.189C211.988 191.697 210.206 196.719 211.538 205.108C211.923 205.299 212.265 205.652 212.341 206.022C213.242 210.803 215.851 213.772 215.911 213.875C216.372 214.436 216.338 215.212 215.778 215.673C215.447 215.934 214.974 216.069 214.567 215.96C214.322 215.894 214.1 215.747 213.959 215.622C213.818 215.497 211.008 212.3 209.949 207.127C207.362 204.077 203.526 199.819 201.333 198.882C197.82 197.329 197.207 200.919 200.715 206.399C206.755 215.787 215.187 224.071 220.813 230.118C221.182 230.042 221.59 230.152 221.872 230.402L225.377 233.611L226.164 234.258C226.164 234.258 226.246 234.28 226.224 234.362L226.283 234.465L226.343 234.568L226.403 234.671C226.403 234.671 226.381 234.753 226.462 234.775L226.522 234.878L226.5 234.959C226.478 235.041 226.478 235.041 226.538 235.144L226.516 235.226C226.494 235.307 226.494 235.307 226.472 235.389L226.451 235.47C226.429 235.551 226.429 235.551 226.407 235.633L226.385 235.714C226.363 235.796 226.363 235.796 226.341 235.877L226.32 235.959C226.32 235.959 226.298 236.04 226.216 236.018L203.359 262.022C200.685 267.766 201.233 272.889 208.029 277.504C236.383 296.8 251.552 245.077 252.342 238.217Z" fill="#4BC17E"/>
<path d="M224.448 234.147C223.466 232.924 222.18 231.532 220.753 230.015C220.487 230.03 220.177 230.209 219.949 230.41C219.47 230.893 219.518 231.692 220.001 232.17L223.365 235.254L224.219 234.348C224.344 234.207 224.366 234.126 224.448 234.147Z" fill="#030401"/>
<path d="M225.045 233.871C225.17 233.73 225.192 233.648 225.317 233.507L221.812 230.298C221.53 230.048 221.122 229.939 220.753 230.015C222.18 231.532 223.465 232.924 224.447 234.147C224.594 233.925 224.779 233.887 225.045 233.871Z" fill="#030401"/>
<path d="M226.343 234.568C226.343 234.568 226.321 234.649 226.403 234.671C226.403 234.671 226.343 234.568 226.343 234.568Z" fill="#030401"/>
<path d="M226.023 234.133L225.236 233.486C225.111 233.627 225.089 233.708 224.964 233.849C225.415 233.795 225.741 233.883 226.023 234.133Z" fill="#030401"/>
<path d="M226.429 235.551L226.407 235.633C226.325 235.611 226.429 235.551 226.429 235.551Z" fill="#030401"/>
<path d="M226.104 234.155C226.104 234.155 226.186 234.177 226.164 234.258C226.083 234.236 226.083 234.236 226.104 234.155Z" fill="#030401"/>
<path d="M226.223 234.361C226.223 234.361 226.283 234.465 226.223 234.361C226.283 234.465 226.223 234.361 226.223 234.361Z" fill="#030401"/>
<path d="M223.469 235.195L200.361 261.48C199.883 261.963 199.931 262.762 200.495 263.262C200.636 263.387 200.777 263.512 201.022 263.578C201.51 263.709 201.983 263.574 202.255 263.21L203.381 261.94C206.927 254.247 216.237 245.567 223.81 235.548L223.469 235.195Z" fill="#030401"/>
<path d="M226.26 235.855C226.238 235.937 226.238 235.937 226.135 235.996C225.782 236.338 225.309 236.473 224.901 236.364C224.739 236.321 224.516 236.174 224.375 236.048L223.811 235.548C216.156 245.545 206.927 254.247 203.381 261.94L226.238 235.937C226.157 235.915 226.179 235.833 226.26 235.855Z" fill="#030401"/>
<path d="M226.164 234.258L226.223 234.362C226.223 234.362 226.164 234.258 226.164 234.258Z" fill="#030401"/>
<path d="M226.44 234.856C226.418 234.937 226.418 234.937 226.478 235.04C226.478 235.04 226.418 234.937 226.44 234.856Z" fill="#030401"/>
<path d="M226.403 234.671L226.462 234.774L226.403 234.671Z" fill="#030401"/>
<path d="M226.283 234.465L226.343 234.568L226.283 234.465Z" fill="#030401"/>
<path d="M224.648 234.376C224.589 234.272 224.529 234.169 224.447 234.147C224.344 234.207 224.322 234.288 224.241 234.267L223.387 235.173L223.729 235.526C224.082 235.184 224.376 234.739 224.648 234.376Z" fill="#030401"/>
<path d="M225.229 235.142C225.028 234.914 224.827 234.685 224.648 234.376C224.376 234.739 224.082 235.184 223.81 235.548L224.375 236.048C224.516 236.173 224.738 236.32 224.901 236.364C225.308 236.473 225.863 236.36 226.135 235.996C226.157 235.915 226.157 235.915 226.26 235.855L226.282 235.774C225.614 235.333 225.229 235.142 225.229 235.142Z" fill="#030401"/>
<path d="M224.447 234.147C224.507 234.251 224.567 234.354 224.648 234.376C224.773 234.235 224.92 234.012 225.045 233.871C224.779 233.887 224.594 233.925 224.447 234.147Z" fill="#030401"/>
<path d="M226.282 235.773C226.303 235.692 226.303 235.692 226.325 235.611L226.347 235.529C226.369 235.448 226.369 235.448 226.391 235.366L226.413 235.285C226.434 235.203 226.434 235.203 226.456 235.122L226.478 235.04C226.5 234.959 226.5 234.959 226.44 234.856L226.462 234.774L226.402 234.671C226.402 234.671 226.424 234.589 226.343 234.568L226.283 234.464L226.224 234.361L226.164 234.258L226.104 234.155C225.822 233.904 225.415 233.795 225.045 233.871C224.92 234.012 224.773 234.234 224.648 234.375C224.849 234.604 225.028 234.914 225.229 235.142C225.229 235.142 225.614 235.333 226.282 235.773Z" fill="#030401"/>
<path d="M230.224 214.219C230.425 214.447 230.647 214.594 230.892 214.659C231.299 214.768 231.668 214.693 232 214.433C232.56 213.971 232.594 213.195 232.214 212.656C227.685 207.078 226.382 201.84 226.093 198.357C225.873 195.592 226.256 193.512 226.415 192.594C225.811 193.218 225.446 194.255 225.347 195.276C225.347 195.276 225.301 193.169 224.037 191.695C223.475 193.465 221.345 203.371 230.224 214.219Z" fill="#030401"/>
<path d="M221.658 213.931C221.858 214.159 222.081 214.306 222.325 214.372C222.651 214.459 223.102 214.405 223.434 214.145C223.972 213.765 224.109 212.929 223.729 212.391C216.853 202.865 219.009 193.84 219.811 191.174C219.038 192.102 218.357 193.665 217.818 195.354C217.818 195.354 217.853 193.268 216.974 191.985C215.921 196.243 215.079 204.922 221.658 213.931Z" fill="#030401"/>
<path d="M213.762 216.355C213.963 216.584 214.126 216.627 214.37 216.693C214.777 216.802 215.228 216.748 215.582 216.406C216.142 215.945 216.175 215.169 215.714 214.608C215.714 214.608 213.045 211.536 212.144 206.755C212.09 206.304 211.748 205.95 211.341 205.841C211.6 207.482 211.918 209.226 212.459 211.117C212.459 211.117 211.358 209.687 209.774 207.779C210.833 212.951 213.621 216.23 213.762 216.355Z" fill="#030401"/>
<path d="M286.875 278.114C286.631 278.048 286.409 277.901 286.267 277.776L273.66 263.572C273.199 263.012 273.233 262.236 273.793 261.775C274.353 261.313 275.129 261.347 275.591 261.907L288.138 276.008C288.621 276.486 288.669 277.285 288.19 277.768C287.837 278.109 287.364 278.245 286.875 278.114Z" fill="#030401"/>
<g clip-path="url(#clip0_3_3977)">
<path d="M127.796 411.262C120.232 412.46 113.209 407.365 112.023 399.877L92.2849 275.256C91.0886 267.703 96.1936 260.688 103.757 259.49L103.822 259.479C105.127 259.273 106.396 259.272 107.687 259.401C113.726 256.176 122.364 252.472 131.688 250.995C151.053 247.927 162.316 256.155 168.375 263.605C169.944 265.493 171.122 267.442 172.128 269.151C172.337 268.784 172.546 268.418 172.766 268.116C175.363 263.833 179.654 256.746 189.565 255.177C191.065 254.939 192.585 254.832 194.202 254.909C204.01 255.225 210.721 260.035 215.242 263.257C216.525 264.188 218.413 265.558 219.333 265.88C219.779 265.742 220.956 265.155 223.197 263.265C223.907 262.686 225.084 260.831 225.986 259.353C228.923 254.683 233.41 247.565 242.604 246.109C244.56 245.799 246.633 245.804 248.682 246.08C255.793 247.09 260.142 250.072 263.66 252.451C263.887 252.616 264.179 252.77 264.415 252.999C271.236 257.659 275.274 265.429 275.118 273.73C275.183 273.72 275.314 273.699 275.379 273.689C277.661 273.327 280.105 273.14 282.775 273.118C306.719 272.796 321.766 290.57 322.422 291.333L328.213 298.359C332.093 303.017 328.669 310.1 322.571 309.998L313.455 309.84C311.914 309.817 310.525 309.904 309.286 310.1C303.287 311.05 300.968 314.554 296.303 323.503C294.052 327.864 291.449 332.948 287.472 337.382C292.407 337.735 295.261 343.09 292.935 347.396L289.618 353.461C289.155 354.336 287.251 357.507 283.151 361.16C278.81 364.984 273.526 367.49 267.788 368.399C266.484 368.605 265.104 368.757 263.769 368.768C263.704 368.779 263.639 368.789 263.639 368.789C260.979 368.876 258.449 368.943 255.776 369.367C253.364 369.749 250.992 370.391 248.412 371.401C247.149 371.868 245.715 373.363 243.196 376.031C237.305 382.304 228.306 391.738 209.461 394.723V394.723C199.224 396.344 190.479 394.726 183.457 393.436C179.188 392.643 175.2 391.94 172.375 392.254C171.593 392.378 170.8 392.437 170.083 392.55C162.323 393.779 158.192 395.969 152.883 398.745C148.752 400.935 143.814 403.519 137.232 405.429C135.187 408.556 131.869 410.817 127.892 411.447L127.827 411.457L127.796 411.262ZM242.181 282.684C242.905 283.037 243.629 283.389 244.343 283.677C246.224 284.58 248.603 285.672 249.546 285.723C250.902 285.842 251.966 285.807 252.814 285.672C253.922 285.497 254.162 285.325 256.382 283.305C257.027 282.736 257.662 282.101 258.427 281.446C258.026 281.443 257.559 281.45 257.168 281.512C252.38 281.67 247.853 281.786 243.745 282.437C243.224 282.519 242.702 282.602 242.181 282.684Z" fill="white"/>
<path d="M105.264 272.8C105.264 272.8 140.727 248.562 158.345 270.333C163.406 276.54 164.4 284.925 173.874 281.022C182.412 277.534 181.026 265.406 192.581 265.778C208.77 266.284 212.306 286.081 229.229 271.387C234.99 266.403 236.751 255.579 245.771 256.82C255.343 258.174 256.384 264.75 271.407 268.444C258.84 270.969 242.41 268.098 230.554 273.847C211.986 282.795 203.158 275.583 189.243 282.259C166.492 293.071 161.218 282.559 144.38 281.756C128.01 280.944 109.038 296.631 109.038 296.631L105.264 272.8Z" fill="#FFCA49"/>
<path d="M312.402 298.127C278.405 297.438 291.447 338.422 258.163 336.752C225.347 335.075 229.57 358.367 207.792 361.816C186.014 365.266 183.79 350.801 162.011 354.25C140.298 357.689 150.252 374.534 128.539 377.973C126.126 378.355 123.943 378.5 121.936 378.485L109.179 297.943C115.047 295.746 121.358 293.812 128.726 292.645C150.439 289.206 173.536 313.914 202.411 296.192C227.447 280.813 236.655 295.907 247.404 296.674C265.594 297.998 259.619 284.328 281.631 284.045C300.486 283.662 312.402 298.127 312.402 298.127Z" fill="#FF77E6"/>
<path d="M278.456 347.554C278.456 347.554 277.375 349.594 274.38 352.204C271.045 355.202 266.7 356.891 262.239 356.997L262.174 357.007C256.779 357.128 251.123 357.289 243.175 360.283C239.452 361.674 236.933 364.342 233.791 367.71C228.349 373.444 221.593 380.588 206.466 382.984L206.401 382.994C198.055 384.316 190.686 382.947 184.216 381.769C179.123 380.84 174.301 379.935 169.716 380.528C158.439 381.914 152.575 384.978 146.34 388.235C140.606 391.279 134.611 394.364 124.765 395.924L123.166 385.832C131.317 384.541 136.07 382.053 141.629 379.17C148.049 375.817 155.331 371.994 168.509 370.374C174.604 369.609 180.456 370.684 186.101 371.726C192.365 372.87 198.282 373.935 204.878 372.957L204.943 372.946C216.615 371.098 221.432 366.063 226.469 360.727C230.081 356.951 233.814 353.089 239.597 350.772C252.74 345.553 278.456 347.554 278.456 347.554Z" fill="#4BC17E"/>
<path d="M124.776 399.793L124.711 399.803C123.342 400.02 122.058 399.089 121.841 397.721L102.103 273.1C101.887 271.733 102.82 270.451 104.189 270.234L104.254 270.223C105.624 270.007 106.907 270.938 107.124 272.305L126.862 396.926C127.079 398.294 126.145 399.576 124.776 399.793Z" fill="white" stroke="#030401" stroke-width="2.68874" stroke-miterlimit="10" stroke-linecap="round" stroke-linejoin="round"/>
<path d="M138.836 340.373C139.131 340.825 139.215 341.301 139.088 341.803C138.958 342.288 138.706 342.758 138.331 343.213C137.956 343.668 137.506 344.083 136.98 344.459C136.472 344.832 135.975 345.117 135.491 345.314C134.956 345.519 134.376 345.662 133.753 345.744C133.149 345.839 132.525 345.861 131.88 345.808C131.255 345.77 130.627 345.663 129.998 345.487C129.382 345.292 128.799 345.032 128.249 344.707C127.584 344.313 127.031 343.807 126.59 343.189C126.162 342.552 125.811 341.859 125.538 341.112C125.265 340.364 125.059 339.605 124.92 338.836C124.795 338.048 124.703 337.305 124.645 336.61C124.597 335.981 124.62 335.315 124.715 334.612C124.81 333.909 124.983 333.211 125.235 332.518C125.5 331.805 125.841 331.132 126.256 330.498C126.689 329.862 127.218 329.297 127.845 328.802C128.317 328.418 128.864 328.125 129.486 327.923C130.122 327.702 130.772 327.573 131.437 327.537C132.116 327.481 132.768 327.524 133.392 327.666C134.031 327.788 134.59 328.009 135.071 328.329C135.376 328.521 135.705 328.804 136.056 329.178C136.425 329.55 136.711 329.943 136.914 330.358C137.117 330.773 137.182 331.184 137.109 331.591C137.05 331.979 136.755 332.284 136.222 332.506C135.998 332.61 135.791 332.66 135.601 332.656C135.409 332.635 135.229 332.586 135.062 332.509C134.892 332.415 134.729 332.304 134.57 332.174C134.412 332.044 134.263 331.913 134.121 331.781C133.641 331.358 133.12 331.105 132.556 331.023C131.99 330.923 131.447 330.966 130.926 331.152C130.419 331.318 129.959 331.615 129.545 332.041C129.145 332.449 128.862 332.941 128.695 333.517C128.517 334.13 128.399 334.794 128.34 335.508C128.295 336.203 128.32 336.905 128.415 337.612C128.507 338.302 128.672 338.964 128.91 339.597C129.165 340.228 129.508 340.767 129.94 341.214C130.272 341.574 130.651 341.85 131.077 342.04C131.519 342.228 131.975 342.336 132.444 342.365C132.913 342.394 133.369 342.339 133.811 342.2C134.27 342.059 134.699 341.836 135.098 341.532C135.222 341.444 135.35 341.329 135.482 341.188C135.629 341.027 135.775 340.866 135.922 340.705C136.068 340.544 136.216 340.392 136.365 340.248C136.531 340.101 136.711 339.987 136.904 339.905C137.19 339.756 137.519 339.713 137.889 339.774C138.277 339.833 138.593 340.033 138.836 340.373Z" fill="#010101"/>
<path d="M147.401 319.158C148.458 318.56 149.444 318.215 150.358 318.122C151.289 318.026 152.148 318.131 152.936 318.436C153.721 318.724 154.42 319.173 155.032 319.781C155.661 320.386 156.203 321.092 156.657 321.897C157.01 322.494 157.309 323.135 157.555 323.818C157.8 324.502 157.988 325.194 158.116 325.896C158.258 326.579 158.341 327.262 158.363 327.947C158.402 328.628 158.383 329.268 158.306 329.865C158.266 330.267 158.205 330.637 158.121 330.977C158.037 331.317 157.928 331.661 157.794 332.009C157.489 332.797 157.037 333.471 156.438 334.03C155.855 334.587 155.184 335.02 154.425 335.329C153.909 335.548 153.366 335.703 152.796 335.794C152.223 335.867 151.649 335.881 151.074 335.834C150.496 335.771 149.926 335.646 149.364 335.46C148.815 335.255 148.298 334.975 147.812 334.622C147.212 334.201 146.693 333.69 146.254 333.089C145.812 332.471 145.441 331.816 145.143 331.124C144.841 330.415 144.607 329.696 144.44 328.965C144.272 328.235 144.161 327.53 144.105 326.851C144.057 326.223 144.069 325.541 144.142 324.808C144.232 324.071 144.41 323.346 144.675 322.634C144.94 321.921 145.292 321.263 145.73 320.661C146.182 320.039 146.739 319.538 147.401 319.158ZM154.995 328.996C155.072 328.176 155.015 327.273 154.824 326.289C154.634 325.304 154.327 324.398 153.904 323.571C153.634 323.063 153.325 322.631 152.976 322.273C152.641 321.896 152.264 321.629 151.843 321.472C151.44 321.313 150.986 321.273 150.483 321.353C149.979 321.432 149.441 321.672 148.868 322.073C148.529 322.316 148.25 322.618 148.032 322.979C147.831 323.338 147.678 323.732 147.574 324.161C147.487 324.587 147.427 325.027 147.396 325.479C147.381 325.928 147.397 326.356 147.444 326.761C147.48 327.203 147.544 327.665 147.638 328.149C147.729 328.616 147.855 329.086 148.016 329.56C148.191 330.013 148.397 330.445 148.634 330.855C148.868 331.248 149.155 331.589 149.493 331.88C150.009 332.314 150.568 332.586 151.17 332.697C151.787 332.789 152.37 332.723 152.919 332.498C153.81 332.15 154.417 331.427 154.742 330.326C154.885 329.925 154.969 329.482 154.995 328.996Z" fill="#010101"/>
<path d="M182.856 335.847C182.885 336.135 182.891 336.443 182.874 336.773C182.874 337.099 182.756 337.385 182.52 337.629C182.345 337.828 182.134 337.965 181.888 338.038C181.642 338.112 181.387 338.135 181.125 338.107C180.882 338.094 180.642 338.046 180.406 337.963C180.166 337.864 179.965 337.732 179.801 337.569C179.119 336.955 178.477 336.317 177.873 335.656C177.284 334.975 176.686 334.296 176.08 333.618L173.46 330.757C173.103 330.349 172.721 329.894 172.315 329.39C171.906 328.87 171.495 328.394 171.082 327.96L172.529 337.586L172.565 337.812C172.608 338.081 172.6 338.357 172.542 338.641C172.498 338.906 172.381 339.148 172.192 339.367C172.046 339.528 171.842 339.655 171.582 339.748C171.176 339.898 170.82 339.929 170.513 339.84C170.223 339.748 169.976 339.598 169.771 339.39C169.583 339.179 169.431 338.928 169.316 338.636C169.216 338.325 169.158 338.016 169.144 337.709L169.076 337.281L168.815 335.31L168.263 331.657C168.194 331.118 168.116 330.571 168.029 330.018C167.938 329.447 167.847 328.868 167.754 328.281C167.623 327.562 167.502 326.799 167.391 325.991C167.297 325.181 167.211 324.42 167.133 323.71C167.105 323.319 167.146 322.977 167.254 322.685C167.284 322.44 167.428 322.21 167.687 321.997C167.853 321.851 168.076 321.738 168.356 321.659C168.653 321.578 168.914 321.545 169.14 321.561C169.229 321.581 169.32 321.61 169.412 321.647C169.501 321.667 169.591 321.696 169.683 321.733C169.778 321.787 169.864 321.842 169.942 321.898C170.036 321.952 170.123 322.016 170.204 322.089C170.301 322.159 170.391 322.24 170.474 322.33C170.555 322.403 170.635 322.476 170.715 322.55C170.782 322.642 170.847 322.727 170.91 322.803C170.974 322.878 171.046 322.953 171.126 323.026L171.467 323.385L178.731 331.625L178.468 329.964C178.383 329.427 178.288 328.883 178.184 328.332C178.093 327.761 177.992 327.176 177.879 326.574C177.768 325.87 177.648 325.115 177.521 324.309C177.41 323.501 177.316 322.742 177.237 322.033C177.192 321.747 177.224 321.407 177.334 321.011C177.383 320.78 177.498 320.581 177.678 320.415C177.858 320.249 178.07 320.121 178.313 320.031C178.557 319.94 178.809 319.901 179.068 319.911C179.328 319.921 179.562 319.988 179.771 320.109C179.829 320.152 179.888 320.202 179.949 320.262C180.01 320.321 180.064 320.39 180.111 320.468C180.23 320.673 180.31 320.858 180.354 321.023C180.441 321.25 180.5 321.456 180.529 321.64C180.861 323.737 181.2 325.876 181.545 328.057C181.908 330.236 182.263 332.372 182.612 334.467C182.649 334.702 182.695 334.935 182.749 335.167C182.8 335.383 182.836 335.609 182.856 335.847Z" fill="#010101"/>
<path d="M203.693 313.738C203.912 313.927 204.04 314.139 204.077 314.373C204.093 314.474 204.102 314.584 204.104 314.705C204.12 314.805 204.126 314.899 204.122 314.985C204.101 315.178 204.02 315.371 203.879 315.566C203.761 315.688 203.588 315.792 203.361 315.88C203.249 315.932 203.136 315.976 203.021 316.011C202.906 316.046 202.784 316.092 202.655 316.146C202.54 316.182 202.424 316.209 202.307 316.227C202.189 316.246 202.064 316.266 201.929 316.287L200.646 316.49C200.347 316.555 200.046 316.611 199.744 316.659C199.459 316.704 199.174 316.749 198.888 316.795C198.987 317.312 199.085 317.873 199.181 318.477C199.274 319.064 199.374 319.753 199.482 320.544C199.607 321.333 199.744 322.248 199.892 323.291C200.056 324.331 200.248 325.539 200.465 326.915L200.768 328.828C200.795 328.995 200.823 329.12 200.853 329.201C200.864 329.268 200.875 329.335 200.885 329.403C200.893 329.453 200.895 329.521 200.892 329.608C200.882 329.764 200.885 329.944 200.9 330.148C200.913 330.232 200.918 330.317 200.915 330.404C200.909 330.474 200.896 330.553 200.875 330.642C200.819 330.72 200.793 330.776 200.798 330.809L200.747 330.972C200.69 331.153 200.555 331.338 200.344 331.526C200.005 331.769 199.6 331.876 199.131 331.847C198.841 331.859 198.611 331.818 198.441 331.724C198.266 331.597 198.133 331.464 198.042 331.323C197.912 331.155 197.826 330.988 197.782 330.823C197.708 330.68 197.658 330.524 197.631 330.356L195.582 317.421C195.482 317.437 195.272 317.471 194.953 317.521C194.635 317.572 194.291 317.626 193.922 317.684C193.567 317.723 193.228 317.76 192.907 317.794C192.586 317.827 192.365 317.845 192.245 317.847C192.141 317.846 191.978 317.846 191.755 317.847C191.548 317.845 191.375 317.838 191.235 317.826C190.867 317.781 190.565 317.666 190.329 317.48C190.11 317.291 189.979 317.062 189.937 316.794C189.921 316.693 189.905 316.592 189.889 316.492C189.873 316.391 189.875 316.296 189.895 316.207C189.914 315.998 190.021 315.808 190.218 315.64C190.277 315.579 190.369 315.504 190.492 315.416C190.63 315.308 190.763 315.227 190.892 315.172C191.083 315.073 191.327 314.983 191.623 314.901C191.755 314.863 191.888 314.834 192.022 314.812C192.156 314.791 192.299 314.768 192.45 314.745C193.037 314.652 193.591 314.564 194.111 314.481C194.648 314.396 195.208 314.299 195.793 314.189C196.763 314.018 197.728 313.866 198.687 313.731C199.66 313.577 200.627 313.441 201.589 313.323C201.81 313.305 202.023 313.297 202.23 313.299C202.437 313.3 202.647 313.327 202.862 313.379C203.021 313.406 203.174 313.45 203.322 313.513C203.466 313.559 203.59 313.634 203.693 313.738Z" fill="#010101"/>
<path d="M213.333 334.048L213.044 332.056L212.483 328.352C212.415 327.813 212.335 327.258 212.245 326.687C212.155 326.117 212.062 325.53 211.966 324.926C211.87 324.322 211.785 323.785 211.711 323.315C211.637 322.845 211.57 322.314 211.51 321.722L211.494 321.621C211.484 321.451 211.466 321.282 211.44 321.114C211.427 320.927 211.406 320.741 211.377 320.556C211.346 320.252 211.387 319.91 211.499 319.531C211.579 319.277 211.723 319.048 211.931 318.843C212.179 318.667 212.428 318.558 212.68 318.518C212.814 318.497 212.933 318.487 213.036 318.488C213.153 318.469 213.264 318.46 213.367 318.461C213.59 318.46 213.799 318.53 213.994 318.671C214.108 318.739 214.221 318.859 214.334 319.03C214.384 319.126 214.425 319.222 214.458 319.32C214.504 319.399 214.544 319.487 214.577 319.585C214.612 319.7 214.638 319.808 214.654 319.908C214.687 320.006 214.711 320.106 214.727 320.206C214.745 320.324 214.754 320.434 214.754 320.537C214.767 320.621 214.781 320.714 214.797 320.814L214.865 321.242L216.783 334.327L216.823 334.579C216.831 334.629 216.833 334.697 216.829 334.784C216.84 334.851 216.845 334.936 216.844 335.039C216.824 335.129 216.805 335.226 216.787 335.332C216.784 335.419 216.773 335.515 216.756 335.621C216.719 335.713 216.673 335.806 216.619 335.901C216.58 335.976 216.523 336.053 216.45 336.134C216.337 336.289 216.133 336.416 215.839 336.514C215.402 336.687 214.968 336.712 214.536 336.592C214.313 336.489 214.144 336.344 214.029 336.156C213.97 336.114 213.937 336.067 213.929 336.017C213.907 335.986 213.886 335.964 213.867 335.95C213.847 335.935 213.827 335.913 213.805 335.882C213.758 335.803 213.719 335.724 213.689 335.642C213.656 335.544 213.632 335.445 213.616 335.344C213.586 335.263 213.556 335.182 213.526 335.101C213.513 335.017 213.491 334.934 213.461 334.853C213.423 334.721 213.4 334.579 213.393 334.425L213.333 334.048Z" fill="#010101"/>
<path d="M238.494 325.075C238.523 325.362 238.529 325.671 238.512 326C238.512 326.327 238.394 326.612 238.157 326.856C237.983 327.056 237.772 327.193 237.526 327.266C237.279 327.339 237.025 327.362 236.763 327.335C236.52 327.322 236.28 327.274 236.044 327.191C235.804 327.091 235.603 326.96 235.439 326.797C234.757 326.182 234.115 325.545 233.511 324.884C232.922 324.203 232.324 323.524 231.718 322.846L229.098 319.985C228.741 319.577 228.359 319.121 227.953 318.618C227.544 318.098 227.133 317.622 226.72 317.188L228.167 326.813L228.203 327.04C228.246 327.308 228.238 327.585 228.18 327.869C228.136 328.134 228.019 328.376 227.83 328.595C227.684 328.756 227.48 328.883 227.22 328.976C226.814 329.126 226.457 329.157 226.151 329.068C225.861 328.976 225.614 328.826 225.409 328.618C225.221 328.407 225.069 328.155 224.954 327.864C224.853 327.553 224.796 327.244 224.782 326.937L224.714 326.509L224.453 324.538L223.901 320.885C223.832 320.346 223.754 319.799 223.667 319.245C223.576 318.675 223.485 318.096 223.392 317.509C223.261 316.79 223.14 316.027 223.029 315.219C222.935 314.408 222.849 313.648 222.771 312.938C222.743 312.547 222.784 312.205 222.892 311.913C222.922 311.667 223.066 311.438 223.325 311.225C223.491 311.078 223.714 310.966 223.994 310.887C224.29 310.806 224.552 310.773 224.778 310.789C224.867 310.809 224.958 310.838 225.049 310.875C225.139 310.895 225.229 310.924 225.321 310.961C225.416 311.014 225.502 311.07 225.579 311.126C225.674 311.18 225.761 311.243 225.842 311.317C225.939 311.387 226.029 311.468 226.112 311.558C226.193 311.631 226.273 311.704 226.353 311.777C226.42 311.87 226.485 311.954 226.548 312.03C226.612 312.106 226.684 312.181 226.764 312.254L227.105 312.613L234.369 320.852L234.106 319.191C234.021 318.655 233.926 318.111 233.822 317.56C233.731 316.989 233.63 316.403 233.517 315.802C233.406 315.097 233.286 314.342 233.159 313.537C233.048 312.729 232.953 311.97 232.875 311.26C232.83 310.975 232.862 310.635 232.972 310.239C233.021 310.008 233.136 309.809 233.316 309.643C233.496 309.477 233.708 309.349 233.951 309.258C234.195 309.168 234.447 309.128 234.706 309.139C234.966 309.149 235.2 309.215 235.408 309.337C235.467 309.379 235.526 309.43 235.587 309.489C235.648 309.549 235.702 309.617 235.749 309.696C235.867 309.901 235.948 310.086 235.992 310.251C236.079 310.478 236.138 310.683 236.167 310.868C236.499 312.965 236.838 315.104 237.183 317.285C237.545 319.464 237.901 321.6 238.25 323.694C238.287 323.929 238.333 324.163 238.387 324.395C238.438 324.611 238.474 324.837 238.494 325.075Z" fill="#010101"/>
<path d="M260.901 309.741C261.129 310.531 261.336 311.461 261.523 312.532C261.707 313.586 261.861 314.663 261.983 315.761C262.119 316.84 262.206 317.876 262.243 318.867C262.277 319.842 262.256 320.636 262.182 321.25C262.12 321.621 262.036 322.013 261.929 322.425C261.837 322.818 261.722 323.18 261.585 323.512C261.389 324.007 261.125 324.462 260.795 324.875C260.462 325.272 260.081 325.633 259.651 325.959C259.235 326.266 258.778 326.527 258.279 326.744C257.797 326.958 257.306 327.113 256.805 327.21C255.921 327.384 255.054 327.392 254.204 327.235C253.367 327.058 252.563 326.703 251.791 326.172C251.211 325.765 250.726 325.309 250.336 324.803C249.946 324.297 249.62 323.756 249.356 323.178C249.09 322.584 248.88 321.964 248.726 321.318C248.589 320.669 248.466 320 248.357 319.312C248.307 318.994 248.236 318.601 248.145 318.134C248.068 317.647 247.989 317.152 247.909 316.649C247.827 316.129 247.747 315.625 247.67 315.139C247.593 314.652 247.537 314.24 247.5 313.902C247.466 313.684 247.428 313.449 247.389 313.197C247.346 312.929 247.313 312.667 247.29 312.413C247.281 312.139 247.292 311.88 247.322 311.634C247.349 311.372 247.414 311.129 247.516 310.907C247.632 310.665 247.817 310.472 248.069 310.329C248.322 310.186 248.591 310.092 248.876 310.047C249.178 309.999 249.472 310.012 249.759 310.087C250.046 310.162 250.291 310.295 250.493 310.487C250.599 310.608 250.679 310.733 250.733 310.862C250.788 310.99 250.837 311.137 250.881 311.303C251.002 311.851 251.118 312.477 251.23 313.182C251.358 313.884 251.467 314.572 251.557 315.246C251.66 315.9 251.748 316.505 251.819 317.062C251.889 317.618 251.946 318.03 251.989 318.299C252.148 319.305 252.343 320.212 252.574 321.018C252.802 321.807 253.144 322.441 253.598 322.919C254.01 323.353 254.454 323.601 254.928 323.663C255.402 323.726 255.862 323.696 256.307 323.574C256.718 323.457 257.114 323.24 257.493 322.921C257.887 322.584 258.17 322.144 258.342 321.6C258.413 321.4 258.464 321.177 258.494 320.931C258.524 320.686 258.539 320.46 258.541 320.253C258.507 319.605 258.449 318.858 258.367 318.011C258.281 317.147 258.185 316.268 258.078 315.374C257.971 314.479 257.849 313.604 257.714 312.748C257.578 311.893 257.447 311.122 257.322 310.437C257.307 310.13 257.356 309.838 257.467 309.563C257.567 309.324 257.729 309.1 257.954 308.892C258.179 308.685 258.51 308.546 258.946 308.477C259.301 308.438 259.601 308.485 259.846 308.619C260.088 308.735 260.29 308.875 260.454 309.038C260.639 309.232 260.788 309.467 260.901 309.741Z" fill="#010101"/>
<path d="M271.047 300.093L271.623 304.052L272.629 303.893C273.314 303.767 273.925 303.662 274.462 303.577C274.999 303.492 275.596 303.406 276.253 303.319L276.379 303.299C276.58 303.267 276.774 303.245 276.962 303.232C277.163 303.201 277.356 303.17 277.54 303.141C277.744 303.126 277.943 303.129 278.135 303.15C278.325 303.154 278.516 303.167 278.709 303.188C279.01 303.243 279.269 303.357 279.485 303.529C279.687 303.721 279.81 303.951 279.852 304.219C279.866 304.303 279.882 304.404 279.9 304.521C279.916 304.622 279.914 304.717 279.894 304.806C279.889 304.996 279.807 305.181 279.646 305.361C279.581 305.492 279.435 305.601 279.208 305.688C279 305.79 278.789 305.867 278.574 305.918C278.347 306.005 278.116 306.068 277.881 306.105L276.698 306.292L272.046 307.055L272.777 311.995L277.793 311.252L278.976 311.065C279.11 311.044 279.236 311.024 279.354 311.005C279.471 310.987 279.581 310.978 279.685 310.979C279.824 310.991 279.946 310.998 280.049 310.998C280.166 310.98 280.278 310.979 280.384 310.997C280.596 311.032 280.778 311.098 280.931 311.194C281.126 311.335 281.263 311.494 281.342 311.671C281.372 311.752 281.395 311.843 281.411 311.944C281.441 312.025 281.456 312.117 281.455 312.22C281.497 312.489 281.452 312.745 281.319 312.99C281.155 313.257 280.944 313.445 280.686 313.555C280.358 313.761 279.984 313.898 279.564 313.964C279.382 314.01 279.191 314.049 278.989 314.081C278.788 314.113 278.597 314.152 278.415 314.198L278.264 314.222C276.96 314.463 275.601 314.678 274.187 314.868C273.851 314.921 273.582 314.955 273.378 314.97C273.176 315.002 272.992 315.031 272.824 315.058C272.673 315.082 272.514 315.107 272.346 315.134C272.178 315.16 271.96 315.195 271.691 315.237C271.311 315.332 270.981 315.315 270.703 315.187C270.5 315.099 270.332 314.962 270.2 314.777C270.141 314.735 270.108 314.688 270.1 314.638C270.078 314.607 270.057 314.584 270.038 314.57C270.019 314.556 269.998 314.534 269.976 314.503C269.929 314.424 269.89 314.344 269.86 314.263C269.828 314.165 269.805 314.074 269.791 313.99C269.761 313.909 269.731 313.828 269.701 313.747C269.688 313.663 269.666 313.58 269.636 313.499L269.572 313.096C269.562 313.029 269.551 312.962 269.54 312.895C269.547 312.825 269.544 312.757 269.534 312.69L269.223 310.727L268.699 307.095L268.169 303.748C268.073 303.144 267.988 302.607 267.914 302.137C267.856 301.665 267.792 301.151 267.721 300.594L267.701 300.468C267.689 300.281 267.671 300.112 267.647 299.961C267.637 299.791 267.619 299.622 267.592 299.454C267.556 299.116 267.596 298.774 267.714 298.429C267.759 298.284 267.808 298.156 267.859 298.044C267.927 297.93 268.023 297.829 268.146 297.741C268.374 297.55 268.622 297.433 268.891 297.391C269.025 297.37 269.127 297.362 269.197 297.368L269.193 297.343C269.495 297.295 269.738 297.257 269.922 297.227C270.107 297.198 270.283 297.17 270.451 297.144C270.635 297.114 270.828 297.084 271.03 297.052C271.228 297.003 271.504 296.951 271.856 296.895C272.525 296.772 273.161 296.663 273.765 296.567C274.369 296.472 274.991 296.382 275.631 296.297L275.732 296.282C275.919 296.269 276.113 296.247 276.314 296.215C276.516 296.183 276.71 296.161 276.897 296.148C277.082 296.119 277.27 296.115 277.463 296.136C277.653 296.141 277.845 296.162 278.04 296.2C278.339 296.238 278.596 296.344 278.813 296.516C279.001 296.727 279.114 296.95 279.151 297.185C279.167 297.285 279.183 297.386 279.199 297.487C279.212 297.57 279.209 297.657 279.188 297.746C279.198 297.917 279.125 298.109 278.97 298.322C278.908 298.367 278.839 298.421 278.763 298.484C278.704 298.545 278.627 298.6 278.532 298.65C278.436 298.699 278.331 298.742 278.217 298.777C278.116 298.793 278.017 298.817 277.919 298.85C277.79 298.905 277.666 298.942 277.549 298.96C277.448 298.976 277.331 298.995 277.197 299.016L276.064 299.195L271.035 300.018L271.047 300.093Z" fill="#010101"/>
</g>
<defs>
<clipPath id="clip0_3_3977">
<rect width="230.4" height="157.685" fill="white" transform="translate(89.5005 257.677) rotate(-9)"/>
</clipPath>
</defs>
</svg>
