<svg width="500" height="500" viewBox="0 0 500 500" fill="none" xmlns="http://www.w3.org/2000/svg">
<rect width="500" height="500" fill="#FFEBEE"/>
<rect x="25" y="25" width="450" height="450" rx="20" stroke="#FF77E6" stroke-width="10"/>
<path d="M184.94 327.584C183.991 327.82 182.934 327.992 181.964 328.142C179.958 328.551 177.824 328.808 175.689 328.699C175.128 328.656 173.835 328.612 171.83 328.287C168.811 327.94 166.159 327.227 163.68 326.104C156.416 323.426 146.996 317.986 140.168 306.769C127.947 300.379 114.543 287.412 111.476 261.147C108.924 238.785 101.493 226.986 94.9661 216.61C88.1163 205.674 81.0078 194.436 84.555 177.059C88.513 158.022 99.083 150.805 107.539 145.032C113.579 140.96 118.26 137.686 122.297 129.991C125.924 122.856 139.89 99.1246 167.494 92.2421C183.108 88.3492 199.407 90.8823 215.983 99.6686C232.688 108.606 241.614 109.129 249.527 109.63C261.451 110.414 270.829 112.015 283.37 125.564C295.824 139.135 296.03 155.76 296.193 170.379C296.274 179.155 296.398 187.37 299.046 193.948C299.993 196.278 301.285 198.887 302.62 201.67C306.561 209.758 310.954 218.925 312.004 229.75C313.096 241.48 309.747 252.669 302.064 263.014C301.495 276.533 295.516 285.995 290.294 291.879C288.611 293.947 286.626 295.908 284.124 297.632C282.592 298.838 281.384 299.506 280.91 299.808C278.99 300.928 277.092 301.767 275.108 302.262C274.18 302.585 273.167 302.929 272.218 303.166C266.093 304.693 260.013 304.193 254.3 301.861C252.532 302.851 250.72 303.67 248.65 304.186L206.381 314.725C205.001 315.069 203.664 315.219 202.327 315.369C198.097 321.555 192.186 325.777 184.94 327.584Z" fill="#FDFDFD"/>
<path d="M175.634 313.778C175.634 313.778 158.061 313.12 149.081 295.476C140.014 277.854 140.84 267.203 140.84 267.203L177.327 261.771C177.241 261.792 198.123 314.676 175.634 313.778Z" fill="#4BC17E"/>
<path d="M273.932 286.521C273.932 286.521 289.139 277.69 288.785 257.895C288.431 238.101 282.787 229.063 282.787 229.063L248.021 241.396C248.042 241.482 254.432 297.979 273.932 286.521Z" fill="#4BC17E"/>
<path d="M176.635 298.318C176.635 298.318 129.043 305.878 123.446 257.338C117.849 208.798 91.0072 202.937 96.3278 177.239C101.648 151.54 121.008 156.792 132.947 133.383C142.964 113.659 170.365 87.5864 209.465 108.44C248.566 129.294 253.839 110.387 273.469 131.79C289.306 149.006 278.314 175.478 286.732 196.377C294.073 214.429 312.818 236.693 281.321 263.605C253.533 287.392 176.635 298.318 176.635 298.318Z" fill="#010101"/>
<path d="M244.907 289.543L202.638 300.082C197.98 301.243 193.238 298.394 192.077 293.736C190.915 289.078 193.765 284.336 198.423 283.174L240.691 272.635C245.35 271.474 250.092 274.323 251.253 278.981C252.501 283.618 249.565 288.382 244.907 289.543Z" fill="#FFCA49"/>
<path d="M240.735 272.808L198.466 283.346C193.808 284.508 189.066 281.659 187.904 277C186.743 272.342 189.592 267.6 194.25 266.439L236.519 255.9C241.177 254.739 245.919 257.588 247.081 262.246C248.328 266.883 245.393 271.646 240.735 272.808Z" fill="#FFCA49"/>
<path d="M196.633 282.979L242.18 271.623" stroke="#030401" stroke-width="2.6671" stroke-miterlimit="10" stroke-linecap="round" stroke-linejoin="round"/>
<path d="M178.464 270.375C178.464 270.375 217.869 287.305 251.163 251.425L241.164 242.19L180.78 257.245L178.464 270.375Z" fill="#030401"/>
<path d="M214.971 266.862C249.416 258.273 270.377 223.388 261.789 188.944C253.201 154.499 218.316 133.538 183.871 142.126C149.426 150.714 128.465 185.599 137.053 220.044C145.641 254.489 180.527 275.45 214.971 266.862Z" fill="#FF77E6"/>
<path d="M261.128 143.296L262.228 143.297L261.43 143.77C257.008 146.247 254.374 151.119 254.91 156.208L255.595 163.733L252.667 156.767C250.665 152.044 246.139 148.957 241.072 148.846L240.145 148.803L241.115 148.286C245.537 145.809 248.106 141.045 247.678 136.021L247.186 129.638L249.748 135.505C251.556 140.185 256.061 143.185 261.128 143.296Z" fill="#FFCA49"/>
<path d="M174.308 125.452L175.408 125.453L174.61 125.927C170.188 128.404 167.554 133.275 168.09 138.364L168.775 145.89L165.847 138.923C163.845 134.2 159.319 131.113 154.252 131.002L153.324 130.959L154.295 130.442C158.717 127.965 161.286 123.201 160.858 118.177L160.366 111.794L162.928 117.661C164.736 122.341 169.263 125.427 174.308 125.452Z" fill="#FFCA49"/>
<path d="M273.645 160.791L274.291 160.813L273.731 161.136C270.905 162.665 269.372 165.704 269.607 168.853L270.057 173.597L268.227 169.197C267.043 166.285 264.176 164.343 260.964 164.319L260.317 164.297L260.878 163.974C263.617 162.466 265.258 159.492 265.022 156.344L264.68 152.398L266.23 156.043C267.738 158.782 270.518 160.746 273.645 160.791Z" fill="#FFCA49"/>
<path d="M125.119 202.312L125.766 202.334L125.205 202.657C122.38 204.186 120.847 207.226 121.082 210.374L121.532 215.118L119.702 210.718C118.518 207.806 115.651 205.864 112.438 205.84L111.791 205.818L112.352 205.495C115.092 203.988 116.732 201.013 116.497 197.865L116.155 193.919L117.705 197.564C119.126 200.325 121.993 202.267 125.119 202.312Z" fill="#FFCA49"/>
<path d="M150.359 148.832L151.006 148.854L150.445 149.177C147.62 150.706 146.087 153.745 146.322 156.894L146.772 161.638L144.942 157.238C143.758 154.326 140.891 152.384 137.678 152.36L137.032 152.338L137.592 152.015C140.332 150.507 141.972 147.533 141.737 144.385L141.395 140.439L142.945 144.084C144.388 146.931 147.233 148.787 150.359 148.832Z" fill="#FFCA49"/>
<path d="M150.839 276.071L151.486 276.093L150.925 276.417C148.1 277.946 146.567 280.985 146.802 284.133L147.252 288.877L145.422 284.477C144.238 281.566 141.371 279.623 138.159 279.6L137.512 279.578L138.072 279.255C140.812 277.747 142.452 274.772 142.217 271.624L142.047 267.635L143.597 271.28C144.868 274.17 147.713 276.026 150.839 276.071Z" fill="#FFCA49"/>
<path d="M199.36 199.836C200.025 205.443 202.652 209.736 197.434 210.487C193.984 210.981 193.749 206.366 193.084 200.76C192.42 195.153 190.05 190.796 195.01 190.109C198.094 189.615 198.695 194.23 199.36 199.836Z" fill="#FFCA49"/>
<path d="M171.442 191.862C167.561 191.364 164.713 193.906 164.581 198.154C164.535 202.747 170.955 211.958 173.324 215.215C173.755 215.841 173.518 216.725 172.849 216.983C172.202 217.328 171.383 216.982 171.211 216.292C170.651 214.416 169.511 210.944 168.154 208.442C167.142 206.587 166.064 205.939 164.684 205.917C161.946 205.591 157.567 208.607 160.001 212.857C161.444 215.337 163.555 218.293 164.761 219.824C165.171 220.364 165.105 221.204 164.48 221.635C163.833 221.98 163.035 221.721 162.755 220.966C161.442 217.17 157.352 206.645 153.602 204.098C150.089 201.767 146.293 202.714 144.501 206.184C141.976 211.12 145.509 216.103 147.922 218.8C158.868 231.098 159.618 237.416 163.865 239.747C166.624 241.258 170.096 240.851 172.663 238.653C175.597 236.089 172.347 227.096 170.409 222.631L170.581 222.588C173.253 226.686 178.832 234.366 182.628 233.42C185.906 232.603 188.172 229.93 188.497 226.825C188.953 222.039 184.147 217.831 180.082 201.894C179.092 198.293 176.918 192.513 171.442 191.862Z" fill="#010101"/>
<path d="M223.222 177.211C226.458 175.122 230.209 176.202 232.082 180.041C234.107 184.118 232.202 195.221 231.445 199.167C231.272 199.943 231.897 200.612 232.63 200.612C233.363 200.613 233.924 199.923 233.838 199.211C233.538 197.271 233.087 193.626 233.304 190.823C233.414 188.689 234.083 187.697 235.291 187.03C237.663 185.522 242.838 186.431 242.49 191.282C242.294 194.171 241.623 197.728 241.169 199.583C240.975 200.272 241.513 200.963 242.182 201.071C242.936 201.158 243.519 200.554 243.498 199.735C243.047 195.724 242.257 184.468 244.588 180.588C246.79 176.924 250.563 176.258 253.71 178.589C258.128 181.977 257.068 188.014 256.074 191.377C251.493 207.179 253.559 213.261 250.689 217.183C248.854 219.748 245.554 220.846 242.299 219.916C238.548 218.836 237.648 209.348 237.436 204.453L237.242 204.41C236.613 209.24 234.818 218.575 230.979 219.349C227.658 219.993 224.468 218.59 222.874 215.872C220.375 211.731 222.945 205.867 219.829 189.694C219.076 186.308 218.563 180.205 223.222 177.211Z" fill="#010101"/>
<path d="M216.805 198.511C214.46 189.108 210.199 176.793 195.986 181.528C191.328 183.056 182.787 185.918 185.022 197.822C187.279 209.812 189.902 221.436 194.795 224.522C199.709 227.695 211.202 226.754 216.015 219.965C220.935 213.24 218.633 205.476 216.805 198.511ZM204.576 203.117C205.069 207.667 207.309 211.14 202.975 211.763C200.15 212.192 199.958 208.483 199.444 203.847C198.95 199.297 196.969 195.76 201.045 195.202C203.611 194.837 204.061 198.481 204.576 203.117Z" fill="#010101"/>
<path d="M165.557 188.84C161.676 188.341 158.828 190.884 158.696 195.132C158.65 199.724 165.07 208.936 167.44 212.193C167.871 212.818 167.633 213.702 166.964 213.961C166.317 214.305 165.498 213.96 165.326 213.27C164.767 211.393 163.626 207.921 162.269 205.419C161.257 203.564 160.179 202.917 158.799 202.894C156.061 202.569 151.682 205.585 154.116 209.834C155.559 212.315 157.67 215.27 158.877 216.802C159.286 217.341 159.221 218.182 158.595 218.613C157.948 218.957 157.15 218.698 156.871 217.943C155.558 214.148 151.468 203.623 147.717 201.076C144.204 198.745 140.409 199.691 138.617 203.162C136.091 208.098 139.624 213.081 142.037 215.778C152.983 228.075 153.734 234.393 157.98 236.725C160.739 238.236 164.211 237.828 166.778 235.631C169.712 233.067 166.462 224.073 164.524 219.608L164.697 219.565C167.368 223.664 172.948 231.344 176.743 230.397C180.021 229.58 182.287 226.908 182.612 223.803C183.068 219.016 178.262 214.809 174.197 198.872C173.208 195.27 171.033 189.49 165.557 188.84Z" fill="#FDFDFD"/>
<path d="M217.337 174.189C220.573 172.099 224.324 173.18 226.197 177.019C228.222 181.095 226.317 192.199 225.56 196.144C225.387 196.92 226.012 197.589 226.745 197.59C227.478 197.59 228.039 196.901 227.953 196.189C227.653 194.248 227.202 190.604 227.42 187.801C227.529 185.666 228.198 184.675 229.406 184.007C231.779 182.499 236.953 183.408 236.605 188.259C236.409 191.149 235.738 194.706 235.284 196.56C235.09 197.25 235.628 197.94 236.297 198.049C237.051 198.135 237.634 197.532 237.613 196.713C237.163 192.702 236.372 181.446 238.703 177.566C240.905 173.902 244.679 173.236 247.825 175.566C252.243 178.954 251.183 184.991 250.189 188.354C245.608 204.157 247.674 210.238 244.804 214.161C242.969 216.726 239.67 217.823 236.414 216.894C232.663 215.814 231.763 206.326 231.551 201.431L231.357 201.388C230.729 206.217 228.933 215.552 225.094 216.326C221.773 216.971 218.583 215.567 216.989 212.85C214.491 208.708 217.06 202.845 213.944 186.671C213.191 183.285 212.678 177.183 217.337 174.189Z" fill="#FDFDFD"/>
<path d="M211.006 195.466C208.662 186.064 204.4 173.749 190.188 178.484C185.529 180.012 176.989 182.874 179.224 194.778C181.48 206.768 184.103 218.392 188.996 221.478C193.91 224.651 205.404 223.709 210.216 216.92C215.05 210.218 212.748 202.454 211.006 195.466ZM198.691 200.094C199.184 204.644 201.424 208.117 197.09 208.74C194.265 209.169 194.073 205.461 193.559 200.824C193.066 196.274 191.084 192.737 195.16 192.179C197.726 191.814 198.177 195.458 198.691 200.094Z" fill="#FDFDFD"/>
<path d="M283.229 212.094C281.245 212.955 277.749 216.575 275.246 219.398C274.187 224.335 271.403 227.503 271.252 227.633C271.036 227.87 270.864 227.913 270.605 227.977C270.174 228.085 269.699 228.02 269.333 227.653C268.751 227.157 268.73 226.337 269.226 225.755C269.313 225.734 271.729 222.932 272.659 218.577C272.724 218.103 273.177 217.715 273.609 217.608C274.972 209.846 273.379 205.295 270.857 204.733C269.887 204.517 269.24 204.862 268.808 205.336C269.69 209.239 270.461 217.476 264.138 225.925C263.922 226.162 263.685 226.312 263.426 226.377C263.081 226.463 262.606 226.398 262.262 226.118C261.701 225.707 261.572 224.823 261.982 224.263C268.867 215.125 266.457 206.197 265.812 204.342C265.424 203.889 264.906 203.651 264.475 203.759C263.505 203.909 262.771 204.275 262.254 204.771C262.619 206.237 264.705 215.704 256.073 225.92C255.858 226.157 255.62 226.307 255.361 226.372C254.93 226.479 254.542 226.393 254.197 226.112C253.615 225.616 253.594 224.797 254.004 224.236C261.578 215.293 259.967 206.99 259.622 205.61C258.933 205.049 257.941 205.113 256.517 206.384C253.604 209.035 254.054 214.145 242.963 226.623C236.662 233.691 235.084 239.857 234.802 243.867C234.671 245.183 234.735 246.541 234.799 247.9C235.463 254.239 248.737 302.698 275.485 285.034C281.698 280.92 282.369 276.262 280.238 271.022C279.785 271.043 279.289 270.892 278.987 270.417L273.258 261.4C272.977 261.012 272.956 260.559 273.15 260.236C269.574 255.813 265.351 251.002 261.602 245.89L261.084 246.385C260.933 246.515 260.696 246.665 260.524 246.708C260.092 246.816 259.51 246.686 259.23 246.298C259.209 246.212 259.101 246.147 259.079 246.061C258.756 245.5 258.864 244.831 259.404 244.422L260.159 243.776L263.46 240.845C263.762 240.587 264.279 240.458 264.667 240.544C269.997 235.092 277.915 227.529 283.656 218.951C287.023 214.08 286.55 210.716 283.229 212.094Z" fill="#4BC17E"/>
<path d="M261.839 246.105L265.377 243.024C265.895 242.529 265.96 241.688 265.465 241.17C265.314 240.933 265.012 240.825 264.818 240.781C263.286 242.355 261.992 243.777 260.999 244.941C261.279 245.329 261.559 245.717 261.839 246.105Z" fill="#030401"/>
<path d="M260.416 245.544C260.416 245.544 260.028 245.824 259.295 246.19C259.316 246.276 259.424 246.341 259.445 246.427C259.812 246.794 260.308 246.945 260.739 246.838C260.911 246.795 261.149 246.644 261.3 246.515L261.818 246.019C261.537 245.631 261.257 245.243 260.956 244.768C260.783 245.178 260.567 245.415 260.416 245.544Z" fill="#030401"/>
<path d="M263.589 240.996L260.288 243.927C260.547 244.229 260.719 244.552 260.977 244.854C261.949 243.604 263.265 242.268 264.797 240.695C264.322 240.63 263.891 240.738 263.589 240.996Z" fill="#030401"/>
<path d="M259.23 246.298C259.963 245.932 260.352 245.652 260.352 245.652C260.481 245.436 260.697 245.199 260.913 244.962C260.654 244.66 260.482 244.336 260.223 244.034L259.468 244.681C258.994 244.982 258.907 245.737 259.23 246.298Z" fill="#030401"/>
<path d="M280.755 271.259C280.927 271.216 281.014 271.195 281.165 271.065C281.79 270.635 281.963 269.858 281.532 269.233L275.802 260.216C275.372 259.591 274.595 259.418 273.97 259.848C273.733 259.999 273.517 260.236 273.409 260.538C276.468 264.357 279.118 268.002 280.496 271.324C280.561 271.216 280.668 271.281 280.755 271.259Z" fill="#030401"/>
<path d="M279.224 270.633C279.504 271.021 280.022 271.259 280.475 271.237C279.097 267.916 276.447 264.27 273.387 260.452C273.215 260.861 273.322 261.293 273.494 261.616" fill="#030401"/>
<path d="M254.155 224.474C253.659 225.055 253.766 225.853 254.348 226.35C254.693 226.63 255.167 226.695 255.512 226.609C255.771 226.545 256.008 226.394 256.224 226.157C264.769 215.963 262.77 206.474 262.404 205.008C261.088 206.344 261.065 208.457 261.065 208.457C260.979 207.379 260.527 206.301 259.859 205.826C260.096 207.141 261.707 215.444 254.155 224.474Z" fill="#030401"/>
<path d="M262.112 224.414C261.702 224.974 261.83 225.859 262.391 226.269C262.736 226.549 263.124 226.636 263.555 226.528C263.814 226.464 264.137 226.291 264.267 226.076C270.59 217.627 269.819 209.39 268.937 205.487C267.945 206.65 267.943 208.85 267.943 208.85C267.427 207.146 266.738 205.485 265.876 204.601C266.522 206.456 268.909 215.298 262.112 224.414Z" fill="#030401"/>
<path d="M272.681 218.664C271.751 223.019 269.313 225.734 269.248 225.842C268.752 226.424 268.773 227.243 269.354 227.739C269.699 228.02 270.195 228.171 270.626 228.063C270.885 227.999 271.123 227.848 271.274 227.719C271.425 227.59 274.23 224.508 275.268 219.485C273.628 221.359 272.506 222.739 272.506 222.739C273.067 220.949 273.37 219.225 273.63 217.694C273.199 217.801 272.832 218.168 272.681 218.664Z" fill="#030401"/>
<path d="M191.838 261.543C191.343 260.292 190.676 259.084 189.943 257.984C187.897 254.555 183.523 249.873 174.641 246.59C158.904 240.801 156.988 236.056 153.172 235.083C151.405 234.608 150.412 235.039 150.067 235.858C150.433 237.324 152.864 245.239 163.772 249.666C164.483 249.947 164.763 250.702 164.482 251.413C164.309 251.823 163.921 252.103 163.576 252.189C163.317 252.253 163.037 252.232 162.735 252.124C150.405 247.135 147.715 237.818 147.35 236.352C146.66 236.157 145.819 236.092 144.913 236.501C144.417 236.717 144.158 237.148 144.007 237.644C144.307 239.584 146.372 248.599 156.74 253.435C157.365 253.737 157.667 254.579 157.364 255.204C157.192 255.613 156.889 255.872 156.458 255.979C156.199 256.044 155.833 256.044 155.617 255.914C146.068 251.423 142.882 243.788 141.828 239.928C141.202 239.625 140.491 239.711 139.736 240.358C137.773 242.038 138.589 246.782 143.35 253.017C143.782 252.909 144.277 253.061 144.644 253.427C147.509 256.836 150.958 258.175 151.045 258.154C151.756 258.434 152.122 259.168 151.841 259.879C151.669 260.289 151.302 260.655 150.871 260.763C150.612 260.827 150.331 260.805 150.137 260.762C149.943 260.719 146.02 259.315 142.745 255.367C139.296 254.028 134.424 252.494 132.267 252.665C128.688 253.008 129.85 256.2 135.153 259.092C144.163 263.993 154.791 266.932 162.056 269.244C162.358 268.985 162.789 268.878 163.264 268.943L167.554 269.98L168.524 270.196C169.106 270.326 169.537 270.952 169.58 271.491C169.601 271.577 169.537 271.685 169.558 271.771C169.407 272.267 169.04 272.633 168.609 272.741C168.436 272.784 168.156 272.762 167.962 272.719L167.272 272.524C166.471 278.13 165.195 283.671 164.178 288.78C164.523 289.061 164.738 289.557 164.673 290.031L162.617 303.463C163.13 309.199 165.91 312.996 173.326 313.712C205.258 316.471 194.314 267.431 191.838 261.543Z" fill="#4BC17E"/>
<path d="M162.164 268.942C161.927 269.092 161.819 269.394 161.775 269.588C161.581 270.278 162.033 270.99 162.723 271.184L167.294 272.244C167.359 271.769 167.424 271.295 167.467 270.735C166.066 270.259 164.255 269.611 162.164 268.942Z" fill="#030401"/>
<path d="M168.63 272.46C169.062 272.353 169.515 271.965 169.58 271.491C169.558 271.404 169.623 271.297 169.602 271.21C168.782 271.231 168.308 271.166 168.308 271.166C168.092 271.037 167.791 270.929 167.489 270.821C167.424 271.295 167.359 271.77 167.315 272.33L168.005 272.525C168.199 272.568 168.372 272.525 168.63 272.46Z" fill="#030401"/>
<path d="M167.662 269.678L163.372 268.641C162.984 268.554 162.466 268.683 162.164 268.942C164.255 269.611 166.066 270.259 167.489 270.821C167.575 270.433 167.575 270.066 167.662 269.678Z" fill="#030401"/>
<path d="M168.632 269.895L167.662 269.678C167.575 270.066 167.575 270.433 167.489 270.821C167.79 270.929 168.006 271.059 168.308 271.167C168.308 271.167 168.782 271.232 169.601 271.21C169.645 270.65 169.214 270.024 168.632 269.895Z" fill="#030401"/>
<path d="M163.51 288.305C162.756 288.219 162.13 288.649 161.957 289.426L159.727 304C159.64 304.755 160.071 305.38 160.847 305.553C161.041 305.597 161.214 305.554 161.386 305.511C161.904 305.382 162.271 305.015 162.4 304.433L162.552 303.204C162.188 299.172 163.032 294.105 164.135 288.608C164.006 288.457 163.79 288.327 163.51 288.305Z" fill="#030401"/>
<path d="M164.135 288.608C163.032 294.105 162.188 299.172 162.552 303.204L164.609 289.772C164.76 289.276 164.566 288.867 164.135 288.608Z" fill="#030401"/>
<path d="M162.908 252.08C163.209 252.188 163.49 252.21 163.749 252.146C164.18 252.038 164.482 251.779 164.655 251.37C164.935 250.659 164.569 249.925 163.944 249.623C153.037 245.196 150.583 237.195 150.239 235.814C149.894 236.634 150.087 237.776 150.41 238.704C150.41 238.704 149.398 236.849 147.608 236.287C147.888 237.775 150.491 247.113 162.908 252.08Z" fill="#030401"/>
<path d="M155.768 255.785C156.07 255.893 156.35 255.914 156.609 255.85C156.954 255.764 157.342 255.484 157.515 255.074C157.817 254.449 157.516 253.608 156.891 253.306C146.523 248.469 144.458 239.455 144.158 237.514C143.812 238.7 144.048 240.382 144.327 242.236C144.327 242.236 143.293 240.295 141.871 239.733C143.011 243.572 146.219 251.294 155.768 255.785Z" fill="#030401"/>
<path d="M150.245 260.46C150.547 260.568 150.72 260.525 150.979 260.46C151.41 260.353 151.798 260.073 151.949 259.577C152.23 258.866 151.864 258.132 151.153 257.851C151.153 257.851 147.617 256.534 144.752 253.125C144.472 252.737 143.89 252.607 143.458 252.715C144.406 253.944 145.548 255.217 146.819 256.641C146.819 256.641 145.073 255.885 142.853 255.065C146.214 258.991 150.051 260.417 150.245 260.46Z" fill="#030401"/>
<path d="M314.25 392.082C308.631 392.082 303.276 391.116 298.974 389.36C294.497 387.517 290.722 386.639 286.771 386.639C282.557 386.639 278.255 387.604 272.109 389.009C268.685 389.799 264.998 390.238 260.96 390.238C244.455 390.238 223.384 383.127 213.815 363.11C208.372 351.785 208.811 343.006 209.25 336.07C209.601 329.046 209.864 324.832 204.333 316.931C196.168 305.167 192.92 291.208 195.378 277.512C197.485 265.396 203.806 254.335 212.761 247.136C221.716 239.849 232.251 237.829 240.767 236.249C246.913 235.108 252.268 234.054 255.341 231.596C264.647 224.134 276.06 216.145 294.936 216.145C296.779 216.145 298.711 216.232 300.642 216.408C323.381 218.252 332.335 228.787 341.115 238.971C347.173 245.994 353.406 253.281 366.136 259.602C376.32 264.606 383.431 273.21 386.855 284.711C390.893 298.407 388.874 315.526 381.763 327.378C378.602 332.734 375.354 336.685 372.457 340.196C368.155 345.464 365.082 349.239 362.624 356.526L361.658 359.335L362.8 360.213L358.761 367.939L357.357 372.065L356.654 371.538C347.348 385.673 329.087 392.082 314.25 392.082Z" fill="white"/>
<path d="M314.25 392.082C308.631 392.082 303.276 391.116 298.974 389.36C294.497 387.517 290.722 386.639 286.771 386.639C282.557 386.639 278.255 387.604 272.109 389.009C268.685 389.799 264.998 390.238 260.96 390.238C244.455 390.238 223.384 383.127 213.815 363.11C208.372 351.785 208.811 343.006 209.25 336.07C209.601 329.046 209.864 324.832 204.333 316.931C196.168 305.167 192.92 291.208 195.378 277.512C197.485 265.396 203.806 254.335 212.761 247.136C221.716 239.849 232.251 237.829 240.767 236.249C246.913 235.108 252.268 234.054 255.341 231.596C264.647 224.134 276.06 216.145 294.936 216.145C296.779 216.145 298.711 216.232 300.642 216.408C323.381 218.252 332.335 228.787 341.115 238.971C347.173 245.994 353.406 253.281 366.136 259.602C376.32 264.606 383.431 273.21 386.855 284.711C390.893 298.407 388.874 315.526 381.763 327.378C378.602 332.734 375.354 336.685 372.457 340.196C368.155 345.464 365.082 349.239 362.624 356.526L361.658 359.335L362.8 360.213L358.761 367.939L357.357 372.065L356.654 371.538C347.348 385.673 329.087 392.082 314.25 392.082Z" stroke="white" stroke-width="2.63379" stroke-miterlimit="10"/>
<path d="M377.549 396.911C373.774 396.911 370.087 395.594 367.102 393.223L333.389 366.359L337.779 357.93C338.218 357.14 338.569 356.262 338.744 355.384C339.271 353.19 339.886 351.083 340.588 349.151L345.856 333.524L387.908 367.061C391.42 369.87 393.615 373.821 394.142 378.298C394.669 382.776 393.352 387.078 390.63 390.589C387.47 394.54 382.641 396.911 377.549 396.911Z" fill="white"/>
<path d="M377.549 396.911C373.774 396.911 370.087 395.594 367.102 393.223L333.389 366.359L337.779 357.93C338.218 357.14 338.569 356.262 338.744 355.384C339.271 353.19 339.886 351.083 340.588 349.151L345.856 333.524L387.908 367.061C391.42 369.87 393.615 373.821 394.142 378.298C394.669 382.776 393.352 387.078 390.63 390.589C387.47 394.54 382.641 396.911 377.549 396.911Z" stroke="white" stroke-width="2.63379" stroke-miterlimit="10"/>
<path d="M326.453 332.734L351.474 352.751C356.566 337.826 364.38 333.612 371.667 321.408C379.919 307.713 380.885 279.795 360.868 270.049C327.419 253.632 331.897 230.63 299.501 227.997C281.679 226.504 271.67 233.264 262.364 240.639C251.302 249.594 232.778 245.643 219.873 256.178C206.967 266.626 199.505 290.066 213.727 310.347C227.949 330.627 214.956 338.879 224.174 358.194C233.393 377.508 257.272 380.757 269.388 377.859C281.503 375.05 290.019 373.294 303.276 378.737C315.304 383.742 339.798 378.737 347.875 363.286L319.869 340.899L326.453 332.734Z" fill="#010101"/>
<path d="M380.797 376.016L351.562 352.663C351.035 354.331 350.509 356.087 349.982 358.018C349.543 359.862 348.84 361.53 348.05 363.11L374.3 384.181C376.583 385.936 379.831 385.585 381.587 383.39C383.343 381.108 382.992 377.859 380.797 376.016Z" fill="#010101"/>
<path d="M351.562 352.751L326.541 332.734L320.044 340.899L348.05 363.286C348.928 361.706 349.543 359.95 349.982 358.194C350.421 356.175 350.948 354.419 351.562 352.751Z" stroke="white" stroke-width="2.63379" stroke-miterlimit="10"/>
<path d="M329.263 334.929C335.408 326.764 339.095 316.492 339.095 305.518C339.095 278.39 317.147 256.442 290.019 256.442C262.891 256.442 240.943 278.39 240.943 305.518C240.943 332.646 262.891 354.594 290.019 354.594C302.31 354.594 313.548 350.029 322.151 342.567L348.05 363.198C348.928 361.618 349.543 359.862 349.982 358.106C350.509 356.175 351.035 354.419 351.562 352.751L329.263 334.929ZM244.806 305.518C244.806 280.585 264.998 260.392 289.931 260.392C314.865 260.392 335.057 280.585 335.057 305.518C335.057 330.451 314.865 350.644 289.931 350.644C264.998 350.644 244.806 330.451 244.806 305.518Z" fill="white"/>
<path d="M289.931 350.732C314.864 350.732 335.057 330.539 335.057 305.606C335.057 280.673 314.864 260.48 289.931 260.48C264.998 260.48 244.805 280.673 244.805 305.606C244.805 330.539 264.998 350.732 289.931 350.732ZM253.234 287.96C254.989 284.272 257.36 280.849 260.169 277.864C264.295 273.386 269.387 269.874 275.094 267.68C279.484 265.924 284.312 264.958 289.317 264.87C289.492 264.87 289.755 264.87 289.931 264.87C294.847 264.87 299.588 265.748 303.978 267.328C312.933 270.665 320.395 276.986 325.136 285.15C326.804 288.135 328.209 291.296 329.087 294.632C330.053 298.144 330.579 301.743 330.579 305.518C330.579 308.24 330.316 310.874 329.789 313.42C328.999 317.546 327.507 321.497 325.575 325.096C324.346 327.379 322.853 329.486 321.185 331.505C319.517 333.524 317.586 335.368 315.567 337.036C312.757 339.319 309.685 341.25 306.348 342.743C301.256 345.025 295.725 346.254 289.843 346.254C279.747 346.254 270.529 342.567 263.418 336.509C259.291 332.998 255.955 328.696 253.497 323.867C250.688 318.336 249.107 312.103 249.107 305.518C249.283 299.285 250.688 293.315 253.234 287.96Z" fill="#010101"/>
<path d="M275.27 337.211C270.968 338.089 267.105 337.65 263.593 336.509C270.705 342.567 279.923 346.254 290.019 346.254C295.901 346.254 301.52 345.025 306.524 342.742C303.276 336.07 291.16 333.875 275.27 337.211Z" fill="#FFCA49"/>
<path d="M288.439 325.447C285.893 325.711 283.259 325.886 280.625 326.15C274.567 326.589 269.914 325.447 266.315 323.165C256.833 317.282 254.902 304.113 254.902 295.598C254.902 292.525 254.287 290.067 253.321 288.047C250.775 293.403 249.371 299.285 249.371 305.606C249.371 312.19 250.951 318.424 253.76 323.955C256.219 328.783 259.643 333.085 263.681 336.597C267.105 337.738 271.056 338.177 275.358 337.299C291.248 333.963 303.451 336.158 306.612 342.83C309.948 341.338 313.021 339.406 315.83 337.124C317.849 335.456 319.781 333.612 321.449 331.593C315.479 323.252 302.837 324.13 288.439 325.447Z" fill="#4BC17E"/>
<path d="M306.524 308.767C306.085 308.767 305.734 308.767 305.295 308.767C283.083 308.152 276.06 297.266 274.743 287.521C274.128 282.868 274.743 278.478 275.621 275.493C276.499 272.42 276.06 269.786 275.094 267.679C269.388 269.962 264.296 273.474 260.169 277.863C257.36 280.848 255.077 284.272 253.234 287.96C254.199 289.979 254.814 292.437 254.814 295.51C254.814 304.026 256.745 317.195 266.227 323.077C269.827 325.272 274.48 326.501 280.537 326.062C283.171 325.886 285.805 325.623 288.351 325.36C302.749 324.043 315.391 323.252 321.273 331.505C322.941 329.486 324.346 327.379 325.663 325.096C327.594 321.497 329.087 317.546 329.877 313.42C324.522 310.786 316.971 308.854 306.524 308.767Z" fill="#FF77E6"/>
<path d="M329.175 294.632C328.209 291.296 326.892 288.135 325.224 285.15C323.38 284.536 321.624 284.009 319.869 283.745C308.631 281.726 299.413 285.501 294.057 281.375C288.79 277.337 288.878 269.435 289.404 264.87C284.4 264.958 279.572 265.923 275.182 267.679C276.148 269.786 276.674 272.332 275.709 275.493C274.831 278.478 274.216 282.868 274.831 287.521C276.148 297.353 283.171 308.152 305.383 308.766C305.822 308.766 306.173 308.766 306.612 308.766C317.059 308.854 324.609 310.786 329.965 313.507C330.492 310.961 330.755 308.327 330.755 305.606C330.667 301.743 330.14 298.056 329.175 294.632Z" fill="#4BC17E"/>
<path d="M304.066 267.328C299.676 265.748 294.935 264.87 290.019 264.87C289.843 264.87 289.58 264.87 289.404 264.87C288.877 269.435 288.877 277.337 294.057 281.375C299.5 285.589 308.719 281.726 319.868 283.745C321.624 284.097 323.38 284.536 325.224 285.15C320.483 276.985 313.021 270.576 304.066 267.328Z" fill="#FFCA49"/>
<path d="M315.567 302.182C317.323 304.025 317.323 306.923 315.567 308.766C311.002 313.683 301.257 322.462 289.931 322.462C278.694 322.462 268.949 313.683 264.296 308.766C262.54 306.923 262.54 304.025 264.296 302.182C268.861 297.265 278.606 288.486 289.931 288.486C301.257 288.486 311.002 297.265 315.567 302.182Z" fill="white"/>
<path d="M289.931 319.389C297.592 319.389 303.802 313.179 303.802 305.518C303.802 297.857 297.592 291.646 289.931 291.646C282.27 291.646 276.06 297.857 276.06 305.518C276.06 313.179 282.27 319.389 289.931 319.389Z" fill="#010101"/>
<path d="M232.515 280.234L233.48 280.497L232.602 280.76C228.125 281.989 224.789 285.765 223.999 290.33L222.945 297.178L221.892 290.33C221.189 285.765 217.853 281.989 213.288 280.76L212.41 280.497L213.376 280.234C217.853 279.005 221.189 275.405 221.892 270.84L222.857 265.045L223.823 270.84C224.789 275.405 228.125 279.092 232.515 280.234Z" fill="#FFCA49"/>
<path d="M256.746 359.862L257.536 360.037L256.833 360.213C253.322 361.179 250.6 364.164 250.073 367.763L249.283 373.206L248.493 367.763C247.966 364.164 245.245 361.179 241.733 360.213L241.031 360.037L241.821 359.862C245.332 358.896 247.966 355.999 248.581 352.399L249.371 347.834L250.161 352.399C250.6 355.999 253.234 358.896 256.746 359.862Z" fill="#FFCA49"/>
<path d="M368.243 304.64L369.208 304.904L368.331 305.167C363.853 306.396 360.517 310.171 359.727 314.736L358.673 321.584L357.62 314.736C356.917 310.171 353.581 306.396 349.016 305.167L348.138 304.904L349.104 304.64C353.581 303.411 356.917 299.812 357.62 295.246L358.586 289.452L359.551 295.246C360.429 299.812 363.765 303.499 368.243 304.64Z" fill="#FFCA49"/>
<path d="M352.791 281.112C354.149 281.112 355.249 280.011 355.249 278.654C355.249 277.296 354.149 276.195 352.791 276.195C351.434 276.195 350.333 277.296 350.333 278.654C350.333 280.011 351.434 281.112 352.791 281.112Z" fill="#FFCA49"/>
<path d="M231.022 305.693C232.38 305.693 233.48 304.593 233.48 303.235C233.48 301.878 232.38 300.777 231.022 300.777C229.664 300.777 228.564 301.878 228.564 303.235C228.564 304.593 229.664 305.693 231.022 305.693Z" fill="#FFCA49"/>
<path d="M273.514 248.54C274.872 248.54 275.972 247.44 275.972 246.082C275.972 244.725 274.872 243.624 273.514 243.624C272.156 243.624 271.056 244.725 271.056 246.082C271.056 247.44 272.156 248.54 273.514 248.54Z" fill="#FFCA49"/>
<path d="M295.638 306.308C298.305 306.308 300.467 304.146 300.467 301.479C300.467 298.813 298.305 296.651 295.638 296.651C292.971 296.651 290.809 298.813 290.809 301.479C290.809 304.146 292.971 306.308 295.638 306.308Z" fill="white"/>
</svg>
