<svg width="500" height="500" viewBox="0 0 500 500" fill="none" xmlns="http://www.w3.org/2000/svg">
<rect width="500" height="500" fill="#FEE9CD"/>
<rect x="25" y="25" width="450" height="450" rx="20" stroke="#F99206" stroke-width="10"/>
<path d="M282.861 116.885C281.609 115.737 279.903 115.152 278.18 115.283C253.604 117.141 228.699 119.285 204.155 121.654C202.922 121.773 201.761 122.254 200.82 123.011C200.267 122.416 199.595 121.931 198.84 121.598C197.277 120.906 195.46 120.898 193.857 121.578C170.164 131.631 146.242 142.076 122.755 152.622C121.167 153.334 119.938 154.67 119.381 156.287C118.992 157.416 118.954 158.634 119.249 159.773C117.638 159.72 116.04 160.314 114.831 161.427C96.6851 178.106 78.4577 195.212 60.6544 212.272C59.4079 213.467 58.7022 215.126 58.7198 216.824C58.7367 218.475 59.441 220.06 60.6529 221.175C78.6525 237.714 96.8576 254.511 114.765 271.101C116.616 272.815 119.264 273.182 121.451 272.208C122.077 271.929 122.665 271.541 123.186 271.042C126.942 267.451 130.72 263.857 134.512 260.266C134.73 260.626 134.979 260.972 135.262 261.296C137.288 263.621 139.723 264.091 141.177 264.374C141.377 264.413 141.631 264.461 141.797 264.502C142.125 264.916 142.175 265.813 142.156 266.526C142.137 267.219 141.981 268.721 141.831 270.171C141.557 272.805 141.248 275.789 141.288 277.915C141.42 284.883 143.144 292.059 146.556 299.857C147.699 302.467 148.969 304.825 150.332 306.866C152.694 310.404 156.495 315.183 162.218 315.841C164.313 316.082 166.394 315.743 168.446 314.829C170.157 314.068 171.846 312.908 173.504 311.354C175.076 309.881 179.86 305.397 178.507 298.78C177.907 295.845 176.252 293.119 174.18 290.179C174.517 290.26 174.863 290.31 175.216 290.324C176.025 290.356 176.821 290.198 177.546 289.875C178.077 289.639 178.569 289.313 179.001 288.908C180.014 287.956 181.029 287.005 182.043 286.055C183.182 287.513 184.605 288.783 186.404 289.666C189.963 291.414 194.161 291.257 198.884 289.2C198.957 289.167 199.029 289.135 199.1 289.104C201.644 287.971 203.58 286.676 205.015 285.147C206.698 283.355 207.726 281.206 208.073 278.761C208.53 275.519 207.75 272.075 206.649 268.216C207.081 268.587 207.574 268.89 208.114 269.107C209.414 269.627 210.87 269.604 212.155 269.043C214.271 268.117 216.388 267.195 218.507 266.273C218.52 266.267 218.535 266.26 218.549 266.254C218.91 266.094 219.247 265.892 219.559 265.659C219.627 265.729 219.692 265.799 219.761 265.868C222.502 268.593 226.418 269.76 231.401 269.335C232.548 269.236 234.949 269.032 237.398 267.942C239.531 266.992 241.702 265.369 243.116 262.561C244.462 259.884 244.85 256.719 245.046 253.127C245.26 253.401 245.502 253.655 245.769 253.883C246.834 254.793 248.221 255.237 249.617 255.117C251.821 254.925 254.025 254.737 256.228 254.551C256.816 254.501 257.386 254.352 257.915 254.117C258.643 253.793 259.296 253.303 259.815 252.677C260.71 251.596 261.133 250.201 260.991 248.805C260.883 247.747 260.774 246.689 260.665 245.63C262.87 244.727 264.522 243.036 265.193 240.805C265.575 239.533 265.605 238.226 265.297 236.959C266.379 235.789 267.067 234.336 267.25 232.696C267.379 231.534 267.239 230.395 266.847 229.325C268.027 227.843 268.642 226.052 268.547 224.123C268.513 223.416 268.395 222.736 268.199 222.09C269.592 220.2 270.152 217.894 269.736 215.68C269.264 213.165 267.637 211.096 265.151 209.855C263.39 208.975 261.503 208.67 260.228 208.567C259.107 208.478 257.974 208.443 256.838 208.457C256.65 206.637 256.463 204.818 256.274 203C264.249 202.334 272.214 201.698 280.139 201.092C280.855 201.037 281.534 200.86 282.157 200.583C284.349 199.607 285.848 197.388 285.806 194.86C285.403 170.439 285.067 145.668 284.806 121.232C284.788 119.586 284.08 118.001 282.862 116.884L282.861 116.885Z" fill="#331546"/>
<path d="M255.284 248.213C253.076 248.4 250.869 248.589 248.662 248.781C247.093 226.785 245.554 204.786 244.043 182.785C245.527 182.656 247.012 182.529 248.497 182.403C250.771 204.339 253.033 226.275 255.284 248.215L255.284 248.213Z" fill="#73D6FA"/>
<path d="M279.238 194.752C258.101 196.366 236.973 198.179 215.857 200.191C215.388 200.236 214.949 199.89 214.874 199.417C211.068 175.168 207.21 150.924 203.303 126.685C203.228 126.214 203.608 125.788 204.156 125.736C228.78 123.359 253.421 121.238 278.072 119.375C278.62 119.333 279.068 119.687 279.073 120.164C279.335 144.722 279.668 169.275 280.073 193.821C280.08 194.299 279.706 194.715 279.236 194.751L279.238 194.752Z" fill="#7E2DD7"/>
<mask id="mask0_3_2534" style="mask-type:alpha" maskUnits="userSpaceOnUse" x="203" y="119" width="78" height="82">
<path d="M279.238 194.752C258.101 196.366 236.973 198.179 215.857 200.191C215.388 200.236 214.949 199.89 214.874 199.417C211.068 175.168 207.21 150.924 203.303 126.685C203.228 126.214 203.608 125.788 204.156 125.736C228.78 123.359 253.421 121.238 278.072 119.375C278.62 119.333 279.068 119.687 279.073 120.164C279.335 144.722 279.668 169.275 280.073 193.821C280.08 194.299 279.706 194.715 279.236 194.751L279.238 194.752Z" fill="black"/>
</mask>
<g mask="url(#mask0_3_2534)">
<path d="M198.886 190.732C211.018 188.22 222.345 182.15 231.171 173.475C233.87 170.819 236.454 167.682 236.863 163.963C237.62 157.191 231.018 151.741 229.617 145.074C228.498 139.71 231.039 134.098 235.03 130.092C239.019 126.086 244.293 123.427 249.573 121.033C255.081 118.534 260.712 116.241 266.444 114.162C268.647 113.364 270.937 112.584 273.281 112.656C279.257 112.839 283.179 118.192 286.108 122.985C274.354 126.058 262.414 129.287 252.345 135.697C248.203 138.334 244.19 141.895 243.446 146.548C242.422 153.008 247.922 158.954 247.658 165.481C247.424 171.428 242.63 176.194 237.944 179.98C225.356 190.143 211.187 197.92 197.31 205.717C196.944 204.931 196.579 204.146 196.212 203.361C197.956 205.972 201.621 206.717 204.652 206.013C207.684 205.308 210.281 203.473 212.92 201.84C227.346 192.915 245.26 188.879 257.418 176.737C259.923 174.237 262.222 171.227 262.575 167.753C263.206 161.654 257.663 156.28 258.077 150.172C258.345 146.307 261.077 142.877 264.448 140.666C267.82 138.454 271.791 137.266 275.699 136.116C281.91 134.287 288.141 132.473 294.39 130.675C295.645 130.314 296.984 129.901 297.809 128.921C298.633 127.941 298.563 126.211 297.358 125.769C293.58 132.106 298.253 140.859 293.833 146.784C291.292 150.204 286.687 151.338 282.682 152.941C278.62 154.566 274.717 157.05 272.581 160.748C269.759 165.64 270.45 171.746 268.134 176.855C265.074 183.614 257.644 187.178 250.84 190.202C236.955 196.371 223.235 202.617 209.679 208.936" fill="#9F47E3"/>
<path d="M279.098 193.974C257.948 195.589 236.809 197.404 215.68 199.418C215.211 199.462 214.77 199.117 214.696 198.645C210.887 174.396 207.028 150.152 203.12 125.913C203.043 125.442 203.425 125.016 203.973 124.964C228.611 122.585 253.264 120.462 277.931 118.597C278.478 118.556 278.927 118.91 278.932 119.387C279.194 143.944 279.529 168.496 279.934 193.044C279.942 193.522 279.567 193.938 279.098 193.974Z" stroke="#7E2DD7" stroke-width="4.99866" stroke-linejoin="round"/>
</g>
<path d="M253.021 129.887C236.675 131.306 235.309 147.421 236.638 159.744C237.871 171.229 241.579 187.788 256.648 186.49C271.641 185.222 273.31 168.471 273.009 156.73C272.694 144.497 269.429 128.49 253.021 129.887V129.887ZM261.781 158.582C261.938 162.74 262.617 175.336 255.964 175.935C249.324 176.537 248.347 163.722 247.986 159.725C247.926 158.961 247.896 158.578 247.837 157.813C247.514 153.18 246.146 141.099 253.691 140.444C261.241 139.796 261.422 152.184 261.687 156.666C261.724 157.432 261.744 157.816 261.782 158.583L261.781 158.582Z" fill="white"/>
<path d="M219.046 133.529C216.671 137.398 214.344 141.28 212.063 145.178C213.66 145.936 215.255 146.696 216.845 147.459C218.765 161.246 220.673 175.036 222.571 188.825C226.039 188.504 229.507 188.186 232.976 187.874C230.86 169.527 228.737 151.183 226.605 132.838C224.086 133.065 221.566 133.296 219.047 133.528L219.046 133.529Z" fill="white"/>
<path d="M249.012 191.287C249.1 192.322 248.322 193.234 247.275 193.324C246.228 193.415 245.304 192.648 245.214 191.613C245.124 190.578 245.901 189.665 246.951 189.574C248.002 189.484 248.924 190.251 249.012 191.287Z" fill="#FEFE8E"/>
<path d="M264.091 215.521C263.722 213.552 261.306 212.818 259.309 212.659C256.989 212.474 254.656 212.548 252.354 212.864C249.723 213.225 247.133 213.901 244.652 214.861C245.785 212.767 246.293 210.499 245.607 207.446C244.457 202.317 240.888 201.973 239.293 202.304C237.879 202.595 237.045 203.915 237.096 204.971C237.214 207.382 239.565 208.107 240.103 210.489C240.588 212.634 239.91 214.738 238.062 216.954C236.642 218.655 232.306 222.759 230.479 225.168C226.316 230.658 223.661 237.151 221.921 243.818C221.349 246.01 220.886 248.373 220.697 250.753C220.099 258.287 221.763 263.741 230.452 263C238.777 262.29 239.092 258.02 239.446 248.769C239.536 246.417 239.658 244.101 239.972 241.795C240.274 239.583 241.088 237.468 243.462 237.265C246.982 236.965 252.609 239.722 255.68 239.986C257.26 240.122 259.221 239.694 259.678 238.175C260.146 236.62 258.679 235.191 257.299 234.333C256.889 234.078 256.512 233.871 256.147 233.694C256.686 233.698 257.225 233.672 257.762 233.616C259.417 233.445 261.361 232.646 261.545 230.993C261.734 229.3 259.95 228.103 258.366 227.477C258.014 227.338 257.659 227.21 257.302 227.086C257.959 226.995 258.609 226.865 259.249 226.693C260.978 226.226 262.906 225.044 262.818 223.257C262.738 221.647 261.674 220.252 257.671 220.047C262.618 220.093 264.451 217.443 264.091 215.521V215.521Z" fill="#AA6952"/>
<g style="mix-blend-mode:screen" opacity="0.5">
<path d="M235.692 222.728C234.182 224.376 232.813 226.075 231.558 227.929C230.316 229.765 229.219 231.693 228.238 233.68C226.259 237.682 224.817 241.881 223.96 246.266C223.726 247.466 223.531 248.673 223.382 249.886C223.304 250.525 223.238 251.164 223.184 251.804C223.129 252.455 223.056 253.006 223.484 253.549C223.685 253.805 224.202 253.843 224.431 253.597C225.159 252.818 225.018 251.602 225.133 250.597C225.257 249.515 225.41 248.436 225.597 247.364C225.971 245.221 226.493 243.114 227.097 241.025C228.307 236.841 230.006 232.828 232.111 229.018C233.273 226.913 234.577 224.837 235.967 222.876C236.075 222.724 235.792 222.618 235.693 222.726L235.692 222.728Z" fill="#C18874"/>
<path d="M224.015 256.916C224.447 256.893 224.724 256.614 224.871 256.235C225.017 255.856 224.888 255.454 224.494 255.291C224.187 255.165 223.8 255.212 223.549 255.432C223.325 255.629 223.308 255.86 223.378 256.122C223.387 256.155 223.399 256.279 223.393 256.166C223.391 256.11 223.402 255.947 223.378 256.083C223.361 256.128 223.364 256.123 223.387 256.071C223.413 256.019 223.414 256.014 223.391 256.055C223.312 256.138 223.279 256.285 223.29 256.396C223.327 256.747 223.691 256.932 224.016 256.915L224.015 256.916Z" fill="#C18874"/>
</g>
<path d="M262.477 133.587L270.868 137.876L263.882 131.495L268.17 123.103L261.789 130.09L253.397 125.801L260.384 132.183L256.095 140.573L262.477 133.587Z" fill="#F4AE7A"/>
<path d="M179.764 279.426C178.147 280.94 176.531 282.456 174.916 283.973C160.062 267.674 145.229 251.356 130.419 235.016C131.505 233.997 132.592 232.976 133.678 231.958C149.049 247.773 164.411 263.596 179.764 279.426Z" fill="#FEFE8E"/>
<path d="M165.464 222.616C149.867 236.973 134.401 251.481 119.068 266.137C118.728 266.462 118.168 266.464 117.817 266.139C99.8105 249.456 81.7684 232.81 63.6893 216.198C63.3379 215.875 63.3739 215.305 63.7706 214.925C81.6326 197.809 99.6662 180.885 117.867 164.154C118.271 163.783 118.843 163.783 119.142 164.155C134.556 183.275 150.023 202.345 165.543 221.368C165.845 221.737 165.808 222.297 165.462 222.615L165.464 222.616Z" fill="#7E2DD7"/>
<mask id="mask1_3_2534" style="mask-type:alpha" maskUnits="userSpaceOnUse" x="63" y="163" width="103" height="104">
<path d="M165.464 222.616C149.867 236.973 134.401 251.481 119.068 266.137C118.728 266.462 118.168 266.464 117.817 266.139C99.8105 249.456 81.7684 232.81 63.6893 216.198C63.3379 215.875 63.3739 215.305 63.7706 214.925C81.6326 197.809 99.6662 180.885 117.867 164.154C118.271 163.783 118.843 163.783 119.142 164.155C134.556 183.275 150.023 202.345 165.543 221.368C165.845 221.737 165.808 222.297 165.462 222.615L165.464 222.616Z" fill="black"/>
</mask>
<g mask="url(#mask1_3_2534)">
<path d="M99.8843 269.22C107.855 259.735 112.99 247.954 114.547 235.676C115.022 231.918 115.107 227.856 113.126 224.682C109.526 218.898 100.967 218.706 95.7379 214.339C91.5375 210.821 90.0565 204.84 90.7098 199.223C91.3609 193.607 93.8549 188.254 96.5173 183.103C99.2948 177.73 102.296 172.442 105.509 167.261C106.744 165.27 108.059 163.24 109.944 161.844C114.75 158.286 121.144 160.061 126.412 162.01C119.087 171.701 111.711 181.631 107.776 192.9C106.156 197.535 105.21 202.816 107.509 206.931C110.705 212.637 118.706 213.9 122.541 219.188C126.04 224.001 125.227 230.713 123.893 236.588C120.303 252.363 113.994 267.244 107.926 281.96C107.153 281.57 106.38 281.18 105.607 280.79C108.592 281.761 111.932 280.075 113.876 277.646C115.82 275.216 116.723 272.166 117.783 269.249C123.583 253.308 135.149 239.044 137.176 221.982C137.594 218.468 137.536 214.681 135.66 211.734C132.378 206.555 124.698 205.768 121.241 200.716C119.058 197.515 119.078 193.13 120.357 189.307C121.635 185.484 124.017 182.091 126.373 178.767C130.116 173.484 133.886 168.201 137.68 162.92C138.442 161.86 139.237 160.705 139.278 159.425C139.318 158.145 138.192 156.831 136.972 157.23C137.931 164.546 147.019 168.523 147.218 175.913C147.341 180.172 144.427 183.913 142.276 187.652C140.092 191.444 138.567 195.811 139.18 200.039C139.994 205.626 144.318 209.992 145.664 215.439C147.447 222.642 143.82 230.04 140.351 236.629C133.27 250.071 126.365 263.473 119.636 276.829" fill="#9F47E3"/>
<path d="M164.872 222.092C149.268 236.458 133.793 250.974 118.451 265.641C118.11 265.967 117.55 265.968 117.199 265.643C99.1905 248.963 81.1472 232.317 63.0676 215.707C62.7162 215.384 62.7522 214.814 63.1495 214.432C81.0207 197.307 99.063 180.372 117.276 163.632C117.68 163.261 118.252 163.261 118.552 163.632C133.967 182.752 149.434 201.822 164.955 220.844C165.258 221.215 165.22 221.773 164.875 222.091L164.872 222.092Z" stroke="#7E2DD7" stroke-width="4.99866" stroke-linejoin="round"/>
</g>
<path d="M104.708 187.922C92.752 199.16 101.66 212.658 110.335 221.511C118.416 229.764 131.583 240.471 142.61 230.119C153.597 219.837 144.533 205.653 137.026 196.62C129.202 187.209 116.724 176.664 104.708 187.922ZM129.356 205.028C132.054 208.195 140.388 217.666 135.535 222.254C130.694 226.839 121.991 217.383 119.233 214.468C118.713 213.904 118.453 213.623 117.932 213.06C114.808 209.622 106.252 200.984 111.771 195.797C117.297 190.613 125.112 200.227 128.095 203.582C128.599 204.161 128.852 204.45 129.357 205.028L129.356 205.028Z" fill="white"/>
<path d="M80.2868 211.823C80.8183 216.33 81.3951 220.821 82.0185 225.293C83.7427 224.899 85.4645 224.508 87.1849 224.123C97.2313 233.76 107.269 243.404 117.299 253.055C119.822 250.654 122.348 248.258 124.879 245.864C111.855 232.77 98.8274 219.681 85.793 206.598C83.9562 208.338 82.1205 210.079 80.2863 211.821L80.2868 211.823Z" fill="white"/>
<path d="M139.586 238.613C140.295 239.372 140.25 240.57 139.482 241.289C138.715 242.008 137.516 241.979 136.805 241.222C136.092 240.465 136.138 239.267 136.906 238.545C137.675 237.824 138.875 237.855 139.586 238.613V238.613Z" fill="#FEFE8E"/>
<path d="M166.433 248.303C164.923 246.986 162.572 247.906 160.906 249.017C158.969 250.308 157.184 251.813 155.571 253.486C153.728 255.399 152.113 257.533 150.76 259.824C150.353 257.477 149.348 255.384 146.918 253.41C142.838 250.096 139.824 252.036 138.776 253.282C137.847 254.387 138.01 255.94 138.704 256.737C140.289 258.556 142.584 257.671 144.483 259.209C146.192 260.593 146.963 262.664 146.884 265.549C146.823 267.763 145.959 273.671 146.017 276.693C146.148 283.583 148.084 290.324 150.847 296.636C151.756 298.713 152.856 300.854 154.181 302.839C158.377 309.125 163.062 312.377 169.425 306.414C175.523 300.7 173.123 297.154 167.673 289.671C166.287 287.768 164.949 285.873 163.768 283.87C162.635 281.946 161.963 279.781 163.702 278.151C166.28 275.735 172.405 274.415 174.98 272.721C176.305 271.85 177.58 270.299 176.997 268.823C176.401 267.312 174.365 267.099 172.75 267.279C172.27 267.333 171.846 267.404 171.449 267.492C171.874 267.161 172.282 266.807 172.669 266.432C173.863 265.272 174.894 263.44 174.015 262.029C173.115 260.582 170.974 260.747 169.342 261.238C168.98 261.347 168.622 261.466 168.265 261.59C168.724 261.112 169.154 260.608 169.55 260.076C170.618 258.639 171.4 256.517 170.224 255.168C169.164 253.953 167.465 253.517 164.195 255.835C168.107 252.809 167.906 249.592 166.431 248.306L166.433 248.303Z" fill="#6B382C"/>
<g style="mix-blend-mode:screen" opacity="0.5">
<path d="M148.598 271.549C148.434 273.778 148.411 275.96 148.574 278.193C148.735 280.404 149.068 282.597 149.527 284.765C150.452 289.134 151.92 293.324 153.963 297.297C154.522 298.384 155.117 299.454 155.751 300.497C156.086 301.046 156.429 301.59 156.784 302.126C157.143 302.67 157.428 303.15 158.099 303.311C158.416 303.386 158.846 303.097 158.874 302.762C158.962 301.699 158.099 300.832 157.567 299.972C156.994 299.046 156.446 298.105 155.929 297.147C154.896 295.232 154.001 293.254 153.182 291.24C151.54 287.205 150.389 283.002 149.682 278.707C149.292 276.335 149.03 273.898 148.907 271.496C148.897 271.311 148.609 271.403 148.598 271.549V271.549Z" fill="#C18874"/>
<path d="M160.603 305.624C160.927 305.338 160.973 304.947 160.853 304.56C160.735 304.173 160.382 303.935 159.973 304.053C159.653 304.144 159.378 304.422 159.318 304.749C159.263 305.041 159.393 305.234 159.612 305.397C159.638 305.417 159.724 305.507 159.651 305.421C159.614 305.378 159.522 305.244 159.588 305.365C159.603 305.41 159.602 305.406 159.588 305.349C159.576 305.293 159.574 305.288 159.581 305.335C159.571 305.45 159.636 305.585 159.714 305.665C159.96 305.918 160.359 305.839 160.604 305.623L160.603 305.624Z" fill="#C18874"/>
</g>
<path d="M114.424 184.972L123.669 183.142L114.231 182.459L112.402 173.214L111.718 182.652L102.474 184.481L111.912 185.165L113.74 194.409L114.424 184.972Z" fill="#F4AE7A"/>
<path d="M170.973 238.398L176.614 245.949L173.158 237.14L180.707 231.5L171.898 234.956L166.259 227.406L169.715 236.215L162.165 241.855L170.973 238.398Z" fill="#FEBBFF"/>
<path d="M219.666 216.298L222.875 225.159L222.12 215.726L230.98 212.517L221.548 213.272L218.337 204.412L219.093 213.844L210.234 217.054L219.666 216.298Z" fill="#FEBBFF"/>
<path d="M215.917 260.352C213.796 261.275 211.675 262.199 209.555 263.127C200.651 241.891 191.774 220.64 182.926 199.379C184.352 198.756 185.778 198.133 187.204 197.512C196.787 218.453 206.357 239.401 215.917 260.352V260.352Z" fill="#A7FECD"/>
<path d="M221.746 199.454C201.374 208.116 181.077 216.972 160.86 226.02C160.411 226.22 159.86 226.026 159.628 225.583C147.756 202.864 135.836 180.169 123.87 157.495C123.637 157.054 123.872 156.505 124.396 156.271C147.963 145.689 171.632 135.354 195.397 125.27C195.925 125.046 196.486 125.246 196.652 125.718C205.119 149.926 213.656 174.106 222.262 198.256C222.429 198.726 222.198 199.263 221.746 199.454V199.454Z" fill="#9F47E3"/>
<mask id="mask2_3_2534" style="mask-type:alpha" maskUnits="userSpaceOnUse" x="123" y="125" width="100" height="102">
<path d="M221.746 199.454C201.374 208.116 181.077 216.972 160.86 226.02C160.411 226.22 159.86 226.026 159.628 225.583C147.756 202.864 135.836 180.169 123.87 157.495C123.637 157.054 123.872 156.505 124.396 156.271C147.963 145.689 171.632 135.354 195.397 125.27C195.925 125.046 196.486 125.246 196.652 125.718C205.119 149.926 213.656 174.106 222.262 198.256C222.429 198.726 222.198 199.263 221.746 199.454V199.454Z" fill="black"/>
</mask>
<g mask="url(#mask2_3_2534)">
<path d="M140.907 222.334C152.071 215.794 161.249 206.003 167.08 194.47C168.862 190.938 170.37 186.973 169.532 183.155C168.018 176.204 159.664 173.018 156.049 166.889C153.15 161.957 153.787 155.556 156.397 150.258C159.004 144.961 163.333 140.567 167.757 136.434C172.371 132.121 177.176 127.97 182.151 123.997C184.064 122.471 186.068 120.935 188.41 120.222C194.384 118.405 200.052 122.391 204.553 126.154C193.952 133.122 183.218 140.308 175.4 150.015C172.183 154.007 169.404 158.871 170.223 163.725C171.369 170.457 178.799 174.502 180.719 181.047C182.475 187.008 179.324 193.327 175.953 198.639C166.896 212.901 155.478 225.332 144.354 237.684C143.73 237.03 143.106 236.375 142.482 235.721C145.079 237.721 148.954 237.233 151.718 235.524C154.481 233.814 156.438 231.131 158.503 228.632C169.791 214.981 186.166 204.999 194.135 188.924C195.777 185.612 197.047 181.866 196.234 178.311C194.819 172.067 187.539 168.604 185.907 162.421C184.88 158.507 186.436 154.201 189.034 150.887C191.63 147.573 195.161 145.07 198.643 142.625C204.177 138.74 209.735 134.863 215.317 130.995C216.438 130.218 217.624 129.363 218.114 128.117C218.602 126.871 217.953 125.184 216.614 125.149C214.995 132.682 222.543 139.778 220.151 147.118C218.78 151.351 214.604 154.012 211.178 156.936C207.701 159.902 204.67 163.664 203.795 168.037C202.638 173.82 205.362 179.629 204.778 185.459C204.01 193.17 197.85 199.177 192.13 204.444C180.455 215.19 168.969 225.954 157.67 236.737" fill="#CA7EF2"/>
<path d="M221.348 198.732C200.964 207.399 180.655 216.26 160.426 225.315C159.977 225.516 159.425 225.322 159.195 224.879C147.32 202.161 135.4 179.466 123.431 156.793C123.198 156.352 123.433 155.803 123.958 155.568C147.538 144.979 171.219 134.639 194.999 124.549C195.527 124.324 196.09 124.525 196.255 124.996C204.723 149.204 213.26 173.383 221.868 197.533C222.035 198.003 221.804 198.539 221.35 198.732L221.348 198.732Z" stroke="#CA7EF2" stroke-width="5.21936" stroke-linejoin="round"/>
</g>
<path d="M174.127 144.044C158.43 150.911 162.466 167.312 167.898 179.059C172.958 190.009 182.161 205.153 196.634 198.832C211.044 192.564 207.096 175.435 202.874 163.921C198.473 151.923 189.892 137.178 174.126 144.044L174.127 144.044ZM192.385 169.504C193.93 173.565 198.812 185.801 192.43 188.617C186.061 191.432 180.812 179.081 179.12 175.247C178.805 174.51 178.648 174.142 178.332 173.406C176.464 168.929 171.072 157.436 178.317 154.265C185.57 151.101 189.891 163.296 191.649 167.641C191.943 168.386 192.091 168.76 192.385 169.504V169.504Z" fill="white"/>
<path d="M141.731 159.004C140.675 163.625 139.67 168.244 138.716 172.863C140.55 173.078 142.381 173.298 144.209 173.521C150.717 186.52 157.214 199.523 163.701 212.533C167.024 211.053 170.351 209.582 173.677 208.114C165.451 190.67 157.218 173.231 148.978 155.795C146.562 156.862 144.146 157.933 141.73 159.005L141.731 159.004Z" fill="white"/>
<path d="M190.684 206.128C191.116 207.124 190.651 208.286 189.645 208.725C188.638 209.164 187.47 208.715 187.034 207.721C186.598 206.727 187.063 205.565 188.072 205.123C189.082 204.683 190.251 205.133 190.684 206.128V206.128Z" fill="#FEFE8E"/>
<path d="M213.702 225.064C212.678 223.24 210.043 223.322 208.014 223.83C205.657 224.422 203.373 225.277 201.201 226.358C198.717 227.595 196.381 229.13 194.248 230.908C194.669 228.457 194.413 226.045 192.714 223.252C189.861 218.562 186.216 219.415 184.749 220.274C183.447 221.036 183.064 222.62 183.467 223.648C184.39 225.992 186.957 225.924 188.287 228.102C189.483 230.063 189.517 232.37 188.428 235.181C187.593 237.338 184.674 242.848 183.671 245.841C181.388 252.665 180.932 259.975 181.438 267.153C181.605 269.513 181.937 272.005 182.546 274.422C184.473 282.075 187.942 286.916 196.29 283.279C204.289 279.793 203.172 275.464 200.432 266.193C199.736 263.837 199.081 261.504 198.621 259.119C198.18 256.829 198.278 254.464 200.56 253.469C203.944 251.996 210.431 252.842 213.557 252.078C215.166 251.685 216.964 250.605 216.907 248.949C216.849 247.255 214.921 246.332 213.27 245.943C212.779 245.828 212.336 245.75 211.916 245.696C212.451 245.52 212.976 245.314 213.488 245.08C215.067 244.358 216.724 242.917 216.354 241.219C215.975 239.48 213.811 238.893 212.033 238.805C211.639 238.785 211.244 238.776 210.85 238.774C211.468 238.465 212.069 238.119 212.644 237.734C214.198 236.695 215.711 234.881 215.026 233.14C214.41 231.574 212.891 230.55 208.862 231.685C213.771 230.077 214.699 226.843 213.7 225.062L213.702 225.064Z" fill="#C18874"/>
<g style="mix-blend-mode:screen" opacity="0.5">
<path d="M188.015 241.687C187.071 243.823 186.285 245.961 185.664 248.215C185.048 250.446 184.608 252.721 184.3 255.015C183.681 259.636 183.658 264.273 184.275 268.897C184.444 270.163 184.655 271.423 184.914 272.672C185.051 273.329 185.199 273.984 185.359 274.636C185.522 275.298 185.635 275.869 186.238 276.262C186.523 276.448 187.047 276.313 187.191 275.994C187.65 274.98 187.105 273.824 186.882 272.79C186.643 271.679 186.433 270.561 186.261 269.437C185.914 267.192 185.728 264.933 185.626 262.665C185.424 258.12 185.763 253.583 186.573 249.109C187.02 246.639 187.615 244.149 188.335 241.744C188.39 241.559 188.075 241.547 188.014 241.688L188.015 241.687Z" fill="#C18874"/>
<path d="M187.892 279.414C188.31 279.247 188.492 278.877 188.511 278.454C188.53 278.032 188.267 277.675 187.822 277.647C187.476 277.624 187.109 277.8 186.933 278.102C186.777 278.371 186.838 278.605 186.995 278.842C187.014 278.871 187.067 278.99 187.025 278.88C187.003 278.825 186.961 278.661 186.983 278.804C186.981 278.854 186.983 278.849 186.988 278.789C186.997 278.729 186.996 278.723 186.986 278.772C186.936 278.88 186.952 279.038 187 279.143C187.154 279.479 187.574 279.539 187.891 279.413L187.892 279.414Z" fill="#C18874"/>
</g>
<path d="M184.719 144.543L194.455 145.982L185.409 142.004L186.848 132.268L182.869 141.314L173.134 139.875L182.18 143.854L180.741 153.589L184.719 144.543Z" fill="#F4AE7A"/>
<path d="M413.041 338.238C413.097 338.114 413.158 337.976 413.221 337.825C413.406 337.378 413.576 336.914 413.725 336.442C416.576 328.794 418.581 321.388 419.681 314.43C419.755 313.964 419.826 313.489 419.894 313.018C420.391 309.515 420.668 306.055 420.717 302.73C420.722 302.389 420.724 302.05 420.724 301.712C420.725 300.089 420.671 298.467 420.564 296.889C420.545 296.618 420.525 296.349 420.504 296.081C420.461 295.546 420.412 295.009 420.356 294.482C420.331 294.242 420.305 294.003 420.277 293.764C420.141 292.593 419.974 291.43 419.782 290.31C419.739 290.061 419.695 289.813 419.65 289.567C419.415 288.298 419.137 287.02 418.821 285.767C418.733 285.419 418.642 285.068 418.549 284.724C418.275 283.717 417.972 282.711 417.649 281.733C417.228 280.458 416.758 279.188 416.254 277.959C416.165 277.742 416.074 277.526 415.983 277.311C415.024 275.053 413.901 272.832 412.649 270.708C412.277 270.078 411.888 269.446 411.491 268.827C411.099 268.217 410.691 267.608 410.278 267.016C410.274 267.01 410.27 267.005 410.267 267.001L410.266 267C410.141 266.818 410.013 266.637 409.887 266.462L409.836 266.392C409.718 266.227 409.599 266.063 409.482 265.903L409.419 265.818C409.3 265.656 409.181 265.495 409.063 265.34L409.01 265.268C408.879 265.093 408.745 264.92 408.613 264.747C408.61 264.742 408.605 264.737 408.602 264.732C408.524 264.631 408.447 264.532 408.369 264.431C408.227 264.25 408.084 264.07 407.941 263.89C407.727 263.624 407.515 263.362 407.314 263.12L407.219 263.005C407.109 262.872 406.997 262.74 406.882 262.603L406.824 262.534C406.701 262.389 406.577 262.244 406.454 262.101L406.391 262.028C406.391 262.028 406.386 262.022 406.383 262.019C406.282 261.903 406.182 261.787 406.08 261.672C406.02 254.424 405.142 247.6 403.464 241.359C401.554 234.255 398.549 227.681 394.534 221.817C390.451 215.856 385.207 210.46 378.946 205.779C372.682 201.096 365.201 196.983 356.711 193.553C348.221 190.122 339.982 187.886 332.224 186.902C324.468 185.919 316.947 186.158 309.869 187.61C302.908 189.039 296.179 191.682 289.87 195.464C284.328 198.788 278.955 203.088 273.877 208.26C273.725 208.272 273.573 208.285 273.418 208.299L273.049 208.332C272.978 208.339 272.907 208.347 272.836 208.354L272.456 208.392C272.324 208.405 272.192 208.42 272.059 208.435L271.995 208.442C271.31 208.518 270.619 208.608 269.936 208.709L269.931 208.71C269.712 208.742 269.493 208.776 269.279 208.81L269.194 208.823C268.995 208.855 268.797 208.888 268.603 208.921L268.499 208.939C268.3 208.973 268.101 209.009 267.9 209.045L267.821 209.06C267.604 209.1 267.388 209.141 267.171 209.184C267.164 209.185 267.157 209.186 267.149 209.188C266.284 209.358 265.42 209.548 264.582 209.752C264.171 209.852 263.756 209.959 263.349 210.068C243.393 215.409 227.611 231.111 216.443 256.734C216.222 257.176 216.021 257.628 215.844 258.078C215.785 258.228 215.733 258.368 215.687 258.5C215.412 259.154 215.143 259.808 214.887 260.442C214.264 261.983 213.674 263.564 213.129 265.148L213.118 265.175C209.109 276.852 207.604 288.614 208.646 300.135C209.552 310.149 212.381 319.477 216.826 327.11C219.218 331.219 221.962 334.635 224.982 337.263C227.386 339.355 229.87 340.869 232.4 341.783C232.671 342.321 232.951 342.852 233.235 343.369L233.257 343.409C233.39 343.65 233.527 343.893 233.666 344.132L233.686 344.167C236.623 349.245 240.243 353.161 244.157 355.49C247.379 357.408 250.786 358.231 254.064 357.929C256.272 360.535 258.74 362.531 261.323 363.78C265.49 365.795 269.842 365.914 273.908 364.122C274.867 363.699 275.76 363.223 276.583 362.695C276.855 362.811 277.141 362.927 277.424 363.038L277.516 363.075C277.645 363.124 277.773 363.174 277.901 363.222L277.904 363.223C278.037 363.273 278.169 363.323 278.3 363.371L278.379 363.4C278.657 363.501 278.932 363.597 279.198 363.685L279.256 363.705C279.545 363.8 279.832 363.891 280.11 363.972L280.139 363.98L280.153 363.986C282.948 364.804 285.422 364.968 287.66 364.478C288.929 366.385 290.823 367.985 293.401 369.338L293.415 369.343L293.443 369.359C293.698 369.492 293.967 369.627 294.236 369.756L294.298 369.786C294.55 369.907 294.815 370.028 295.086 370.15L295.16 370.182C295.289 370.239 295.418 370.296 295.55 370.351L295.552 370.352C295.678 370.407 295.805 370.459 295.923 370.509L296.025 370.55C296.305 370.668 296.59 370.784 296.866 370.889C297.092 371.84 297.403 372.803 297.8 373.773C299.338 377.54 302.16 380.32 306.001 381.871C306.355 382.015 306.719 382.147 307.091 382.27C309.817 383.166 312.978 383.445 316.378 383.104C318.525 385.599 321.548 387.372 325.198 388.231C329.631 389.275 334.956 388.973 340.601 387.359L340.651 387.344C340.91 387.27 341.172 387.192 341.441 387.109L341.476 387.098C342.04 386.925 342.609 386.737 343.178 386.538C345.633 387.636 348.471 388.274 351.653 388.439C355.65 388.646 359.997 388.096 364.572 386.802C373.071 384.399 381.585 379.654 389.194 373.08C397.947 365.517 405.036 356.009 410.261 344.824L410.266 344.811C410.27 344.803 410.274 344.797 410.277 344.788C410.979 343.286 411.648 341.747 412.269 340.212C412.271 340.205 412.275 340.197 412.277 340.191C412.534 339.554 412.795 338.898 413.05 338.239L413.041 338.238Z" fill="#331546"/>
<mask id="mask3_3_2534" style="mask-type:alpha" maskUnits="userSpaceOnUse" x="291" y="243" width="126" height="139">
<path d="M330.293 279.487L336.536 283.663L329.161 243.147C341.408 248.593 355.83 258.723 362.269 278.506L360.862 251.61C378.326 262.227 397.198 283.932 383.907 330.319C384.432 329.23 384.942 328.093 385.434 326.908C385.473 326.813 385.513 326.717 385.553 326.621C385.557 326.612 385.561 326.602 385.565 326.592C385.694 326.278 385.822 325.959 385.95 325.637C385.968 325.592 385.985 325.545 386.003 325.499C386.112 325.221 386.219 324.943 386.326 324.661C386.353 324.588 386.38 324.515 386.407 324.442C386.504 324.185 386.6 323.927 386.695 323.665C386.728 323.575 386.761 323.482 386.794 323.391C386.882 323.146 386.97 322.899 387.057 322.65C387.094 322.544 387.131 322.438 387.167 322.332C387.249 322.094 387.331 321.855 387.412 321.613C387.451 321.496 387.49 321.378 387.528 321.26C387.606 321.026 387.682 320.791 387.758 320.555C387.799 320.428 387.84 320.3 387.88 320.171C387.953 319.941 388.025 319.708 388.097 319.474C388.138 319.339 388.18 319.203 388.221 319.066C388.29 318.836 388.359 318.606 388.427 318.373C388.469 318.23 388.511 318.086 388.553 317.941C388.619 317.711 388.685 317.481 388.75 317.248C388.793 317.098 388.834 316.948 388.876 316.797C388.94 316.566 389.003 316.334 389.066 316.1C389.108 315.944 389.15 315.789 389.19 315.632C389.252 315.4 389.313 315.164 389.373 314.93C389.414 314.768 389.455 314.608 389.497 314.446C389.556 314.209 389.615 313.97 389.673 313.73C389.714 313.566 389.754 313.403 389.794 313.237C389.852 312.993 389.909 312.747 389.966 312.5C390.004 312.335 390.043 312.173 390.081 312.006C390.139 311.75 390.196 311.49 390.254 311.232C390.29 311.073 390.325 310.914 390.36 310.754C390.421 310.469 390.482 310.181 390.542 309.893C390.57 309.754 390.6 309.618 390.629 309.478C390.717 309.051 390.804 308.62 390.888 308.184L390.89 308.18L393.169 254.5C395.367 256.14 397.571 257.981 399.698 260.048C399.824 260.169 399.948 260.292 400.073 260.415C400.571 260.908 401.065 261.413 401.553 261.932C401.675 262.061 401.797 262.191 401.918 262.323C402.646 263.11 403.36 263.926 404.058 264.772C404.174 264.913 404.289 265.056 404.405 265.198C404.636 265.484 404.864 265.773 405.09 266.065C405.543 266.649 405.988 267.248 406.423 267.861C406.64 268.167 406.855 268.478 407.068 268.791C407.281 269.103 407.491 269.421 407.698 269.741C408.113 270.382 408.518 271.038 408.91 271.708C409.892 273.384 410.801 275.151 411.621 277.016C411.743 277.295 411.863 277.578 411.982 277.861C412.101 278.145 412.218 278.432 412.333 278.721C412.638 279.49 412.929 280.275 413.203 281.076C413.377 281.587 413.545 282.105 413.706 282.63C413.762 282.813 413.818 282.997 413.872 283.182C414.336 284.749 414.738 286.373 415.07 288.059C415.142 288.423 415.209 288.789 415.275 289.158C416.211 294.454 416.473 300.333 415.842 306.864C415.788 307.422 415.728 307.986 415.66 308.554C414.686 316.796 412.309 326.046 408.113 336.431C392.446 375.208 356.729 387.192 344.268 378.982C332.734 383.685 322.633 382.447 319.634 375.588C311.894 377.286 305.622 375.479 303.383 369.996C302.634 368.163 302.332 366.514 302.409 364.983C301.44 364.866 300.384 364.565 299.089 364.042C293.596 361.822 289.857 359.01 292.734 351.888C295.612 344.766 309 332.188 313.563 320.896L330.292 279.489L330.293 279.487Z" fill="black"/>
</mask>
<g mask="url(#mask3_3_2534)">
<path d="M314.292 361.541C305.773 364.489 304.585 366.258 299.091 364.039C293.597 361.819 289.858 359.007 292.736 351.885C295.613 344.763 309.002 332.185 313.564 320.893L330.294 279.486L353.026 294.689L326.307 347.934" fill="#955945"/>
<path d="M336.95 244.141C355.203 253.792 377.852 274.884 366.608 323.021C355.363 371.16 308.393 386.395 302.614 368.943C299.179 358.567 308.874 354.688 321.785 345.723C332.667 338.166 341.904 325.194 342.957 297.531" fill="#6B382C"/>
<path d="M307.285 377.412C306.857 377.239 306.442 377.049 306.041 376.841C303.099 375.319 301.005 372.89 299.986 369.813C298.348 364.867 299.116 360.586 302.334 356.724C305.022 353.496 309.276 350.704 314.201 347.471C316.124 346.209 318.112 344.903 320.206 343.449C326.021 339.411 330.396 334.336 333.578 327.935C337.55 319.946 339.714 309.966 340.191 297.427L345.724 297.638C345.217 310.977 342.866 321.694 338.536 330.4C334.928 337.658 329.965 343.414 323.364 347.998C321.211 349.493 319.192 350.818 317.24 352.1C307.139 358.731 303.124 361.678 305.242 368.074C306.811 372.813 312.352 373.282 315.516 373.139C319.352 372.965 323.751 371.769 328.236 369.676C333.111 367.402 338.009 364.087 342.401 360.09C349.763 353.388 359.47 341.408 363.912 322.394C368.759 301.648 367.573 284.165 360.388 270.434C355.22 260.558 346.9 252.536 335.657 246.59L338.245 241.695C350.497 248.174 359.598 256.979 365.294 267.867C373.112 282.808 374.46 301.578 369.304 323.653C364.538 344.053 354.071 356.954 346.128 364.185C336.637 372.825 325.287 378.24 315.767 378.671C312.555 378.816 309.71 378.394 307.286 377.414L307.285 377.412Z" fill="#6B382C"/>
<path d="M329.161 243.147C348.027 251.537 372.058 271.039 364.11 319.83C356.162 368.621 310.336 387.013 303.384 369.993C299.251 359.875 308.661 355.346 320.933 345.524C331.277 337.246 339.612 323.676 338.783 296.006" fill="#955945"/>
<path d="M367.988 253.989C384.875 265.87 402.441 289.141 385.202 335.472C367.963 381.802 321.681 391.493 318.153 373.45C316.057 362.723 326.164 360.101 340.105 352.839C351.855 346.719 362.658 335.018 367.199 307.711" fill="#6B382C"/>
<path d="M323.424 383.306C322.304 382.853 321.278 382.294 320.351 381.632C317.752 379.772 316.052 377.126 315.438 373.982C314.439 368.869 315.741 364.719 319.421 361.294C322.497 358.432 327.069 356.199 332.363 353.614C334.43 352.605 336.567 351.561 338.827 350.384C345.107 347.114 350.087 342.633 354.054 336.684C359.005 329.261 362.411 319.635 364.47 307.257L369.931 308.165C367.741 321.333 364.055 331.667 358.66 339.757C354.163 346.5 348.512 351.583 341.386 355.295C339.062 356.506 336.891 357.565 334.792 358.59C323.934 363.891 319.579 366.306 320.871 372.919C321.22 374.699 322.104 376.076 323.573 377.128C325.111 378.228 327.283 378.92 329.852 379.13C333.488 379.428 337.796 378.776 342.314 377.245C347.233 375.578 352.32 372.876 357.027 369.43C364.919 363.652 375.764 352.902 382.608 334.505C390.099 314.371 391.498 296.936 386.766 282.683C383.287 272.207 376.434 263.315 366.397 256.252L369.583 251.724C380.612 259.483 388.162 269.313 392.021 280.939C394.449 288.252 395.426 296.355 394.925 305.024C394.369 314.655 391.971 325.222 387.799 336.436C380.475 356.118 368.802 367.671 360.298 373.898C355.068 377.727 349.615 380.617 344.091 382.49C338.864 384.261 333.784 385.007 329.401 384.649C327.188 384.468 325.189 384.017 323.425 383.305L323.424 383.306Z" fill="#6B382C"/>
<path d="M360.863 251.609C378.506 262.334 397.589 284.378 383.488 331.759C369.387 379.138 323.856 391.904 319.13 374.137C316.321 363.574 326.23 360.282 339.654 352.104C350.968 345.211 360.965 332.814 363.669 305.265" fill="#955945"/>
<path d="M392.34 256.553C408.89 268.898 425.803 292.648 407.285 338.482C388.767 384.316 341.226 392.55 338.202 374.416C336.404 363.635 347.457 361.189 361.724 354.59C377.679 347.21 388.881 337.372 394.179 310.201" fill="#6B382C"/>
<path d="M343.677 384.59C342.411 384.079 341.266 383.442 340.247 382.682C337.65 380.743 335.998 378.042 335.47 374.871C334.61 369.718 336.152 365.589 340.182 362.246C343.506 359.49 348.282 357.436 353.811 355.057C355.978 354.126 358.218 353.161 360.56 352.079C369.451 347.966 375.202 343.78 379.79 338.083C382.461 334.764 384.677 330.973 386.563 326.489C388.592 321.668 390.194 316.167 391.46 309.673L396.895 310.733C395.555 317.605 393.844 323.461 391.667 328.637C389.577 333.604 387.103 337.828 384.104 341.555C379.015 347.875 372.472 352.67 362.886 357.104C360.475 358.219 358.2 359.198 355.999 360.144C350.863 362.355 346.427 364.262 343.717 366.51C341.203 368.594 340.396 370.754 340.931 373.962C341.744 378.84 346.932 380.124 349.953 380.455C353.663 380.863 358.081 380.341 362.731 378.944C367.79 377.425 373.041 374.875 377.915 371.573C386.09 366.035 397.375 355.618 404.718 337.445C412.765 317.528 414.647 300.138 410.312 285.758C407.127 275.191 400.522 266.111 390.685 258.772L393.996 254.334C404.806 262.397 412.079 272.432 415.615 284.16C417.839 291.538 418.591 299.665 417.849 308.317C417.024 317.928 414.335 328.426 409.853 339.519C401.989 358.983 389.834 370.186 381.022 376.155C370.459 383.311 358.62 386.975 349.349 385.958C347.256 385.728 345.36 385.271 343.677 384.59V384.59Z" fill="#6B382C"/>
<path d="M393.17 254.499C409.72 266.845 426.633 290.594 408.115 336.428C389.596 382.262 343.063 390.664 340.038 372.53C338.24 361.749 348.416 359.409 362.554 352.537C374.469 346.745 385.592 335.349 390.89 308.178" fill="#955945"/>
<path d="M388.836 307.348L391.116 253.668C407.666 266.013 424.579 289.763 406.06 335.597C405.98 335.795 405.899 335.99 405.817 336.186C400.811 348.144 391.905 347.296 386.785 345.227C382.818 343.625 380.725 340.063 380.56 336.323C380.415 333.045 381.845 329.765 383.512 325.759C385.631 320.597 387.437 314.522 388.836 307.346L388.836 307.348Z" fill="#6B382C"/>
<path d="M385.748 347.797C381.068 345.906 378.02 341.557 377.795 336.447C377.628 332.682 379.08 329.2 380.761 325.167L380.942 324.735C380.945 324.727 380.949 324.718 380.952 324.71C383.052 319.591 384.778 313.64 386.08 307.022L388.351 253.552C388.395 252.527 389.002 251.61 389.929 251.169C390.856 250.729 391.95 250.837 392.773 251.45C403.582 259.512 410.855 269.548 414.392 281.276C416.616 288.654 417.368 296.781 416.625 305.433C415.801 315.044 413.111 325.542 408.629 336.635C408.57 336.781 408.51 336.926 408.451 337.07L408.375 337.257C405.819 343.361 402.034 347.185 397.125 348.625C392.661 349.934 388.474 348.896 385.749 347.795L385.748 347.797ZM386.089 326.772C386.082 326.789 386.075 326.807 386.068 326.825L385.871 327.298C384.387 330.859 383.214 333.672 383.325 336.203C383.456 339.164 385.137 341.578 387.821 342.663C389.384 343.295 392.471 344.219 395.564 343.313C398.792 342.366 401.382 339.612 403.262 335.124L403.331 334.954C403.386 334.823 403.439 334.693 403.493 334.561C411.54 314.643 413.422 297.253 409.088 282.874C406.377 273.882 401.192 265.969 393.647 259.288L391.601 307.466C391.595 307.604 391.579 307.742 391.553 307.878C390.18 314.918 388.343 321.275 386.089 326.772V326.772Z" fill="#6B382C"/>
<path d="M390.89 308.178L393.169 254.498C409.719 266.843 426.632 290.592 408.114 336.426C408.034 336.625 407.953 336.82 407.871 337.016C402.864 348.974 393.959 348.126 388.838 346.057C384.872 344.455 382.779 340.893 382.613 337.152C382.468 333.875 383.899 330.595 385.565 326.589C387.684 321.426 389.49 315.352 390.889 308.176L390.89 308.178Z" fill="#955945"/>
<path d="M409.05 333.992C411.065 329.137 408.92 323.634 404.26 321.699C399.6 319.765 394.188 322.133 392.173 326.987C390.159 331.842 392.303 337.345 396.964 339.279C401.624 341.214 407.035 338.846 409.05 333.992Z" fill="#BF7964"/>
<g opacity="0.25">
<path d="M400.598 327.609C398.236 326.629 396.475 324.84 395.598 322.628C398.102 320.835 401.316 320.486 404.296 321.723C406.658 322.704 408.419 324.492 409.296 326.704C406.792 328.497 403.578 328.847 400.598 327.609Z" fill="#E6E7E8"/>
</g>
<path d="M378.391 337.813C381.75 329.719 379.44 323.234 373.155 320.624C366.86 318.012 361.182 321.301 357.825 329.387C354.466 337.48 355.035 343.614 361.32 346.224C367.615 348.836 375.034 345.898 378.391 337.813V337.813Z" fill="#6B382C"/>
<path d="M356.335 333.34C360.52 325.641 358.898 318.95 352.919 315.699C346.93 312.445 340.438 314.736 336.257 322.427C332.073 330.127 332.225 337.593 339.344 341.288C345.393 344.427 352.156 341.031 356.336 333.339L356.335 333.34Z" fill="#6B382C"/>
<path d="M334.025 326.878C337.075 319.529 335.112 311.731 329.641 309.46C324.169 307.189 317.261 311.306 314.211 318.654C311.162 326.003 313.125 333.801 318.596 336.072C324.068 338.343 330.976 334.226 334.025 326.878Z" fill="#6B382C"/>
<path d="M390.89 308.178L393.169 254.498C397.929 258.047 402.717 262.541 406.685 268.232C405.807 287.518 391.538 311.817 383.909 330.701C384.388 329.402 384.96 328.044 385.566 326.59C387.685 321.428 389.491 315.353 390.89 308.178V308.178Z" fill="#6B382C"/>
</g>
<mask id="mask4_3_2534" style="mask-type:alpha" maskUnits="userSpaceOnUse" x="214" y="211" width="129" height="148">
<path d="M316.018 273.72L308.627 272.387L342.076 248.366C329.484 243.776 312.072 241.043 293.698 250.802L313.393 232.432C293.456 227.937 264.803 230.441 242.14 273.042C242.519 271.893 242.943 270.722 243.412 269.528C243.449 269.432 243.487 269.335 243.525 269.238C243.529 269.229 243.533 269.219 243.537 269.209C243.662 268.893 243.792 268.576 243.924 268.255C243.942 268.21 243.962 268.164 243.981 268.118C244.096 267.843 244.212 267.569 244.331 267.291C244.362 267.22 244.393 267.149 244.424 267.078C244.533 266.826 244.644 266.573 244.757 266.319C244.796 266.231 244.837 266.141 244.877 266.053C244.983 265.815 245.092 265.576 245.202 265.336C245.249 265.235 245.296 265.133 245.344 265.032C245.451 264.804 245.557 264.575 245.667 264.344C245.721 264.233 245.774 264.121 245.829 264.01C245.935 263.787 246.044 263.566 246.153 263.343C246.212 263.223 246.272 263.103 246.332 262.983C246.44 262.766 246.549 262.548 246.66 262.33C246.724 262.204 246.789 262.077 246.854 261.95C246.964 261.737 247.075 261.523 247.188 261.309C247.257 261.176 247.327 261.044 247.397 260.911C247.509 260.699 247.622 260.488 247.737 260.275C247.81 260.138 247.885 260 247.959 259.863C248.074 259.653 248.19 259.442 248.307 259.23C248.386 259.089 248.463 258.948 248.542 258.807C248.659 258.597 248.78 258.385 248.899 258.175C248.982 258.03 249.064 257.886 249.146 257.741C249.268 257.529 249.392 257.317 249.516 257.103C249.602 256.957 249.685 256.812 249.772 256.665C249.9 256.449 250.029 256.232 250.16 256.015C250.247 255.87 250.332 255.726 250.421 255.58C250.557 255.355 250.696 255.129 250.834 254.903C250.919 254.764 251.004 254.625 251.09 254.485C251.244 254.238 251.4 253.988 251.557 253.74C251.633 253.62 251.706 253.501 251.782 253.381C252.016 253.012 252.253 252.642 252.495 252.27L252.497 252.266L288.146 212.068C285.426 211.721 282.562 211.514 279.596 211.523C279.422 211.523 279.246 211.525 279.071 211.527C278.37 211.536 277.664 211.556 276.953 211.59C276.776 211.598 276.597 211.608 276.419 211.618C275.348 211.679 274.268 211.769 273.178 211.894C272.997 211.915 272.815 211.937 272.632 211.959C272.268 212.004 271.903 212.053 271.537 212.106C270.805 212.212 270.069 212.334 269.331 212.472C268.962 212.542 268.592 212.616 268.221 212.693C267.851 212.77 267.479 212.853 267.108 212.939C266.364 213.112 265.617 213.302 264.869 213.512C262.999 214.036 261.117 214.675 259.232 215.447C258.951 215.563 258.668 215.683 258.386 215.804C258.103 215.926 257.819 216.051 257.536 216.179C256.782 216.52 256.027 216.883 255.274 217.269C254.794 217.515 254.313 217.771 253.833 218.037C253.665 218.13 253.497 218.223 253.329 218.319C251.908 219.124 250.49 220.013 249.08 220.995C248.776 221.206 248.473 221.423 248.169 221.643C243.817 224.802 239.545 228.85 235.462 233.986C235.113 234.425 234.765 234.872 234.418 235.328C229.394 241.933 224.678 250.239 220.482 260.623C204.815 299.4 222.184 332.833 236.85 335.582C241.88 346.977 250.006 353.104 256.928 350.253C261.317 356.851 267.084 359.909 272.503 357.52C274.315 356.721 275.678 355.745 276.686 354.59C277.464 355.179 278.433 355.696 279.728 356.219C285.221 358.439 289.864 359.013 292.742 351.891C295.619 344.769 294.725 326.421 299.288 315.129L316.017 273.722L316.018 273.72Z" fill="black"/>
</mask>
<g mask="url(#mask4_3_2534)">
<path d="M270.528 343.86C274.609 351.898 274.235 353.996 279.729 356.216C285.223 358.436 289.866 359.009 292.743 351.888C295.62 344.766 294.727 326.418 299.289 315.125L316.018 273.719L289.105 268.863L271.338 325.725" fill="#955945"/>
<path d="M335.783 243.669C315.949 237.932 285.004 237.371 259.654 279.809C234.303 322.249 257.507 365.835 273.788 357.296C283.466 352.219 279.187 342.694 276.127 327.276C273.549 314.281 275.915 298.532 294.374 277.902" fill="#6B382C"/>
<path d="M264.544 360.144C262.12 359.164 259.779 357.491 257.57 355.156C251.021 348.234 246.619 336.453 245.793 323.645C245.102 312.927 246.534 296.375 257.278 278.39C268.903 258.928 282.912 246.364 298.914 241.046C310.576 237.171 323.239 237.158 336.552 241.008L335.013 246.328C322.797 242.794 311.238 242.784 300.66 246.3C285.953 251.188 272.956 262.939 262.031 281.228C252.018 297.992 250.678 313.353 251.319 323.288C251.701 329.213 252.922 335.001 254.849 340.024C256.622 344.643 258.955 348.561 261.593 351.35C262.763 352.586 264.548 354.172 266.635 355.015C268.434 355.742 270.456 355.917 272.502 354.844C278.469 351.714 277.627 346.805 274.968 335.019C274.454 332.74 273.922 330.385 273.412 327.814C271.848 319.931 272.276 312.343 274.722 304.616C277.656 295.346 283.409 286.003 292.311 276.055L296.437 279.747C288.07 289.099 282.694 297.78 280.002 306.287C277.845 313.102 277.466 319.792 278.844 326.736C279.34 329.236 279.864 331.556 280.37 333.8C281.667 339.547 282.787 344.511 282.479 348.7C282.11 353.713 279.688 357.327 275.075 359.746C272.206 361.252 269.012 361.545 265.838 360.596C265.405 360.466 264.974 360.315 264.546 360.142L264.544 360.144Z" fill="#6B382C"/>
<path d="M342.077 248.366C322.677 241.295 291.844 238.631 263.668 279.249C235.493 319.867 255.68 364.93 272.504 357.517C282.506 353.11 278.883 343.315 276.878 327.725C275.188 314.585 278.619 299.033 298.436 279.704" fill="#955945"/>
<path d="M306.614 229.192C286.213 226.008 257.412 230.546 237.629 275.848C217.845 321.151 244.406 360.272 259.478 349.743C268.437 343.483 262.989 334.576 258.004 319.668C253.804 307.104 254.161 291.182 269.863 268.385" fill="#6B382C"/>
<path d="M248.841 353.172C247.077 352.459 245.326 351.395 243.608 349.988C240.207 347.2 237.071 343.135 234.541 338.23C231.868 333.046 229.953 327.178 228.851 320.791C227.06 310.406 226.688 293.986 235.092 274.74C239.88 263.775 245.497 254.506 251.786 247.193C257.447 240.61 263.779 235.458 270.606 231.885C281.458 226.203 293.717 224.377 307.041 226.456L306.188 231.927C294.06 230.035 282.953 231.671 273.175 236.79C259.869 243.756 248.764 257.269 240.167 276.956C232.312 294.944 232.645 310.211 234.309 319.85C235.301 325.598 237.083 331.076 239.464 335.692C241.65 339.93 244.296 343.393 247.118 345.705C249.112 347.338 251.155 348.349 253.026 348.626C254.813 348.89 256.406 348.514 257.892 347.475C263.415 343.616 261.96 338.854 257.832 327.497C257.034 325.302 256.209 323.033 255.378 320.547C252.83 312.926 252.296 305.344 253.746 297.37C255.485 287.803 260.011 277.809 267.583 266.815L272.143 269.956C265.025 280.289 260.79 289.581 259.193 298.36C257.915 305.394 258.385 312.076 260.629 318.792C261.437 321.208 262.25 323.444 263.036 325.606C265.049 331.142 266.787 335.925 267.011 340.12C267.279 345.14 265.333 349.03 261.063 352.014C258.435 353.849 255.376 354.571 252.214 354.104C251.086 353.937 249.961 353.626 248.84 353.173L248.841 353.172Z" fill="#6B382C"/>
<path d="M313.393 232.43C293.251 227.889 264.211 230.49 241.441 274.368C218.672 318.245 242.556 359.057 258.298 349.559C267.656 343.913 262.815 334.66 258.839 319.453C255.489 306.635 256.91 290.773 274.102 269.077" fill="#955945"/>
<path d="M287.317 214.121C266.836 211.505 238.172 216.84 219.654 262.674C201.136 308.508 229.613 347.456 244.387 336.512C253.169 330.006 246.917 320.568 241.238 305.911C234.887 289.519 233.664 274.659 248.727 251.434" fill="#6B382C"/>
<path d="M233.379 340.027C231.696 339.347 230.014 338.36 228.348 337.07C220.973 331.363 215.002 320.502 212.375 308.018C210.183 297.602 209.221 281.1 217.085 261.636C221.567 250.543 226.924 241.123 233.008 233.636C238.484 226.898 244.67 221.573 251.396 217.811C262.086 211.831 274.289 209.664 287.666 211.374L286.965 216.866C274.79 215.311 263.733 217.255 254.1 222.644C240.992 229.977 230.267 243.794 222.219 263.711C214.878 281.883 215.76 297.216 217.792 306.879C219.005 312.641 221.011 318.122 223.595 322.73C225.969 326.964 228.785 330.409 231.737 332.693C234.14 334.553 238.764 337.232 242.737 334.289C245.35 332.353 246.27 330.239 245.909 326.993C245.521 323.494 243.656 319.04 241.496 313.882C240.571 311.673 239.614 309.388 238.654 306.913C234.839 297.064 233.463 289.068 234.193 280.988C234.624 276.224 235.779 271.465 237.725 266.442C239.754 261.206 242.592 255.805 246.403 249.931L251.048 252.944C247.448 258.496 244.778 263.566 242.889 268.442C241.132 272.977 240.091 277.244 239.707 281.487C239.049 288.772 240.278 295.778 243.818 304.913C244.751 307.32 245.692 309.569 246.604 311.744C248.929 317.296 250.937 322.091 251.414 326.382C251.991 331.587 250.231 335.629 246.034 338.739C243.451 340.652 240.387 341.448 237.172 341.038C235.912 340.877 234.646 340.54 233.38 340.029L233.379 340.027Z" fill="#6B382C"/>
<path d="M288.147 212.067C267.665 209.451 239.002 214.786 220.484 260.62C201.966 306.454 229.602 344.823 244.375 333.88C253.157 327.374 247.463 318.621 242.067 303.857C237.52 291.414 237.435 275.489 252.499 252.264" fill="#955945"/>
<path d="M254.551 253.093L290.2 212.896C269.719 210.28 241.056 215.615 222.538 261.449C222.457 261.647 222.38 261.844 222.303 262.042C217.598 274.121 224.593 279.698 229.713 281.767C233.68 283.37 237.659 282.261 240.377 279.685C242.758 277.429 244.007 274.076 245.592 270.036C247.653 264.851 250.574 259.226 254.552 253.093L254.551 253.093Z" fill="#6B382C"/>
<path d="M228.674 284.336C225.949 283.235 222.218 281.074 219.915 277.03C217.384 272.585 217.319 267.205 219.721 261.039L219.795 260.855C219.852 260.707 219.909 260.56 219.969 260.413C224.451 249.319 229.808 239.9 235.892 232.413C241.369 225.675 247.555 220.35 254.28 216.588C264.969 210.608 277.173 208.441 290.55 210.15C291.568 210.281 292.43 210.963 292.791 211.924C293.152 212.884 292.951 213.967 292.27 214.734L256.761 254.775C253.1 260.44 250.206 265.919 248.163 271.061C248.159 271.069 248.155 271.078 248.152 271.086L247.982 271.523C246.389 275.591 245.014 279.104 242.28 281.697C238.569 285.216 233.355 286.228 228.675 284.337L228.674 284.336ZM224.879 263.053C223.114 267.586 223.063 271.367 224.728 274.291C226.323 277.092 229.185 278.57 230.75 279.202C233.434 280.287 236.32 279.716 238.471 277.678C240.309 275.935 241.419 273.097 242.825 269.505L243.012 269.027C243.019 269.01 243.026 268.992 243.034 268.974C245.233 263.455 248.325 257.606 252.228 251.588C252.304 251.471 252.388 251.361 252.48 251.257L284.475 215.18C274.407 214.744 265.18 216.835 256.984 221.42C243.877 228.752 233.151 242.57 225.104 262.487C225.051 262.62 224.998 262.753 224.946 262.884L224.878 263.052L224.879 263.053Z" fill="#6B382C"/>
<path d="M252.498 252.263L288.147 212.066C267.666 209.45 239.002 214.785 220.484 260.619C220.404 260.817 220.327 261.014 220.249 261.212C215.545 273.291 222.539 278.868 227.66 280.937C231.626 282.539 235.606 281.431 238.324 278.855C240.704 276.598 241.954 273.245 243.538 269.206C245.6 264.02 248.521 258.396 252.499 252.263L252.498 252.263Z" fill="#955945"/>
<path d="M226.464 270.432C231.16 272.278 236.525 269.809 238.448 264.917C240.371 260.025 238.123 254.563 233.427 252.717C228.732 250.871 223.366 253.34 221.443 258.232C219.52 263.124 221.768 268.586 226.464 270.432Z" fill="#BF7964"/>
<g opacity="0.25">
<path d="M232.017 259.498C234.397 260.434 236.906 260.37 239.074 259.388C238.518 256.359 236.449 253.875 233.445 252.695C231.065 251.76 228.556 251.823 226.388 252.805C226.944 255.834 229.014 258.318 232.017 259.498Z" fill="#E6E7E8"/>
</g>
<path d="M240.902 282.264C244.108 274.108 250.275 271.048 256.609 273.536C262.951 276.03 264.751 282.341 261.549 290.489C258.343 298.645 253.673 302.661 247.339 300.173C240.996 297.679 237.7 290.411 240.902 282.264V282.264Z" fill="#6B382C"/>
<path d="M259.876 294.368C262.214 285.923 268.028 282.236 274.588 284.052C281.156 285.871 284.235 292.028 281.899 300.465C279.561 308.911 274.265 314.176 266.578 311.888C260.045 309.944 257.54 302.804 259.876 294.367L259.876 294.368Z" fill="#6B382C"/>
<path d="M285.065 322.571C290.578 324.739 297.407 320.493 300.318 313.088C303.229 305.683 301.119 297.924 295.606 295.756C290.093 293.589 283.264 297.835 280.353 305.24C277.442 312.644 279.552 320.404 285.065 322.571Z" fill="#6B382C"/>
<path d="M252.497 252.263L288.147 212.066C282.257 211.313 275.691 211.22 268.884 212.557C256.118 227.04 249.503 254.431 241.873 273.315C242.431 272.048 242.962 270.673 243.537 269.207C245.598 264.021 248.519 258.397 252.497 252.263V252.263Z" fill="#6B382C"/>
</g>
<path d="M295.959 294.931C302.927 280.333 309.835 274.404 322.05 279.339L322.047 279.337C334.261 284.272 335.11 293.336 329.983 308.678L338.029 310.97C346.047 288.855 344.792 274.785 326.821 267.524L326.824 267.525C308.852 260.264 298.176 269.514 288.581 290.991" fill="#F4AE7A"/>
<path d="M288.58 290.991C298.175 269.514 308.851 260.264 326.823 267.525L326.82 267.524C344.791 274.785 346.046 288.855 338.028 310.97L346.074 313.262C356.981 284.375 355.322 265.297 331.593 255.71L331.596 255.711C307.867 246.124 293.421 258.694 281.2 287.051" fill="#FD84A0"/>
<path d="M281.2 287.05C293.421 258.695 307.867 246.124 331.596 255.711L331.593 255.709C355.322 265.297 356.981 284.374 346.074 313.261L354.121 315.553C367.917 279.894 365.853 255.809 336.366 243.895L336.369 243.897C306.883 231.984 288.668 247.875 273.82 283.11" fill="#CA7EF2"/>
<path d="M273.821 283.109C288.669 247.874 306.884 231.983 336.371 243.896L336.368 243.895C365.853 255.808 367.917 279.892 354.122 315.552L362.168 317.844C378.853 275.412 376.384 246.321 341.141 232.082L341.144 232.083C305.902 217.844 283.917 237.056 266.444 279.169" fill="#73D6FA"/>
<path d="M266.442 279.168C283.915 237.054 305.9 217.844 341.142 232.083L341.139 232.081C376.382 246.32 378.851 275.412 362.166 317.843L370.212 320.135C389.787 270.931 386.914 236.833 345.913 220.267L345.916 220.269C304.916 203.703 279.161 226.235 259.062 275.227" fill="#A7FECD"/>
<path d="M259.061 275.227C279.161 226.235 304.914 203.703 345.915 220.269L345.912 220.267C386.912 236.832 389.786 270.931 370.212 320.135L378.259 322.427C400.722 266.45 397.444 227.345 350.687 208.454L350.69 208.455C303.932 189.563 274.409 215.417 251.683 271.287" fill="#A1EBFF"/>
<path d="M355.461 196.639C302.948 175.423 269.656 204.597 244.304 267.346L241.874 273.315L251.684 271.286C274.41 215.417 303.933 189.563 350.689 208.454C397.445 227.344 400.723 266.45 378.26 322.427L384.299 329.663L386.306 324.717C411.658 261.968 407.976 217.855 355.463 196.639L355.461 196.639Z" fill="#FEBBFF"/>
<path d="M303.339 298.872C307.682 291.153 310.819 288.544 317.277 291.153L317.273 291.152C323.731 293.761 324.176 297.817 321.937 306.386L329.983 308.678C335.111 293.336 334.261 284.273 322.047 279.338L322.05 279.339C309.835 274.404 302.928 280.333 295.959 294.932" fill="#FEFE8E"/>
<path d="M280.978 266.102C275.433 262.31 275.447 262.351 277.908 256.102C274.117 261.647 274.158 261.634 267.908 259.172C273.453 262.964 273.359 262.89 270.897 269.139C274.689 263.594 274.729 263.64 280.978 266.102V266.102Z" fill="white"/>
<path d="M362.726 257.861C356.05 257.117 356.081 257.147 355.321 250.474C354.576 257.15 354.607 257.119 347.933 257.879C354.609 258.623 354.578 258.593 355.339 265.266C356.083 258.591 356.053 258.621 362.726 257.861V257.861Z" fill="white"/>
<path d="M363.967 272.444C364.557 271.023 363.929 269.412 362.565 268.845C361.2 268.279 359.616 268.972 359.027 270.394C358.437 271.815 359.064 273.426 360.429 273.992C361.793 274.558 363.377 273.865 363.967 272.444Z" fill="white"/>
<path d="M363.782 281.016C364.276 279.826 363.75 278.477 362.607 278.002C361.465 277.528 360.138 278.109 359.644 279.299C359.15 280.489 359.676 281.838 360.818 282.313C361.961 282.787 363.288 282.207 363.782 281.016Z" fill="white"/>
<path d="M264.688 283.149C264.549 283.396 264.414 283.65 264.284 283.912L263.927 284.65C263.95 284.097 263.952 283.524 263.928 282.929L264.688 283.149ZM360.172 323.535L360.427 322.757C360.516 322.478 360.595 322.201 360.667 321.927L361.366 322.296C360.936 322.708 360.538 323.121 360.172 323.535Z" fill="white"/>
<mask id="mask5_3_2534" style="mask-type:alpha" maskUnits="userSpaceOnUse" x="239" y="261" width="147" height="83">
<path d="M377.99 309.795C371.567 307.129 363.774 308.801 361.113 317.202C360.756 313.191 358.423 310.273 355.417 309.311C352.202 308.28 348.323 309.507 345.673 313.072C346.587 306.124 343.196 300.205 338.052 298.069C333.488 296.175 328.64 296.439 325.34 299.757C324.992 295.324 322.212 291.847 317.597 290.034C313.078 288.259 308.754 288.846 305.5 291.709C305.416 287.046 302.116 283.5 297.528 281.698C292.345 279.661 285.793 281.563 281.624 287.195C282.195 282.791 280.256 279.214 277.227 277.721C274.397 276.326 270.692 276.804 267.649 279.441C271.571 271.549 267.126 264.933 260.653 262.39C253.187 259.455 246.15 262.418 241.583 274.04C237.019 285.652 240.12 292.611 247.617 295.557C251.8 297.201 256.564 296.778 259.863 293.995C258.542 300.036 261.668 305.069 266.066 307.236C270.798 309.568 277.231 308.243 281.173 302.365C278.135 311.416 280.861 316.91 286.975 319.314C291.182 320.966 296.34 319.356 299.303 315.181C299.222 318.6 301.195 321.541 304.377 322.863C307.612 324.205 311.151 323.48 313.516 320.906C312.739 325.974 315.333 330.724 319.512 332.459C325.579 334.977 331.357 332.919 335.459 324.297C334.211 331.264 337.918 336.686 342.942 338.296C347.611 339.792 353.356 338.343 356.603 333.08C357.042 337.373 360.175 340.988 364.326 342.711C371.767 345.8 378.83 342.948 383.614 331.425C388.401 319.891 385.398 312.872 377.989 309.796L377.99 309.795Z" fill="black"/>
</mask>
<g mask="url(#mask5_3_2534)">
<path d="M406.908 312.229L238.163 244.051L215.832 299.322L384.577 367.5L406.908 312.229Z" fill="#A3E4FC"/>
<path d="M379.77 305.391C373.347 302.724 365.554 304.396 362.893 312.797C362.535 308.786 360.203 305.868 357.197 304.906C353.981 303.876 350.102 305.102 347.453 308.667C348.367 301.719 344.976 295.8 339.832 293.664C335.268 291.77 330.42 292.034 327.12 295.352C326.772 290.919 323.992 287.442 319.377 285.629C314.858 283.854 310.534 284.441 307.279 287.305C307.195 282.641 303.896 279.095 299.308 277.293C294.124 275.256 287.573 277.158 283.404 282.791C283.975 278.386 282.036 274.809 279.007 273.316C276.177 271.921 272.472 272.399 269.429 275.036C273.35 267.144 268.906 260.528 262.433 257.985C254.967 255.05 247.93 258.013 243.362 269.636C238.799 281.248 241.899 288.206 249.397 291.153C253.579 292.796 258.344 292.373 261.642 289.59C260.322 295.631 263.448 300.664 267.846 302.831C272.578 305.163 279.011 303.838 282.953 297.96C279.915 307.011 282.641 312.505 288.755 314.909C292.961 316.562 298.12 314.951 301.083 310.777C301.001 314.195 302.975 317.136 306.156 318.458C309.392 319.801 312.931 319.075 315.296 316.501C314.519 321.569 317.113 326.32 321.291 328.054C327.359 330.573 333.136 328.514 337.238 319.892C335.991 326.859 339.698 332.282 344.722 333.891C349.391 335.387 355.136 333.939 358.383 328.675C358.822 332.969 361.955 336.584 366.106 338.306C373.547 341.395 380.61 338.543 385.393 327.02C390.181 315.486 387.178 308.467 379.768 305.391L379.77 305.391Z" fill="#E0F6FE"/>
<path d="M258.299 268.213C264.772 270.757 269.217 277.373 265.295 285.264C268.338 282.628 272.043 282.149 274.873 283.545C277.903 285.037 279.841 288.614 279.27 293.019C283.439 287.386 289.991 285.484 295.174 287.521C299.762 289.324 303.063 292.87 303.146 297.533C306.4 294.671 310.725 294.082 315.243 295.858C319.858 297.671 322.639 301.147 322.987 305.58C326.287 302.263 331.135 301.999 335.698 303.893C340.842 306.028 344.233 311.948 343.319 318.895C345.969 315.33 349.848 314.104 353.063 315.134C356.069 316.097 358.402 319.015 358.759 323.025C361.42 314.624 369.213 312.952 375.636 315.619C381.768 318.164 384.882 323.411 383.06 331.681C383.886 330.32 384.667 328.769 385.395 327.017C390.182 315.483 387.179 308.464 379.77 305.388C373.346 302.721 365.554 304.393 362.893 312.794C362.535 308.784 360.203 305.866 357.197 304.904C353.981 303.873 350.102 305.099 347.453 308.665C348.367 301.717 344.975 295.797 339.832 293.662C335.268 291.768 330.419 292.032 327.12 295.349C326.772 290.916 323.991 287.44 319.377 285.627C314.858 283.851 310.533 284.439 307.279 287.302C307.195 282.639 303.896 279.093 299.308 277.29C294.124 275.253 287.572 277.156 283.404 282.788C283.975 278.383 282.036 274.807 279.007 273.314C276.176 271.918 272.472 272.397 269.428 275.034C273.35 267.142 268.906 260.526 262.433 257.982C254.966 255.048 247.93 258.011 243.362 269.633C242.668 271.399 242.152 273.057 241.801 274.61C246.236 267.395 252.12 265.785 258.299 268.213V268.213Z" fill="#C1EDFD"/>
</g>
<path d="M292.072 305.149C292.568 303.955 292.041 302.601 290.894 302.126C289.748 301.65 288.417 302.232 287.922 303.427C287.426 304.621 287.953 305.974 289.1 306.45C290.246 306.926 291.577 306.343 292.072 305.149Z" fill="white"/>
<path d="M368.437 327.603C368.933 326.408 368.406 325.055 367.259 324.579C366.113 324.103 364.782 324.686 364.287 325.88C363.791 327.074 364.319 328.428 365.465 328.904C366.611 329.379 367.942 328.797 368.437 327.603Z" fill="white"/>
<path d="M375.621 325.499C376.058 324.444 375.592 323.247 374.579 322.827C373.565 322.406 372.389 322.92 371.951 323.976C371.513 325.031 371.979 326.227 372.993 326.648C374.006 327.068 375.183 326.554 375.621 325.499Z" fill="white"/>
<path d="M252.034 280.941C252.472 279.886 252.005 278.69 250.992 278.269C249.978 277.848 248.802 278.363 248.364 279.418C247.926 280.473 248.392 281.67 249.406 282.09C250.419 282.511 251.596 281.996 252.034 280.941Z" fill="white"/>
</svg>
